<?xml version="1.0" standalone="no"?>
<!DOCTYPE svg PUBLIC "-//W3C//DTD SVG 1.1//EN" "http://www.w3.org/Graphics/SVG/1.1/DTD/svg11.dtd" >
<svg xmlns="http://www.w3.org/2000/svg">
<metadata>
Created by FontPrep 20130207 at Mon Apr 25 18:44:00 2016
 By Ismael Serrano
Copyright 2006 by Profonts, P. Rosenfeld &#38; J. Willrodt
</metadata>
<defs>
<font id="7a5748b1dfd4fa8890cfa8c6aa44d628" horiz-adv-x='1024' >
  <font-face 
    font-family="LaramiePro-Bold"
    font-weight="700"
    font-stretch="normal"
    units-per-em="2048"
    panose-1="2 2 8 0 0 0 0 0 0 0"
    ascent="1638"
    descent="-410"
    x-height="733"
    cap-height="1434"
    bbox="-557 -719.018 2568.04 2016"
    underline-thickness="129"
    underline-position="-129"
    unicode-range="U+0020-FB02"
  />
<missing-glyph horiz-adv-x="307" 
 />
    <glyph glyph-name="fi" unicode="fi" horiz-adv-x="940" 
d="M816 874q34 0 58 -22t23 -54q0 -34 -31 -66q-30 -32 -64 -32t-56 22t-22 58t30 64q28 30 62 30zM258 377l-20 -68l28 -4q14 0 45 10q-10 29 -19 41t-34 21zM137 -281q15 -1 29 17q101 121 151 311q19 66 19 129v29q-80 -10 -98 -10l-41 4q-57 -168 -73 -242t-18 -156
q0 -82 31 -82zM633 155q0 -21 2 -36q7 2 25 2q18 1 34 -17t16 -44t-28 -46q-29 -20 -75 -20t-76 39q-64 84 4 278q-25 -25 -78 -61q2 -23 2 -51q0 -97 -38 -223q-74 -243 -204 -348q-59 -48 -110 -48t-87 55q-35 55 -34 138q0 178 98 471q-29 35 -29 69q0 86 105 154
l268 575l6 17l8 43q4 30 37 54t62 24t47 -18t18 -42q0 -22 -24 -69l-275 -562q49 -23 69 -42t46 -72q90 51 112 71t24 21q3 2 9 8l29 37l59 92q25 43 61 43t54 -19t18 -48t-12 -54l-114 -231q-8 -19 -18 -69t-11 -71z" />
    <glyph glyph-name="c_h" unicode="ch" horiz-adv-x="1019" 
d="M1028 57q0 -59 -89 -59t-87 123q0 16 2 24l33 207l-178 -227q-57 -73 -87 -99t-59 -26t-49 20t-20 58t32 133q-112 -121 -184 -166t-149 -45t-121 53t-43 142q0 233 194 460q127 152 269 152q66 0 106 -45t39 -121q0 -125 -109 -260q-40 -51 -72 -51t-54 22t-22 57
q0 34 30 93q28 59 60 97t32 40q0 14 2 20q2 7 -7 15t-22 8q-66 0 -158 -104q-168 -188 -167 -375q0 -88 49 -88q76 0 237 159q78 78 130 150t150 252t126 248q78 199 95 215t45 16t47 -18q37 -35 2 -112q-17 -40 -122 -249l-204 -459l114 134q76 90 137 90q76 0 76 -97
q0 -25 -4 -34l-31 -148q-18 -86 -20 -149q51 -12 51 -56z" />
    <glyph glyph-name="c_r" unicode="cr" horiz-adv-x="886" 
d="M434 641q-43 0 -96 -74q-88 -119 -138 -241t-50 -184q0 -113 57 -111q106 0 301 260q-51 -25 -75 -25t-44 20t-20 56q0 35 19 74t87 137l-8 49q-6 39 -33 39zM206 -82q-86 0 -131 52q-46 52 -46 134q-1 140 67 302t180 284q78 84 164 84q168 0 168 -227q0 -35 -8 -84
q35 73 37 111t25 66q22 28 62 28t60 -52q27 10 46 10q20 0 38 -18q38 -38 -2 -112q-102 -211 -102 -330q0 -35 6 -44q6 -8 28 -20t23 -45q0 -57 -59 -57t-90 39t-31 105t33 200q-164 -260 -273 -343t-195 -83z" />
    <glyph glyph-name="f_f" unicode="ff" horiz-adv-x="960" 
d="M564 -266q28 0 84 64t94 163q40 101 40 185t-28 114t-103 39q-43 -85 -79 -235t-36 -240t28 -90zM444 309l45 -96q35 61 39 158zM316 248q-26 0 -48 -55q-102 -270 -102 -480q0 -47 24 -47q16 0 48 34q31 34 55 79q86 152 86 295q0 76 -19 125q-18 49 -44 49zM777 424
q25 0 34 2l45 8q18 2 36 -16t17 -42q0 -24 -41 -59q33 -89 33 -171t-40 -192t-107 -200q-111 -152 -222 -151q-55 0 -86 51q-18 35 -32 100q-131 -215 -254 -215q-53 0 -84 49t-31 136q0 211 96 452q17 41 17 53t-21 50l-2 18q0 31 13 45t61 35q8 2 39 72l213 520l4 20
q2 49 37 90q34 41 66 41t49 -18q36 -38 -11 -146l-248 -544q115 51 211 153t146 226l119 262q40 87 68 119t60 32t52 -19t20 -48t-18 -66l-309 -629q45 -18 70 -18z" />
    <glyph glyph-name="f_r" unicode="fr" horiz-adv-x="868" 
d="M639 250l14 -70l41 137zM322 164l172 115q-25 53 -97 65zM211 -246q0 -145 43 -141q31 2 81 50t97 122q100 160 100 315q0 33 -2 60q-135 -94 -262 -135q-39 -113 -48 -159t-9 -112zM186 143l56 146q-66 -55 -70 -123q0 -21 14 -23zM874 606q30 0 50 -17t20 -39t-9 -42
q-9 -18 -74 -125t-87 -248q41 -23 41 -53q1 -30 -25 -48q-26 -20 -64 -20t-71 41q-57 -242 -161 -381q-133 -178 -256 -178q-68 0 -107 60t-39 168t51 299q-98 51 -98 122q0 111 100 217q31 34 58 50t86 39l30 12l166 364q12 31 41 93l11 43q25 119 102 118q33 0 52 -19
t19 -49t-6 -46l-55 -99l-200 -411q72 -23 131 -80q55 63 74 95t67 127t123 7h30z" />
    <glyph glyph-name="k_n" unicode="kn" horiz-adv-x="1280" 
d="M417 74q40 0 124 96l104 127q-127 -92 -278 -94q10 -129 50 -129zM385 324q145 0 252 131q72 88 72 159q1 20 -17 34t-43 16q-102 0 -250 -160q-74 -78 -94 -121q23 -8 32 -18t21 -39q10 -2 27 -2zM551 1098q0 -29 -49 -140l-160 -344q116 98 186 134t138 36t120 -48
q54 -48 50 -97t-5 -66l56 91q35 55 76 55q79 0 79 -82q0 -45 -30 -117l-37 -94l92 92q66 66 104 66t56 -22t18 -46t-6 -47l-59 -197q-33 -109 -33 -140q0 -30 2 -34t16 -8q35 -10 35 -44t-26 -52t-63 -18t-63 32q-26 33 -26 84t12 107l39 157l-172 -235q-61 -115 -125 -115
q-31 0 -49 18t-18 42q0 23 12 59l57 154l-71 -95q-86 -111 -171 -173q-86 -62 -144 -62t-99 47t-57 129l-21 86l-37 -78q-10 -25 -12 -65q-4 -90 -82 -91q-27 1 -45 19q-19 18 -19 51t11 53l325 867l9 26l12 56q8 43 45 76q70 64 112 20q18 -18 17 -47z" />
    <glyph glyph-name="l_l" unicode="ll" horiz-adv-x="641" 
d="M205 557l4 -12q29 27 39 41t39 67q143 268 147 361q0 10 -4 10q-23 4 -117 -188q-43 -86 -77 -176t-31 -103zM575 636q0 -17 7 -18q4 0 6 8t15 34q13 24 32 79q18 55 20 70v20q-12 -2 -46 -89t-34 -104zM553 33q0 -54 -57 -56q-78 0 -119 113q-14 -8 -43 -29
q-88 -61 -156 -61t-110 57t-41 170q0 113 61 332t137 376t123 211q46 54 102 54t88 -34t31 -89q0 -145 -133 -411q-109 -211 -266 -400q-12 -42 -12 -70t11 -55t30 -27t69 43q50 42 99 103l12 49l29 148q16 90 71 249q114 328 195 412q35 37 86 37q78 0 78 -84
q0 -133 -103 -383q-43 -106 -79 -177t-136 -245q-8 -20 -22 -41q-4 -41 -4 -77t51 -93q8 -8 8 -22z" />
    <glyph glyph-name="q_u" unicode="qu" horiz-adv-x="1318" 
d="M481 -426q-1 -53 13 -86t36 -33q53 0 104 89q50 89 50 182q0 135 -90 223l-29 28q-84 -260 -84 -403zM256 53q61 0 152 68q90 68 145 153q49 82 49 233t-70 157q-43 4 -106 -46t-117 -131q-115 -168 -114 -333q0 -45 17 -73t44 -28zM1196 150q0 -16 6 -48q28 8 44 8
t32 -16q16 -18 16 -45t-30 -47t-74 -20q-113 0 -123 122q-68 -82 -116 -114t-97 -33q-49 0 -79 34t-30 71t7 61q-37 -18 -95 -41q150 -146 150 -310t-97 -300t-204 -138q-66 0 -110 65t-44 161q0 190 86 444q-110 -70 -192 -70t-131 58t-49 157t48 225t132 234
q147 184 305 185q96 0 147 -76q52 -76 52 -206t-62 -298q57 25 95 85q37 60 85 190t79 171q32 41 70 41t57 -18q20 -18 20 -47t-10 -51t-63 -102q-52 -82 -97 -202t-45 -165q0 -2 4 -27q55 45 141 164l68 123q10 16 20 45l27 88q12 38 39 62q28 24 56 24t50 -20t21 -43
q0 -24 -15 -52l-47 -123q-47 -125 -47 -206z" />
    <glyph glyph-name="r_r" unicode="rr" horiz-adv-x="815" 
d="M76 2q-23 0 -41 15q-19 15 -19 35t56 89q23 19 85 139t95 205q31 97 38 115t21 33q29 25 56 24q51 0 69 -61q39 20 66 20t45 -22t18 -43q0 -22 -47 -113q-61 -131 -69 -205q37 43 71 109l60 131q49 133 59 158q26 65 80 64q55 -1 74 -72q25 4 42 4t35 -22q33 -41 4 -109
q-74 -174 -92 -230t-18 -100q0 -42 20 -60t19 -47q0 -63 -74 -63q-47 0 -75 31t-28 97t48 214l39 119l-76 -150q-68 -133 -120 -186q-53 -53 -107 -53q-106 0 -105 110q0 53 27 133l35 109l-54 -119q-31 -71 -103 -185t-134 -114z" />
    <glyph glyph-name="s_s" unicode="ss" horiz-adv-x="956" 
d="M332 72q127 0 133 366q-127 -178 -238 -293q18 -15 33 -35t29 -29t43 -9zM87 47q-19 0 -34 14q-14 14 -14 39t45 60q131 94 330 393l104 174q25 41 59 41t53 -16t18 -39t-25 -66q-31 -47 -41 -221v-31q51 3 81 21t74 73q115 152 144 179q29 26 59 26t49 -18q33 -33 4 -98
q-31 -90 -37 -144t-6 -209q0 -274 -180 -274q-82 0 -153 40t-70 87q-1 30 21 52t56 20t78 -40q46 -38 74 -40q49 -4 49 174q0 29 -4 155l-53 -51q-28 -28 -96 -58t-99 -26q-2 0 -4 2q-45 -301 -237 -301q-66 0 -137 39q-37 18 -62 59q-27 -16 -46 -16z" />
    <glyph glyph-name="t_r" unicode="tr" horiz-adv-x="636" 
d="M264 653l-155 -499q69 92 139 250t90 264zM84 -6q-49 0 -82 35t-33 97t19 118l131 395q-31 -6 -59 -6q-28 -1 -51 21t-23 50t17 46t42 20l129 8l82 207q26 65 50 91t57 26t55 -22q40 -39 6 -109l-90 -172l98 12l57 6q57 10 80 10q23 1 45 -21t23 -50q0 -28 -22 -48
q-22 -19 -54 -20h-51l-27 -4l6 -39q29 4 47 4t35 -19q19 -19 19 -45q0 -25 -64 -181t-61 -248v-39q33 -1 53 -17t20 -45t-31 -51q-32 -22 -77 -20q-102 0 -102 139q0 65 43 235l-76 -153q-106 -211 -211 -211z" />
    <glyph glyph-name="t_t" unicode="tt" horiz-adv-x="839" 
d="M438 625l-65 -189q-59 -186 -62 -295q94 104 185 295l88 203zM610 160q0 -14 6 -51q59 -10 60 -60q0 -27 -26 -45t-72 -18q-95 0 -99 166q-71 -96 -107 -124t-85 -28t-74 31t-35 100q-68 -85 -96 -109t-58 -24q-28 0 -44 15t-16 35t50 77q98 117 203 330l68 166
q-49 -5 -77 -5t-50 16t-21 46q0 63 96 67l103 5l53 165q19 75 35 95t51 20t57 -20t21 -55q0 -35 -33 -111l-33 -82l150 10l47 127q40 117 62 143t55 25q33 0 52 -19q19 -20 19 -54t-26 -99l-49 -113l49 2q96 6 96 -69q0 -61 -70 -68l-139 -8l-86 -270q-37 -115 -37 -209z
" />
    <glyph glyph-name="t_h" unicode="th" horiz-adv-x="919" 
d="M315 242q-12 -36 -12 -58t6 -37q2 -4 4 -2h2q11 -1 53 53t60 95l109 248q-72 -3 -129 -13zM55 563q0 63 125 76l135 10l86 246q45 135 113 135q34 0 55 -19q37 -35 2 -118l-98 -219q16 2 47 2t60 -29l125 344l12 37l20 84q8 27 36 47q59 42 107 0q24 -20 23 -56t-39 -112
l-207 -532l64 71q88 102 153 103q32 0 52 -28q20 -29 20 -63t-72 -354q-4 -30 -4 -38t4 -46q66 -14 66 -63q0 -29 -25 -47t-69 -18t-77 34q-32 36 -32 108t17 148l37 164l-93 -121q-10 -12 -46 -98t-90 -151t-109 -64q-41 0 -50 67q-45 -49 -75 -67t-68 -19q-98 0 -98 121
q0 70 12 115l90 303l-114 -18h-19q-31 -4 -53 15t-23 50z" />
    <glyph glyph-name=".notdef" horiz-adv-x="307" 
 />
    <glyph glyph-name=".null" horiz-adv-x="0" 
 />
    <glyph glyph-name="nonmarkingreturn" horiz-adv-x="681" 
 />
    <glyph glyph-name="space" unicode=" " horiz-adv-x="307" 
 />
    <glyph glyph-name="exclam" unicode="!" horiz-adv-x="790" 
d="M250 199q-36 1 -60 25q-25 24 -24 63q0 106 127 366l100 207q13 24 21 48t22 50l31 68l82 203l6 31q12 78 88 77q33 0 57 -20t23 -47q0 -27 -11 -56t-83 -174l-219 -467l-70 -180q-16 -61 -16 -69l10 -56q0 -29 -24 -49t-60 -20zM150 -10q-31 0 -57 22q-25 22 -25 63
t36 73t83 32q48 0 78 -24t30 -58q0 -65 -100 -106q-14 -2 -45 -2z" />
    <glyph glyph-name="quotedbl" unicode="&#x22;" horiz-adv-x="827" 
d="M657 1214q0 -24 -12 -43l-72 -127l-14 -28l-65 -107q-80 -135 -146 -135q-29 0 -47 18t-18 44q0 27 16 49l82 98l53 82q4 10 28 47t40 80t36 62q20 20 51 20q30 0 49 -18t19 -42zM391 1212q0 -24 -10 -45l-152 -262q-80 -133 -147 -133q-29 0 -47 18t-19 44q0 27 19 47
l80 98l53 82q57 95 70 133q14 39 34 57q20 19 52 19t50 -18q17 -16 17 -40z" />
    <glyph glyph-name="numbersign" unicode="#" horiz-adv-x="833" 
d="M307 379h182l150 387h-178zM135 -117v-20q0 -57 -61 -58q-27 -1 -45 13q-31 23 -4 78l8 38l4 21q11 59 31 98l88 221h-64q-58 -2 -118 -2t-101 23t-41 49t15 42t31 17q16 0 57 -12q40 -12 194 -12h66l151 389h-108l-68 -6q-33 0 -92 26q-35 18 -35 46t15 44q16 16 32 15
q16 0 58 -12t75 -13h162l129 332q16 43 30 55q14 13 38 13t38 -12t13 -29q0 -16 -27 -94l-102 -261l164 11l14 -6l123 313q17 43 31 56q14 14 36 14t37 -14t15 -28q0 -15 -27 -94l-104 -264h161q71 0 90 -26t19 -46t-18 -38t-58 -2l-24 8l-48 2h-161l-152 -379h236
q109 0 108 -74q0 -17 -13 -31t-27 -14t-37 8q-24 8 -70 8h-238l-104 -253q-7 -19 -19 -73t-12 -77v-18q0 -59 -61 -60q-25 -1 -44 13t-19 29t11 50l15 58q12 59 30 100l93 231h-183l-102 -245q-8 -21 -20 -73t-11 -75z" />
    <glyph glyph-name="dollar" unicode="$" horiz-adv-x="911" 
d="M432 100q0 -29 -22 -49t-52 -20q-31 1 -50 23t-19 63t24 135q-72 29 -106 55q-68 55 -68 119q0 27 22 47q23 21 51 21t43 -14t40 -66q12 -25 61 -41q121 -40 228 8q-12 29 -90 86l-127 88q-156 111 -156 231t100 203q100 90 254 113l62 145q37 86 92 86q27 0 45 -19
q18 -18 18 -40t-6 -35l-51 -102l-18 -68q63 -31 100 -101t37 -120q0 -6 -2 -12l-15 -66q-10 -35 -30 -70q-27 -39 -40 -49t-41 -10t-52 24t-13 68l21 60q20 61 20 91t-39 60t-84 31q-79 -1 -151 -61t-72 -124t125 -155l121 -86q127 -90 127 -172q0 -123 -256 -141
q-33 -80 -33 -96t2 -23v-17z" />
    <glyph glyph-name="percent" unicode="%" horiz-adv-x="1234" 
d="M692 207q0 -57 28 -97t64 -40q88 0 181 115q92 116 92 229q1 34 -19 66t-52 37t-128 -64q-6 -4 -20 -11q-50 -20 -98 -99t-48 -136zM662 1204q-27 0 -73 -30q-84 -54 -120 -127q-18 -39 -18 -60q1 -72 121 -72t153 21q27 12 27 108q0 160 -90 160zM547 797
q-129 0 -207 86q-31 -59 -31 -113t32 -94q32 -39 82 -39q51 0 111 36t105 91l33 41l-74 -8h-51zM372 2q-32 0 -51 20t-19 56q0 35 50 117l68 102l221 305q-127 -86 -229 -86t-170 72q-66 72 -66 174q0 152 125 287q8 10 23 24q4 12 16 29q52 90 154 153t187 63t141 -70
q56 -71 57 -175q0 -18 -5 -84q66 31 87 46q20 15 55 63t73 49t57 -19t19 -48t-16 -48l-109 -133l-67 -72l-142 -178l-67 -94q129 90 215 90q86 -1 145 -67t60 -160q0 -172 -134 -320t-290 -147q-82 0 -143 72q-60 72 -60 167q0 29 10 95l-59 -90q-49 -74 -49 -89l4 -22
q0 -30 -30 -56q-29 -26 -61 -26z" />
    <glyph glyph-name="ampersand" unicode="&#x26;" horiz-adv-x="1239" 
d="M715 334l30 -64q4 0 13 15l24 45l-37 2zM741 936q0 20 -22 37q-23 16 -57 16t-60 -56q-25 -56 -24 -147v-18q0 -28 8 -61l51 51q104 104 104 178zM199 162q0 -39 50 -67t118 -27q160 0 290 106l-55 109l-86 209l-131 -101q-186 -143 -186 -229zM883 36q0 -26 -22 -45
q-21 -19 -63 -19t-61 53q-6 23 -22 47q-201 -115 -341 -115t-224 58q-82 58 -82 143q0 127 204 291l181 145l18 20q-29 123 -29 207q0 209 95 273q18 14 33 18t92 14q33 0 90 -28q124 -60 123 -165q-1 -106 -130 -239l-75 -76l-52 -43q2 -8 8 -23t13 -40q8 -25 29 -72
q35 29 58 29t44 -8t29 -8l196 24q10 2 41 2q133 0 133 -69q0 -61 -79 -62l-62 12q-15 0 -29 -2l-24 -2q-29 -2 -53 -8q-20 -78 -88 -166q-20 -18 -20 -28t34 -50q35 -42 35 -68z" />
    <glyph glyph-name="quotesingle" unicode="'" horiz-adv-x="827" 
d="M356 1243q32 0 50 -17q18 -16 18 -40t-10 -45l-72 -125l-16 -31l-64 -106q-84 -135 -147 -136q-27 1 -46 19t-19 44t18 48l79 98l54 82q6 10 30 53q25 37 39 78t34 59t52 19z" />
    <glyph glyph-name="parenleft" unicode="(" horiz-adv-x="419" 
d="M348 -82q0 -70 -116 -70t-188 117q-73 117 -73 285q-1 82 13 140t53 170t53 138l68 138l102 176l84 125l86 102q158 195 240 195q27 0 46 -18t19 -46q0 -27 -12 -44t-51 -46q-217 -176 -398 -500l-41 -84q-125 -256 -124 -430q0 -121 41 -209t96 -88l51 6q19 0 35 -17
t16 -40z" />
    <glyph glyph-name="parenright" unicode=")" horiz-adv-x="669" 
d="M469 846v45q0 237 -164 346q-31 23 -39 35t-8 38t20 43t52 17q63 0 141 -94q131 -162 131 -348q0 -229 -100 -465l-53 -123q-156 -313 -340 -451l-13 -16l-10 -16q-29 -43 -104 -43q-29 0 -49 18q-19 18 -19 50t55 63q219 133 379 489l45 113q25 57 51 159t25 140z" />
    <glyph glyph-name="asterisk" unicode="*" horiz-adv-x="827" 
d="M741 833q0 -28 -34 -49q-35 -20 -85 -20t-90 17q-39 17 -104 69l-49 -84l-33 -70q-4 -14 -9 -44t-29 -48t-50 -18t-45 22q-18 22 -18 50q0 30 28 85l56 111l-62 -16q-41 -8 -69 -8t-55 22q-26 23 -25 55q0 49 71 90q43 23 58 23q35 0 57 -41l47 10l-22 33l-37 65l-27 68
q-10 20 -10 48q-1 27 23 53t57 26q55 0 75 -65l25 -74l27 -62l73 117l62 86q68 88 125 88q27 0 45 -18t18 -48t-21 -46t-34 -29l-62 -72l-61 -88l94 27q20 4 45 4t43 -18q19 -18 19 -51q0 -32 -25 -52t-63 -20h-8l-23 2q-12 0 -47 -13l-49 -16q49 -45 90 -45l53 8
q20 0 38 -18t17 -46z" />
    <glyph glyph-name="plus" unicode="+" horiz-adv-x="927" 
d="M774 510q0 -30 -31 -54q-31 -22 -84 -22l-32 2h-37l-111 6l-6 -161l10 -74q0 -23 -20 -41t-55 -18t-62 42q-12 24 -12 52t2 90l6 114l-100 3q-33 1 -61 -7q-27 -8 -49 -8t-44 20t-20 54q0 32 36 60t84 24l95 -4l63 -2l2 94l-14 104q0 27 21 49q23 21 53 21t58 -38t26 -83
l-5 -94l-2 -59l156 -5l74 11q19 0 39 -23t20 -53z" />
    <glyph glyph-name="comma" unicode="," horiz-adv-x="544" 
d="M171 -399q-32 0 -50 17q-34 33 -8 83l73 127l15 29l65 106q78 135 146 135q29 0 47 -17t18 -44t-16 -47l-82 -99l-53 -81q-6 -12 -28 -50t-40 -80q-16 -44 -36 -62t-51 -17z" />
    <glyph glyph-name="hyphen" unicode="-" horiz-adv-x="614" 
d="M547 512q-1 -30 -19 -49q-18 -18 -45 -17l-77 5l-107 -2l-88 -5q-43 0 -71 22t-28 52t26 54q24 22 52 20l86 -8l173 4q41 2 69 -22t29 -54z" />
    <glyph glyph-name="period" unicode="." horiz-adv-x="448" 
d="M179 166q48 0 81 -25t33 -63t-39 -71q-39 -34 -82 -34t-74 28q-30 28 -30 68q0 41 32 69t79 28z" />
    <glyph glyph-name="slash" unicode="/" horiz-adv-x="1660" 
d="M141 -219q-33 0 -53 18t-20 44t32 69l197 266l102 129l340 400l572 602q91 97 119 161t81 64q33 0 57 -20t23 -50q0 -59 -104 -168l-160 -166q-10 -14 -27 -24l-32 -33q-27 -23 -68 -69l-254 -271l-135 -149l-43 -54q-18 -18 -38 -39q-20 -22 -33 -35t-15 -16l-164 -198
l-190 -252q-88 -119 -103 -150q-29 -59 -84 -59z" />
    <glyph glyph-name="zero" unicode="0" horiz-adv-x="1331" 
d="M495 96q124 0 259 68t231 178q137 160 137 354t-161 324q-70 54 -119 56t-121 14q-12 -2 -164 -80q-37 -20 -111 -110t-122 -177q-204 -373 -36 -543q83 -84 207 -84zM734 1245q50 0 64 -4q14 -5 46 -21t111 -42t167 -113q139 -139 140 -375q0 -291 -269 -518
q-106 -90 -235 -141t-248 -51q-190 0 -316 105t-126 269t97 361t257 354q80 80 171 128t141 48z" />
    <glyph glyph-name="one" unicode="1" horiz-adv-x="645" 
d="M225 92q0 -90 -75 -90q-31 0 -54 20q-44 37 2 168l244 740l-104 -74q-66 -45 -100 -45t-52 20t-18 46q0 47 65 69q72 20 177 112t112 142q23 68 78 68q34 0 56 -20t22 -46q0 -27 -33 -117l-316 -938q-4 -12 -4 -55z" />
    <glyph glyph-name="two" unicode="2" horiz-adv-x="1449" 
d="M902 2q-24 0 -32 5t-41 38q-45 47 -185 47t-284 -41l-163 -43q-20 -4 -48 -4t-55 20q-26 20 -26 46q0 27 16 43t53 29t244 83q45 17 196 103q362 207 549 432q129 154 129 248q0 26 -20 58q-57 90 -264 91q-152 0 -314 -61q-162 -62 -268 -156t-106 -182q0 -49 46 -88
t77 -39l165 8q13 2 31 -17t19 -38q0 -72 -146 -72q-145 0 -237 68t-93 182q0 174 252 340q119 78 273 123t314 45q261 0 361 -155q38 -60 37 -114q0 -195 -292 -458q-166 -150 -455 -330q330 -27 332 -150q-1 -27 -21 -44t-44 -17z" />
    <glyph glyph-name="three" unicode="3" horiz-adv-x="1515" 
d="M502 618q0 61 96 66q168 4 292 41t247 119q182 121 182 200q0 60 -86 102t-213 42t-277 -47q-151 -47 -227 -109t-76 -102q0 -23 36 -42q36 -20 88 -26t70 -20t19 -43q0 -29 -19 -46t-50 -18q-131 0 -230 88q-59 53 -59 132t105 162q106 83 276 134t349 51t301 -76
q122 -77 122 -196q0 -96 -86 -178t-305 -195q10 -4 21 -8q137 -50 207 -127q71 -78 71 -164t-100 -176t-266 -143q-164 -53 -364 -53t-379 98t-179 219q0 68 54 125t120 57q23 0 40 -17t17 -45q0 -29 -45 -65t-45 -69q0 -68 131 -125t283 -58q242 0 454 117q143 82 144 156
q0 51 -56 92q-35 27 -107 57t-93 29l-381 -25q-26 0 -54 30t-28 56z" />
    <glyph glyph-name="four" unicode="4" horiz-adv-x="1368" 
d="M219 433q0 -36 41 -36l543 15l307 743l-778 -582q-113 -104 -113 -140zM696 98q0 60 49 193l-444 -15h-10q-31 -2 -84 10t-79 26q-26 13 -43 43t-17 57q0 68 98 174q59 66 106 100l764 578q25 18 69 34t75 16q30 0 62 -28q32 -29 32 -61q0 -68 -51 -181l-279 -630l283 10
q31 0 51 -17t20 -43t-18 -44q-18 -16 -45 -15l-57 2l-265 -6l-16 -4q-53 -123 -53 -168l14 -70q0 -27 -26 -49t-59 -22t-55 24q-22 26 -22 86z" />
    <glyph glyph-name="five" unicode="5" horiz-adv-x="1390" 
d="M580 815q264 0 487 -123q90 -49 142 -129t53 -168q0 -156 -179 -270q-211 -133 -514 -133q-213 0 -357 56t-144 140q0 33 21 57q23 23 51 23t48 -17t24 -44t16 -37q11 -10 51 -23q94 -35 241 -34q383 0 553 170q63 63 64 127q0 116 -152 198t-346 82t-244 -55
q-31 -33 -63 -33t-58 24t-26 50t59 168l164 334q-35 29 -35 57q0 59 84 59q29 0 107 -22q11 -4 85 -4t101 2l348 18q18 2 49 2q113 0 113 -67q0 -29 -23 -46t-57 -18l-49 2h-51l-522 -18l-187 -348q80 20 146 20z" />
    <glyph glyph-name="six" unicode="6" horiz-adv-x="1263" 
d="M695 719q-167 0 -292 -43q-86 -31 -145 -115q-59 -85 -59 -193t82 -185t215 -77q80 0 182 29q226 64 331 205q54 74 54 149q0 104 -100 167q-101 63 -268 63zM680 838q207 0 338 -72q176 -98 176 -281q0 -109 -69 -207q-125 -179 -396 -250q-119 -32 -213 -32
q-244 0 -360 145q-88 109 -88 211t67 260q-12 27 -12 46q0 20 16 38t70 54q154 201 253 302q98 102 242 200t226 98q36 0 60 -22t24 -50t-16 -41q-16 -12 -60 -20q-88 -10 -244 -131t-282 -277q156 29 268 29z" />
    <glyph glyph-name="seven" unicode="7" horiz-adv-x="1249" 
d="M76 1200q0 66 107 68q46 0 76 -12t47 -13q17 0 120 4l469 31q66 4 88 4q197 0 197 -119q0 -66 -82 -153q-18 -20 -340 -312q-152 -150 -326 -346t-184 -235l-8 -13l-7 -24q-6 -86 -86 -86q-33 0 -57 20t-22 47q0 83 194 305t744 773l-633 -25l-142 -4q-67 0 -111 27
t-44 63z" />
    <glyph glyph-name="eight" unicode="8" horiz-adv-x="1443" 
d="M1235 1081q0 57 -82 97t-201 41q-207 -1 -380 -61t-173 -132q0 -51 78 -135t170 -133l334 127q254 96 254 196zM213 293q0 -70 121 -122q122 -52 280 -52t279 50t121 116q0 75 -102 161t-273 158q-105 -44 -167 -74t-160 -103t-99 -134zM1153 283q0 -119 -153 -199
q-154 -80 -390 -80t-390 83t-152 216q0 74 69 150q74 72 144 112l229 131q-152 121 -203 189t-51 147q0 133 190 215t502 82q217 0 322 -67q104 -68 104 -209q0 -109 -80 -165t-188 -97l-305 -121q199 -113 274 -201q78 -96 78 -186z" />
    <glyph glyph-name="nine" unicode="9" horiz-adv-x="1325" 
d="M807 1192q-127 0 -255 -59t-236 -181t-107 -239q0 -87 80 -145t207 -58q242 0 442 139q41 29 55 45q15 16 29 42t31 50q9 10 29 24t28 23t8 56q0 131 -112 237q-72 66 -199 66zM813 1315q180 0 311 -128t131 -306q0 -70 -12 -98t-86 -124q-31 -47 -57 -94l-107 -190
q-111 -211 -106 -275q0 -88 -73 -88t-73 77t33 149l60 131q20 37 22 39l35 69q-129 -49 -206 -66t-171 -18q-211 0 -329 83q-117 82 -117 230t108 289q109 141 283 231t354 89z" />
    <glyph glyph-name="colon" unicode=":" horiz-adv-x="475" 
d="M373 460q0 -38 -35 -69t-81 -31t-79 27t-33 58t19 54q39 51 125 49q37 -1 61 -25q24 -25 23 -63zM168 289q119 0 119 -86q0 -41 -36 -71t-83 -30t-77 27t-30 68t30 67t77 25z" />
    <glyph glyph-name="semicolon" unicode=";" horiz-adv-x="681" 
d="M414 463q42 0 74 -27q32 -26 32 -64t-41 -69t-87 -31t-75 24t-29 60t42 72q41 35 84 35zM141 -287q-29 0 -51 22t-22 48q0 78 118 229l80 105q39 51 94 51q30 0 50 -20t20 -47q0 -28 -18 -46l-78 -75l-58 -76q-47 -61 -63 -121q-16 -70 -72 -70z" />
    <glyph glyph-name="less" unicode="&#x3c;" horiz-adv-x="704" 
d="M674 190q0 -32 -18 -49q-18 -18 -40 -18t-34 6l-523 264q-41 23 -41 61t43 58l523 250q14 6 34 6t38 -18t18 -50t-37 -49l-418 -198l420 -213q35 -18 35 -50z" />
    <glyph glyph-name="equal" unicode="=" horiz-adv-x="927" 
d="M130 238q-20 0 -42 20t-20 53q0 33 36 60q37 27 84 24l95 -4l358 -12l74 10q20 0 40 -22q19 -23 19 -53t-31 -54q-31 -23 -81 -22l-35 2h-37l-232 10l-116 2q-33 0 -62 -7q-30 -7 -50 -7zM70 551q0 33 38 61t82 25l93 -6l360 -13l74 11q21 0 39 -22q18 -21 18 -49
t-24 -52t-56 -27q-55 0 -102 2l-232 11l-116 2l-105 -15q-29 -1 -49 19t-20 53z" />
    <glyph glyph-name="greater" unicode="&#x3e;" horiz-adv-x="704" 
d="M18 700q0 32 18 50t38 18t35 -6l522 -250q43 -20 43 -58t-41 -61l-522 -264q-12 -6 -34 -6t-40 18q-19 18 -19 49t35 50l420 213l-418 198q-37 17 -37 49z" />
    <glyph glyph-name="question" unicode="?" horiz-adv-x="1292" 
d="M414 115v-52q0 -33 -38 -55t-87 -22t-76 20t-27 55t50 73t92 38t64 -16t22 -41zM981 916q0 46 -36 86q-37 42 -117 78t-184 36t-204 -30t-169 -75q-69 -46 -68 -93q0 -20 30 -35q45 -17 45 -49t-18 -49t-59 -17t-87 44t-46 97q0 131 164 225t379 94t357 -90
q142 -91 142 -227q0 -94 -79 -176t-253 -172l-172 -86q-72 -37 -133 -83t-61 -62q0 -6 8 -18t8 -34t-16 -37t-49 -15t-64 32q-31 33 -31 74q0 84 150 174l114 70l261 135q84 45 136 101t52 102z" />
    <glyph glyph-name="at" unicode="@" horiz-adv-x="1181" 
d="M776 1083q0 37 -33 37q-71 0 -155 -116t-84 -213q0 -37 28 -37q18 0 68 37t80 73q76 94 78 137l2 23l8 25q8 14 8 34zM797 797q0 -29 13 -41t54 -13q100 -1 166 89t66 238t-106 246q-106 99 -275 99q-211 0 -353 -142t-141 -351q0 -208 137 -348t340 -140q131 0 244 64
t168 168l8 14l74 -2q-25 -53 -29 -60q-57 -114 -188 -184t-277 -69q-231 1 -391 161t-160 395t164 399t404 163q199 0 325 -120t127 -293q0 -173 -93 -284q-93 -110 -219 -110t-140 121q-115 -109 -203 -109q-36 0 -60 29t-24 74q0 106 88 239q111 172 240 172q44 0 72 -30
t28 -76l-8 -62l10 -26q0 -10 -6 -29l-51 -141q-4 -12 -4 -41z" />
    <glyph glyph-name="A" unicode="A" horiz-adv-x="1173" 
d="M965 1448q-125 0 -271 -121t-258 -309q-110 -188 -178 -386t-68 -304t34 -158q34 -51 87 -51q100 0 240 121q213 186 344 409l100 176q39 59 95 62q-6 18 -6 27t16 66t16 187q0 129 -44 205t-107 76zM1098 141q53 0 53 -58q0 -31 -39 -57q-38 -26 -96 -26t-98 61t-39 140
q0 79 10 151l14 105q-178 -203 -260 -283q-195 -184 -367 -184q-86 0 -147 85t-61 206q0 190 104 456t260 471q279 367 559 367q117 0 188 -109t70 -288v-74q0 -41 -13 -113q-12 -71 -24 -97t-26 -34t-47 -12q4 -24 4 -38t-36 -94t-68 -234q-31 -153 -31 -217t14 -101
t29 -35l4 2z" />
    <glyph glyph-name="B" unicode="B" horiz-adv-x="1540" 
d="M602 172q0 -30 68 -52t179 -22t259 43t233 109q80 59 80 131q0 73 -88 143t-227 115t-279 45q-20 0 -69 -6l-103 -297q-53 -156 -53 -209zM305 809q0 -57 -61 -57t-119 76q-57 77 -57 159q0 178 241 318q319 182 752 182q168 0 309 -42q142 -43 194 -105t52 -123
q0 -254 -543 -439q106 -20 178 -52t158 -97q147 -105 147 -243t-147 -239q-242 -158 -575 -157q-109 0 -207 22q-97 22 -137 51q-40 30 -41 89q0 23 4 32l161 486q-59 -4 -100 -4q-78 0 -78 59q0 27 20 46t52 22l154 18l88 248q16 49 24 98q27 109 100 109q31 0 54 -20
t23 -56q0 -35 -27 -107l-111 -249q301 60 484 166t184 208q0 88 -204 134q-110 26 -222 26q-213 0 -415 -55t-326 -147t-124 -185q0 -51 58 -91t57 -81z" />
    <glyph glyph-name="C" unicode="C" horiz-adv-x="1118" 
d="M1064 692q-48 -104 -114 -104t-67 93q0 50 49 167l74 180q14 31 14 117q0 87 -45 155t-117 68q-143 0 -298 -152t-256 -381q-101 -230 -101 -446q0 -305 254 -305q100 0 184 33q85 33 193 119t184 182q45 57 78 57t51 -17t18 -42q0 -47 -166 -201q-272 -256 -557 -256
q-176 0 -275 111q-99 112 -99 316t97 438t263 427q209 242 459 242q70 0 130 -37q60 -38 94 -106t42 -119l8 -35l25 -27q10 -14 10 -28t-27 -70t-36 -149q-21 -126 -69 -230z" />
    <glyph glyph-name="D" unicode="D" horiz-adv-x="1517" 
d="M719 154q1 -31 103 -31t234 55t240 150q238 211 238 501q0 176 -121 318q-78 90 -172 131t-231 41q-254 0 -478 -127q-145 -84 -236 -200t-91 -216q0 -117 141 -151q60 -15 80 -31t20 -42t-17 -42t-42 -16q-92 0 -201 59q-53 29 -86 85t-32 122q0 137 107 279
q108 142 290 247q260 152 553 152q358 0 543 -264q106 -152 106 -343q0 -328 -250 -559q-131 -126 -300 -198t-295 -72q-252 0 -252 122q0 58 26 134l283 838q12 37 23 80q24 94 93 94q35 0 60 -24t25 -54t-7 -42q-6 -13 -43 -67q-33 -55 -59 -137l-234 -706
q-18 -55 -18 -86z" />
    <glyph glyph-name="E" unicode="E" horiz-adv-x="917" 
d="M324 -14q-252 0 -252 184q-1 131 65 295l47 117q-12 -2 -40 -2t-53 19q-23 19 -23 52t24 45t113 17l33 4l208 469h-120l-58 -2q-34 0 -62 24t-28 55q0 30 20 48t46 18q24 0 39 -8l43 -21q18 2 67 5l86 4l21 4l32 28q14 11 42 11t37 -6l21 -14q12 -7 19 -13l428 12
q193 6 193 -80q0 -27 -20 -45t-44 -18t-55 12l-35 8l-53 4l-453 -16l-217 -465l324 10h12q131 6 131 -77q0 -30 -20 -48t-44 -18t-42 6t-63 6t-68 -2l-283 -12l-111 -320q-12 -38 -12 -86q-1 -48 19 -66t78 -20q58 0 106 9l180 30q78 15 178 15t101 -64q1 -25 -17 -43
t-41 -18l-80 8q-29 0 -120 -16l-201 -33q-41 -6 -98 -6z" />
    <glyph glyph-name="F" unicode="F" horiz-adv-x="839" 
d="M152 2q-36 0 -60 24q-43 42 -8 150l379 1061l-162 -10l-41 -6q-24 -4 -50 -4q-26 -1 -54 21t-27 54q0 32 26 55q25 21 57 21t47 -6t48 -14l201 18q37 35 65 35t54 -19l24 -10l527 21l116 -4q39 -4 66 -26q26 -21 26 -51t-22 -48q-41 -34 -125 -7q-31 10 -55 13h-13
l-542 -23l-223 -542l358 20h18q60 0 96 -23q36 -24 36 -56t-20 -50t-44 -18t-39 8l-55 8h-4l-390 -29l-120 -350q-19 -78 -4 -139q0 -30 -25 -52t-61 -22z" />
    <glyph glyph-name="G" unicode="G" horiz-adv-x="1120" 
d="M829 -193q-33 0 -57 24q-24 23 -24 49t12 61l57 143q-167 -84 -331 -84q-277 0 -376 208q-42 87 -42 183q0 189 98 407t262 394q279 301 571 301q76 0 146 -38q69 -39 105 -103t36 -125l-2 -92l8 -54q0 -4 -4 -16l-80 -180q-66 -150 -135 -150q-33 1 -55 21t-21 59
q0 39 33 92l68 117q43 78 43 178t-46 133t-102 33q-211 0 -434 -227q-160 -162 -258 -366t-98 -352t75 -223q76 -75 210 -75t264 71t192 181l86 147l-432 -30l-182 -15q-41 0 -71 24q-30 25 -30 53q-1 28 19 50t41 21l76 -6l667 38h31q31 -2 51 -21t20 -48q0 -28 -12 -54
q-14 -26 -92 -149l-194 -383q-24 -46 -13 -74l4 -32q1 -35 -25 -63t-59 -28z" />
    <glyph glyph-name="H" unicode="H" horiz-adv-x="1716" 
d="M1126 1054q0 110 -44 172q-44 60 -115 60q-135 0 -304 -119t-309 -317t-139 -358q0 -60 46 -96q45 -36 117 -36t114 14t225 101q12 6 35 6t39 -17t16 -46q18 8 31 8l84 -6l2 2l14 2l149 418q39 102 39 212zM1558 0q-34 0 -57 23q-37 37 -8 157l29 121l-482 -2l-47 -127
q-12 -33 -12 -53l4 -33q4 -24 4 -44q-1 -20 -27 -42t-62 -23q-36 1 -58 21t-21 60q0 40 17 89l45 144q-63 0 -87 13t-30 54l-47 -26q-174 -90 -363 -90q-127 0 -208 66q-80 66 -80 172t63 247t176 281q156 188 336 296q179 108 323 108t219 -99q75 -98 75 -266
q0 -104 -29 -197l-141 -422l471 4q225 647 383 922q14 25 35 45q22 20 30 20t10 -2l9 4q27 0 46 -20t19 -52t-37 -83q-293 -553 -407 -1024q-7 -40 -13 -62t-6 -26l15 -72q0 -34 -26 -58q-27 -24 -61 -24z" />
    <glyph glyph-name="I" unicode="I" horiz-adv-x="1122" 
d="M68 315q0 37 21 63t51 25q30 0 44 -18t29 -72q23 -94 105 -152t198 -59q283 0 477 340q170 299 170 623q0 111 -52 177t-140 67q-145 0 -313 -86t-280 -215q-112 -128 -112 -232t119 -162t311 -59q78 0 128 6t68 6t33 -17t15 -44q0 -78 -176 -78q-342 0 -500 92
q-68 39 -108 106t-41 134q0 150 133 308t338 262q205 103 397 104q63 0 127 -28t104 -75q80 -96 80 -280q0 -252 -97 -499t-268 -410q-171 -162 -401 -162t-364 129q-96 100 -96 206z" />
    <glyph glyph-name="J" unicode="J" horiz-adv-x="1267" 
d="M74 359q0 157 125 269t290 111q70 -1 115 -27t45 -57t-14 -47q-13 -16 -31 -16t-58 13t-67 13q-98 0 -187 -80t-89 -175q0 -96 109 -182q110 -85 242 -85t253 64t209 174q92 121 164 358l155 531l-594 -35l-57 -2q-36 0 -60 18t-24 46t20 44t48 17l84 -6q10 0 20 2
l760 26l65 6q29 0 51 -19t22 -47t-24 -39q-22 -11 -87 -13l-86 -4l-166 -549q-113 -365 -303 -527t-435 -161q-207 0 -351 112t-144 267z" />
    <glyph glyph-name="K" unicode="K" horiz-adv-x="1251" 
d="M594 684h-19l-14 -35l62 27q-20 8 -29 8zM389 584l29 71q-78 -37 -109 -56t-67 -56q59 14 147 41zM169 410q-42 0 -72 24t-29 68q0 102 192 215q76 43 219 90l187 410q31 72 92 71q27 0 46 -20t19 -38t-4 -30l-190 -389l65 -18l92 -39q207 92 344 179t357 263
q-27 28 -27 54t26 44t66 18t65 -21q23 -21 23 -59t-38 -84t-136 -128q-219 -180 -579 -354q69 -98 91 -186t41 -273q19 -186 35 -225t53 -39q36 0 76 38q39 37 65 37t42 -16t17 -39q0 -45 -75 -94t-145 -49q-145 0 -180 227q-6 45 -28 268q-16 115 -41 177t-74 112
l-262 -112l-103 -332l-10 -64v-24q1 -31 -23 -53q-24 -21 -55 -21t-55 22t-23 46v8l5 37l96 321q-123 -22 -165 -22z" />
    <glyph glyph-name="L" unicode="L" horiz-adv-x="1411" 
d="M1602 1071q0 82 -35 130t-94 48q-106 0 -215 -112q-107 -113 -179 -299l-118 -310q253 39 447 203t194 340zM396 307q-78 0 -134 -36t-57 -96q0 -60 48 -102t124 -42q190 0 301 211q-113 43 -159 54q-45 11 -123 11zM1473 1370q115 0 185 -83t71 -214q0 -293 -324 -498
q-229 -143 -498 -172l-16 -41q-11 -20 -17 -38l-16 -33q150 -104 182 -129t72 -70l21 -20q46 -49 11 -89t-88 -2q-26 17 -145 117q-14 10 -75 54l-37 24q-63 -120 -175 -190t-244 -70t-219 70t-87 184t87 182q87 70 230 70t340 -76l29 55q-125 8 -297 76q-176 74 -176 228
q0 53 26 95q27 42 55 42t44 -18q18 -18 18 -38l-20 -90q0 -39 44 -79q44 -41 130 -73t223 -32l121 309q109 281 241 415q133 134 304 134z" />
    <glyph glyph-name="M" unicode="M" horiz-adv-x="2195" 
d="M888 6q-40 0 -64 20t-24 56q0 37 31 129l125 389q39 117 72 289t33 252q0 233 -172 233q-156 0 -316 -99t-263 -253t-103 -303q0 -176 213 -230q78 -23 227 -18l109 2q84 0 84 -59t-76 -60h-121q-274 0 -422 78q-70 37 -111 112q-42 75 -42 158q0 184 121 369
q121 184 313 301t385 117q83 0 157 -40q74 -39 110 -105t36 -195t-76 -430l-65 -252l219 348q115 181 219 295q103 114 159 114t84 -29t28 -95t-56 -258l-84 -301l278 452q86 139 170 140q45 0 72 -30t27 -84t-23 -159l-100 -512q-8 -57 -8 -103t6 -69t33 -55q25 6 47 6
t38 -16q17 -16 17 -43t-27 -45t-71 -19q-82 0 -127 58t-45 146t49 372l61 364l-354 -602q-72 -145 -86 -171t-31 -40q-28 -29 -66 -29t-60 23t-22 65t25 146l193 727q-120 -147 -182 -239t-202 -311q-140 -220 -149 -234q-96 -195 -125 -234q-28 -39 -68 -39z" />
    <glyph glyph-name="N" unicode="N" horiz-adv-x="1583" 
d="M1610 907q0 -41 -37 -155t-80 -312q-43 -199 -43 -255t20 -138q28 4 46 4t35 -16t17 -42t-24 -44q-25 -18 -63 -19q-154 0 -154 217q0 113 26 246t101 422q-82 -82 -143 -164q-84 -121 -92 -131l-287 -448q-55 -84 -115 -84q-33 0 -55 19t-23 50q0 31 11 65q10 34 73 200
l205 520q76 188 76 368q0 139 -133 140q-115 0 -252 -73q-285 -152 -435 -421q-75 -134 -75 -230t59 -148t166 -52t207 41q43 16 65 16t35 -15q14 -15 15 -38q0 -45 -64 -70q-120 -51 -272 -51t-252 81q-100 82 -100 224t113 326q114 184 292 324q254 201 492 200
q119 0 195 -66t75 -171q0 -180 -86 -412l-131 -354l285 383q115 156 215 155q40 1 66 -25t26 -67z" />
    <glyph glyph-name="O" unicode="O" horiz-adv-x="1165" 
d="M563 365q86 0 185 32q38 11 58 11t35 -16t15 -47q0 -30 -31 -46q-82 -45 -250 -45t-266 59q-37 21 -96 74q-8 -51 -8 -104q0 -104 66 -166q67 -61 180 -62q250 0 430 205q119 131 192 307q74 176 74 325t-68 267q-43 72 -121 115t-165 43q-166 0 -325 -132t-222 -321
q176 260 293 336q109 74 221 74q55 0 87 -22t32 -54q-1 -32 -17 -48q-16 -17 -41 -17l-90 14q-125 0 -311 -242q-82 -104 -113 -172t-43 -166q8 -37 20 -57t44 -49q102 -96 235 -96zM82 709q0 182 101 352t267 274t343 105q217 0 350 -148t133 -389q0 -182 -73 -365
t-207 -339t-286 -210t-270 -55q-170 0 -271 100t-101 269q0 121 47 252q-33 66 -33 154z" />
    <glyph glyph-name="P" unicode="P" horiz-adv-x="1265" 
d="M606 -29q-36 0 -62 24q-26 25 -26 67t29 128l71 222q-40 26 -40 58t17 49t33 17t40 -4l196 484q64 158 100 209t76 51t60 -20t20 -47q0 -28 -20 -68l-25 -54l-55 -71l-225 -518h39q156 0 316 76t264 198q103 121 104 236q0 63 -38 121t-104 94q-146 86 -334 86t-376 -74
t-314 -193q-133 -121 -133 -211q0 -61 74 -98t192 -33q78 4 78 -59q0 -68 -114 -68q-168 0 -274 70q-105 70 -105 178q0 188 268 377q152 109 336 168t366 59q260 0 438 -119q177 -120 177 -285t-119 -315t-308 -241q-189 -92 -386 -92q-12 0 -90 4l-72 -219q-4 -10 -10 -54
l12 -55q0 -35 -20 -57t-56 -21z" />
    <glyph glyph-name="Q" unicode="Q" horiz-adv-x="1128" 
d="M864 451q0 -39 -37 -53t-155 -15q-237 0 -428 174q-31 -121 -31 -180q0 -158 109 -217q-10 26 -10 48t33 41q34 19 81 19q102 0 201 -98q117 47 179 92t132 131q209 256 209 576q0 182 -98 307t-242 125q-111 0 -227 -69t-201 -183q-35 -49 -82 -156q147 178 256 241
t244 62q57 0 94 -24t37 -53q0 -30 -18 -48t-40 -18l-86 16q-49 0 -125 -32q-113 -53 -206 -176q-121 -162 -142 -232q35 -113 183 -182q84 -41 217 -41l75 2q78 0 78 -57zM432 4q-166 0 -266 98t-100 263q0 106 75 360q-16 82 -16 133q0 199 166 402q105 124 245 196t283 72
q199 0 328 -158t129 -387t-91 -436t-249 -346q-82 -72 -229 -142q102 -174 258 -174q68 0 116 31q47 31 71 31q24 1 41 -17t17 -45q0 -51 -72 -89t-167 -38q-170 0 -295 113q-45 41 -113 143q-86 -10 -131 -10z" />
    <glyph glyph-name="R" unicode="R" horiz-adv-x="1478" 
d="M729 567l-10 -32l43 2zM553 682q-41 0 -41 -35q0 -45 78 -84l35 94q-31 25 -72 25zM328 645q0 -59 -58 -59q-27 0 -67 24q-135 84 -135 211q0 102 82 213t231 209q289 195 659 195q233 0 386 -106t153 -269q0 -123 -85 -248t-239 -233q-96 -68 -264 -129l170 -238
q47 -66 117 -127t96 -61l56 8q59 0 59 -51q0 -30 -26 -50t-64 -20q-84 0 -162 59q-96 80 -182 191l-195 260q-72 -8 -100 -8t-84 4l-70 -197q-10 -31 -20 -71l-11 -35l-4 -17l2 -45q2 -20 -24 -39q-27 -18 -57 -18t-48 17t-18 46t16 76l105 309q-172 80 -172 211
q0 70 45 112q44 42 112 42t144 -33l94 207l61 176q18 53 72 53q27 0 46 -18q40 -38 -9 -139l-135 -289l-27 -66l127 -143q190 49 338 164q207 162 207 336q0 119 -116 193t-295 75q-179 0 -347 -57t-297 -160q-195 -156 -194 -287q0 -61 80 -118q47 -31 47 -60z" />
    <glyph glyph-name="S" unicode="S" horiz-adv-x="1128" 
d="M287 1010q0 144 131 256t301 177q367 140 550 -16q93 -80 93 -187t-33 -189l-55 -125q-24 -57 -46 -79t-52 -22q-30 -1 -48 19t-18 58t20 81l78 174q18 37 19 70q1 61 -61 108t-156 47t-230 -49t-227 -119q-131 -104 -131 -208q0 -52 44 -114t107 -104l334 -217
q189 -121 189 -247t-167 -224t-390 -98q-283 0 -404 150q-68 86 -67 176q0 53 32 98q33 45 72 45q18 0 36 -15q18 -16 17 -32q0 -16 -13 -46t-13 -54q0 -68 73 -127q96 -82 268 -82t314 80q113 68 113 129q0 40 -37 78t-146 108l-303 197q-84 55 -139 141t-55 162z" />
    <glyph glyph-name="T" unicode="T" horiz-adv-x="927" 
d="M739 84q-1 -41 -23 -67q-22 -25 -56 -25t-58 22q-44 40 2 154l443 1100l-760 -37q-102 -4 -161 20q-58 25 -58 69t50 73t122 29t98 -27q10 -10 10 -49l1127 47l102 4q59 0 98 -25q39 -26 39 -62t-36 -58t-90 -22t-77 52l-305 -14l-458 -1112q-8 -23 -9 -45v-27z" />
    <glyph glyph-name="U" unicode="U" horiz-adv-x="1720" 
d="M1704 37q0 -66 -96 -66t-144 54q-84 90 -84 262q0 23 4 84l19 174q-156 -260 -299 -420q-72 -78 -122 -110q-50 -31 -108 -31t-95 43q-36 43 -36 116q0 131 60 310l143 434q74 225 74 334q0 51 -35 85t-84 33q-153 0 -317 -99t-272 -251t-107 -293q0 -68 42 -108
q43 -40 131 -39q88 0 216 61q44 23 68 23q24 -1 39 -19t15 -49t-42 -55q-145 -80 -330 -80q-125 0 -201 70t-75 182q0 176 128 357t326 298t393 117q106 0 169 -68t63 -180q0 -111 -64 -305l-145 -442q-59 -178 -59 -297q0 -43 30 -43q20 0 41 17q20 17 70 77
q385 475 575 1001q41 115 109 115q32 0 56 -20t24 -46t-53 -133q-98 -203 -179 -548q-10 -48 -23 -150t-13 -162t26 -120q26 -61 57 -62l48 4q25 0 41 -15t16 -40z" />
    <glyph glyph-name="V" unicode="V" horiz-adv-x="1335" 
d="M563 508q1 -68 -143 -68t-248 84t-104 203q0 174 114 357q115 184 291 304t344 119q195 -1 288 -159t93 -494q0 -113 -10 -231l-23 -236l217 406q146 274 292 436t247 162q37 0 65 -25q28 -26 28 -54t-18 -47q-16 -19 -30 -19t-63 11l-2 3q-2 0 -5 -3
q-232 -145 -524 -753q-61 -123 -103 -208q-41 -85 -71 -171q-30 -87 -52 -107t-63 -20q-88 0 -88 92q0 16 2 25l52 409q20 152 20 346q0 281 -76 412q-63 106 -166 107q-131 1 -275 -101t-240 -254t-97 -291q1 -74 63 -129t144 -55l82 8q23 0 41 -18t18 -41z" />
    <glyph glyph-name="W" unicode="W" horiz-adv-x="1986" 
d="M1710 -2q-64 0 -99 39q-36 39 -57 125q-39 160 -43 561q-174 -246 -335 -629q-23 -70 -49 -94q-25 -24 -73 -25q-48 0 -75 25q-27 26 -27 62t13 83q12 47 71 242q133 430 133 645q0 158 -75 250q-76 92 -207 92q-242 0 -449 -200q-96 -94 -166 -222q-137 -249 3 -344
q73 -49 209 -49t253 55q49 25 73 25t40 -19q18 -19 18 -42q0 -51 -73 -80q-139 -54 -327 -54t-294 75t-106 223t139 350q70 102 140 169q71 67 175 125q182 104 364 104t300 -124q117 -125 117 -338q0 -100 -27 -213l-86 -373l209 353q66 113 123 163q30 25 70 25t64 -20
q24 -21 24 -53t-15 -112q-14 -80 -14 -311q23 -276 33 -301t24 -24q14 0 28 17t93 198l231 579q56 142 188 318t240 176q35 0 58 -20t22 -52q0 -45 -66 -55t-141 -111q-147 -204 -204 -360l-244 -623q-85 -231 -203 -231z" />
    <glyph glyph-name="X" unicode="X" horiz-adv-x="1665" 
d="M1575 111q6 0 47 8t49 5q7 -4 23 -24t16 -44t-31 -43t-80 -19q-197 0 -319 213q-84 150 -109 258l-34 145l-420 -551q-27 -49 -42 -62t-44 -13t-51 18t-23 44q0 26 14 48t97 135l434 547l-33 137q-57 233 -145 357t-197 125q-174 0 -344 -207t-170 -443q1 -94 63 -145
t89 -51l174 16q10 0 28 -18t19 -41q0 -74 -199 -74q-131 0 -203 51q-116 74 -116 243t83 340q83 170 245 310t341 140q141 0 259 -132t178 -352l34 -135l394 395q145 145 264 146q40 0 66 -24t26 -56t-23 -56q-23 -26 -49 -26l-55 10q-61 0 -174 -117l-414 -426l27 -131
q45 -215 133 -358t172 -143z" />
    <glyph glyph-name="Y" unicode="Y" horiz-adv-x="1536" 
d="M782 197q0 143 64 329l125 365q51 150 51 287q0 84 -52 131t-147 47q-162 0 -310 -102t-245 -283q-53 -94 -53 -176q0 -113 89 -181t235 -67q82 0 138 20q57 21 77 21t36 -20t17 -42q0 -42 -83 -72t-202 -30q-194 0 -324 98t-130 242t88 301q110 188 288 300t356 112
t269 -83q90 -82 90 -220t-61 -312l-119 -352q-63 -186 -60 -254t7 -78q4 -12 26 -12t42 20q22 20 108 123q150 176 282 427q132 250 162 348t54 124t60 25q36 0 56 -16t20 -50t-28 -127l-244 -804q-98 -424 -98 -442t11 -44q29 -66 -11 -103q-22 -22 -60 -22t-63 25t-25 71
t21 134l170 663q-177 -274 -283 -382t-200 -107q-63 0 -104 46q-40 46 -40 122z" />
    <glyph glyph-name="Z" unicode="Z" horiz-adv-x="1425" 
d="M300 121q-60 0 -73 -10q12 -12 80 -13q68 0 68 13q-15 10 -75 10zM317 240q23 0 211 -23l70 -6q389 285 793 1071q-123 -14 -185 -14t-256 18t-278 18t-150 -16t-65 -45q1 -27 65 -55t64 -77q0 -50 -54 -50t-143 55q-90 55 -90 135q0 166 346 166q82 0 414 -35
q57 -4 90 -4q213 0 350 58q69 26 97 26t57 -22t29 -58q0 -35 -52 -53q-35 -4 -96 -89t-234 -366q-270 -453 -555 -700q188 -76 363 -76q88 0 160 33q18 8 73 62q8 8 31 8q22 -1 44 -21t22 -49q0 -47 -62 -80q-111 -63 -252 -63q-78 0 -131 10t-168 38t-188 46
q-145 -66 -213 -88t-146 -21q-78 0 -145 44q-68 44 -67 108q0 115 251 115z" />
    <glyph glyph-name="bracketleft" unicode="[" horiz-adv-x="731" 
d="M231 -254l77 16q16 0 28 -13q14 -13 14 -32q0 -74 -108 -73h-262l710 1757h211q109 0 109 -74q0 -17 -14 -31t-28 -14q-15 0 -36 8t-70 8h-108l-621 -1552h98z" />
    <glyph glyph-name="backslash" unicode="\" horiz-adv-x="1218" 
d="M-309 1407q0 27 23 47q24 20 57 21q55 -1 83 -63t117 -161l447 -473l340 -397l102 -129l197 -266q33 -45 33 -71t-20 -44t-54 -18q-53 0 -84 59q-8 20 -103 149l-192 254l-162 197q-10 12 -35 37l-41 41q-27 29 -53 65l-262 291q-33 37 -102 101q-8 10 -25 26l-160 166
q-106 111 -106 168z" />
    <glyph glyph-name="bracketright" unicode="]" horiz-adv-x="731" 
d="M639 1327q0 74 109 74h262l-709 -1757h-213q-109 0 -108 73q0 17 13 31t29 14t36 -8t69 -8h109l620 1552h-96q-20 0 -42 -8t-36 -8q-16 0 -30 14q-13 14 -13 31z" />
    <glyph glyph-name="asciicircum" unicode="^" horiz-adv-x="927" 
d="M172 618q-36 0 -56 18q-22 18 -22 42t8 35l324 575q23 43 71 43t68 -45l307 -573q6 -14 7 -31q-4 -63 -72 -64q-45 0 -66 37l-245 467l-265 -467q-23 -37 -59 -37z" />
    <glyph glyph-name="underscore" unicode="_" horiz-adv-x="770" 
d="M702 -340h-634q-27 0 -45 17t-19 44q0 27 18 45t46 17h634q28 -1 46 -19t18 -44t-18 -43t-46 -17z" />
    <glyph glyph-name="grave" unicode="`" horiz-adv-x="509" 
d="M68 1208q0 6 19 39t45 33t50 -29l137 -143q41 -43 51 -58t9 -39q0 -24 -27 -44q-28 -21 -60 -21t-48 35q-2 4 -8 9t-25 32l-123 152q-20 28 -20 34z" />
    <glyph glyph-name="a" unicode="a" horiz-adv-x="727" 
d="M600 580q0 57 -47 59q-47 5 -129 -61t-137 -152q-111 -176 -111 -303q0 -25 13 -42q22 -29 71 -1q20 12 123 86q27 18 83 90t89 129q16 33 16 68l4 34l15 37q10 25 10 56zM705 27q-1 -48 -65 -49t-94 35t-40 120q-178 -170 -316 -170q-59 0 -96 43t-37 115q0 166 138 377
q82 124 181 196t182 72t125 -46t42 -106t-6 -84q-6 -22 -6 -26t9 -18t9 -25q0 -12 -12 -43l-80 -223q-6 -15 -6 -57t5 -51t38 -19q29 -6 29 -41z" />
    <glyph glyph-name="b" unicode="b" horiz-adv-x="722" 
d="M195 240q0 -54 48 -94t111 -40q96 0 176 103q106 139 107 313q0 97 -82 103q-76 6 -218 -146t-142 -239zM772 504q0 -114 -51 -233t-146 -203t-229 -84q-70 0 -106 13t-122 84q-85 71 -91 81q-7 10 -7 46t27 105l256 643q29 78 46 126t37 70t56 22t56 -20t20 -44t-18 -61
l-207 -435q162 135 297 136q82 0 132 -66t50 -180z" />
    <glyph glyph-name="c" unicode="c" horiz-adv-x="698" 
d="M516 762q78 0 148 -71t70 -138t-36 -113q-35 -46 -72 -45q-36 -1 -58 17t-22 36t13 46q12 28 12 54q1 26 -25 50t-66 25q-40 -1 -120 -61t-136 -146t-56 -152t31 -104q31 -39 82 -39q174 0 288 121q37 37 67 37q30 1 49 -17t19 -51t-81 -98q-154 -119 -328 -119
q-131 0 -202 61t-70 174q0 176 164 355q165 178 329 178z" />
    <glyph glyph-name="d" unicode="d" horiz-adv-x="745" 
d="M547 553q0 72 -52 72t-131 -71q-79 -70 -145 -182t-65 -212q0 -39 12 -65q12 -25 34 -25t70 34t95 82q182 195 182 367zM666 98q59 0 59 -55q0 -27 -24 -44q-23 -17 -73 -17q-104 0 -120 190q-8 -6 -14 -14q-62 -88 -150 -144t-157 -57q-69 0 -109 52t-41 136
q0 84 29 181q53 164 190 294t258 130q55 0 125 -64l133 346l8 29q12 68 72 67q36 0 58 -24t22 -48t-4 -36l-191 -451q-55 -127 -81 -247t-26 -146q0 -25 11 -78h25z" />
    <glyph glyph-name="e" unicode="e" horiz-adv-x="546" 
d="M472 762q71 0 112 -44t41 -120q0 -121 -111 -231q-102 -109 -211 -109q-31 0 -102 14q-16 -47 -17 -90q0 -92 88 -92q72 0 128 28t77 29q21 0 37 -18t16 -39q0 -39 -65 -65q-107 -45 -203 -45t-151 53t-55 165t77 236l98 162q33 58 101 112t140 54zM260 406q0 -20 31 -21
q57 0 124 69t66 128q0 34 -28 30q-25 -2 -71 -43t-79 -92l-31 -45q-12 -18 -12 -26z" />
    <glyph glyph-name="f" unicode="f" horiz-adv-x="604" 
d="M295 377l-21 -68l29 -4q14 0 45 10q-10 29 -19 41t-34 21zM174 -281q14 -1 28 17q101 121 152 311q19 66 19 129v29q-80 -10 -99 -10l-41 4q-57 -168 -73 -242t-16 -156t30 -82zM631 541q27 -1 44 -17t17 -37q0 -45 -58 -115t-140 -122q2 -23 2 -51q0 -97 -38 -223
t-92 -213t-112 -135t-110 -48t-87 55t-34 138q0 178 98 471q-29 35 -29 69q0 86 105 154l268 575l6 17l8 43q4 30 37 54t62 24t47 -18t18 -42q0 -22 -25 -69l-274 -562q48 -23 68 -42t47 -72q69 57 107 111t65 55z" />
    <glyph glyph-name="g" unicode="g" horiz-adv-x="636" 
d="M508 532q0 91 -55 97q-41 4 -103 -44t-108 -118q-98 -150 -99 -272q0 -88 56 -89q76 0 176 136q55 72 67 125t33 73t27 36t6 56zM457 758q180 0 180 -243q0 -130 -100 -527q-41 -168 -95 -252t-140 -126q-85 -42 -144 -42q-104 0 -172 72t-68 182q0 51 22 82t58 30
q55 0 55 -61q0 -13 -5 -63t35 -91t85 -41t91 29t75 74q68 104 78 215l14 125q-129 -131 -254 -131q-70 0 -114 50t-44 130q0 213 168 426q125 162 275 162z" />
    <glyph glyph-name="h" unicode="h" horiz-adv-x="620" 
d="M114 -12q-38 0 -60 19t-22 41t38 157l243 655q31 76 49 155t44 107t64 27q76 0 79 -59q0 -23 -51 -142l-269 -641l224 301q63 88 105 88t67 -26t25 -78t-21 -100l-109 -289q-27 -68 -26 -129q0 -2 4 -31q10 2 30 2t35 -16q17 -16 17 -42t-30 -45q-30 -20 -76 -20t-77 33
t-31 101t23 132l107 301l-310 -454q-33 -47 -72 -47z" />
    <glyph glyph-name="i" unicode="i" horiz-adv-x="307" 
d="M358 913q35 1 59 -21q23 -22 23 -56t-30 -65q-30 -32 -64 -32t-56 23q-22 24 -22 58t28 64t62 29zM176 152q0 -18 2 -33q8 2 26 2q18 1 34 -17t16 -44t-30 -46t-76 -20t-74 39q-29 39 -29 115t33 163l100 273q35 92 92 92q27 0 45 -20q35 -38 7 -101l-117 -260
q-29 -57 -29 -143z" />
    <glyph glyph-name="j" unicode="j" horiz-adv-x="315" 
d="M420 944q90 0 90 -76q0 -44 -31 -76t-71 -32t-68 22q-27 22 -27 60q1 102 107 102zM-385 -152h-8q-6 2 -17 2q-20 0 -20 -49t41 -85t98 -35q145 0 275 192q57 86 82 161t75 304q84 365 209 364q23 0 39 -16q17 -16 17 -39t-37 -84q-55 -102 -79 -172t-95 -336
q-57 -211 -199 -351t-299 -140q-104 0 -179 68t-75 154q0 85 47 138t111 53q31 0 53 -20t20 -48q0 -29 -17 -45t-42 -16z" />
    <glyph glyph-name="k" unicode="k" horiz-adv-x="759" 
d="M627 633q-49 0 -121 -55q-61 -53 -182 -204q-13 -16 -21 -24l74 -35q102 12 164 62q117 94 123 221q2 14 -10 24t-27 11zM114 -6q-28 0 -47 20q-39 41 -1 146l366 977q25 63 84 63t59 -70q0 -33 -14 -69l-223 -483q115 106 178 143q62 37 128 37t106 -41t38 -105
q0 -147 -124 -276q-70 -70 -181 -117l133 -92q29 -19 64 -21t52 -24q18 -22 18 -48t-22 -45q-39 -33 -103 -9l-346 202q-8 2 -56 27q-27 -57 -31 -77t-6 -58q-4 -40 -24 -60t-48 -20z" />
    <glyph glyph-name="l" unicode="l" horiz-adv-x="397" 
d="M410 958q-37 -52 -83 -162t-71 -202q39 59 91 181q51 122 63 183zM256 -25q-123 0 -180 150q-31 77 -7 237q43 283 190 591q58 121 106 185t120 64q37 0 62 -28t24 -74q0 -133 -151 -461q-82 -174 -219 -367q-6 -31 -6 -53q-4 -61 38 -100q12 -12 91 -31q25 -6 24 -45
q0 -68 -92 -68z" />
    <glyph glyph-name="m" unicode="m" horiz-adv-x="819" 
d="M86 -12q-66 0 -66 69q0 16 7 33l155 451q33 119 62 164q30 45 64 45t59 -26t4 -83l-60 -143l49 49q46 43 84 43t60 -25t20 -49q0 -24 -4 -65l62 73q41 49 65 67q25 17 56 17t51 -22t20 -51q0 -30 -67 -265q-17 -66 -17 -84t4 -55q66 36 92 4q14 -16 14 -44q0 -29 -38 -57
q-39 -28 -84 -28q-109 0 -109 139q0 37 6 74l25 133l-154 -258q-39 -61 -88 -61q-29 0 -48 19q-19 20 -19 38t8 60l59 210l-196 -325q-29 -47 -76 -47z" />
    <glyph glyph-name="n" unicode="n" horiz-adv-x="671" 
d="M108 0q-32 0 -54 22t-22 60t38 147l114 340l19 76q12 104 94 105q31 0 53 -20t23 -48q0 -27 -41 -131l-31 -76l68 86q61 80 91 104q30 23 64 23t58 -26t24 -64q0 -37 -26 -131l-43 -145q-35 -117 -35 -207q0 -16 2 -33q6 2 10 6q25 35 56 35q32 -1 48 -19t16 -52t-50 -76
q-52 -42 -104 -42t-83 46q-63 92 -2 329l35 123l-211 -319q-37 -77 -57 -95q-22 -18 -54 -18z" />
    <glyph glyph-name="o" unicode="o" horiz-adv-x="659" 
d="M440 635q-92 0 -185 -131t-93 -260q0 -54 31 -96t77 -42t111 41q66 41 106 101q14 20 48 90q33 70 30 78q-10 82 -11 120t-34 68q-33 31 -80 31zM436 776q70 0 128 -36t91 -95q55 -106 56 -158q0 -6 -28 -104q-27 -98 -49 -141t-76 -106q-54 -64 -136 -104t-178 -40
t-158 55q-63 55 -63 152q0 174 112 362q125 215 301 215z" />
    <glyph glyph-name="p" unicode="p" horiz-adv-x="724" 
d="M375 115q63 0 139 102t76 240q0 71 -23 115t-63 44t-101 -61q-61 -62 -116 -164l-103 -190q108 -66 132 -76t59 -10zM-25 -461q-76 0 -75 78q0 72 49 236l246 819q30 106 97 106q34 0 59 -24t11 -64q106 72 184 72t127 -75q48 -75 48 -206q0 -233 -137 -395
q-94 -111 -222 -111q-96 1 -221 91l-86 -357q-4 -29 -4 -31l10 -65q1 -31 -25 -53t-61 -21z" />
    <glyph glyph-name="q" unicode="q" horiz-adv-x="686" 
d="M518 621q-98 0 -204 -152t-105 -293q0 -90 55 -90q80 0 201 104q145 129 145 304q0 127 -92 127zM247 -43q-81 0 -131 55q-50 56 -50 150t49 215t133 223q139 168 301 168q94 0 147 -67q54 -67 54 -183t-74 -315l-174 -463q-16 -43 -16 -54q0 -12 8 -28t8 -40t-27 -46
t-61 -21q-34 -1 -56 19q-23 20 -23 52t25 110l107 303q-139 -78 -220 -78z" />
    <glyph glyph-name="r" unicode="r" horiz-adv-x="569" 
d="M551 55q0 -29 -30 -48t-77 -19q-137 0 -137 155q0 61 15 121l57 217l-31 8l-45 -102q-173 -389 -268 -389q-23 0 -38 17t-15 42t46 79t128 220q84 168 106 251t40 105t50 21q70 0 72 -108q45 55 77 55t49 -20t17 -44t-41 -112q-42 -88 -68 -194t-26 -153q0 -48 19 -48
l45 8q25 -1 40 -17t15 -45z" />
    <glyph glyph-name="s" unicode="s" horiz-adv-x="612" 
d="M126 244q62 0 62 -60q0 -27 -30 -49q57 -41 149 -41q39 0 90 10q-25 39 -65 64l-121 74q-143 88 -143 219q0 154 153 241q115 66 234 66q186 0 186 -199q0 -106 -39 -183t-94 -77q-27 -1 -46 17q-20 18 -20 40t29 80t29 106t-22 71t-54 22q-84 0 -156 -54
q-72 -55 -72 -125t109 -138l105 -66q121 -74 120 -168q0 -119 -211 -119q-137 0 -211 41t-75 115q0 45 30 79q31 34 63 34z" />
    <glyph glyph-name="t" unicode="t" horiz-adv-x="401" 
d="M207 178q0 -82 22 -82q5 0 23 11q47 30 81 -6q17 -17 17 -46t-44 -57t-101 -27q-57 0 -92 48t-35 133q0 178 117 469l-52 -7h-14q-49 0 -79 20t-30 54q0 61 80 57h62l86 5l90 204q33 72 53 94q19 22 53 22t54 -20q20 -19 20 -49t-31 -88l-75 -151l65 4q35 4 62 -18
t27 -51q0 -30 -18 -47q-17 -17 -42 -17l-49 4h-19l-100 -10q-131 -283 -131 -449z" />
    <glyph glyph-name="u" unicode="u" horiz-adv-x="606" 
d="M479 14q-72 0 -106 60q-10 20 -17 61q-109 -145 -213 -145q-47 0 -79 35t-31 101q0 66 37 173l100 283q33 98 64 137q32 39 68 39t58 -20t21 -62q-1 -41 -33 -83t-41 -63l-114 -264q-25 -49 -25 -108q0 -44 51 14q29 30 99 144t77 149l29 94q25 88 98 88q31 0 50 -19
q20 -19 20 -45t-25 -81l-32 -88q-47 -121 -48 -207q0 -7 1 -15t2 -22t2 -27q23 9 41 9t36 -20q19 -20 19 -45t-33 -49t-76 -24z" />
    <glyph glyph-name="v" unicode="v" horiz-adv-x="532" 
d="M614 652q0 -50 -23 -111q-23 -60 -24 -74l4 -37q0 -31 -49 -68q-205 -401 -354 -401q-43 0 -72 39q-28 40 -28 104t16 136t90 321q36 121 98 121q30 0 50 -20q18 -20 18 -50t-40 -112q-40 -80 -76 -199t-36 -164t13 -39h6q10 -2 73 85q62 87 102 167t44 117
q14 160 40 217t69 60q43 2 61 -20t18 -72z" />
    <glyph glyph-name="w" unicode="w" horiz-adv-x="798" 
d="M143 -59q-39 -1 -69 31t-29 90q0 58 45 167l178 439q14 32 42 54t56 22t47 -21q19 -20 19 -46t-39 -95l-178 -371q-35 -70 -35 -87q0 -16 10 -20t36 24q24 28 38 56l103 213q35 82 51 96q16 15 45 15t48 -20t19 -34q0 -16 -4 -48l-14 -97q-6 -37 -6 -97t20 -91
q4 -6 21 -12q29 -6 90 140t61 224q0 21 -7 65t-7 85q0 80 70 79q84 0 84 -131q0 -164 -82 -374q-42 -103 -102 -161t-126 -59q-100 0 -145 170l-53 -77q-96 -129 -187 -129z" />
    <glyph glyph-name="x" unicode="x" horiz-adv-x="653" 
d="M471 -41q-123 0 -182 188l-115 -161q-18 -27 -50 -27t-50 18q-40 40 -2 91l190 266q2 16 2 57t-18 127q-35 -35 -66 -35q-31 1 -48 19t-17 48t28 60l43 54q31 35 74 34q70 0 96 -51t35 -166l189 197q53 59 89 59q70 0 70 -65q0 -27 -9 -39t-55 -46t-69 -63l-215 -233
q25 -141 47 -175t38 -34t38 15q49 34 82 -2q16 -17 16 -48t-43 -59t-98 -29z" />
    <glyph glyph-name="y" unicode="y" horiz-adv-x="657" 
d="M53 92q0 154 133 432q58 123 94 166t72 43t57 -23q19 -24 19 -61q0 -68 -51 -94q-25 -11 -36 -27t-40 -71q-121 -236 -121 -357q0 -41 27 -41q51 1 119 73t132 183q65 111 82 169t34 78q18 20 48 20t47 -18t17 -47q0 -28 -13 -84q-13 -55 -29 -157t-32 -155
q-14 -53 -54 -209t-150 -294q-110 -136 -226 -136q-35 0 -81 20t-72 49q-88 92 -88 211q0 39 28 68q29 29 63 29q34 1 53 -19t19 -46t-14 -45t-14 -30t16 -51q32 -66 96 -66t156 136q32 50 58 120t79 263q-47 -51 -61 -66q-117 -117 -232 -116q-59 0 -97 43t-38 110z" />
    <glyph glyph-name="z" unicode="z" horiz-adv-x="608" 
d="M709 616q0 -53 -41 -104q-8 -10 -103 -92l-336 -287l181 4l34 2q127 0 127 -88q1 -35 -21 -57t-52 -21q-30 0 -76 29l-256 -14q-53 0 -88 26t-35 66q0 76 131 194l358 318l-241 -19q-111 -8 -133 5q-49 25 -49 77q0 27 16 49q15 22 31 24q16 3 34 3l95 4l264 2
q72 0 116 -34t44 -87z" />
    <glyph glyph-name="braceleft" unicode="{" horiz-adv-x="382" 
d="M41 320q0 56 -13 82t-69 73q-33 31 -33 82q4 25 19 43q59 27 80 35q92 37 125 250l49 280q23 125 92 192q70 67 182 66q70 0 70 -59q1 -27 -11 -34t-92 -21q-90 -23 -110 -150l-56 -311q-18 -106 -41 -152t-73 -96q-50 -49 -86 -72l16 -16q80 -78 80 -207q0 -53 -8 -100
l-53 -303q-7 -33 -7 -74t39 -61q12 -6 78 -13q43 -6 39 -59t-92 -53t-141 49t-54 135q1 45 9 80l47 274q14 84 14 140z" />
    <glyph glyph-name="bar" unicode="|" horiz-adv-x="942" 
d="M532 1511v-1634q0 -27 -17 -45t-44 -18t-44 18t-17 45v1634q0 27 18 45t44 18t43 -18t17 -45z" />
    <glyph glyph-name="braceright" unicode="}" horiz-adv-x="382" 
d="M424 745q0 -56 13 -82t69 -73q33 -31 33 -69t-19 -56q-2 -2 -80 -35q-90 -37 -125 -250l-49 -280q-27 -152 -123 -215q-69 -45 -145 -45t-76 59q0 27 12 35t91 22q90 20 112 150l53 309q18 105 41 153t73 96t87 73l-16 16q-80 78 -80 207q0 55 8 98l53 303q6 37 6 77
t-38 60q-12 6 -78 13q-39 4 -39 53q0 59 90 59t143 -49t54 -135q-1 -45 -9 -80l-47 -274q-14 -84 -14 -140z" />
    <glyph glyph-name="asciitilde" unicode="~" horiz-adv-x="1103" 
d="M84 334q-32 0 -50 18q-20 18 -20 45t21 54q129 180 311 180q106 0 189 -53q23 -12 82 -66t149 -55q143 0 188 129q29 41 61 41q32 -1 51 -21t16 -47t-7 -35l2 2q-91 -206 -329 -206q-122 0 -248 110q-72 63 -154 64q-113 0 -203 -125q-27 -35 -59 -35z" />
    <glyph glyph-name="exclamdown" unicode="&#xa1;" horiz-adv-x="790" 
d="M625 682q0 -104 -127 -369l-101 -207q-2 -4 -20 -47l-23 -51q-10 -20 -30 -65l-82 -203l-6 -31q-16 -80 -89 -80q-33 0 -57 22q-39 37 -10 102q12 28 82 173l219 469l70 178q16 66 16 70l-10 55q0 29 23 51q24 21 59 21t61 -26t25 -62zM639 977q31 0 57 -23
q26 -22 27 -62q0 -40 -36 -73t-83 -33t-79 25t-31 57q0 68 102 107q12 2 43 2z" />
    <glyph glyph-name="cent" unicode="&#xa2;" horiz-adv-x="856" 
d="M786 827q0 -67 -84 -67q-44 0 -67 41l-12 22q-16 23 -50 23h-30q-47 2 -76 -8t-66 -43q-69 -59 -109 -137t-40 -152q0 -139 170 -139q147 0 223 90q33 41 67 41t56 -20t20 -46q0 -57 -122 -123q-82 -41 -130 -49t-55 -27q-29 -53 -32 -120q0 -7 8 -21t8 -41t-23 -47
q-22 -20 -56 -20t-56 26t-23 65q0 38 10 79l25 96q-223 59 -223 260q0 139 94 270q49 72 107 116t167 95l45 164q31 105 101 105q33 0 53 -22t20 -50t-6 -37q-6 -10 -38 -47l-35 -115l18 -22q7 -7 29 -17t67 -51t45 -72z" />
    <glyph glyph-name="sterling" unicode="&#xa3;" horiz-adv-x="1404" 
d="M264 301q-60 0 -59 -37q0 -43 61 -89t119 -46q43 0 82 82l14 31l-114 43q-43 16 -103 16zM389 4q-123 0 -222 90t-99 199q0 59 50 99t135 40t144 -22l129 -52l37 129l-123 -2q-82 -4 -164 39q-47 29 -47 73t38 71t91 26q78 0 78 -59q0 -12 -2 -21q49 -8 79 -8t79 6
l113 361q29 97 132 201t201 104t156 -72t59 -190q0 -118 -61 -248q-35 -74 -86 -74q-27 0 -44 18q-18 18 -18 42q0 22 7 33q6 11 43 57q10 12 21 70t11 108t-22 88q-24 39 -64 39t-108 -60t-88 -120l-107 -326l107 16h43q59 -3 94 -27t35 -57t-18 -50t-44 -17q-27 0 -45 16
q-50 26 -116 2l-91 -28l-57 -205l121 -82q127 -86 223 -86q55 0 87 31q32 30 58 30t43 -18t17 -43q0 -47 -62 -82t-169 -35t-222 72l-143 90q-4 -10 -16 -31q-70 -135 -193 -135z" />
    <glyph glyph-name="currency" unicode="&#xa4;" horiz-adv-x="604" 
d="M310 877q-60 0 -102 -42q-42 -41 -42 -103t42 -103t103 -41t104 43q42 43 42 102t-43 102q-44 42 -104 42zM84 727q0 55 29 119q-34 25 -54 61q-20 37 -20 62q0 57 51 57q20 0 32 -11t32 -42q18 -31 32 -51q64 36 118 36t112 -24q57 57 111 57t55 -51q0 -23 -12 -35
t-36 -25t-34 -22q39 -64 39 -126t-39 -126l12 -14q45 -43 45 -73t-14 -49t-40 -19t-41 32t-36 54q-57 -31 -121 -31t-127 41l-28 -29q-45 -45 -75 -45t-49 14q-20 14 -20 40t39 45t66 53q-27 47 -27 102z" />
    <glyph glyph-name="yen" unicode="&#xa5;" horiz-adv-x="1536" 
d="M1114 322h-184q-10 -52 -8 -102t9 -52t17 -2q35 2 84 59q2 2 28 33t54 64zM1274 547h-283l-12 -37q-10 -29 -18 -59h253q4 14 46 71q10 17 14 25zM1393 453l16 65q-37 -55 -43 -67zM416 573l105 21q13 0 29 -20t17 -49q0 -27 -48 -53t-107 -26q-136 0 -240 98t-104 230
q0 133 88 291q110 188 288 300t356 112t269 -83q90 -82 90 -220t-61 -312l-64 -186h316q172 322 206 440q23 68 46 92t61 25q74 0 74 -59q0 -41 -29 -134l-111 -364h43l25 2q6 2 44 2q97 0 95 -72q0 -35 -32 -48t-117 -13h-96l-29 -94h112l39 4q125 0 125 -72q0 -35 -32 -48
t-117 -13h-166l-27 -88q-98 -424 -98 -442t11 -44q29 -66 -11 -103q-22 -22 -60 -22t-63 25q-25 24 -25 70t21 135l121 469h-82q-24 -44 -136 -170t-216 -125q-66 0 -105 47q-39 46 -39 112t13 134h-33q-88 0 -119 12t-31 48t33 58q31 12 92 13h17q12 -2 22 -2h47q0 2 29 94
h-96q-143 -6 -144 61q0 42 28 56t112 14h145l74 215q51 150 51 287q0 86 -51 132t-148 46q-162 0 -310 -102t-245 -281q-53 -98 -53 -182t60 -151t141 -67z" />
    <glyph glyph-name="brokenbar" unicode="&#xa6;" horiz-adv-x="942" 
d="M530 1507v-606q0 -29 -16 -46t-45 -17t-45 17t-16 46v606q0 27 17 45t44 18t44 -18t17 -45zM532 512v-635q0 -27 -17 -45t-44 -18t-44 18t-17 45v635q0 27 18 45t44 18t43 -18t17 -45z" />
    <glyph glyph-name="section" unicode="&#xa7;" horiz-adv-x="1128" 
d="M373 693q-1 -33 31 -67t128 -100l254 -176q43 43 43 75t-32 67q-33 35 -127 100l-256 176q-41 -41 -41 -75zM942 420q0 -74 -74 -141q96 -111 97 -211q-1 -134 -113 -236t-262 -162t-274 -61q-124 0 -206 73t-81 173q0 100 28 174l47 114q41 94 89 95q23 0 39 -18t16 -54
q0 -35 -19 -74l-67 -160q-16 -39 -17 -65q-1 -55 55 -99t136 -44t201 46t196 109q115 92 115 193q0 45 -38 102t-93 94l-293 201q-164 113 -164 229q0 70 72 142q-96 111 -96 211q0 133 113 235t261 162t274 59t208 -73t82 -174t-29 -170l-49 -115q-20 -51 -40 -73t-45 -22
q-55 1 -57 64q0 39 17 82l69 160q16 39 17 63q-1 57 -55 101t-136 43q-82 0 -201 -44q-118 -44 -198 -110q-115 -98 -115 -192q0 -45 39 -103t94 -96l291 -199q166 -113 166 -229z" />
    <glyph glyph-name="dieresis" unicode="&#xa8;" horiz-adv-x="813" 
d="M642 1161q46 1 74 -27t28 -72t-36 -81q-34 -37 -81 -37t-76 27t-29 73t37 81q37 36 83 36zM334 1174q43 0 73 -30q53 -53 13 -122q-40 -72 -113 -72q-45 0 -69 32t-23 75q0 43 38 80t81 37z" />
    <glyph glyph-name="copyright" unicode="&#xa9;" horiz-adv-x="1157" 
d="M562 1372q-200 0 -341 -141t-141 -342t142 -342t343 -141t341 143t140 343t-142 340t-342 140zM838 1135q20 -22 20 -36q0 -15 -12 -40l-10 -27l-9 -45q-12 -70 -36 -125q-27 -53 -68 -53q-47 0 -47 49q-1 34 24 100l37 91q6 13 6 51t-18 68t-49 30q-104 0 -208 -159
t-106 -307q0 -148 113 -148q139 0 270 161q29 35 51 35t34 -13q14 -13 14 -37t-88 -105q-141 -131 -287 -131q-94 0 -147 59q-54 59 -54 166t49 227t134 217q109 125 241 125q84 0 121 -74q25 -53 25 -69v-10zM-8 889q0 237 168 405t407 168q238 0 404 -170t166 -405
t-170 -403t-405 -167q-234 0 -402 167t-168 405z" />
    <glyph glyph-name="ordfeminine" unicode="&#xaa;" horiz-adv-x="479" 
d="M121 809q0 -43 31 -39q18 2 114 70q18 14 73 84t58 116l2 25l11 27q8 25 8 38q0 35 -25 39h-10q-84 -10 -173 -132t-89 -228zM440 820q0 -28 4 -34t27 -14q18 -8 18 -31q0 -33 -45 -33t-65 26q-20 24 -29 83q-121 -119 -221 -119q-41 0 -67 31t-25 80q0 117 96 264
q125 186 262 187q51 0 80 -31t29 -77t-4 -57t-4 -17t6 -11q6 -19 6 -27t-8 -24l-56 -156q-4 -12 -4 -40zM362 645q118 0 118 -52q-1 -52 -42 -52l-80 4l-127 -6l-32 -7q-33 -4 -56 -4q-96 0 -96 58q1 20 21 38t45 15l67 -6l76 4l41 4z" />
    <glyph glyph-name="guillemotleft" unicode="&#xab;" horiz-adv-x="653" 
d="M278 803q18 -1 34 -19q40 -45 -17 -90l-156 -139l-8 -10q0 -4 19 -23l143 -127q33 -29 33 -49t-47 -65l-31 16l-178 149q-104 78 -37 156l188 166q39 35 57 35zM586 351q0 -21 -47 -66l-29 16l-180 152q-41 33 -52 49q-12 16 -12 49t29 55l186 166q41 37 60 35
q19 -3 33 -19q37 -42 -17 -90l-158 -137l-6 -12q0 -6 19 -21l141 -129q33 -27 33 -48z" />
    <glyph glyph-name="logicalnot" unicode="&#xac;" horiz-adv-x="704" 
d="M25 385q0 18 16 39q15 14 25 16t59 2h350q121 0 145 -2t38 -18t16 -64v-272q0 -25 -18 -44t-44 -19q-25 0 -43 19t-18 46v231l-430 3q-96 0 -96 63z" />
    <glyph glyph-name="registered" unicode="&#xae;" horiz-adv-x="1157" 
d="M487 834l-6 -17l21 2zM406 889q-23 0 -23 -20t37 -38l16 46q-18 12 -30 12zM561 1374q-197 0 -339 -143t-142 -343t142 -341t343 -141t342 144t141 342t-144 340q-146 142 -343 142zM-8 889q0 237 168 405t407 168q238 0 404 -170t166 -405t-170 -403t-405 -167
q-234 0 -402 167t-168 405zM426 616v-26q0 -16 -15 -28t-36 -13q-45 0 -45 45q0 12 8 39l45 135q-63 33 -76 86q-10 -27 -43 -27q-32 0 -68 41t-36 86q0 113 149 209q150 96 326 97q117 0 193 -54t77 -139q0 -84 -76 -167t-196 -128l69 -98q18 -27 50 -56t43 -28l24 4
q41 0 41 -39q0 -19 -16 -33t-39 -14q-78 0 -174 125l-88 117h-17q-16 -2 -34 -2h-21q-45 -127 -45 -132zM815 1058q0 58 -50 90t-134 32q-170 0 -293 -101q-88 -68 -88 -125q0 -20 22 -38t33 -29q12 76 92 76q29 0 58 -13l39 86l28 82q14 35 40 35q52 0 52 -43
q0 -20 -14 -51l-65 -137l-9 -23l49 -55q102 29 171 92q69 64 69 122z" />
    <glyph glyph-name="macron" unicode="&#xaf;" horiz-adv-x="813" 
d="M130 932q-20 0 -42 22t-20 52q0 32 36 59q37 27 84 25l95 -5l358 -12l74 10q20 0 40 -22q19 -23 19 -53t-34 -54q-34 -26 -73 -22t-77 4l-232 8l-116 2q-25 4 -60 -8q-32 -6 -52 -6z" />
    <glyph glyph-name="degree" unicode="&#xb0;" horiz-adv-x="761" 
d="M382 1251q124 0 211 -86t87 -210t-86 -212t-210 -88t-212 87t-88 212t87 211t211 86z" />
    <glyph glyph-name="plusminus" unicode="&#xb1;" horiz-adv-x="927" 
d="M774 604q0 -30 -31 -54q-31 -22 -84 -22l-32 2h-37l-111 7l-6 -162l10 -74q0 -23 -20 -41t-55 -18t-62 43q-12 25 -12 52t2 89l6 115l-100 2q-33 0 -61 -7q-27 -8 -49 -8t-44 20t-20 54q0 33 36 61q37 28 84 23l95 -4l63 -2l2 94l-14 105q0 27 22 49t52 20q30 0 58 -38
t26 -83l-5 -94l-2 -59l156 -4l74 10q19 0 39 -23t20 -53zM132 2q-22 0 -44 22t-20 52q0 30 38 58t82 26l453 -19l74 13q19 0 39 -23t20 -53t-31 -54q-31 -22 -60 -22t-93 2l-232 10l-116 2q-33 0 -61 -7q-27 -7 -49 -7z" />
    <glyph glyph-name="twosuperior" unicode="&#xb2;" horiz-adv-x="870" 
d="M385 987q0 -49 -96 -49t-156 37q-59 37 -59 100q0 100 158 185q159 84 346 83q113 0 164 -24q100 -47 100 -123q0 -164 -414 -385q166 -16 166 -84q0 -19 -15 -31t-39 -12t-51 25q-27 20 -101 20t-169 -20l-98 -23q-8 -2 -32 -2t-43 13t-19 33t14 32t184 59q25 8 116 51
q208 99 303 191q94 92 93 135q0 62 -145 62q-144 0 -274 -60t-134 -125q0 -10 6 -20q27 -31 56 -31l98 6q12 2 26 -13t15 -30z" />
    <glyph glyph-name="threesuperior" unicode="&#xb3;" horiz-adv-x="909" 
d="M291 1006q0 39 67 43q180 2 301 68t121 102q0 25 -49 43t-120 18t-159 -24t-134 -54t-42 -39q2 -20 64 -26t63 -43q0 -16 -15 -28t-38 -13q-72 1 -127 35t-55 81q0 72 138 130q138 59 280 59t218 -41q75 -41 75 -105q0 -86 -160 -161q-10 -4 -55 -25q160 -51 159 -147
q0 -77 -132 -139q-131 -62 -285 -62t-265 51t-110 117q0 38 36 70t66 32q57 0 57 -39q0 -23 -28 -39q-27 -20 -27 -30q0 -29 78 -55t162 -25q141 0 268 57q80 37 80 68q-1 23 -27 38t-110 42l-236 -13q-18 -2 -38 18t-21 36z" />
    <glyph glyph-name="acute" unicode="&#xb4;" horiz-adv-x="509" 
d="M312 1280q22 0 26 -3t22 -28t19 -39q0 -14 -21 -36l-122 -150q-12 -19 -20 -28q-9 -10 -20 -30t-43 -20t-59 20q-45 34 -17 84q9 15 50 58l137 145q27 27 48 27z" />
    <glyph glyph-name="paragraph" unicode="&#xb6;" horiz-adv-x="714" 
d="M174 -174v-21q0 -57 -61 -57q-27 0 -45 12t-18 30t9 40q10 22 17 66t30 100l240 612q-86 53 -104 78q-74 80 -74 201q0 160 121 248q51 37 102 48t168 11h328q109 0 108 -74q0 -18 -16 -34t-59 -5q-25 11 -62 11l-442 -1119q-8 -20 -20 -72t-11 -75v-21q0 -57 -63 -57
q-27 0 -44 12q-28 20 -6 78l15 60q11 56 28 98l428 1096h-94l-444 -1119q-7 -20 -19 -72t-12 -75z" />
    <glyph glyph-name="periodcentered" unicode="&#xb7;" horiz-adv-x="475" 
d="M168 289q119 0 119 -86q0 -41 -36 -71t-83 -30t-77 27t-30 68t30 67t77 25z" />
    <glyph glyph-name="cedilla" unicode="&#xb8;" horiz-adv-x="448" 
d="M375 -183q0 -21 -13 -40l-135 -191q-44 -59 -127 -2q-18 12 -18 38t24 50l19 21l119 162q36 55 102 5q30 -22 29 -43z" />
    <glyph glyph-name="onesuperior" unicode="&#xb9;" horiz-adv-x="387" 
d="M150 727q0 -15 -20 -29t-42 -14q-23 0 -40 13t-17 35t14 65l133 331l-28 -16q-72 -41 -109 -9q-14 13 -14 32q0 33 45 45t105 56t63 67q18 41 59 40q59 0 59 -47q0 -18 -18 -61l-190 -471v-37z" />
    <glyph glyph-name="ordmasculine" unicode="&#xba;" horiz-adv-x="479" 
d="M188 897q0 -37 23 -68t53 -31t79 30q47 30 67 58t42 76q22 50 21 54l-8 55l2 23q0 28 -27 54t-53 23q-67 -4 -133 -96t-66 -178zM383 1270q100 0 154 -92q39 -78 39 -102t-22 -93q-22 -68 -34 -88q-45 -80 -116 -128q-70 -48 -146 -48t-121 40t-45 105q0 118 85 262
t206 144zM362 645q118 0 118 -52q-1 -52 -42 -52l-82 4l-125 -6l-32 -7q-37 -4 -56 -4q-96 0 -96 58q1 20 21 38t43 15l69 -6l76 4l41 4z" />
    <glyph glyph-name="guillemotright" unicode="&#xbb;" horiz-adv-x="653" 
d="M299 346q0 22 31 49l143 127q18 18 19 23l-164 149q-35 29 -35 50q0 22 17 40q16 18 34 18t57 -34l189 -166q48 -48 17 -100q-11 -18 -54 -56l-178 -149l-31 -16q-45 43 -45 65zM37 351q0 21 33 48l143 129q18 16 18 21l-8 12l-157 137q-33 29 -33 52q0 22 15 38
q16 16 34 18t59 -34l187 -166q28 -24 28 -56t-10 -46t-53 -51l-180 -152l-29 -16q-47 45 -47 66z" />
    <glyph glyph-name="onequarter" unicode="&#xbc;" horiz-adv-x="1652" 
d="M199 -147q-33 0 -54 18q-20 18 -20 44t33 71l196 266l103 129l340 397l444 473q91 97 113 147t40 63t50 13t56 -20t24 -47q0 -57 -107 -168l-160 -166q-16 -16 -24 -26l-35 -31l-68 -70l-262 -291l-43 -53l-32 -35q-6 -6 -18 -17t-22 -23q-11 -13 -14 -15l-164 -197
l-190 -254q-90 -123 -102 -149q-29 -59 -84 -59zM584 727q0 -15 -20 -29t-42 -14q-23 0 -40 13t-17 35t14 65l133 331l-28 -16q-72 -41 -109 -9q-14 13 -14 32q0 33 45 45t105 56t63 67q18 41 52 41q67 -1 69 -48q0 -14 -21 -61l-190 -471v-37zM1339 551l-436 -272
q-12 -8 -61 -54l-2 -6l-2 -2q12 -8 16 -8l320 8zM1223 25q-1 -13 -19 -27t-42 -14t-41 15t-17 41t24 95l-249 -6h-7l-38 2q-45 2 -76 24q-31 21 -31 51t37 72t92 74l459 289q45 27 80 27t57 -18t21 -46q0 -29 -33 -86l-160 -301l154 4q24 2 38 -10q14 -13 14 -29t-14 -29
q-16 -13 -32 -12l-37 2l-160 -4q-31 -55 -31 -73q11 -29 11 -41z" />
    <glyph glyph-name="onehalf" unicode="&#xbd;" horiz-adv-x="1589" 
d="M1007 248q-95 0 -155 37q-59 37 -59 100q0 98 159 183q160 85 346 85q114 0 164 -24q50 -25 76 -59t25 -64q0 -162 -414 -385q164 -16 164 -84q-1 -17 -17 -31t-39 -14t-47 22t-100 22t-172 -18l-98 -22q-6 -2 -31 -2t-44 13q-42 28 -3 67q14 10 182 57q27 8 117 51
q212 101 320 208q77 75 77 116q0 63 -146 63t-277 -61q-132 -61 -132 -125q0 -17 22 -33t42 -16l96 4q15 0 29 -13t12 -28q-2 -49 -97 -49zM135 -147q-33 0 -53 18q-44 39 12 115l197 266l102 129l340 397l445 473q92 97 113 147t39 63t50 13q33 0 57 -20t23 -47
q0 -57 -106 -168l-160 -166q-16 -16 -25 -26l-34 -31l-68 -70l-262 -291l-43 -53q-45 -48 -56 -57q-10 -11 -19 -21t-11 -12l-164 -197l-190 -254q-90 -123 -103 -149q-31 -59 -84 -59zM520 727q0 -15 -19 -29t-42 -14t-40 13q-30 23 -3 100l133 331l-29 -16
q-73 -41 -108 -9q-14 13 -15 32q0 33 45 45t106 56q60 44 62 67q18 41 52 41q68 -1 69 -48q0 -14 -20 -61l-191 -471v-37z" />
    <glyph glyph-name="threequarters" unicode="&#xbe;" horiz-adv-x="1775" 
d="M766 1219q0 25 -49 43t-120 18t-160 -24t-134 -54t-41 -39q2 -20 64 -26t63 -43q0 -16 -15 -28t-38 -13q-72 1 -127 35t-55 81q0 72 138 130q138 59 280 59t218 -41q75 -41 74 -105q0 -86 -159 -161q-10 -4 -56 -25q160 -51 160 -147q0 -77 -132 -139q-131 -62 -285 -62
t-265 51t-111 117q0 38 36 70t66 32q58 0 58 -39q0 -23 -29 -39q-27 -20 -26 -30q0 -29 78 -55t161 -25q141 0 269 57q80 37 80 68q0 23 -27 38t-111 42l-235 -13q-18 -2 -38 18t-22 36q0 39 68 43q180 2 301 68t121 102zM322 -147q-33 0 -54 18q-20 18 -20 44t33 71
l196 266l103 129l340 397l444 473q92 96 120 160t83 64q33 -1 57 -21t23 -47q0 -57 -107 -168l-160 -166q-16 -16 -24 -26l-35 -31l-68 -70l-262 -291l-43 -53q-6 -8 -33 -35l-36 -37q-14 -16 -17 -18l-164 -197l-190 -254q-90 -123 -102 -149q-29 -59 -84 -59zM1462 551
l-436 -272q-12 -8 -61 -54l-2 -6l-2 -2l16 -8l319 8zM1285 -16q-24 0 -41 15q-35 31 7 136l-250 -6h-6l-39 2q-46 2 -76 24q-30 21 -30 51t37 72t92 74l459 289q45 27 80 27q34 0 56 -18t22 -46q0 -29 -33 -86l-160 -301l153 4q23 2 38 -10q16 -13 16 -29t-14 -29t-33 -12
l-37 2l-160 -4q-31 -55 -31 -73l11 -35q0 -19 -18 -33t-43 -14z" />
    <glyph glyph-name="questiondown" unicode="&#xbf;" horiz-adv-x="1292" 
d="M764 682v51q0 35 38 57t87 22t75 -21t26 -59t-60 -75q-83 -58 -144 -16q-22 16 -22 41zM197 -118q-1 -48 35 -89t96 -67q94 -45 226 -45q132 1 276 67t145 131q0 13 -5 19t-28 16q-43 16 -43 49q1 33 19 49t58 16t87 -44q47 -45 47 -97q0 -131 -156 -221
q-174 -98 -390 -98t-356 90t-140 227q0 94 78 177q79 83 253 171l172 86q72 37 134 83q61 46 61 63q0 6 -8 18t-8 33q0 51 57 51q41 -1 72 -31t30 -73q0 -84 -149 -174l-117 -70l-258 -135q-86 -45 -137 -100q-51 -54 -51 -102z" />
    <glyph glyph-name="Agrave" unicode="&#xc0;" horiz-adv-x="1173" 
d="M809 1893q-1 15 15 36t22 27t28 6t50 -27l137 -145q59 -61 59 -91t-28 -50q-28 -21 -59 -21q-32 0 -50 35q-6 12 -12 17q-6 4 -9 10t-6 8l-4 8l-123 152q-20 20 -20 35zM965 1448q-125 0 -271 -121t-258 -309q-110 -188 -178 -386t-68 -304t34 -158q34 -51 87 -51
q100 0 240 121q213 186 344 409l100 176q39 59 95 62q-6 18 -6 27t16 66t16 187q0 129 -44 205t-107 76zM1098 141q53 0 53 -58q0 -31 -39 -57q-38 -26 -96 -26t-98 61t-39 140q0 79 10 151l14 105q-178 -203 -260 -283q-195 -184 -367 -184q-86 0 -147 85t-61 206
q0 190 104 456t260 471q279 367 559 367q117 0 188 -109t70 -288v-74q0 -41 -13 -113q-12 -71 -24 -97t-26 -34t-47 -12q4 -24 4 -38t-36 -94t-68 -234q-31 -153 -31 -217t14 -101t29 -35l4 2z" />
    <glyph glyph-name="Aacute" unicode="&#xc1;" horiz-adv-x="1173" 
d="M1216 1952q26 0 33 -13q29 -51 29 -59t-21 -33l-147 -182q-4 -3 -15 -25t-42 -22t-59 20t-28 46t11 40q10 15 49 56l137 145q27 27 53 27zM965 1448q-125 0 -271 -121t-258 -309q-110 -188 -178 -386t-68 -304t34 -158q34 -51 87 -51q100 0 240 121q213 186 344 409
l100 176q39 59 95 62q-6 18 -6 27t16 66t16 187q0 129 -44 205t-107 76zM1098 141q53 0 53 -58q0 -31 -39 -57q-38 -26 -96 -26t-98 61t-39 140q0 79 10 151l14 105q-178 -203 -260 -283q-195 -184 -367 -184q-86 0 -147 85t-61 206q0 190 104 456t260 471q279 367 559 367
q117 0 188 -109t70 -288v-74q0 -41 -13 -113q-12 -71 -24 -97t-26 -34t-47 -12q4 -24 4 -38t-36 -94t-68 -234q-31 -153 -31 -217t14 -101t29 -35l4 2z" />
    <glyph glyph-name="Acircumflex" unicode="&#xc2;" horiz-adv-x="1173" 
d="M1118 1923q31 0 50 -10t20 -21l-2 -32q2 -4 4 -11l24 -49l11 -18l6 -8q10 -27 24 -41q18 -12 19 -29q0 -33 -39 -45q-37 -14 -63 -14q-25 0 -44 24q-27 48 -47 107l-147 -111q-43 -35 -74 -35q-12 6 -38 18t-26 40t10 39q9 11 38 32l180 123q63 41 94 41zM965 1448
q-125 0 -271 -121t-258 -309q-110 -188 -178 -386t-68 -304t34 -158q34 -51 87 -51q100 0 240 121q213 186 344 409l100 176q39 59 95 62q-6 18 -6 27t16 66t16 187q0 129 -44 205t-107 76zM1098 141q53 0 53 -58q0 -31 -39 -57q-38 -26 -96 -26t-98 61t-39 140q0 79 10 151
l14 105q-178 -203 -260 -283q-195 -184 -367 -184q-86 0 -147 85t-61 206q0 190 104 456t260 471q279 367 559 367q117 0 188 -109t70 -288v-74q0 -41 -13 -113q-12 -71 -24 -97t-26 -34t-47 -12q4 -24 4 -38t-36 -94t-68 -234q-31 -153 -31 -217t14 -101t29 -35l4 2z" />
    <glyph glyph-name="Atilde" unicode="&#xc3;" horiz-adv-x="1173" 
d="M838 1645q-86 0 -86 77q0 16 21 36t25 24t27 24q47 31 114 31t155 -45q45 -20 94 0q5 12 26 25q20 12 38 12t37 -24q54 -68 -36 -125t-198 -9q-68 27 -76 27q-51 0 -69 -5t-33 -27q-16 -22 -39 -21zM965 1448q-125 0 -271 -121t-258 -309q-110 -188 -178 -386t-68 -304
t34 -158q34 -51 87 -51q100 0 240 121q213 186 344 409l100 176q39 59 95 62q-6 18 -6 27t16 66t16 187q0 129 -44 205t-107 76zM1098 141q53 0 53 -58q0 -31 -39 -57q-38 -26 -96 -26t-98 61t-39 140q0 79 10 151l14 105q-178 -203 -260 -283q-195 -184 -367 -184
q-86 0 -147 85t-61 206q0 190 104 456t260 471q279 367 559 367q117 0 188 -109t70 -288v-74q0 -41 -13 -113q-12 -71 -24 -97t-26 -34t-47 -12q4 -24 4 -38t-36 -94t-68 -234q-31 -153 -31 -217t14 -101t29 -35l4 2z" />
    <glyph glyph-name="Adieresis" unicode="&#xc4;" horiz-adv-x="1173" 
d="M1229 1892q47 0 74 -26t27 -71q0 -46 -36 -83t-80 -37t-75 28t-31 73q0 44 37 80t84 36zM919 1905q45 0 75 -31t27 -77t-43 -80t-85 -34t-69 31t-24 75t38 80q37 36 81 36zM965 1448q-125 0 -271 -121t-258 -309q-110 -188 -178 -386t-68 -304t34 -158q34 -51 87 -51
q100 0 240 121q213 186 344 409l100 176q39 59 95 62q-6 18 -6 27t16 66t16 187q0 129 -44 205t-107 76zM1098 141q53 0 53 -58q0 -31 -39 -57q-38 -26 -96 -26t-98 61t-39 140q0 79 10 151l14 105q-178 -203 -260 -283q-195 -184 -367 -184q-86 0 -147 85t-61 206
q0 190 104 456t260 471q279 367 559 367q117 0 188 -109t70 -288v-74q0 -41 -13 -113q-12 -71 -24 -97t-26 -34t-47 -12q4 -24 4 -38t-36 -94t-68 -234q-31 -153 -31 -217t14 -101t29 -35l4 2z" />
    <glyph glyph-name="Aring" unicode="&#xc5;" horiz-adv-x="1173" 
d="M1053 1968q67 0 115 -48t48 -118t-46 -116t-116 -48q-70 0 -118 48q-49 48 -49 116t49 117t117 49zM1055 1849q-19 0 -33 -14t-14 -33q0 -39 44 -39t44 47q0 39 -41 39zM965 1448q-125 0 -271 -121t-258 -309q-110 -188 -178 -386t-68 -304t34 -158q34 -51 87 -51
q100 0 240 121q213 186 344 409l100 176q39 59 95 62q-6 18 -6 27t16 66t16 187q0 129 -44 205t-107 76zM1098 141q53 0 53 -58q0 -31 -39 -57q-38 -26 -96 -26t-98 61t-39 140q0 79 10 151l14 105q-178 -203 -260 -283q-195 -184 -367 -184q-86 0 -147 85t-61 206
q0 190 104 456t260 471q279 367 559 367q117 0 188 -109t70 -288v-74q0 -41 -13 -113q-12 -71 -24 -97t-26 -34t-47 -12q4 -24 4 -38t-36 -94t-68 -234q-31 -153 -31 -217t14 -101t29 -35l4 2z" />
    <glyph glyph-name="AE" unicode="&#xc6;" horiz-adv-x="1624" 
d="M965 1448q-125 0 -271 -121t-258 -309q-110 -188 -178 -386t-68 -304t34 -158q34 -51 87 -51q100 0 242 121q211 186 342 409l102 176q78 133 100 191q21 58 21 162t-42 187t-111 83zM1012 -14q-252 0 -252 184q0 51 20 147q-154 -175 -272 -251t-232 -76q-86 0 -147 85
t-61 206q0 188 104 455t260 472q279 367 559 367q90 0 156 -69t90 -191l530 16l21 2q76 3 124 -19t48 -56t-20 -52t-42 -18t-59 14t-72 10h-12l-455 -16l-196 -455h305q143 0 143 -77q0 -29 -21 -48q-22 -18 -45 -18q-24 0 -42 6t-61 6t-70 -2l-269 -10l-122 -322
q-14 -32 -14 -82t18 -70q20 -20 78 -20t106 9l180 30q84 15 181 15t98 -64q1 -25 -17 -43t-41 -18l-79 8q-29 0 -121 -16l-201 -33q-41 -6 -98 -6z" />
    <glyph glyph-name="Ccedilla" unicode="&#xc7;" horiz-adv-x="1083" 
d="M236 -378q0 26 24 50l14 15l125 168q32 57 101 7q47 -36 16 -85l-133 -191q-49 -56 -129 -2q-18 12 -18 38zM1064 692q-48 -104 -114 -104t-67 93q0 50 49 167l74 180q14 31 14 117q0 87 -45 155t-117 68q-143 0 -298 -152t-256 -381q-101 -230 -101 -446
q0 -305 254 -305q100 0 184 33q85 33 193 119t184 182q45 57 78 57t51 -17t18 -42q0 -47 -166 -201q-272 -256 -557 -256q-176 0 -275 111q-99 112 -99 316t97 438t263 427q209 242 459 242q70 0 130 -37q60 -38 94 -106t42 -119l8 -35l25 -27q10 -14 10 -28t-27 -70
t-36 -149q-21 -126 -69 -230z" />
    <glyph glyph-name="Egrave" unicode="&#xc8;" horiz-adv-x="917" 
d="M555 1756q-1 7 19 40t46 33t50 -29l137 -143q41 -43 50 -59t9 -38q0 -24 -26 -44t-60 -20q-33 0 -49 34l-16 20q-6 4 -10 15l-130 157q-20 27 -20 34zM324 -14q-252 0 -252 184q-1 131 65 295l47 117q-12 -2 -40 -2t-53 19q-23 19 -23 52t24 45t113 17l33 4l208 469h-120
l-58 -2q-34 0 -62 24t-28 55q0 30 20 48t46 18q24 0 39 -8l43 -21q18 2 67 5l86 4l21 4l32 28q14 11 42 11t37 -6l21 -14q12 -7 19 -13l428 12q193 6 193 -80q0 -27 -20 -45t-44 -18t-55 12l-35 8l-53 4l-453 -16l-217 -465l324 10h12q131 6 131 -77q0 -30 -20 -48t-44 -18
t-42 6t-63 6t-68 -2l-283 -12l-111 -320q-12 -38 -12 -86q-1 -48 19 -66t78 -20q58 0 106 9l180 30q78 15 178 15t101 -64q1 -25 -17 -43t-41 -18l-80 8q-29 0 -120 -16l-201 -33q-41 -6 -98 -6z" />
    <glyph glyph-name="Eacute" unicode="&#xc9;" horiz-adv-x="917" 
d="M870 1837q22 0 25 -3q5 -3 23 -28q18 -24 18 -38t-21 -37l-122 -150q-12 -19 -25 -31l-10 -18q-16 -29 -48 -29q-32 1 -59 21q-45 34 -17 83q9 15 50 58l137 145q27 27 49 27zM324 -14q-252 0 -252 184q-1 131 65 295l47 117q-12 -2 -40 -2t-53 19q-23 19 -23 52t24 45
t113 17l33 4l208 469h-120l-58 -2q-34 0 -62 24t-28 55q0 30 20 48t46 18q24 0 39 -8l43 -21q18 2 67 5l86 4l21 4l32 28q14 11 42 11t37 -6l21 -14q12 -7 19 -13l428 12q193 6 193 -80q0 -27 -20 -45t-44 -18t-55 12l-35 8l-53 4l-453 -16l-217 -465l324 10h12
q131 6 131 -77q0 -30 -20 -48t-44 -18t-42 6t-63 6t-68 -2l-283 -12l-111 -320q-12 -38 -12 -86q-1 -48 19 -66t78 -20q58 0 106 9l180 30q78 15 178 15t101 -64q1 -25 -17 -43t-41 -18l-80 8q-29 0 -120 -16l-201 -33q-41 -6 -98 -6z" />
    <glyph glyph-name="Ecircumflex" unicode="&#xca;" horiz-adv-x="917" 
d="M616 1491q-2 0 -34 16q-32 17 -31 43q0 26 9 38t38 32l182 123q56 41 90 41t53 -10t19 -21l-2 -33l29 -59l10 -19l6 -8q10 -26 27 -41q16 -14 16 -28q0 -33 -39 -45q-34 -15 -62 -15q-27 0 -49 36t-42 95l-148 -110q-47 -35 -72 -35zM324 -14q-252 0 -252 184
q-1 131 65 295l47 117q-12 -2 -40 -2t-53 19q-23 19 -23 52t24 45t113 17l33 4l208 469h-120l-58 -2q-34 0 -62 24t-28 55q0 30 20 48t46 18q24 0 39 -8l43 -21q18 2 67 5l86 4l21 4l32 28q14 11 42 11t37 -6l21 -14q12 -7 19 -13l428 12q193 6 193 -80q0 -27 -20 -45
t-44 -18t-55 12l-35 8l-53 4l-453 -16l-217 -465l324 10h12q131 6 131 -77q0 -30 -20 -48t-44 -18t-42 6t-63 6t-68 -2l-283 -12l-111 -320q-12 -38 -12 -86q-1 -48 19 -66t78 -20q58 0 106 9l180 30q78 15 178 15t101 -64q1 -25 -17 -43t-41 -18l-80 8q-29 0 -120 -16
l-201 -33q-41 -6 -98 -6z" />
    <glyph glyph-name="Edieresis" unicode="&#xcb;" horiz-adv-x="917" 
d="M860 1617q0 40 37 76t82 38t74 -27t29 -73t-36 -82q-34 -38 -75 -38q-9 0 -15 2q-96 18 -96 104zM672 1743q40 0 72 -31q32 -30 32 -60t-16 -61t-43 -51t-71 -20t-68 32t-25 73q0 42 39 80t80 38zM324 -14q-252 0 -252 184q-1 131 65 295l47 117q-12 -2 -40 -2t-53 19
q-23 19 -23 52t24 45t113 17l33 4l208 469h-120l-58 -2q-34 0 -62 24t-28 55q0 30 20 48t46 18q24 0 39 -8l43 -21q18 2 67 5l86 4l21 4l32 28q14 11 42 11t37 -6l21 -14q12 -7 19 -13l428 12q193 6 193 -80q0 -27 -20 -45t-44 -18t-55 12l-35 8l-53 4l-453 -16l-217 -465
l324 10h12q131 6 131 -77q0 -30 -20 -48t-44 -18t-42 6t-63 6t-68 -2l-283 -12l-111 -320q-12 -38 -12 -86q-1 -48 19 -66t78 -20q58 0 106 9l180 30q78 15 178 15t101 -64q1 -25 -17 -43t-41 -18l-80 8q-29 0 -120 -16l-201 -33q-41 -6 -98 -6z" />
    <glyph glyph-name="Igrave" unicode="&#xcc;" horiz-adv-x="1073" 
d="M794 1870q26 0 52 -27l137 -145q41 -44 50 -58t9 -38t-27 -46q-28 -20 -60 -20t-48 37q-2 4 -13 15t-13 18l-129 159q-20 27 -20 34t18 39t44 32zM68 315q0 37 21 63t51 25q30 0 44 -18t29 -72q23 -94 105 -152t198 -59q283 0 477 340q170 299 170 623q0 111 -52 177
t-140 67q-145 0 -313 -86t-280 -215q-112 -128 -112 -232t119 -162t311 -59q78 0 128 6t68 6t33 -17t15 -44q0 -78 -176 -78q-342 0 -500 92q-68 39 -108 106t-41 134q0 150 133 308t338 262q205 103 397 104q63 0 127 -28t104 -75q80 -96 80 -280q0 -252 -97 -499
t-268 -410q-171 -162 -401 -162t-364 129q-96 100 -96 206z" />
    <glyph glyph-name="Iacute" unicode="&#xcd;" horiz-adv-x="1073" 
d="M985 1513q-31 1 -59 21t-27 44q0 24 9 38q9 16 50 59l138 146q27 27 48 27t25 -4t23 -28q18 -24 18 -36t-20 -37l-123 -152q-8 -17 -25 -30l-10 -19q-16 -29 -47 -29zM68 315q0 37 21 63t51 25q30 0 44 -18t29 -72q23 -94 105 -152t198 -59q283 0 477 340
q170 299 170 623q0 111 -52 177t-140 67q-145 0 -313 -86t-280 -215q-112 -128 -112 -232t119 -162t311 -59q78 0 128 6t68 6t33 -17t15 -44q0 -78 -176 -78q-342 0 -500 92q-68 39 -108 106t-41 134q0 150 133 308t338 262q205 103 397 104q63 0 127 -28t104 -75
q80 -96 80 -280q0 -252 -97 -499t-268 -410q-171 -162 -401 -162t-364 129q-96 100 -96 206z" />
    <glyph glyph-name="Icircumflex" unicode="&#xce;" horiz-adv-x="1073" 
d="M766 1582q0 34 47 65l166 110q55 37 73 45t44 8q24 0 42 -10t19 -20l-2 -33l31 -59l8 -19l6 -8q10 -26 28 -42q17 -15 17 -28q-1 -33 -41 -46t-64 -13t-42 24q-33 62 -45 107l-150 -111q-43 -35 -72 -34l-36 16q-29 14 -29 48zM68 315q0 37 21 63t51 25q30 0 44 -18
t29 -72q23 -94 105 -152t198 -59q283 0 477 340q170 299 170 623q0 111 -52 177t-140 67q-145 0 -313 -86t-280 -215q-112 -128 -112 -232t119 -162t311 -59q78 0 128 6t68 6t33 -17t15 -44q0 -78 -176 -78q-342 0 -500 92q-68 39 -108 106t-41 134q0 150 133 308t338 262
q205 103 397 104q63 0 127 -28t104 -75q80 -96 80 -280q0 -252 -97 -499t-268 -410q-171 -162 -401 -162t-364 129q-96 100 -96 206z" />
    <glyph glyph-name="Idieresis" unicode="&#xcf;" horiz-adv-x="1073" 
d="M1081 1497q-108 0 -108 102q-1 41 33 78t73 37h15q53 0 77 -31q23 -33 23 -71t-36 -77q-36 -38 -77 -38zM783 1729q42 0 73 -31q31 -30 31 -60q-1 -30 -17 -61t-42 -51t-72 -21q-44 0 -68 31t-22 75q0 44 37 81q38 37 80 37zM68 315q0 37 21 63t51 25q30 0 44 -18t29 -72
q23 -94 105 -152t198 -59q283 0 477 340q170 299 170 623q0 111 -52 177t-140 67q-145 0 -313 -86t-280 -215q-112 -128 -112 -232t119 -162t311 -59q78 0 128 6t68 6t33 -17t15 -44q0 -78 -176 -78q-342 0 -500 92q-68 39 -108 106t-41 134q0 150 133 308t338 262
q205 103 397 104q63 0 127 -28t104 -75q80 -96 80 -280q0 -252 -97 -499t-268 -410q-171 -162 -401 -162t-364 129q-96 100 -96 206z" />
    <glyph glyph-name="Eth" unicode="&#xd0;" horiz-adv-x="1517" 
d="M1030 438q78 0 100 -8q39 -14 39 -56t-29 -55q-30 -12 -120 -12h-262l-21 -65q-18 -59 -18 -86q1 -33 103 -33t234 55t240 152q238 211 238 501q0 176 -121 318q-145 172 -402 172t-479 -129q-145 -84 -236 -199t-91 -215q0 -117 141 -151q60 -15 80 -31t20 -42t-17 -42
t-42 -16q-96 0 -201 57q-53 31 -86 87t-32 120q0 139 107 281q108 142 290 247q260 152 547 152t471 -172t184 -434q0 -326 -250 -562q-131 -122 -300 -196t-295 -74t-189 32t-63 89t26 137l14 45h-75q-80 0 -105 6q-45 11 -45 53t27 57t96 15h147l224 660l16 57
q21 69 41 93t58 24t62 -23t24 -53t-7 -42q-7 -13 -31 -50t-36 -62l-35 -94l-168 -508h227z" />
    <glyph glyph-name="Ntilde" unicode="&#xd1;" horiz-adv-x="1583" 
d="M1402 1667q67 -1 122 -29q56 -28 80 -28t47 10q21 37 65 37q17 0 37 -24q55 -66 -35 -122q-55 -35 -98 -35t-102 23q-63 29 -74 29q-60 -4 -74 -8t-30 -26t-50 -22q-33 0 -55 23q-11 5 -21 57q0 12 25 35l23 23q6 8 40 32t100 25zM1610 907q0 -41 -37 -155t-80 -312
q-43 -199 -43 -255t20 -138q28 4 46 4t35 -16t17 -42t-24 -44q-25 -18 -63 -19q-154 0 -154 217q0 113 26 246t101 422q-82 -82 -143 -164q-84 -121 -92 -131l-287 -448q-55 -84 -115 -84q-33 0 -55 19t-23 50q0 31 11 65q10 34 73 200l205 520q76 188 76 368
q0 139 -133 140q-115 0 -252 -73q-285 -152 -435 -421q-75 -134 -75 -230t59 -148t166 -52t207 41q43 16 65 16t35 -15q14 -15 15 -38q0 -45 -64 -70q-120 -51 -272 -51t-252 81q-100 82 -100 224t113 326q114 184 292 324q254 201 492 200q119 0 195 -66t75 -171
q0 -180 -86 -412l-131 -354l285 383q115 156 215 155q40 1 66 -25t26 -67z" />
    <glyph glyph-name="Ograve" unicode="&#xd2;" horiz-adv-x="1236" 
d="M627 1801q0 7 19 40t45 33t50 -29l140 -143q59 -63 59 -92t-28 -49q-28 -21 -60 -21t-49 35l-17 20l-10 15l-129 157q-20 27 -20 34zM563 365q86 0 185 32q38 11 58 11t35 -16t15 -47q0 -30 -31 -46q-82 -45 -250 -45t-266 59q-37 21 -96 74q-8 -51 -8 -104
q0 -104 66 -166q67 -61 180 -62q250 0 430 205q119 131 192 307q74 176 74 325t-68 267q-43 72 -121 115t-165 43q-166 0 -325 -132t-222 -321q176 260 293 336q109 74 221 74q55 0 87 -22t32 -54q-1 -32 -17 -48q-16 -17 -41 -17l-90 14q-125 0 -311 -242
q-82 -104 -113 -172t-43 -166q8 -37 20 -57t44 -49q102 -96 235 -96zM82 709q0 182 101 352t267 274t343 105q217 0 350 -148t133 -389q0 -182 -73 -365t-207 -339t-286 -210t-270 -55q-170 0 -271 100t-101 269q0 121 47 252q-33 66 -33 154z" />
    <glyph glyph-name="Oacute" unicode="&#xd3;" horiz-adv-x="1236" 
d="M1102 1780q0 -12 -21 -37l-123 -152q-32 -42 -34 -49q-16 -29 -47 -29q-31 1 -59 21q-46 34 -18 83q9 15 50 58l137 146q27 27 48 27t25 -4t24 -28q18 -24 18 -36zM563 365q86 0 185 32q38 11 58 11t35 -16t15 -47q0 -30 -31 -46q-82 -45 -250 -45t-266 59q-37 21 -96 74
q-8 -51 -8 -104q0 -104 66 -166q67 -61 180 -62q250 0 430 205q119 131 192 307q74 176 74 325t-68 267q-43 72 -121 115t-165 43q-166 0 -325 -132t-222 -321q176 260 293 336q109 74 221 74q55 0 87 -22t32 -54q-1 -32 -17 -48q-16 -17 -41 -17l-90 14q-125 0 -311 -242
q-82 -104 -113 -172t-43 -166q8 -37 20 -57t44 -49q102 -96 235 -96zM82 709q0 182 101 352t267 274t343 105q217 0 350 -148t133 -389q0 -182 -73 -365t-207 -339t-286 -210t-270 -55q-170 0 -271 100t-101 269q0 121 47 252q-33 66 -33 154z" />
    <glyph glyph-name="Ocircumflex" unicode="&#xd4;" horiz-adv-x="1236" 
d="M618 1584q0 28 10 38q10 12 38 33l182 123q59 41 91 41q32 -1 51 -11t20 -20l-2 -33l30 -61l9 -17l6 -8q12 -31 27 -43t16 -27q0 -35 -39 -45q-40 -14 -65 -14t-42 25q-33 61 -45 106l-149 -112q-45 -33 -72 -33l-37 16q-29 14 -29 42zM563 365q86 0 185 32q38 11 58 11
t35 -16t15 -47q0 -30 -31 -46q-82 -45 -250 -45t-266 59q-37 21 -96 74q-8 -51 -8 -104q0 -104 66 -166q67 -61 180 -62q250 0 430 205q119 131 192 307q74 176 74 325t-68 267q-43 72 -121 115t-165 43q-166 0 -325 -132t-222 -321q176 260 293 336q109 74 221 74
q55 0 87 -22t32 -54q-1 -32 -17 -48q-16 -17 -41 -17l-90 14q-125 0 -311 -242q-82 -104 -113 -172t-43 -166q8 -37 20 -57t44 -49q102 -96 235 -96zM82 709q0 182 101 352t267 274t343 105q217 0 350 -148t133 -389q0 -182 -73 -365t-207 -339t-286 -210t-270 -55
q-170 0 -271 100t-101 269q0 121 47 252q-33 66 -33 154z" />
    <glyph glyph-name="Otilde" unicode="&#xd5;" horiz-adv-x="1236" 
d="M792 1708q68 0 156 -45q23 -10 46 -10t46 10q8 14 27 23l4 4q18 10 35 10t37 -25t20 -55t-55 -66q-54 -34 -100 -34t-101 22q-129 59 -176 -4q-18 -22 -53 -22t-53 22q-4 2 -13 27q-8 25 -8 33t25 32l22 23q6 7 40 31q33 24 101 24zM563 365q86 0 185 32q38 11 58 11
t35 -16t15 -47q0 -30 -31 -46q-82 -45 -250 -45t-266 59q-37 21 -96 74q-8 -51 -8 -104q0 -104 66 -166q67 -61 180 -62q250 0 430 205q119 131 192 307q74 176 74 325t-68 267q-43 72 -121 115t-165 43q-166 0 -325 -132t-222 -321q176 260 293 336q109 74 221 74
q55 0 87 -22t32 -54q-1 -32 -17 -48q-16 -17 -41 -17l-90 14q-125 0 -311 -242q-82 -104 -113 -172t-43 -166q8 -37 20 -57t44 -49q102 -96 235 -96zM82 709q0 182 101 352t267 274t343 105q217 0 350 -148t133 -389q0 -182 -73 -365t-207 -339t-286 -210t-270 -55
q-170 0 -271 100t-101 269q0 121 47 252q-33 66 -33 154z" />
    <glyph glyph-name="Odieresis" unicode="&#xd6;" horiz-adv-x="1236" 
d="M1078 1735q46 0 74 -27t28 -72t-35 -82q-35 -36 -81 -36t-76 28t-30 72q0 45 37 81t83 36zM768 1747q43 0 74 -30q30 -29 30 -61q-1 -66 -53 -106q-27 -24 -74 -24t-71 30t-23 73q0 44 37 81t80 37zM563 365q86 0 185 32q38 11 58 11t35 -16t15 -47q0 -30 -31 -46
q-82 -45 -250 -45t-266 59q-37 21 -96 74q-8 -51 -8 -104q0 -104 66 -166q67 -61 180 -62q250 0 430 205q119 131 192 307q74 176 74 325t-68 267q-43 72 -121 115t-165 43q-166 0 -325 -132t-222 -321q176 260 293 336q109 74 221 74q55 0 87 -22t32 -54q-1 -32 -17 -48
q-16 -17 -41 -17l-90 14q-125 0 -311 -242q-82 -104 -113 -172t-43 -166q8 -37 20 -57t44 -49q102 -96 235 -96zM82 709q0 182 101 352t267 274t343 105q217 0 350 -148t133 -389q0 -182 -73 -365t-207 -339t-286 -210t-270 -55q-170 0 -271 100t-101 269q0 121 47 252
q-33 66 -33 154z" />
    <glyph glyph-name="multiply" unicode="&#xd7;" horiz-adv-x="927" 
d="M214 170q-28 0 -47 22t-19 53q0 32 14 51t80 79l86 80l-72 73q-14 12 -47 35q-55 35 -55 70t21 55q49 45 126 -6q12 -8 84 -88l43 -47l68 67q12 10 42 56t66 47q72 0 74 -72q0 -37 -25 -76q-8 -12 -88 -82l-43 -41l107 -114q55 -41 64 -51t9 -37t-22 -47q-22 -21 -54 -21
q-30 0 -52 16t-78 78l-76 82l-117 -110q-41 -52 -51 -62t-38 -10z" />
    <glyph glyph-name="Oslash" unicode="&#xd8;" horiz-adv-x="1236" 
d="M795 1317q-166 0 -325 -132t-222 -321q170 256 287 333t225 77q55 0 88 -23t33 -53q1 -30 -17 -47q-18 -18 -43 -18l-90 14q-123 0 -311 -242q-82 -104 -113 -172t-43 -166q8 -35 18 -52t44 -52l696 766q-96 88 -227 88zM1149 878q0 134 -51 246q-35 -35 -66 -69
l-596 -666q53 -23 138 -23t149 21t82 21q17 0 35 -18t18 -45q0 -28 -33 -46q-77 -45 -233 -45t-242 39l-108 -141q63 -96 209 -97q252 0 432 205q119 131 192 308q74 176 74 310zM231 358l7 9q-5 5 -25 20q-6 -48 -6 -57zM68 326q0 88 47 229q-31 63 -31 154q0 182 100 352
t266 274q166 105 348 105q183 0 310 -115l35 37q92 102 120 163t80 60q33 0 57 -20t23 -49q0 -57 -104 -168l-115 -119l-8 -6q82 -135 82 -317t-73 -368q-73 -185 -206 -337q-75 -88 -143 -136t-184 -89t-230 -42q-176 0 -280 111l-2 -4q-90 -121 -103 -150q-29 -59 -84 -59
q-33 0 -53 18q-44 39 12 115l154 207q-18 66 -18 154z" />
    <glyph glyph-name="Ugrave" unicode="&#xd9;" horiz-adv-x="1757" 
d="M1256 1858q26 0 51 -29l137 -143q41 -44 50 -58t9 -39q-1 -25 -27 -45t-59 -20t-49 35l-16 20q-3 2 -17 23l-123 149q-20 27 -20 41q8 14 22 41q16 25 42 25zM1704 37q0 -66 -96 -66t-144 54q-84 90 -84 262q0 23 4 84l19 174q-156 -260 -299 -420q-72 -78 -122 -110
q-50 -31 -108 -31t-95 43q-36 43 -36 116q0 131 60 310l143 434q74 225 74 334q0 51 -35 85t-84 33q-153 0 -317 -99t-272 -251t-107 -293q0 -68 42 -108q43 -40 131 -39q88 0 216 61q44 23 68 23q24 -1 39 -19t15 -49t-42 -55q-145 -80 -330 -80q-125 0 -201 70t-75 182
q0 176 128 357t326 298t393 117q106 0 169 -68t63 -180q0 -111 -64 -305l-145 -442q-59 -178 -59 -297q0 -43 30 -43q20 0 41 17q20 17 70 77q385 475 575 1001q41 115 109 115q32 0 56 -20t24 -46t-53 -133q-98 -203 -179 -548q-10 -48 -23 -150t-13 -162t26 -120
q26 -61 57 -62l48 4q25 0 41 -15t16 -40z" />
    <glyph glyph-name="Uacute" unicode="&#xda;" horiz-adv-x="1757" 
d="M1370 1681l139 144q25 29 47 29t26 -4q5 -2 24 -28q18 -26 18 -37t-20 -38l-123 -150q-20 -26 -23 -29q-4 -3 -15 -26q-11 -22 -44 -22t-61 20t-28 49t60 92zM1704 37q0 -66 -96 -66t-144 54q-84 90 -84 262q0 23 4 84l19 174q-156 -260 -299 -420q-72 -78 -122 -110
q-50 -31 -108 -31t-95 43q-36 43 -36 116q0 131 60 310l143 434q74 225 74 334q0 51 -35 85t-84 33q-153 0 -317 -99t-272 -251t-107 -293q0 -68 42 -108q43 -40 131 -39q88 0 216 61q44 23 68 23q24 -1 39 -19t15 -49t-42 -55q-145 -80 -330 -80q-125 0 -201 70t-75 182
q0 176 128 357t326 298t393 117q106 0 169 -68t63 -180q0 -111 -64 -305l-145 -442q-59 -178 -59 -297q0 -43 30 -43q20 0 41 17q20 17 70 77q385 475 575 1001q41 115 109 115q32 0 56 -20t24 -46t-53 -133q-98 -203 -179 -548q-10 -48 -23 -150t-13 -162t26 -120
q26 -61 57 -62l48 4q25 0 41 -15t16 -40z" />
    <glyph glyph-name="Ucircumflex" unicode="&#xdb;" horiz-adv-x="1757" 
d="M1557 1491q-27 0 -48 36t-41 95l-147 -111q-43 -35 -74 -34q-12 6 -37 16q-26 17 -26 43t9 38t38 32l180 123q63 41 94 41t50 -11q19 -10 20 -20l-2 -33q2 -4 4 -10l35 -68l6 -8q11 -27 24 -41q18 -12 19 -29q0 -33 -39 -45q-38 -14 -65 -14zM1704 37q0 -66 -96 -66
t-144 54q-84 90 -84 262q0 23 4 84l19 174q-156 -260 -299 -420q-72 -78 -122 -110q-50 -31 -108 -31t-95 43q-36 43 -36 116q0 131 60 310l143 434q74 225 74 334q0 51 -35 85t-84 33q-153 0 -317 -99t-272 -251t-107 -293q0 -68 42 -108q43 -40 131 -39q88 0 216 61
q44 23 68 23q24 -1 39 -19t15 -49t-42 -55q-145 -80 -330 -80q-125 0 -201 70t-75 182q0 176 128 357t326 298t393 117q106 0 169 -68t63 -180q0 -111 -64 -305l-145 -442q-59 -178 -59 -297q0 -43 30 -43q20 0 41 17q20 17 70 77q385 475 575 1001q41 115 109 115
q32 0 56 -20t24 -46t-53 -133q-98 -203 -179 -548q-10 -48 -23 -150t-13 -162t26 -120q26 -61 57 -62l48 4q25 0 41 -15t16 -40z" />
    <glyph glyph-name="Udieresis" unicode="&#xdc;" horiz-adv-x="1757" 
d="M1615 1743q50 0 74 -32q23 -33 23 -71t-36 -76t-80 -38t-74 28t-31 72q0 45 37 81t87 36zM1302 1755q44 0 74 -30t29 -60q0 -30 -16 -60q-16 -31 -42 -51t-71 -20t-69 31q-23 31 -23 75t37 79q37 36 81 36zM1704 37q0 -66 -96 -66t-144 54q-84 90 -84 262q0 23 4 84
l19 174q-156 -260 -299 -420q-72 -78 -122 -110q-50 -31 -108 -31t-95 43q-36 43 -36 116q0 131 60 310l143 434q74 225 74 334q0 51 -35 85t-84 33q-153 0 -317 -99t-272 -251t-107 -293q0 -68 42 -108q43 -40 131 -39q88 0 216 61q44 23 68 23q24 -1 39 -19t15 -49
t-42 -55q-145 -80 -330 -80q-125 0 -201 70t-75 182q0 176 128 357t326 298t393 117q106 0 169 -68t63 -180q0 -111 -64 -305l-145 -442q-59 -178 -59 -297q0 -43 30 -43q20 0 41 17q20 17 70 77q385 475 575 1001q41 115 109 115q32 0 56 -20t24 -46t-53 -133
q-98 -203 -179 -548q-10 -48 -23 -150t-13 -162t26 -120q26 -61 57 -62l48 4q25 0 41 -15t16 -40z" />
    <glyph glyph-name="Yacute" unicode="&#xdd;" horiz-adv-x="1464" 
d="M1578 1819q23 0 34 -15q6 -12 17 -25t11 -29t-20 -38l-123 -151q-6 -13 -17 -24q-12 -11 -22 -32t-43 -21t-59 20t-27 44q0 24 10 40q11 16 50 59l137 143q29 29 52 29zM782 197q0 143 64 329l125 365q51 150 51 287q0 84 -52 131t-147 47q-162 0 -310 -102t-245 -283
q-53 -94 -53 -176q0 -113 89 -181t235 -67q82 0 138 20q57 21 77 21t36 -20t17 -42q0 -42 -83 -72t-202 -30q-194 0 -324 98t-130 242t88 301q110 188 288 300t356 112t269 -83q90 -82 90 -220t-61 -312l-119 -352q-63 -186 -60 -254t7 -78q4 -12 26 -12t42 20
q22 20 108 123q150 176 282 427q132 250 162 348t54 124t60 25q36 0 56 -16t20 -50t-28 -127l-244 -804q-98 -424 -98 -442t11 -44q29 -66 -11 -103q-22 -22 -60 -22t-63 25t-25 71t21 134l170 663q-177 -274 -283 -382t-200 -107q-63 0 -104 46q-40 46 -40 122z" />
    <glyph glyph-name="Thorn" unicode="&#xde;" horiz-adv-x="1404" 
d="M1116 1055q0 -205 -66 -415t-182 -361q174 12 328 101t237 198q83 110 83 204t-68 166t-182 107q-56 16 -150 26v-26zM985 1065q0 111 -52 177t-140 67q-145 0 -313 -86t-280 -215q-112 -128 -112 -232t119 -162t311 -59q78 0 128 6t68 6t32 -17t16 -44q0 -78 -176 -78
q-342 0 -500 92q-68 39 -109 106t-40 134q1 112 81 234q164 250 484 377q158 62 301 63q79 0 151 -40t109 -104q20 -35 35 -88q178 -14 280 -61q274 -125 275 -350q0 -157 -118 -305t-308 -240t-387 -92q-47 0 -74 2q-184 -176 -418 -176t-362 129q-96 100 -97 204
q0 39 22 65q21 26 51 26t44 -19q14 -18 29 -72q23 -96 107 -153q84 -58 214 -58q131 0 252 97q-33 20 -33 51q1 31 19 49t32 18t42 -4l47 -14q121 139 195 350q75 211 75 416z" />
    <glyph glyph-name="germandbls" unicode="&#xdf;" horiz-adv-x="911" 
d="M-23 -457q-75 0 -75 79t49 235l350 1151q43 143 140 230t207 87t174 -70t65 -215q0 -274 -211 -440q39 -98 39 -176t-32 -168t-85 -154t-99 -85q-47 -21 -143 -21t-213 72l-86 -357q-4 -25 -4 -30l10 -66q1 -29 -25 -51t-61 -21zM365 129q111 0 172 96q74 117 73 219
q0 27 -18 93q-39 -27 -82 -27t-84 43t-41 96t30 88t70 35q70 0 144 -94q141 141 141 340q0 174 -137 174q-79 0 -143 -86q-41 -57 -64 -127l-240 -776q125 -74 179 -74zM500 680q-38 0 -37 -22q-1 -22 21 -42t44 -20t41 20h2l4 5q-37 59 -75 59z" />
    <glyph glyph-name="agrave" unicode="&#xe0;" horiz-adv-x="727" 
d="M600 580q0 57 -47 59q-47 5 -129 -61t-137 -152q-111 -176 -111 -303q0 -25 13 -42q22 -29 71 -1q20 12 123 86q27 18 83 90t89 129q16 33 16 68l4 34l15 37q10 25 10 56zM705 27q-1 -48 -65 -49t-94 35t-40 120q-178 -170 -316 -170q-59 0 -96 43t-37 115q0 166 138 377
q82 124 181 196t182 72t125 -46t42 -106t-6 -84q-6 -22 -6 -26t9 -18t9 -25q0 -12 -12 -43l-80 -223q-6 -15 -6 -57t5 -51t38 -19q29 -6 29 -41zM496 1264q27 0 49 -27l139 -145q59 -62 59 -92q1 -30 -27 -50t-61 -20t-49 35q-2 6 -7 11t-26 32l-122 151q-21 25 -21 33
t20 40t46 32z" />
    <glyph glyph-name="aacute" unicode="&#xe1;" horiz-adv-x="727" 
d="M600 580q0 57 -47 59q-47 5 -129 -61t-137 -152q-111 -176 -111 -303q0 -25 13 -42q22 -29 71 -1q20 12 123 86q27 18 83 90t89 129q16 33 16 68l4 34l15 37q10 25 10 56zM705 27q-1 -48 -65 -49t-94 35t-40 120q-178 -170 -316 -170q-59 0 -96 43t-37 115q0 166 138 377
q82 124 181 196t182 72t125 -46t42 -106t-6 -84q-6 -22 -6 -26t9 -18t9 -25q0 -12 -12 -43l-80 -223q-6 -15 -6 -57t5 -51t38 -19q29 -6 29 -41zM811 1186q0 -8 -20 -33l-123 -152q-17 -22 -23 -28t-14 -21q-12 -28 -45 -28t-60 20q-26 20 -26 45t9 40t50 56l137 146
q23 27 51 27t35 -13q29 -51 29 -59z" />
    <glyph glyph-name="acircumflex" unicode="&#xe2;" horiz-adv-x="727" 
d="M600 580q0 57 -47 59q-47 5 -129 -61t-137 -152q-111 -176 -111 -303q0 -25 13 -42q22 -29 71 -1q20 12 123 86q27 18 83 90t89 129q16 33 16 68l4 34l15 37q10 25 10 56zM705 27q-1 -48 -65 -49t-94 35t-40 120q-178 -170 -316 -170q-59 0 -96 43t-37 115q0 166 138 377
q82 124 181 196t182 72t125 -46t42 -106t-6 -84q-6 -22 -6 -26t9 -18t9 -25q0 -12 -12 -43l-80 -223q-6 -15 -6 -57t5 -51t38 -19q29 -6 29 -41zM389 988q0 32 47 67l182 123q64 41 106 41t52 -23q4 -6 4 -41l29 -61l10 -17l6 -8q11 -27 25 -41q18 -12 18 -29q0 -33 -39 -45
q-37 -14 -66 -14q-28 0 -40 25q-27 47 -47 106l-150 -113q-41 -33 -71 -32q-12 6 -39 18t-27 44z" />
    <glyph glyph-name="atilde" unicode="&#xe3;" horiz-adv-x="727" 
d="M600 580q0 57 -47 59q-47 5 -129 -61t-137 -152q-111 -176 -111 -303q0 -25 13 -42q22 -29 71 -1q20 12 123 86q27 18 83 90t89 129q16 33 16 68l4 34l15 37q10 25 10 56zM705 27q-1 -48 -65 -49t-94 35t-40 120q-178 -170 -316 -170q-59 0 -96 43t-37 115q0 166 138 377
q82 124 181 196t182 72t125 -46t42 -106t-6 -84q-6 -22 -6 -26t9 -18t9 -25q0 -12 -12 -43l-80 -223q-6 -15 -6 -57t5 -51t38 -19q29 -6 29 -41zM777 1075q23 0 46 10q8 14 27 23l4 4q18 10 35 10t37 -24t20 -56t-55 -66t-101 -34t-100 23q-129 59 -176 -4q-18 -23 -53 -23
t-53 23q-4 3 -12 27t-9 33q0 9 25 32l22 22q6 8 40 32q34 23 102 23t155 -45q23 -10 46 -10z" />
    <glyph glyph-name="adieresis" unicode="&#xe4;" horiz-adv-x="727" 
d="M600 580q0 57 -47 59q-47 5 -129 -61t-137 -152q-111 -176 -111 -303q0 -25 13 -42q22 -29 71 -1q20 12 123 86q27 18 83 90t89 129q16 33 16 68l4 34l15 37q10 25 10 56zM705 27q-1 -48 -65 -49t-94 35t-40 120q-178 -170 -316 -170q-59 0 -96 43t-37 115q0 166 138 377
q82 124 181 196t182 72t125 -46t42 -106t-6 -84q-6 -22 -6 -26t9 -18t9 -25q0 -12 -12 -43l-80 -223q-6 -15 -6 -57t5 -51t38 -19q29 -6 29 -41zM885 1044q0 -38 -36 -75t-82 -37t-76 28q-29 28 -29 71q0 44 36 80q37 36 86 39t75 -32q26 -36 26 -74zM473 1161q41 0 73 -31
t32 -60t-16 -60q-38 -72 -128 -72q-32 0 -56 32t-24 74t39 79q39 38 80 38z" />
    <glyph glyph-name="aring" unicode="&#xe5;" horiz-adv-x="727" 
d="M600 580q0 57 -47 59q-47 5 -129 -61t-137 -152q-111 -176 -111 -303q0 -25 13 -42q22 -29 71 -1q20 12 123 86q27 18 83 90t89 129q16 33 16 68l4 34l15 37q10 25 10 56zM705 27q-1 -48 -65 -49t-94 35t-40 120q-178 -170 -316 -170q-59 0 -96 43t-37 115q0 166 138 377
q82 124 181 196t182 72t125 -46t42 -106t-6 -84q-6 -22 -6 -26t9 -18t9 -25q0 -12 -12 -43l-80 -223q-6 -15 -6 -57t5 -51t38 -19q29 -6 29 -41zM636 1272q69 0 117 -47t48 -116t-47 -118t-116 -49t-118 48t-49 117t48 117t117 48zM639 1155q-19 0 -33 -14q-14 -13 -14 -31
t13 -30t31 -13q18 0 32 13q12 13 12 34q0 41 -41 41z" />
    <glyph glyph-name="ae" unicode="&#xe6;" horiz-adv-x="987" 
d="M940 608q0 14 -8 28t-25 15q-17 0 -67 -49t-88 -108l-29 -48q-20 -29 -18 -36q4 -18 34 -19q63 0 132 74t69 143zM590 580q0 55 -48 59q-48 5 -130 -61t-138 -152q-111 -176 -110 -303q0 -25 13 -42q22 -29 71 -1q20 12 123 86q27 18 83 90t89 129q16 33 16 68l4 34
l15 37q12 29 12 56zM1024 629q0 -117 -94 -221t-201 -105q-18 0 -59 10q-37 -53 -37 -125t44 -71q43 0 105 50t100 94t132 177q24 37 52 37t44 -15t16 -36q0 -54 -160 -242t-290 -188q-66 0 -115 41t-57 106q-174 -178 -326 -178q-59 0 -96 43t-37 115q0 166 137 377
q82 124 182 196t178 72q153 0 169 -139q104 115 198 114q51 -1 83 -31t32 -81z" />
    <glyph glyph-name="ccedilla" unicode="&#xe7;" horiz-adv-x="698" 
d="M516 762q78 0 148 -71t70 -138t-36 -113q-35 -46 -72 -45q-36 -1 -58 17t-22 36t13 46q12 28 12 54q1 26 -25 50t-66 25q-40 -1 -120 -61t-136 -146t-56 -152t31 -104q31 -39 82 -39q174 0 288 121q37 37 67 37q30 1 49 -17t19 -51t-81 -98q-154 -119 -328 -119
q-131 0 -202 61t-70 174q0 176 164 355q165 178 329 178zM66 -378q0 26 24 50l14 15l125 168q33 54 94 10t23 -88l-133 -191q-47 -63 -127 -2q-20 12 -20 38z" />
    <glyph glyph-name="egrave" unicode="&#xe8;" horiz-adv-x="546" 
d="M472 762q71 0 112 -44t41 -120q0 -121 -111 -231q-102 -109 -211 -109q-31 0 -102 14q-16 -47 -17 -90q0 -92 88 -92q72 0 128 28t77 29q21 0 37 -18t16 -39q0 -39 -65 -65q-107 -45 -203 -45t-151 53t-55 165t77 236l98 162q33 58 101 112t140 54zM260 406q0 -20 31 -21
q57 0 124 69t66 128q0 34 -28 30q-25 -2 -71 -43t-79 -92l-31 -45q-12 -18 -12 -26zM369 1217q27 0 49 -27l137 -146q41 -43 50 -57t9 -39t-26 -45t-60 -20q-33 0 -49 35q-4 8 -14 18t-12 16l-129 160q-20 25 -21 39q11 23 25 44q14 22 41 22z" />
    <glyph glyph-name="eacute" unicode="&#xe9;" horiz-adv-x="546" 
d="M472 762q71 0 112 -44t41 -120q0 -121 -111 -231q-102 -109 -211 -109q-31 0 -102 14q-16 -47 -17 -90q0 -92 88 -92q72 0 128 28t77 29q21 0 37 -18t16 -39q0 -39 -65 -65q-107 -45 -203 -45t-151 53t-55 165t77 236l98 162q33 58 101 112t140 54zM260 406q0 -20 31 -21
q57 0 124 69t66 128q0 34 -28 30q-25 -2 -71 -43t-79 -92l-31 -45q-12 -18 -12 -26zM799 1139q0 -8 -21 -33l-123 -152q-12 -16 -20 -25t-17 -24q-12 -27 -46 -27t-60 20q-26 19 -26 48t59 92l137 146q26 26 52 26t34 -12q31 -51 31 -59z" />
    <glyph glyph-name="ecircumflex" unicode="&#xea;" horiz-adv-x="546" 
d="M472 762q71 0 112 -44t41 -120q0 -121 -111 -231q-102 -109 -211 -109q-31 0 -102 14q-16 -47 -17 -90q0 -92 88 -92q72 0 128 28t77 29q21 0 37 -18t16 -39q0 -39 -65 -65q-107 -45 -203 -45t-151 53t-55 165t77 236l98 162q33 58 101 112t140 54zM260 406q0 -20 31 -21
q57 0 124 69t66 128q0 34 -28 30q-25 -2 -71 -43t-79 -92l-31 -45q-12 -18 -12 -26zM375 874q-2 0 -34 16t-32 44q0 26 9 38t38 32l183 122q55 41 90 41t53 -10t18 -20l-2 -33l29 -60l10 -18l6 -8l5 -10q4 -18 21 -32t17 -28q0 -35 -38 -45q-40 -14 -65 -14q-26 0 -42 26
q-33 58 -45 105l-150 -111q-47 -35 -71 -35z" />
    <glyph glyph-name="edieresis" unicode="&#xeb;" horiz-adv-x="546" 
d="M472 762q71 0 112 -44t41 -120q0 -121 -111 -231q-102 -109 -211 -109q-31 0 -102 14q-16 -47 -17 -90q0 -92 88 -92q72 0 128 28t77 29q21 0 37 -18t16 -39q0 -39 -65 -65q-107 -45 -203 -45t-151 53t-55 165t77 236l98 162q33 58 101 112t140 54zM260 406q0 -20 31 -21
q57 0 124 69t66 128q0 34 -28 30q-25 -2 -71 -43t-79 -92l-31 -45q-12 -18 -12 -26zM708 1106q46 0 74 -27t27 -71q0 -44 -35 -82q-35 -37 -80 -37q-45 -1 -76 27t-30 73q0 45 37 81t83 36zM399 1118q43 0 74 -31t28 -77t-42 -79q-39 -34 -85 -34t-70 31q-24 32 -24 74
t38 79t81 37z" />
    <glyph glyph-name="igrave" unicode="&#xec;" horiz-adv-x="307" 
d="M228 121q18 1 34 -17t16 -44t-29 -46q-30 -20 -76 -20t-75 39q-28 39 -28 115t32 163l101 273q35 92 92 92q27 0 45 -20t18 -46q0 -28 -12 -55l-117 -260q-29 -57 -28 -143q0 -18 2 -33q7 2 25 2zM158 1090q27 0 49 -27l137 -145q41 -44 50 -58t9 -39q-1 -25 -27 -45
t-58 -20t-50 35q-2 6 -10 14t-22 29l-123 151q-21 25 -21 33t20 40t46 32z" />
    <glyph glyph-name="iacute" unicode="&#xed;" horiz-adv-x="307" 
d="M228 121q18 1 34 -17t16 -44t-29 -46q-30 -20 -76 -20t-75 39q-28 39 -28 115t32 163l101 273q35 92 92 92q27 0 45 -20t18 -46q0 -28 -12 -55l-117 -260q-29 -57 -28 -143q0 -18 2 -33q7 2 25 2zM538 1071q22 0 27 -3q4 -2 22 -26q17 -24 17 -39t-20 -36l-123 -152
q-8 -16 -19 -26q-10 -9 -21 -31t-42 -21t-59 21t-27 50q0 30 59 91l137 145q27 27 49 27z" />
    <glyph glyph-name="icircumflex" unicode="&#xee;" horiz-adv-x="307" 
d="M228 121q18 1 34 -17t16 -44t-29 -46q-30 -20 -76 -20t-75 39q-28 39 -28 115t32 163l101 273q35 92 92 92q27 0 45 -20t18 -46q0 -28 -12 -55l-117 -260q-29 -57 -28 -143q0 -18 2 -33q7 2 25 2zM392 1061q32 0 51 -10t20 -21l-2 -33q2 -4 4 -10l24 -51l17 -25
q13 -32 27 -42q15 -11 16 -27q0 -33 -39 -45q-38 -14 -64 -15q-26 0 -43 25q-27 45 -47 104l-147 -110q-45 -33 -72 -33l-37 16q-28 14 -28 42t9 39t38 32l182 123q59 41 91 41z" />
    <glyph glyph-name="idieresis" unicode="&#xef;" horiz-adv-x="307" 
d="M228 121q18 1 34 -17t16 -44t-29 -46q-30 -20 -76 -20t-75 39q-28 39 -28 115t32 163l101 273q35 92 92 92q27 0 45 -20t18 -46q0 -28 -12 -55l-117 -260q-29 -57 -28 -143q0 -18 2 -33q7 2 25 2zM489 969q45 0 72 -27t27 -73t-34 -82q-34 -35 -81 -35t-77 28t-30 71
q0 44 40 81q38 37 83 37zM219 981q43 0 74 -31q31 -32 28 -80t-51 -86q-31 -26 -76 -26q-46 0 -70 32t-24 74t38 80q38 37 81 37z" />
    <glyph glyph-name="eth" unicode="&#xf0;" horiz-adv-x="659" 
d="M156 254q0 -68 28 -104t82 -37q106 0 196 111q89 112 89 245q0 158 -111 164h-14q-39 -2 -93 -41t-93 -92q-84 -117 -84 -246zM245 -8q-99 0 -161 62q-61 62 -61 167q0 195 130 368t276 173t218 -137q35 139 35 221v45q0 43 -2 67l-113 -30q-155 -49 -155 47q0 29 22 43
q23 14 107 37l108 30q-43 90 -129 152q-31 19 -40 33t-9 40q1 26 21 42t53 16q65 0 137 -89t98 -157l76 21q74 20 100 20q63 0 64 -59q0 -31 -27 -50t-94 -34l-88 -25q6 -59 6 -67q-10 -156 -14 -180q-14 -94 -90 -294t-130 -279q-55 -79 -147 -131t-191 -52z" />
    <glyph glyph-name="ntilde" unicode="&#xf1;" horiz-adv-x="671" 
d="M108 0q-32 0 -54 22t-22 60t38 147l114 340l19 76q12 104 94 105q31 0 53 -20t23 -48q0 -27 -41 -131l-31 -76l68 86q61 80 91 104q30 23 64 23t58 -26t24 -64q0 -37 -26 -131l-43 -145q-35 -117 -35 -207q0 -16 2 -33q6 2 10 6q25 35 56 35q32 -1 48 -19t16 -52t-50 -76
q-52 -42 -104 -42t-83 46q-63 92 -2 329l35 123l-211 -319q-37 -77 -57 -95q-22 -18 -54 -18zM647 784q-43 0 -104 23q-129 59 -176 -6q-16 -21 -52 -21t-55 23q-20 31 -20 49t24 43l23 23q5 8 39 32t104 23q70 0 154 -45q23 -10 45 -10t49 10q5 11 28 23q23 13 27 14
q27 0 46 -24q19 -25 19 -57t-54 -66t-97 -34z" />
    <glyph glyph-name="ograve" unicode="&#xf2;" horiz-adv-x="659" 
d="M440 635q-92 0 -185 -131t-93 -260q0 -54 31 -96t77 -42t111 41q66 41 106 101q14 20 48 90q33 70 30 78q-10 82 -11 120t-34 68q-33 31 -80 31zM436 776q70 0 128 -36t91 -95q55 -106 56 -158q0 -6 -28 -104q-27 -98 -49 -141t-76 -106q-54 -64 -136 -104t-178 -40
t-158 55q-63 55 -63 152q0 174 112 362q125 215 301 215zM388 1239q26 0 52 -27l138 -145q59 -63 59 -92t-28 -49q-27 -20 -59 -20t-50 34q-4 8 -14 18t-17 25l-125 152q-20 29 -20 39q8 14 22 40q16 25 42 25z" />
    <glyph glyph-name="oacute" unicode="&#xf3;" horiz-adv-x="659" 
d="M440 635q-92 0 -185 -131t-93 -260q0 -54 31 -96t77 -42t111 41q66 41 106 101q14 20 48 90q33 70 30 78q-10 82 -11 120t-34 68q-33 31 -80 31zM436 776q70 0 128 -36t91 -95q55 -106 56 -158q0 -6 -28 -104q-27 -98 -49 -141t-76 -106q-54 -64 -136 -104t-178 -40
t-158 55q-63 55 -63 152q0 174 112 362q125 215 301 215zM760 1175q0 -13 -21 -36l-123 -152q-6 -11 -17 -23t-17 -26q-12 -29 -45 -29q-33 1 -61 21t-28 45t11 40q10 15 49 56l137 146q27 27 49 27t26 -4t22 -28t18 -37z" />
    <glyph glyph-name="ocircumflex" unicode="&#xf4;" horiz-adv-x="659" 
d="M440 635q-92 0 -185 -131t-93 -260q0 -54 31 -96t77 -42t111 41q66 41 106 101q14 20 48 90q33 70 30 78q-10 82 -11 120t-34 68q-33 31 -80 31zM436 776q70 0 128 -36t91 -95q55 -106 56 -158q0 -6 -28 -104q-27 -98 -49 -141t-76 -106q-54 -64 -136 -104t-178 -40
t-158 55q-63 55 -63 152q0 174 112 362q125 215 301 215zM332 889q-2 0 -35 16q-29 13 -29 41t10 40t37 32l181 123q63 39 95 39t50 -10t18 -21l-2 -31l29 -61l10 -17l6 -8l5 -10q4 -16 21 -32t17 -27q0 -33 -36 -47q-35 -14 -65 -13q-30 0 -50 35t-41 94l-147 -110
q-45 -33 -74 -33z" />
    <glyph glyph-name="otilde" unicode="&#xf5;" horiz-adv-x="659" 
d="M440 635q-92 0 -185 -131t-93 -260q0 -54 31 -96t77 -42t111 41q66 41 106 101q14 20 48 90q33 70 30 78q-10 82 -11 120t-34 68q-33 31 -80 31zM436 776q70 0 128 -36t91 -95q55 -106 56 -158q0 -6 -28 -104q-27 -98 -49 -141t-76 -106q-54 -64 -136 -104t-178 -40
t-158 55q-63 55 -63 152q0 174 112 362q125 215 301 215zM662 909q-50 0 -108 25t-65 24q-49 0 -68 -6t-35 -28t-34 -21q-18 0 -42 8t-29 17q-5 2 -13 26t-8 33q0 10 25 33q14 8 21 19t43 35q35 24 101 24t154 -45q41 -23 94 0q10 17 31 24q16 11 32 13q15 2 37 -24t22 -58
t-55 -65q-53 -34 -103 -34z" />
    <glyph glyph-name="odieresis" unicode="&#xf6;" horiz-adv-x="659" 
d="M440 635q-92 0 -185 -131t-93 -260q0 -54 31 -96t77 -42t111 41q66 41 106 101q14 20 48 90q33 70 30 78q-10 82 -11 120t-34 68q-33 31 -80 31zM436 776q70 0 128 -36t91 -95q55 -106 56 -158q0 -6 -28 -104q-27 -98 -49 -141t-76 -106q-54 -64 -136 -104t-178 -40
t-158 55q-63 55 -63 152q0 174 112 362q125 215 301 215zM705 1124q47 0 73 -26t27 -71q0 -46 -35 -83t-80 -37t-76 28t-30 73q0 44 37 80t84 36zM395 1137q43 0 74 -32t28 -79t-53 -86q-27 -25 -74 -25q-46 0 -70 31t-24 75t38 80t81 36z" />
    <glyph glyph-name="divide" unicode="&#xf7;" horiz-adv-x="927" 
d="M448 647q-46 0 -78 26q-32 25 -32 73t61 73q98 34 141 -9q24 -24 24 -62t-35 -70q-35 -31 -81 -31zM360 352q117 0 117 -86q0 -42 -37 -72t-82 -30q-46 0 -76 29t-30 69t30 64q30 26 78 26zM132 434q-22 0 -44 20t-20 54q0 32 36 60t84 24l453 -17l74 11q19 0 39 -23
t20 -53t-31 -54q-31 -22 -81 -22l-35 2h-37l-232 10l-116 3q-33 1 -61 -7q-27 -8 -49 -8z" />
    <glyph glyph-name="oslash" unicode="&#xf8;" horiz-adv-x="684" 
d="M477 635q-88 0 -181 -126t-97 -253l325 369q-23 10 -47 10zM592 496l-338 -373q24 -19 60 -19t104 43t106 101q10 12 44 83t34 77q-10 86 -10 88zM473 776q80 0 143 -45l41 47q66 74 83 96q16 22 34 61q18 38 36 52t51 14q31 0 55 -20t24 -49q0 -49 -106 -166l-129 -145
q43 -96 43 -134q0 -6 -28 -104t-50 -141t-68 -99q-133 -152 -315 -151q-63 0 -125 28l-2 -2q-90 -123 -103 -149q-31 -61 -74 -61t-63 18t-20 49t32 66l146 168q-18 47 -19 90q0 169 120 373t294 204z" />
    <glyph glyph-name="ugrave" unicode="&#xf9;" horiz-adv-x="606" 
d="M288 1141q22 0 48 -27l137 -145q59 -61 59 -91t-28 -51q-28 -20 -59 -20q-32 0 -50 35q-6 12 -12 17q-9 7 -18 26l-125 151q-29 40 -8 66q20 27 27 33t29 6zM479 14q-72 0 -106 60q-10 20 -17 61q-109 -145 -213 -145q-47 0 -79 35t-31 101q0 66 37 173l100 283
q33 98 64 137q32 39 68 39t58 -20t21 -62q-1 -41 -33 -83t-41 -63l-114 -264q-25 -49 -25 -108q0 -44 51 14q29 30 99 144t77 149l29 94q25 88 98 88q31 0 50 -19q20 -19 20 -45t-25 -81l-32 -88q-47 -121 -48 -207q0 -7 1 -15t2 -22t2 -27q23 9 41 9t36 -20q19 -20 19 -45
t-33 -49t-76 -24z" />
    <glyph glyph-name="uacute" unicode="&#xfa;" horiz-adv-x="606" 
d="M709 1050q0 -11 -21 -36l-123 -152q-20 -27 -24 -31t-13 -18q-12 -29 -45 -29t-61 20t-26 50q0 29 59 92l137 146q27 26 49 26q23 0 27 -3t22 -29t19 -36zM479 14q-72 0 -106 60q-10 20 -17 61q-109 -145 -213 -145q-47 0 -79 35t-31 101q0 66 37 173l100 283
q33 98 64 137q32 39 68 39t58 -20t21 -62q-1 -41 -33 -83t-41 -63l-114 -264q-25 -49 -25 -108q0 -44 51 14q29 30 99 144t77 149l29 94q25 88 98 88q31 0 50 -19q20 -19 20 -45t-25 -81l-32 -88q-47 -121 -48 -207q0 -7 1 -15t2 -22t2 -27q23 9 41 9t36 -20q19 -20 19 -45
t-33 -49t-76 -24z" />
    <glyph glyph-name="ucircumflex" unicode="&#xfb;" horiz-adv-x="606" 
d="M316 827q-18 -1 -49 15q-30 16 -29 49q0 33 47 63l182 123q59 41 102 41t56 -20q4 -6 4 -41l28 -62l11 -18l6 -8l2 -11q6 -14 22 -30q18 -12 19 -29q0 -33 -39 -45q-37 -14 -65 -14q-27 0 -42 26q-35 60 -47 105l-149 -111q-41 -33 -59 -33zM479 14q-72 0 -106 60
q-10 20 -17 61q-109 -145 -213 -145q-47 0 -79 35t-31 101q0 66 37 173l100 283q33 98 64 137q32 39 68 39t58 -20t21 -62q-1 -41 -33 -83t-41 -63l-114 -264q-25 -49 -25 -108q0 -44 51 14q29 30 99 144t77 149l29 94q25 88 98 88q31 0 50 -19q20 -19 20 -45t-25 -81
l-32 -88q-47 -121 -48 -207q0 -7 1 -15t2 -22t2 -27q23 9 41 9t36 -20q19 -20 19 -45t-33 -49t-76 -24z" />
    <glyph glyph-name="udieresis" unicode="&#xfc;" horiz-adv-x="606" 
d="M653 1044q47 0 74 -26t27 -71q0 -46 -35 -83t-80 -37t-76 28t-31 73q0 44 37 80t84 36zM343 1057q44 0 74 -30q53 -53 13 -122q-39 -69 -113 -69q-45 0 -69 30t-23 75q0 44 37 80t81 36zM479 14q-72 0 -106 60q-10 20 -17 61q-109 -145 -213 -145q-47 0 -79 35t-31 101
q0 66 37 173l100 283q33 98 64 137q32 39 68 39t58 -20t21 -62q-1 -41 -33 -83t-41 -63l-114 -264q-25 -49 -25 -108q0 -44 51 14q29 30 99 144t77 149l29 94q25 88 98 88q31 0 50 -19q20 -19 20 -45t-25 -81l-32 -88q-47 -121 -48 -207q0 -7 1 -15t2 -22t2 -27q23 9 41 9
t36 -20q19 -20 19 -45t-33 -49t-76 -24z" />
    <glyph glyph-name="yacute" unicode="&#xfd;" horiz-adv-x="657" 
d="M688 1147q26 0 35 -14q29 -51 29 -59t-21 -34l-123 -151q-20 -27 -24 -31t-13 -18q-12 -27 -46 -27q-33 -1 -59 19t-26 46t10 40q9 14 50 57l137 143q25 29 51 29zM53 92q0 154 133 432q58 123 94 166t72 43t57 -23q19 -24 19 -61q0 -68 -51 -94q-25 -11 -36 -27t-40 -71
q-121 -236 -121 -357q0 -41 27 -41q51 1 119 73t132 183q65 111 82 169t34 78q18 20 48 20t47 -18t17 -47q0 -28 -13 -84q-13 -55 -29 -157t-32 -155q-14 -53 -54 -209t-150 -294q-110 -136 -226 -136q-35 0 -81 20t-72 49q-88 92 -88 211q0 39 28 68q29 29 63 29
q34 1 53 -19t19 -46t-14 -45t-14 -30t16 -51q32 -66 96 -66t156 136q32 50 58 120t79 263q-47 -51 -61 -66q-117 -117 -232 -116q-59 0 -97 43t-38 110z" />
    <glyph glyph-name="thorn" unicode="&#xfe;" horiz-adv-x="724" 
d="M360 72q62 0 138 114t76 290q0 177 -74 171q-44 -2 -106 -72t-124 -188l-102 -203l68 -51q80 -61 124 -61zM-25 -461q-75 0 -75 109q0 63 49 225l389 1301q18 63 41 88q23 24 57 24t56 -24q23 -24 14 -70l-162 -490q104 78 186 78t128 -78t47 -221q0 -250 -138 -418
q-92 -119 -219 -118q-55 1 -102 21t-123 77l-68 -324q-4 -29 -4 -32l10 -70q1 -31 -25 -55t-61 -23z" />
    <glyph glyph-name="ydieresis" unicode="&#xff;" horiz-adv-x="657" 
d="M735 1006q47 0 74 -26t27 -72t-35 -83t-80 -37t-76 29t-31 73t37 80t84 36zM425 1018q44 0 75 -31q32 -31 28 -77t-44 -80t-85 -34t-69 32t-23 75q0 43 37 79t81 36zM53 92q0 154 133 432q58 123 94 166t72 43t57 -23q19 -24 19 -61q0 -68 -51 -94q-25 -11 -36 -27
t-40 -71q-121 -236 -121 -357q0 -41 27 -41q51 1 119 73t132 183q65 111 82 169t34 78q18 20 48 20t47 -18t17 -47q0 -28 -13 -84q-13 -55 -29 -157t-32 -155q-14 -53 -54 -209t-150 -294q-110 -136 -226 -136q-35 0 -81 20t-72 49q-88 92 -88 211q0 39 28 68q29 29 63 29
q34 1 53 -19t19 -46t-14 -45t-14 -30t16 -51q32 -66 96 -66t156 136q32 50 58 120t79 263q-47 -51 -61 -66q-117 -117 -232 -116q-59 0 -97 43t-38 110z" />
    <glyph glyph-name="Amacron" unicode="&#x100;" horiz-adv-x="1173" 
d="M659 1722q0 31 39 60t84 26l92 -6l361 -12l74 10q20 0 39 -21q18 -23 18 -57t-43 -59q-19 -12 -61 -12t-78 2l-232 10l-116 2l-105 -14q-29 0 -51 20t-21 51zM965 1448q-125 0 -271 -121t-258 -309q-110 -188 -178 -386t-68 -304t34 -158q34 -51 87 -51q100 0 240 121
q213 186 344 409l100 176q39 59 95 62q-6 18 -6 27t16 66t16 187q0 129 -44 205t-107 76zM1098 141q53 0 53 -58q0 -31 -39 -57q-38 -26 -96 -26t-98 61t-39 140q0 79 10 151l14 105q-178 -203 -260 -283q-195 -184 -367 -184q-86 0 -147 85t-61 206q0 190 104 456t260 471
q279 367 559 367q117 0 188 -109t70 -288v-74q0 -41 -13 -113q-12 -71 -24 -97t-26 -34t-47 -12q4 -24 4 -38t-36 -94t-68 -234q-31 -153 -31 -217t14 -101t29 -35l4 2z" />
    <glyph glyph-name="amacron" unicode="&#x101;" horiz-adv-x="727" 
d="M600 580q0 57 -47 59q-47 5 -129 -61t-137 -152q-111 -176 -111 -303q0 -25 13 -42q22 -29 71 -1q20 12 123 86q27 18 83 90t89 129q16 33 16 68l4 34l15 37q10 25 10 56zM705 27q-1 -48 -65 -49t-94 35t-40 120q-178 -170 -316 -170q-59 0 -96 43t-37 115q0 166 138 377
q82 124 181 196t182 72t125 -46t42 -106t-6 -84q-6 -22 -6 -26t9 -18t9 -25q0 -12 -12 -43l-80 -223q-6 -15 -6 -57t5 -51t38 -19q29 -6 29 -41zM310 942q-22 0 -44 22t-20 52q0 30 38 58t85 26l450 -17l76 11q21 0 39 -22t18 -54t-30 -54t-82 -22l-35 2h-37l-229 10l-119 2
q-33 0 -61 -7q-27 -7 -49 -7z" />
    <glyph glyph-name="Abreve" unicode="&#x102;" horiz-adv-x="1173" 
d="M1020 1624q-40 0 -70 33q-45 43 -61 96q-18 33 -29 43q-20 14 -20 43t30 39l41 14q14 2 33 3q40 2 57 -48l13 -16q2 -4 4 -9t4 -8l4 -8t6 -16t12 -12l43 24l130 86q23 16 41 16t24 -10h4q41 -18 40 -56t-46 -66l-152 -101q-68 -47 -108 -47zM965 1448q-125 0 -271 -121
t-258 -309q-110 -188 -178 -386t-68 -304t34 -158q34 -51 87 -51q100 0 240 121q213 186 344 409l100 176q39 59 95 62q-6 18 -6 27t16 66t16 187q0 129 -44 205t-107 76zM1098 141q53 0 53 -58q0 -31 -39 -57q-38 -26 -96 -26t-98 61t-39 140q0 79 10 151l14 105
q-178 -203 -260 -283q-195 -184 -367 -184q-86 0 -147 85t-61 206q0 190 104 456t260 471q279 367 559 367q117 0 188 -109t70 -288v-74q0 -41 -13 -113q-12 -71 -24 -97t-26 -34t-47 -12q4 -24 4 -38t-36 -94t-68 -234q-31 -153 -31 -217t14 -101t29 -35l4 2z" />
    <glyph glyph-name="abreve" unicode="&#x103;" horiz-adv-x="727" 
d="M600 580q0 57 -47 59q-47 5 -129 -61t-137 -152q-111 -176 -111 -303q0 -25 13 -42q22 -29 71 -1q20 12 123 86q27 18 83 90t89 129q16 33 16 68l4 34l15 37q10 25 10 56zM705 27q-1 -48 -65 -49t-94 35t-40 120q-178 -170 -316 -170q-59 0 -96 43t-37 115q0 166 138 377
q82 124 181 196t182 72t125 -46t42 -106t-6 -84q-6 -22 -6 -26t9 -18t9 -25q0 -12 -12 -43l-80 -223q-6 -15 -6 -57t5 -51t38 -19q29 -6 29 -41zM848 1212q18 0 24 -10h5q41 -18 39 -56t-46 -67l-151 -102q-70 -45 -110 -45t-68 33q-45 43 -62 96q-18 33 -28 43
q-21 14 -21 43t31 39l41 14q14 2 32 3q39 2 58 -48q24 -32 28 -48t9 -21q4 -5 30 14l19 10l129 86q23 16 41 16z" />
    <glyph glyph-name="Aogonek" unicode="&#x104;" horiz-adv-x="1173" 
d="M965 1448q-125 0 -271 -121t-258 -309q-110 -188 -178 -386t-68 -304t34 -158q34 -51 87 -51q100 0 240 121q213 186 344 409l100 176q39 59 95 62q-6 18 -6 27t16 66t16 187q0 129 -44 205t-107 76zM1151 88q0 -23 -15 -39q-15 -15 -87 -77t-84 -76t-13 -33
q0 -29 68 -29t67 -61q1 -29 -31 -48t-88 -19t-104 48q-47 49 -47 115q0 90 123 166q-61 55 -61 192q0 53 10 125l14 105q-178 -203 -260 -283q-195 -184 -367 -184q-86 0 -147 85t-61 206q0 190 104 456t260 471q279 367 559 367q117 -1 187 -109t71 -288v-74
q0 -41 -13 -113q-12 -71 -24 -97t-26 -34t-47 -12q4 -26 4 -40t-36 -94t-68 -232q-31 -153 -31 -217t14 -101t29 -35l4 2l43 10q53 0 53 -53z" />
    <glyph glyph-name="aogonek" unicode="&#x105;" horiz-adv-x="727" 
d="M600 580q0 57 -47 59q-47 5 -129 -61t-137 -152q-111 -176 -111 -303q0 -25 13 -42q22 -29 71 -1q20 12 123 86q27 18 83 90t89 129q16 33 16 68l4 34l15 37q10 25 10 56zM553 -311q-55 0 -102 50t-48 116q0 94 134 172q-20 31 -31 106q-178 -170 -316 -170q-59 0 -96 43
t-37 115q0 166 138 377q82 124 181 196t182 72t125 -46t42 -106t-6 -84q-6 -22 -6 -26t9 -18t9 -25q0 -12 -12 -43l-80 -223q-6 -15 -6 -57t5 -51t38 -19q29 -6 29 -34t-25 -46q-142 -102 -142 -134q0 -16 7 -21q6 -5 37 -15l30 2q27 2 44 -16q18 -18 18 -47q0 -30 -33 -49
t-88 -19z" />
    <glyph glyph-name="Cacute" unicode="&#x106;" horiz-adv-x="1083" 
d="M894 1550q-32 0 -58 20t-27 44q0 24 9 40t50 58l138 146q27 26 48 26t25 -3t23 -27q18 -24 18 -37q0 -12 -20 -39l-123 -150q-8 -16 -25 -31l-10 -18q-16 -29 -48 -29zM1064 692q-48 -104 -114 -104t-67 93q0 50 49 167l74 180q14 31 14 117q0 87 -45 155t-117 68
q-143 0 -298 -152t-256 -381q-101 -230 -101 -446q0 -305 254 -305q100 0 184 33q85 33 193 119t184 182q45 57 78 57t51 -17t18 -42q0 -47 -166 -201q-272 -256 -557 -256q-176 0 -275 111q-99 112 -99 316t97 438t263 427q209 242 459 242q70 0 130 -37q60 -38 94 -106
t42 -119l8 -35l25 -27q10 -14 10 -28t-27 -70t-36 -149q-21 -126 -69 -230z" />
    <glyph glyph-name="cacute" unicode="&#x107;" horiz-adv-x="698" 
d="M516 762q78 0 148 -71t70 -138t-36 -113q-35 -46 -72 -45q-36 -1 -58 17t-22 36t13 46q12 28 12 54q1 26 -25 50t-66 25q-40 -1 -120 -61t-136 -146t-56 -152t31 -104q31 -39 82 -39q174 0 288 121q37 37 67 37q30 1 49 -17t19 -51t-81 -98q-154 -119 -328 -119
q-131 0 -202 61t-70 174q0 176 164 355q165 178 329 178zM725 1141q0 -12 -20 -35l-123 -152q-6 -12 -18 -23q-11 -11 -21 -32t-43 -21t-60 20q-26 19 -26 44t10 40t49 56l137 146q27 26 53 26q27 0 31 -8t25 -37q6 -12 6 -24z" />
    <glyph glyph-name="Ccaron" unicode="&#x10c;" horiz-adv-x="1083" 
d="M1219 1766q0 -32 -48 -66l-182 -123q-63 -41 -103 -41t-55 23q-4 6 -4 40l-28 60l-11 18l-6 9l-2 10q-6 14 -22 30q-18 12 -19 29q0 33 39 46t65 13q27 1 42 -24q33 -58 47 -107l149 111q39 35 72 35q12 -7 39 -19t27 -44zM1064 692q-48 -104 -114 -104t-67 93
q0 50 49 167l74 180q14 31 14 117q0 87 -45 155t-117 68q-143 0 -298 -152t-256 -381q-101 -230 -101 -446q0 -305 254 -305q100 0 184 33q85 33 193 119t184 182q45 57 78 57t51 -17t18 -42q0 -47 -166 -201q-272 -256 -557 -256q-176 0 -275 111q-99 112 -99 316t97 438
t263 427q209 242 459 242q70 0 130 -37q60 -38 94 -106t42 -119l8 -35l25 -27q10 -14 10 -28t-27 -70t-36 -149q-21 -126 -69 -230z" />
    <glyph glyph-name="ccaron" unicode="&#x10d;" horiz-adv-x="698" 
d="M516 762q78 0 148 -71t70 -138t-36 -113q-35 -46 -72 -45q-36 -1 -58 17t-22 36t13 46q12 28 12 54q1 26 -25 50t-66 25q-40 -1 -120 -61t-136 -146t-56 -152t31 -104q31 -39 82 -39q174 0 288 121q37 37 67 37q30 1 49 -17t19 -51t-81 -98q-154 -119 -328 -119
q-131 0 -202 61t-70 174q0 176 164 355q165 178 329 178zM813 1161q2 0 34 -16q32 -17 32 -43q1 -26 -9 -38t-39 -32l-182 -123q-55 -41 -90 -41t-53 10t-19 21l2 33l-28 59l-10 19l-7 8q-12 31 -27 43t-16 26q0 35 39 46q40 14 65 14q26 0 42 -27q33 -57 45 -104l149 110
q47 35 72 35z" />
    <glyph glyph-name="Dcaron" unicode="&#x10e;" horiz-adv-x="1517" 
d="M1097 1794q25 0 42 -25q27 -47 47 -106l147 113q45 33 72 32l37 -16q28 -14 28 -42t-9 -38q-9 -12 -38 -33l-182 -123q-86 -60 -142 -30q-19 10 -20 20l2 33q-2 4 -4 10l-24 51l-11 17l-6 8q-13 32 -27 42q-15 11 -16 28q0 33 39 45q40 14 65 14zM719 154q1 -31 103 -31
t234 55t240 150q238 211 238 501q0 176 -121 318q-78 90 -172 131t-231 41q-254 0 -478 -127q-145 -84 -236 -200t-91 -216q0 -117 141 -151q60 -15 80 -31t20 -42t-17 -42t-42 -16q-92 0 -201 59q-53 29 -86 85t-32 122q0 137 107 279q108 142 290 247q260 152 553 152
q358 0 543 -264q106 -152 106 -343q0 -328 -250 -559q-131 -126 -300 -198t-295 -72q-252 0 -252 122q0 58 26 134l283 838q12 37 23 80q24 94 93 94q35 0 60 -24t25 -54t-7 -42q-6 -13 -43 -67q-33 -55 -59 -137l-234 -706q-18 -55 -18 -86z" />
    <glyph glyph-name="dcaron" unicode="&#x10f;" horiz-adv-x="745" 
d="M547 553q0 72 -52 72t-131 -71q-79 -70 -145 -182t-65 -212q0 -39 12 -65q12 -25 34 -25t70 34t95 82q182 195 182 367zM666 98q59 0 59 -55q0 -27 -24 -44q-23 -17 -73 -17q-104 0 -120 190q-8 -6 -14 -14q-62 -88 -150 -144t-157 -57q-69 0 -109 52t-41 136
q0 84 29 181q53 164 190 294t258 130q55 0 125 -64l133 346l8 29q12 68 72 67q36 0 58 -24t22 -48t-4 -36l-191 -451q-55 -127 -81 -247t-26 -146q0 -25 11 -78h25zM1138 1085q20 0 64 -22q27 -6 27 -25q0 -12 -21 -43l-34 -55q-31 -49 -58 -82q-24 -48 -68 -92t-74 -45
q-28 0 -54 18q-25 9 -25 35t33 66l49 59l24 41l68 88q19 57 69 57z" />
    <glyph glyph-name="Dcroat" unicode="&#x110;" horiz-adv-x="1517" 
d="M1030 438q78 0 100 -8q39 -14 39 -56t-29 -55q-30 -12 -120 -12h-262l-21 -65q-18 -59 -18 -86q1 -33 103 -33t234 55t240 152q238 211 238 501q0 176 -121 318q-145 172 -402 172t-479 -129q-145 -84 -236 -199t-91 -215q0 -117 141 -151q60 -15 80 -31t20 -42t-17 -42
t-42 -16q-96 0 -201 57q-53 31 -86 87t-32 120q0 139 107 281q108 142 290 247q260 152 547 152t471 -172t184 -434q0 -326 -250 -562q-131 -122 -300 -196t-295 -74t-189 32t-63 89t26 137l14 45h-75q-80 0 -105 6q-45 11 -45 53t27 57t96 15h147l224 660l16 57
q21 69 41 93t58 24t62 -23t24 -53t-7 -42q-7 -13 -31 -50t-36 -62l-35 -94l-168 -508h227z" />
    <glyph glyph-name="dcroat" unicode="&#x111;" horiz-adv-x="745" 
d="M547 553q0 72 -52 72t-131 -71q-79 -70 -145 -182t-65 -212q0 -39 12 -65q12 -25 34 -25t70 34t95 82q182 195 182 367zM428 930q0 28 40 56t81 24l211 -13l12 35l8 29q12 68 72 67q36 0 58 -24t22 -48t-4 -36l-13 -29h15l74 10q20 0 45 -29t7 -59q-20 -31 -38 -41
t-58 -10t-81 2h-17l-125 -295q-55 -127 -81 -247t-26 -146q0 -24 11 -78h25q59 0 59 -55q0 -27 -24 -44q-23 -17 -73 -17q-104 0 -120 190q-8 -6 -14 -14q-62 -88 -150 -144t-157 -57q-69 0 -109 52t-41 136q0 84 29 181q53 164 190 294t258 130q55 0 125 -64l72 184l-109 7
l-110 -15q-24 0 -44 20t-20 48z" />
    <glyph glyph-name="Emacron" unicode="&#x112;" horiz-adv-x="917" 
d="M424 1583q0 33 38 61t83 25l94 -6l358 -12l74 10q23 -1 40 -21t17 -47q0 -82 -112 -82q-29 0 -70 2l-231 11l-117 2l-104 -15q-30 -1 -50 19t-20 53zM324 -14q-252 0 -252 184q-1 131 65 295l47 117q-12 -2 -40 -2t-53 19q-23 19 -23 52t24 45t113 17l33 4l208 469h-120
l-58 -2q-34 0 -62 24t-28 55q0 30 20 48t46 18q24 0 39 -8l43 -21q18 2 67 5l86 4l21 4l32 28q14 11 42 11t37 -6l21 -14q12 -7 19 -13l428 12q193 6 193 -80q0 -27 -20 -45t-44 -18t-55 12l-35 8l-53 4l-453 -16l-217 -465l324 10h12q131 6 131 -77q0 -30 -20 -48t-44 -18
t-42 6t-63 6t-68 -2l-283 -12l-111 -320q-12 -38 -12 -86q-1 -48 19 -66t78 -20q58 0 106 9l180 30q78 15 178 15t101 -64q1 -25 -17 -43t-41 -18l-80 8q-29 0 -120 -16l-201 -33q-41 -6 -98 -6z" />
    <glyph glyph-name="emacron" unicode="&#x113;" horiz-adv-x="546" 
d="M184 188q0 -70 45 -71q45 0 107 50t99 94q38 44 130 177q27 37 55 37t44 -15t16 -36q0 -57 -150 -227q-94 -111 -164 -157t-140 -46q-71 0 -121 50t-50 124q-1 180 139 377t267 196q53 -1 84 -31t30 -81q0 -119 -93 -222t-199 -104q-16 0 -62 10q-2 -6 -6 -10l-2 -4
q-29 -41 -29 -111zM256 414q0 -23 37 -23q65 0 133 74t68 143q0 14 -10 28t-17 15q-21 2 -73 -49t-89 -108l-31 -48q-18 -29 -18 -32zM250 922q-20 0 -42 20t-22 53t37 61t84 23l94 -4l359 -12l74 10q20 -1 39 -23t19 -52t-30 -54q-31 -23 -84 -22l-33 2h-36l-232 10l-117 2
q-34 0 -62 -7t-48 -7z" />
    <glyph glyph-name="Edotaccent" unicode="&#x116;" horiz-adv-x="917" 
d="M772 1745q43 0 73 -31q29 -32 29 -62t-16 -59t-37 -45q-27 -24 -74 -24t-71 30t-23 74q0 43 38 80t81 37zM324 -14q-252 0 -252 184q-1 131 65 295l47 117q-12 -2 -40 -2t-53 19q-23 19 -23 52t24 45t113 17l33 4l208 469h-120l-58 -2q-34 0 -62 24t-28 55q0 30 20 48
t46 18q24 0 39 -8l43 -21q18 2 67 5l86 4l21 4l32 28q14 11 42 11t37 -6l21 -14q12 -7 19 -13l428 12q193 6 193 -80q0 -27 -20 -45t-44 -18t-55 12l-35 8l-53 4l-453 -16l-217 -465l324 10h12q131 6 131 -77q0 -30 -20 -48t-44 -18t-42 6t-63 6t-68 -2l-283 -12l-111 -320
q-12 -38 -12 -86q-1 -48 19 -66t78 -20q58 0 106 9l180 30q78 15 178 15t101 -64q1 -25 -17 -43t-41 -18l-80 8q-29 0 -120 -16l-201 -33q-41 -6 -98 -6z" />
    <glyph glyph-name="edotaccent" unicode="&#x117;" horiz-adv-x="546" 
d="M472 762q71 0 112 -44t41 -120q0 -121 -111 -231q-102 -109 -211 -109q-31 0 -102 14q-16 -47 -17 -90q0 -92 88 -92q72 0 128 28t77 29q21 0 37 -18t16 -39q0 -39 -65 -65q-107 -45 -203 -45t-151 53t-55 165t77 236l98 162q33 58 101 112t140 54zM260 406q0 -20 31 -21
q57 0 124 69t66 128q0 34 -28 30q-25 -2 -71 -43t-79 -92l-31 -45q-12 -18 -12 -26zM583 1122q43 0 73 -30t30 -61q0 -65 -53 -105q-27 -25 -74 -25t-71 31t-24 74q0 44 38 80q37 36 81 36z" />
    <glyph glyph-name="Eogonek" unicode="&#x118;" horiz-adv-x="917" 
d="M324 -14q-252 0 -252 184q0 131 65 295l47 117q-12 -2 -40 -2t-53 19q-23 19 -23 52t24 45t113 17l33 4l208 469h-120l-58 -2q-34 0 -62 24t-28 55q0 30 20 48t46 18q24 0 39 -8l43 -21q18 2 67 5l86 4l21 4l32 28q14 11 42 11t37 -6l21 -14q12 -7 19 -13l428 12
q193 6 193 -80q0 -27 -20 -45t-44 -18t-55 12l-35 8l-53 4l-453 -16l-217 -465l324 10h12q131 6 131 -77q0 -30 -20 -48t-44 -18t-42 6t-63 6t-68 -2l-283 -12l-111 -320q-12 -38 -12 -86q-1 -48 19 -66t78 -20q58 0 106 9l180 30q80 15 179 15t100 -64q-1 -27 -19 -46
t-61 -13t-86 6q-43 1 -121 -63t-78 -95q0 -10 6 -15t37 -15l31 2q61 4 61 -64q0 -31 -36 -49q-35 -18 -87 -18t-100 50q-47 50 -47 106t47 114q-24 -8 -104 -8z" />
    <glyph glyph-name="eogonek" unicode="&#x119;" horiz-adv-x="546" 
d="M260 407q0 -7 6 -13t13 -7h12q2 0 6 -2q39 -4 112 63t72 134q0 34 -28 30q-25 -2 -71 -43t-79 -92l-31 -45q-12 -18 -12 -25zM472 762q71 0 112 -44t41 -120q0 -121 -111 -231q-102 -109 -211 -109q-31 0 -102 14q-16 -47 -17 -90q0 -92 88 -92q72 0 128 28t77 29
q21 0 37 -18t16 -45t-34 -45q-68 -33 -136 -48t-86 -32q-72 -67 -72 -95t68 -28q67 0 68 -61q0 -29 -32 -48t-90 -19t-102 47q-46 48 -46 116t79 135q-92 47 -92 176t78 252l98 162q33 58 101 112t140 54z" />
    <glyph glyph-name="Ecaron" unicode="&#x11a;" horiz-adv-x="917" 
d="M600 1726q0 32 38 46t65 14q47 0 90 -129l147 110q49 33 74 33l37 -16q29 -14 29 -47t-50 -66l-180 -123q-59 -41 -92 -41q-33 1 -52 11t-20 20l2 33l-29 61l-10 17l-6 8q-13 32 -28 42q-15 11 -15 27zM324 -14q-252 0 -252 184q-1 131 65 295l47 117q-12 -2 -40 -2
t-53 19q-23 19 -23 52t24 45t113 17l33 4l208 469h-120l-58 -2q-34 0 -62 24t-28 55q0 30 20 48t46 18q24 0 39 -8l43 -21q18 2 67 5l86 4l21 4l32 28q14 11 42 11t37 -6l21 -14q12 -7 19 -13l428 12q193 6 193 -80q0 -27 -20 -45t-44 -18t-55 12l-35 8l-53 4l-453 -16
l-217 -465l324 10h12q131 6 131 -77q0 -30 -20 -48t-44 -18t-42 6t-63 6t-68 -2l-283 -12l-111 -320q-12 -38 -12 -86q-1 -48 19 -66t78 -20q58 0 106 9l180 30q78 15 178 15t101 -64q1 -25 -17 -43t-41 -18l-80 8q-29 0 -120 -16l-201 -33q-41 -6 -98 -6z" />
    <glyph glyph-name="ecaron" unicode="&#x11b;" horiz-adv-x="546" 
d="M472 762q71 0 112 -44t41 -120q0 -121 -111 -231q-102 -109 -211 -109q-31 0 -102 14q-16 -47 -17 -90q0 -92 88 -92q72 0 128 28t77 29q21 0 37 -18t16 -39q0 -39 -65 -65q-107 -45 -203 -45t-151 53t-55 165t77 236l98 162q33 58 101 112t140 54zM260 406q0 -20 31 -21
q57 0 124 69t66 128q0 34 -28 30q-25 -2 -71 -43t-79 -92l-31 -45q-12 -18 -12 -26zM555 887q-33 0 -52 10t-20 21l2 32l-28 60l-11 18l-6 8q-10 27 -24 41q-18 12 -19 29q0 33 39 45q40 14 51 14q41 0 56 -26q27 -46 47 -105l147 111q47 35 74 35l37 -19q26 -15 26 -41
t-9 -38t-38 -31l-180 -123q-59 -41 -92 -41z" />
    <glyph glyph-name="Gbreve" unicode="&#x11e;" horiz-adv-x="1132" 
d="M1216 1845q17 0 29 -12q31 -4 39 -39v-10q0 -4 1 -23t-44 -49l-151 -102q-72 -45 -111 -45t-70 32q-45 49 -58 85t-32 55q-20 18 -20 32q0 39 32 50l39 14q16 2 34 3t40 -13q6 -6 17 -35q26 -35 30 -52q5 -18 9 -18t47 25l129 86q23 16 40 16zM829 -193q-33 0 -57 24
q-24 23 -24 49t12 61l57 143q-167 -84 -331 -84q-277 0 -376 208q-42 87 -42 183q0 189 98 407t262 394q279 301 571 301q76 0 146 -38q69 -39 105 -103t36 -125l-2 -92l8 -54q0 -4 -4 -16l-80 -180q-66 -150 -135 -150q-33 1 -55 21t-21 59q0 39 33 92l68 117q43 78 43 178
t-46 133t-102 33q-211 0 -434 -227q-160 -162 -258 -366t-98 -352t75 -223q76 -75 210 -75t264 71t192 181l86 147l-432 -30l-182 -15q-41 0 -71 24q-30 25 -30 53q-1 28 19 50t41 21l76 -6l667 38h31q31 -2 51 -21t20 -48q0 -28 -12 -54q-14 -26 -92 -149l-194 -383
q-24 -46 -13 -74l4 -32q1 -35 -25 -63t-59 -28z" />
    <glyph glyph-name="gbreve" unicode="&#x11f;" horiz-adv-x="636" 
d="M508 532q0 91 -55 97q-41 4 -103 -44t-108 -118q-98 -150 -99 -272q0 -88 56 -89q76 0 176 136q55 72 67 125t33 73t27 36t6 56zM457 758q180 0 180 -243q0 -130 -100 -527q-41 -168 -95 -252t-140 -126q-85 -42 -144 -42q-104 0 -172 72t-68 182q0 51 22 82t58 30
q55 0 55 -61q0 -13 -5 -63t35 -91t85 -41t91 29t75 74q68 104 78 215l14 125q-129 -131 -254 -131q-70 0 -114 50t-44 130q0 213 168 426q125 162 275 162zM472 893q-38 0 -75 37t-52 76t-34 61q-20 12 -20 41t31 39l40 14l25 4q31 0 43 -10t23 -39l12 -16l16 -33
q6 -20 15 -20q2 0 10 4l14 12l19 10l129 84q44 31 67 6h2q17 -4 29 -19t10 -30v-4l2 -12q4 -20 -47 -58l-151 -100q-70 -47 -108 -47z" />
    <glyph glyph-name="Gcommaaccent" unicode="&#x122;" horiz-adv-x="1132" 
d="M328 -510q-20 0 -64 18q-22 10 -22 37t32 64l50 59l24 41l68 88q8 23 27 42t32 18q43 -7 55 -15t19 -10q27 -6 26 -25q0 -8 -20 -43l-35 -55l-49 -69l-8 -13q-23 -45 -69 -91t-66 -46zM829 -193q-33 0 -57 24q-24 23 -24 49t12 61l57 143q-167 -84 -331 -84
q-277 0 -376 208q-42 87 -42 183q0 189 98 407t262 394q279 301 571 301q76 0 146 -38q69 -39 105 -103t36 -125l-2 -92l8 -54q0 -4 -4 -16l-80 -180q-66 -150 -135 -150q-33 1 -55 21t-21 59q0 39 33 92l68 117q43 78 43 178t-46 133t-102 33q-211 0 -434 -227
q-160 -162 -258 -366t-98 -352t75 -223q76 -75 210 -75t264 71t192 181l86 147l-432 -30l-182 -15q-41 0 -71 24q-30 25 -30 53q-1 28 19 50t41 21l76 -6l667 38h31q31 -2 51 -21t20 -48q0 -28 -12 -54q-14 -26 -92 -149l-194 -383q-24 -46 -13 -74l4 -32q1 -35 -25 -63
t-59 -28z" />
    <glyph glyph-name="gcommaaccent" unicode="&#x123;" horiz-adv-x="636" 
d="M508 532q0 91 -55 97q-41 4 -103 -44t-108 -118q-98 -150 -99 -272q0 -88 56 -89q76 0 176 136q55 72 67 125t33 73t27 36t6 56zM457 758q180 0 180 -243q0 -130 -100 -527q-41 -168 -95 -252t-140 -126q-85 -42 -144 -42q-104 0 -172 72t-68 182q0 51 22 82t58 30
q55 0 55 -61q0 -13 -5 -63t35 -91t85 -41t91 29t75 74q68 104 78 215l14 125q-129 -131 -254 -131q-70 0 -114 50t-44 130q0 213 168 426q125 162 275 162zM479 934q0 12 43 78t51 77l23 33q27 47 69 88q43 41 65 41t52 -14q30 -13 31 -39q0 -26 -33 -65l-49 -60l-24 -41
l-68 -88q-9 -20 -29 -40t-30 -19q-39 6 -58 14q-10 8 -16 10q-27 6 -27 25z" />
    <glyph glyph-name="Imacron" unicode="&#x12a;" horiz-adv-x="1073" 
d="M688 1516q-22 0 -42 22q-22 22 -22 52t39 58q38 28 85 25l92 -4l358 -12l76 10q20 0 39 -21q18 -22 18 -54t-31 -54t-81 -22l-35 2h-37l-229 10l-119 2q-33 0 -61 -7t-50 -7zM68 315q0 37 21 63t51 25q30 0 44 -18t29 -72q23 -94 105 -152t198 -59q283 0 477 340
q170 299 170 623q0 111 -52 177t-140 67q-145 0 -313 -86t-280 -215q-112 -128 -112 -232t119 -162t311 -59q78 0 128 6t68 6t33 -17t15 -44q0 -78 -176 -78q-342 0 -500 92q-68 39 -108 106t-41 134q0 150 133 308t338 262q205 103 397 104q63 0 127 -28t104 -75
q80 -96 80 -280q0 -252 -97 -499t-268 -410q-171 -162 -401 -162t-364 129q-96 100 -96 206z" />
    <glyph glyph-name="imacron" unicode="&#x12b;" horiz-adv-x="307" 
d="M314 121q18 1 34 -17t16 -44t-29 -46q-30 -20 -76 -20t-75 39q-28 39 -28 115t32 163l101 273q35 92 92 92q27 0 45 -20t18 -46q0 -28 -12 -55l-117 -260q-29 -57 -28 -143q0 -18 2 -33q7 2 25 2zM776 864q0 -45 -43 -71q-33 -16 -141 -11l-232 11l-116 2l-105 -15
q-27 0 -49 20t-20 53q0 31 38 59t82 26l95 -6l358 -12l74 10q19 0 39 -22t20 -44z" />
    <glyph glyph-name="Iogonek" unicode="&#x12e;" horiz-adv-x="1073" 
d="M68 298q0 54 21 80t51 26t44 -19q14 -18 29 -72q23 -96 105 -152t198 -57q285 0 477 338q170 299 170 623q0 111 -52 177t-140 67q-145 0 -313 -86t-280 -215q-112 -128 -112 -232t119 -162t311 -59q78 0 128 6t68 6t33 -17t15 -44q0 -78 -176 -78q-342 0 -500 92
q-68 39 -108 106t-41 134q0 150 133 308t338 262q205 103 397 104q63 0 127 -28t104 -75q80 -96 80 -280q0 -247 -96 -493t-262 -413q-41 -39 -73 -61q-31 -22 -143 -81q-112 -60 -161 -105t-49 -73t68 -28t67 -61q0 -31 -31 -49q-31 -19 -88 -19t-104 49t-47 122t98 143
q-115 6 -227 65q-74 41 -126 119t-52 132z" />
    <glyph glyph-name="iogonek" unicode="&#x12f;" horiz-adv-x="346" 
d="M294 651q-34 0 -56 23q-22 22 -23 56t29 64t64 31t57 -21t23 -56t-31 -66q-29 -31 -63 -31zM274 618q27 0 45 -19q19 -19 19 -48t-12 -53l-95 -203q-27 -61 -26 -143q0 -18 2 -33q9 2 25 2q16 -1 32 -17t16 -36t-6 -30q-7 -9 -42 -38t-56 -49q-76 -59 -76 -92
q0 -11 6 -15t37 -14l29 2q29 2 46 -16q18 -18 18 -47t-33 -49t-88 -19q-55 0 -103 49q-47 49 -47 125t129 162h4q-53 96 6 274l76 213q33 94 94 94z" />
    <glyph glyph-name="Idotaccent" unicode="&#x130;" horiz-adv-x="1073" 
d="M1006 1747q44 0 74 -31q30 -32 27 -78t-42 -80t-84 -34t-70 32t-25 74q0 43 39 80q38 37 81 37zM68 315q0 37 21 63t51 25q30 0 44 -18t29 -72q23 -94 105 -152t198 -59q283 0 477 340q170 299 170 623q0 111 -52 177t-140 67q-145 0 -313 -86t-280 -215
q-112 -128 -112 -232t119 -162t311 -59q78 0 128 6t68 6t33 -17t15 -44q0 -78 -176 -78q-342 0 -500 92q-68 39 -108 106t-41 134q0 150 133 308t338 262q205 103 397 104q63 0 127 -28t104 -75q80 -96 80 -280q0 -252 -97 -499t-268 -410q-171 -162 -401 -162t-364 129
q-96 100 -96 206z" />
    <glyph glyph-name="dotlessi" unicode="&#x131;" horiz-adv-x="307" 
d="M228 121q18 1 34 -17t16 -44t-29 -46q-30 -20 -76 -20t-75 39q-28 39 -28 115t32 163l101 273q35 92 92 92q27 0 45 -20t18 -46q0 -28 -12 -55l-117 -260q-29 -57 -28 -143q0 -18 2 -33q7 2 25 2z" />
    <glyph glyph-name="Kcommaaccent" unicode="&#x136;" horiz-adv-x="1263" 
d="M449 -567q-33 0 -64 18q-25 9 -25 35t33 65l51 60l25 41l66 88q8 23 28 42t31 17q39 -6 57 -14q10 -8 19 -10q27 -6 26 -25q0 -8 -20 -43l-37 -55q-19 -31 -33 -50q-14 -18 -14 -20q-99 -149 -143 -149zM594 684h-19l-14 -35l62 27q-20 8 -29 8zM389 584l29 71
q-78 -37 -109 -56t-67 -56q59 14 147 41zM169 410q-42 0 -72 24t-29 68q0 102 192 215q76 43 219 90l187 410q31 72 92 71q27 0 46 -20t19 -38t-4 -30l-190 -389l65 -18l92 -39q207 92 344 179t357 263q-27 28 -27 54t26 44t66 18t65 -21q23 -21 23 -59t-38 -84t-136 -128
q-219 -180 -579 -354q69 -98 91 -186t41 -273q19 -186 35 -225t53 -39q36 0 76 38q39 37 65 37t42 -16t17 -39q0 -45 -75 -94t-145 -49q-145 0 -180 227q-6 45 -28 268q-16 115 -41 177t-74 112l-262 -112l-103 -332l-10 -64v-24q1 -31 -23 -53q-24 -21 -55 -21t-55 22
t-23 46v8l5 37l96 321q-123 -22 -165 -22z" />
    <glyph glyph-name="kcommaaccent" unicode="&#x137;" horiz-adv-x="759" 
d="M198 -487q-24 0 -55 14q-61 27 2 104l50 60l26 41l66 88q20 57 70 57q26 0 46 -14l9 -4l8 -4q27 -8 26 -25q0 -12 -20 -43l-35 -55q-10 -18 -31 -47q-20 -30 -39 -60q-18 -30 -59 -71q-40 -41 -64 -41zM627 633q-49 0 -121 -55q-61 -53 -182 -204q-13 -16 -21 -24l74 -35
q102 12 164 62q117 94 123 221q2 14 -10 24t-27 11zM114 -6q-28 0 -47 20q-39 41 -1 146l366 977q25 63 84 63t59 -70q0 -33 -14 -69l-223 -483q115 106 178 143q62 37 128 37t106 -41t38 -105q0 -147 -124 -276q-70 -70 -181 -117l133 -92q29 -19 64 -21t52 -24
q18 -22 18 -48t-22 -45q-39 -33 -103 -9l-346 202q-8 2 -56 27q-27 -57 -31 -77t-6 -58q-4 -40 -24 -60t-48 -20z" />
    <glyph glyph-name="Lacute" unicode="&#x139;" horiz-adv-x="1435" 
d="M1456 1636l137 144q29 28 49 28t25 -3q4 -3 23 -27q18 -24 18 -39q0 -14 -20 -37l-123 -150q-8 -16 -19 -26q-10 -10 -20 -31t-43 -21t-60 21q-46 34 -16 83q10 15 49 58zM1602 1071q0 82 -35 130t-94 48q-106 0 -215 -112q-107 -113 -179 -299l-118 -310q253 39 447 203
t194 340zM396 307q-78 0 -134 -36t-57 -96q0 -60 48 -102t124 -42q190 0 301 211q-113 43 -159 54q-45 11 -123 11zM1473 1370q115 0 185 -83t71 -214q0 -293 -324 -498q-229 -143 -498 -172l-16 -41q-11 -20 -17 -38l-16 -33q150 -104 182 -129t72 -70l21 -20
q46 -49 11 -89t-88 -2q-26 17 -145 117q-14 10 -75 54l-37 24q-63 -120 -175 -190t-244 -70t-219 70t-87 184t87 182q87 70 230 70t340 -76l29 55q-125 8 -297 76q-176 74 -176 228q0 53 26 95q27 42 55 42t44 -18q18 -18 18 -38l-20 -90q0 -39 44 -79q44 -41 130 -73
t223 -32l121 309q109 281 241 415q133 134 304 134z" />
    <glyph glyph-name="lacute" unicode="&#x13a;" horiz-adv-x="397" 
d="M410 958q-37 -52 -83 -162t-71 -202q39 59 91 181q51 122 63 183zM256 -25q-123 0 -180 150q-31 77 -7 237q43 283 190 591q58 121 106 185t120 64q37 0 62 -28t24 -74q0 -133 -151 -461q-82 -174 -219 -367q-6 -31 -6 -53q-4 -61 38 -100q12 -12 91 -31q25 -6 24 -45
q0 -68 -92 -68zM769 1528q21 0 27 -3t22 -28q18 -25 18 -39t-21 -35l-123 -151q-8 -16 -24 -31l-11 -18q-16 -29 -47 -29q-30 0 -58 20t-28 46t10 40q10 15 50 56l137 145q27 27 48 27z" />
    <glyph glyph-name="Lcommaaccent" unicode="&#x13b;" horiz-adv-x="1435" 
d="M574 -467q-30 0 -54 18t-24 40t32 59l50 59l24 43l68 88q8 20 26 38t44 20q26 0 46 -15l9 -4l8 -4q27 -8 26 -25q0 -10 -20 -45l-35 -53q-46 -70 -57 -82q-18 -44 -65 -90q-48 -47 -78 -47zM1602 1071q0 82 -35 130t-94 48q-106 0 -215 -112q-107 -113 -179 -299
l-118 -310q253 39 447 203t194 340zM396 307q-78 0 -134 -36t-57 -96q0 -60 48 -102t124 -42q190 0 301 211q-113 43 -159 54q-45 11 -123 11zM1473 1370q115 0 185 -83t71 -214q0 -293 -324 -498q-229 -143 -498 -172l-16 -41q-11 -20 -17 -38l-16 -33q150 -104 182 -129
t72 -70l21 -20q46 -49 11 -89t-88 -2q-26 17 -145 117q-14 10 -75 54l-37 24q-63 -120 -175 -190t-244 -70t-219 70t-87 184t87 182q87 70 230 70t340 -76l29 55q-125 8 -297 76q-176 74 -176 228q0 53 26 95q27 42 55 42t44 -18q18 -18 18 -38l-20 -90q0 -39 44 -79
q44 -41 130 -73t223 -32l121 309q109 281 241 415q133 134 304 134z" />
    <glyph glyph-name="lcommaaccent" unicode="&#x13c;" horiz-adv-x="397" 
d="M575 958q-37 -52 -83 -160t-72 -204q37 48 90 176q53 127 65 188zM514 43q0 -68 -86 -68t-145 75t-60 175q0 260 152 618q70 165 125 251q66 109 149 108q39 0 64 -28t24 -74q0 -137 -151 -461q-82 -174 -219 -367q-8 -45 -9 -53q0 -61 39 -100q14 -12 90 -31
q27 -6 27 -45zM307 -352q-91 -148 -153 -148q-30 0 -54 18t-24 40t33 59l49 59l24 41l68 90q8 19 28 39t31 19q47 -7 66 -21q35 -9 35 -26q0 -10 -21 -45l-35 -56q-25 -40 -36 -53q-11 -14 -11 -16z" />
    <glyph glyph-name="Lcaron" unicode="&#x13d;" horiz-adv-x="1435" 
d="M1858 907q-22 0 -62 17q-52 27 10 102l49 59l25 41l68 88q8 23 26 40q39 37 88 3q46 -20 45 -32q0 -8 -20 -43l-35 -56q-33 -48 -57 -82q-16 -41 -66 -89q-49 -48 -71 -48zM1602 1071q0 82 -35 130t-94 48q-106 0 -215 -112q-107 -113 -179 -299l-118 -310
q253 39 447 203t194 340zM396 307q-78 0 -134 -36t-57 -96q0 -60 48 -102t124 -42q190 0 301 211q-113 43 -159 54q-45 11 -123 11zM1473 1370q115 0 185 -83t71 -214q0 -293 -324 -498q-229 -143 -498 -172l-16 -41q-11 -20 -17 -38l-16 -33q150 -104 182 -129t72 -70
l21 -20q46 -49 11 -89t-88 -2q-26 17 -145 117q-14 10 -75 54l-37 24q-63 -120 -175 -190t-244 -70t-219 70t-87 184t87 182q87 70 230 70t340 -76l29 55q-125 8 -297 76q-176 74 -176 228q0 53 26 95q27 42 55 42t44 -18q18 -18 18 -38l-20 -90q0 -39 44 -79
q44 -41 130 -73t223 -32l121 309q109 281 241 415q133 134 304 134z" />
    <glyph glyph-name="lcaron" unicode="&#x13e;" horiz-adv-x="397" 
d="M410 958q-37 -52 -83 -162t-71 -202q39 59 91 181q51 122 63 183zM256 -25q-123 0 -180 150q-31 77 -7 237q43 283 190 591q58 121 106 185t120 64q37 0 62 -28t24 -74q0 -133 -151 -461q-82 -174 -219 -367q-6 -31 -6 -53q-4 -61 38 -100q12 -12 91 -31q25 -6 24 -45
q0 -68 -92 -68zM934 1120q0 -12 -21 -43l-34 -55q-24 -38 -35 -52l-27 -38q-27 -47 -69 -88t-67 -41q-26 0 -56 18q-25 9 -25 35t33 66l49 59l27 41l65 88q8 20 28 40t32 19q39 -6 57 -14q10 -8 16 -10q27 -6 27 -25z" />
    <glyph glyph-name="Lslash" unicode="&#x141;" horiz-adv-x="1435" 
d="M1602 1078q0 76 -35 124q-35 47 -94 47q-106 0 -215 -111q-107 -112 -179 -300l-98 -252q66 10 196 53t189 74t117 93q119 129 119 272zM309 231q-100 0 -100 -69q0 -57 48 -95t120 -38q150 0 244 129q-131 49 -183 61t-129 12zM307 762q0 53 28 95t54 42t49 -23t8 -63
q-16 -41 -16 -69t45 -68q45 -41 131 -74t221 -33l99 252q111 281 243 415q133 134 304 134q113 0 185 -84t71 -219q1 -135 -95 -273t-235 -204q-25 -10 -137 -48t-172 -54t-160 -27l-10 -23l81 2l23 4l61 2q80 0 80 -53t-141 -55l-147 -6q-20 -47 -78 -129q137 -88 176 -118
q39 -31 67 -63t46 -48q16 -16 16 -40t-16 -40t-44 -16q-26 0 -96 61q-70 62 -209 149q-49 -74 -155 -124t-220 -50t-202 72t-88 165t62 144t176 51t339 -72l23 -8l33 60l-60 -2l-76 -7q-71 0 -73 38t32 55q35 16 121 18l115 4l14 27q-127 8 -300 79t-173 224z" />
    <glyph glyph-name="lslash" unicode="&#x142;" horiz-adv-x="397" 
d="M594 958q-37 -52 -83 -160t-73 -204q32 41 58 102t56 131t42 131zM565 217q-1 -19 -19 -35t-110 -43l-30 -8q10 -12 25 -22t75 -21q26 -6 26 -41q-1 -70 -99 -71q-99 -1 -159 118l-43 -12q-70 -20 -98 -21q-57 0 -57 45q0 29 26 47q27 17 93 33l22 7l27 6q-2 14 -2 28
q0 305 207 740q66 135 112 185q47 50 95 50t74 -30t26 -72q0 -135 -154 -461q-76 -170 -217 -367q-2 -8 -5 -18t-3 -16l16 4q82 25 117 24q55 0 55 -49z" />
    <glyph glyph-name="Nacute" unicode="&#x143;" horiz-adv-x="1583" 
d="M1610 1817q26 0 35 -15q29 -51 29 -58t-21 -34l-123 -151q-14 -20 -20 -28q-7 -7 -17 -22q-12 -27 -46 -27q-33 0 -59 20q-26 19 -26 45q0 27 9 41t50 57l138 143q25 29 51 29zM1610 907q0 -41 -37 -155t-80 -312q-43 -199 -43 -255t20 -138q28 4 46 4t35 -16t17 -42
t-24 -44q-25 -18 -63 -19q-154 0 -154 217q0 113 26 246t101 422q-82 -82 -143 -164q-84 -121 -92 -131l-287 -448q-55 -84 -115 -84q-33 0 -55 19t-23 50q0 31 11 65q10 34 73 200l205 520q76 188 76 368q0 139 -133 140q-115 0 -252 -73q-285 -152 -435 -421
q-75 -134 -75 -230t59 -148t166 -52t207 41q43 16 65 16t35 -15q14 -15 15 -38q0 -45 -64 -70q-120 -51 -272 -51t-252 81q-100 82 -100 224t113 326q114 184 292 324q254 201 492 200q119 0 195 -66t75 -171q0 -180 -86 -412l-131 -354l285 383q115 156 215 155
q40 1 66 -25t26 -67z" />
    <glyph glyph-name="nacute" unicode="&#x144;" horiz-adv-x="671" 
d="M108 0q-32 0 -54 22t-22 60t38 147l114 340l19 76q12 104 94 105q31 0 53 -20t23 -48q0 -27 -41 -131l-31 -76l68 86q61 80 91 104q30 23 64 23t58 -26t24 -64q0 -37 -26 -131l-43 -145q-35 -117 -35 -207q0 -16 2 -33q6 2 10 6q25 35 56 35q32 -1 48 -19t16 -52t-50 -76
q-52 -42 -104 -42t-83 46q-63 92 -2 329l35 123l-211 -319q-37 -77 -57 -95q-22 -18 -54 -18zM642 1096q20 0 26 -3t24 -27t17 -39q0 -15 -19 -36l-125 -151q-7 -16 -18 -26q-10 -9 -17 -23q-12 -29 -45 -29t-61 20t-26 50q0 30 59 92l137 145q27 27 48 27z" />
    <glyph glyph-name="Ncommaaccent" unicode="&#x145;" horiz-adv-x="1583" 
d="M739 -444q0 24 35 65l49 60l25 40l65 89q40 91 125 38q38 -14 37 -28q0 -8 -20 -43l-37 -56q-33 -54 -55 -81q-88 -138 -141 -138q-26 0 -54 16q-28 14 -29 38zM1610 907q0 -41 -37 -155t-80 -312q-43 -199 -43 -255t20 -138q28 4 46 4t35 -16t17 -42t-24 -44
q-25 -18 -63 -19q-154 0 -154 217q0 113 26 246t101 422q-82 -82 -143 -164q-84 -121 -92 -131l-287 -448q-55 -84 -115 -84q-33 0 -55 19t-23 50q0 31 11 65q10 34 73 200l205 520q76 188 76 368q0 139 -133 140q-115 0 -252 -73q-285 -152 -435 -421q-75 -134 -75 -230
t59 -148t166 -52t207 41q43 16 65 16t35 -15q14 -15 15 -38q0 -45 -64 -70q-120 -51 -272 -51t-252 81q-100 82 -100 224t113 326q114 184 292 324q254 201 492 200q119 0 195 -66t75 -171q0 -180 -86 -412l-131 -354l285 383q115 156 215 155q40 1 66 -25t26 -67z" />
    <glyph glyph-name="ncommaaccent" unicode="&#x146;" horiz-adv-x="671" 
d="M141 0q-33 0 -55 22t-20 60q0 38 36 147l115 340q16 48 16 58t3 18q12 104 94 105q32 0 54 -20t22 -47q0 -26 -41 -132l-33 -76l67 86q63 80 93 104q30 23 64 23t58 -26t25 -65q0 -38 -27 -130l-45 -145q-33 -109 -32 -207q0 -16 2 -33q6 2 10 6q25 35 55 35
q30 -1 48 -19t18 -52t-52 -76t-104 -42q-51 0 -82 46t-31 132q0 88 29 197l33 123l-209 -319q-38 -77 -58 -95t-53 -18zM367 -158q0 -10 -21 -45l-96 -145q-29 -49 -69 -88q-39 -39 -69 -39t-55 17q-25 18 -25 40t34 60l49 59l24 41l68 90q8 20 27 40t43 16q24 -3 63 -23
q27 -6 27 -23z" />
    <glyph glyph-name="Ncaron" unicode="&#x147;" horiz-adv-x="1583" 
d="M1735 1759q2 0 34 -16q29 -13 29 -41t-9 -40t-38 -32l-180 -123q-63 -41 -95 -41t-50 10q-19 10 -19 21l2 33q-2 4 -4 10l-25 51l-10 17l-6 8q-13 32 -28 42q-15 11 -15 28q0 33 39 45q37 14 64 14q26 0 42 -25q27 -45 47 -104l148 110q45 33 74 33zM1610 907
q0 -41 -37 -155t-80 -312q-43 -199 -43 -255t20 -138q28 4 46 4t35 -16t17 -42t-24 -44q-25 -18 -63 -19q-154 0 -154 217q0 113 26 246t101 422q-82 -82 -143 -164q-84 -121 -92 -131l-287 -448q-55 -84 -115 -84q-33 0 -55 19t-23 50q0 31 11 65q10 34 73 200l205 520
q76 188 76 368q0 139 -133 140q-115 0 -252 -73q-285 -152 -435 -421q-75 -134 -75 -230t59 -148t166 -52t207 41q43 16 65 16t35 -15q14 -15 15 -38q0 -45 -64 -70q-120 -51 -272 -51t-252 81q-100 82 -100 224t113 326q114 184 292 324q254 201 492 200q119 0 195 -66
t75 -171q0 -180 -86 -412l-131 -354l285 383q115 156 215 155q40 1 66 -25t26 -67z" />
    <glyph glyph-name="ncaron" unicode="&#x148;" horiz-adv-x="671" 
d="M108 0q-32 0 -54 22t-22 60t38 147l114 340l19 76q12 104 94 105q31 0 53 -20t23 -48q0 -27 -41 -131l-31 -76l68 86q61 80 91 104q30 23 64 23t58 -26t24 -64q0 -37 -26 -131l-43 -145q-35 -117 -35 -207q0 -16 2 -33q6 2 10 6q25 35 56 35q32 -1 48 -19t16 -52t-50 -76
q-52 -42 -104 -42t-83 46q-63 92 -2 329l35 123l-211 -319q-37 -77 -57 -95q-22 -18 -54 -18zM498 764q-34 0 -52 10t-18 21l2 32l-31 62l-10 16q-20 40 -35 52q-14 11 -14 26q0 33 39 45q37 14 66 14q28 0 40 -24q33 -58 47 -107l150 113q45 33 72 33l37 -17q29 -14 29 -47
t-48 -65l-182 -123q-58 -41 -92 -41z" />
    <glyph glyph-name="Omacron" unicode="&#x14c;" horiz-adv-x="1236" 
d="M596 1538q-22 0 -44 22t-22 52t38 58t85 26l453 -17l74 11q20 0 38 -22t19 -54q0 -32 -31 -54t-82 -22l-32 2h-37l-232 10l-118 2q-33 0 -60 -7t-49 -7zM563 365q86 0 185 32q38 11 58 11t35 -16t15 -47q0 -30 -31 -46q-82 -45 -250 -45t-266 59q-37 21 -96 74
q-8 -51 -8 -104q0 -104 66 -166q67 -61 180 -62q250 0 430 205q119 131 192 307q74 176 74 325t-68 267q-43 72 -121 115t-165 43q-166 0 -325 -132t-222 -321q176 260 293 336q109 74 221 74q55 0 87 -22t32 -54q-1 -32 -17 -48q-16 -17 -41 -17l-90 14q-125 0 -311 -242
q-82 -104 -113 -172t-43 -166q8 -37 20 -57t44 -49q102 -96 235 -96zM82 709q0 182 101 352t267 274t343 105q217 0 350 -148t133 -389q0 -182 -73 -365t-207 -339t-286 -210t-270 -55q-170 0 -271 100t-101 269q0 121 47 252q-33 66 -33 154z" />
    <glyph glyph-name="omacron" unicode="&#x14d;" horiz-adv-x="659" 
d="M440 635q-92 0 -185 -131t-93 -260q0 -54 31 -96t77 -42t111 41q66 41 106 101q14 20 48 90q33 70 30 78q-10 82 -11 120t-34 68q-33 31 -80 31zM436 776q70 0 128 -36t91 -95q55 -106 56 -158q0 -6 -28 -104q-27 -98 -49 -141t-76 -106q-54 -64 -136 -104t-178 -40
t-158 55q-63 55 -63 152q0 174 112 362q125 215 301 215zM214 889q-22 -1 -44 21t-20 52q0 30 37 59q38 28 85 26l93 -5l358 -12l76 10q20 0 39 -21q18 -21 18 -53t-33 -56t-74 -20t-77 3l-230 8l-118 2q-23 4 -55 -5q-33 -9 -55 -9z" />
    <glyph glyph-name="Ohungarumlaut" unicode="&#x150;" horiz-adv-x="1236" 
d="M1196 1868q26 0 32 -12q7 -12 18 -26t11 -28t-18 -39l-125 -151q-5 -9 -16 -22q-12 -14 -22 -34t-44 -20t-60 19t-26 45t10 40q10 15 50 56l137 145q27 27 53 27zM927 1868q26 0 34 -13q31 -51 31 -57t-21 -35l-125 -151q-5 -11 -17 -23q-12 -13 -22 -33t-43 -20
q-34 0 -60 19t-26 43t10 40t49 58l137 145q27 27 53 27zM563 365q86 0 185 32q38 11 58 11t35 -16t15 -47q0 -30 -31 -46q-82 -45 -250 -45t-266 59q-37 21 -96 74q-8 -51 -8 -104q0 -104 66 -166q67 -61 180 -62q250 0 430 205q119 131 192 307q74 176 74 325t-68 267
q-43 72 -121 115t-165 43q-166 0 -325 -132t-222 -321q176 260 293 336q109 74 221 74q55 0 87 -22t32 -54q-1 -32 -17 -48q-16 -17 -41 -17l-90 14q-125 0 -311 -242q-82 -104 -113 -172t-43 -166q8 -37 20 -57t44 -49q102 -96 235 -96zM82 709q0 182 101 352t267 274
t343 105q217 0 350 -148t133 -389q0 -182 -73 -365t-207 -339t-286 -210t-270 -55q-170 0 -271 100t-101 269q0 121 47 252q-33 66 -33 154z" />
    <glyph glyph-name="ohungarumlaut" unicode="&#x151;" horiz-adv-x="659" 
d="M440 635q-92 0 -185 -131t-93 -260q0 -54 31 -96t77 -42t111 41q66 41 106 101q14 20 48 90q33 70 30 78q-10 82 -11 120t-34 68q-33 31 -80 31zM436 776q70 0 128 -36t91 -95q55 -106 56 -158q0 -6 -28 -104q-27 -98 -49 -141t-76 -106q-54 -64 -136 -104t-178 -40
t-158 55q-63 55 -63 152q0 174 112 362q125 215 301 215zM821 1231q21 0 27 -3t24 -29t19 -37q0 -11 -21 -36l-122 -151l-7 -8q-2 -7 -12 -17t-18 -24q-12 -29 -45 -29q-33 1 -60 21q-26 20 -26 45t9 39t50 57l137 145q23 27 45 27zM554 1231q24 0 28 -3t22 -29t19 -37
q0 -11 -21 -36l-123 -151l-6 -8q-4 -11 -13 -19t-18 -22q-12 -29 -45 -29q-33 1 -59 21t-27 45t9 39t51 57l137 145q23 27 46 27z" />
    <glyph glyph-name="OE" unicode="&#x152;" horiz-adv-x="1710" 
d="M563 365q86 0 185 32q38 11 58 11t35 -16t15 -47q0 -30 -31 -46q-82 -45 -250 -45t-266 59q-37 21 -96 74q-8 -51 -8 -104q0 -104 66 -166q67 -61 180 -62q250 0 430 205q119 131 192 307q74 176 74 325t-68 267q-43 72 -121 115t-165 43q-166 0 -325 -132t-222 -321
q176 260 293 336q109 74 221 74q55 0 87 -22t32 -54q-1 -32 -17 -48q-16 -17 -41 -17l-90 14q-125 0 -311 -242q-82 -104 -113 -172t-43 -166q8 -37 20 -57t44 -49q102 -96 235 -96zM1212 -14q-152 0 -206 67q-39 45 -43 109q-74 -78 -151 -125t-180 -75t-192 -28
q-170 0 -271 100t-101 269q0 121 47 252q-33 66 -33 154q0 182 101 352t267 274q166 105 347 105q182 0 308 -110t163 -306l123 289q37 39 69 39t47 -9l35 -22l426 10l21 2q78 3 125 -19t47 -56q1 -34 -19 -52t-42 -18t-55 12q-34 12 -75 12h-14l-455 -14l-215 -467l324 10
h12q51 7 91 -15t40 -56t-20 -54q-20 -18 -44 -18q-25 0 -41 6t-53 6l-79 -2l-283 -12l-111 -320q-12 -38 -12 -86t19 -66t77 -20q58 0 107 9l180 30q80 15 179 15t100 -64q0 -25 -18 -43t-40 -18l-80 8q-31 0 -123 -16l-198 -33q-43 -6 -101 -6z" />
    <glyph glyph-name="oe" unicode="&#x153;" horiz-adv-x="1042" 
d="M760 414q0 -23 35 -23q63 0 132 74t68 143q0 14 -8 28q-7 14 -23 15q-16 0 -67 -49t-90 -108l-29 -48q-18 -27 -18 -32zM477 635q-92 0 -185 -131t-93 -260q0 -53 31 -97q32 -43 76 -43t111 43t107 101q14 20 47 90t31 78q-10 82 -11 120t-34 68q-33 31 -80 31zM283 -8
q-100 0 -162 57q-61 57 -62 152q0 168 113 360q125 215 301 215q87 0 147 -48t103 -150q133 164 242 163q51 -1 83 -31t31 -81q0 -117 -94 -221t-201 -105q-18 0 -59 10q-37 -53 -37 -125t47 -71q41 0 103 50t97 92q36 42 134 179q25 37 53 37t43 -15q16 -15 17 -36
q0 -54 -162 -242t-289 -188q-55 0 -101 32t-63 83q-123 -117 -284 -117z" />
    <glyph glyph-name="Racute" unicode="&#x154;" horiz-adv-x="1490" 
d="M1278 1827q28 0 33 -12q31 -49 31 -59t-21 -34l-123 -151q-20 -27 -23 -29t-14 -20q-12 -27 -46 -27q-33 0 -59 19q-26 18 -26 44t10 41t50 56l137 145q23 27 51 27zM729 567l-10 -32l43 2zM553 682q-41 0 -41 -35q0 -45 78 -84l35 94q-31 25 -72 25zM328 645
q0 -59 -58 -59q-27 0 -67 24q-135 84 -135 211q0 102 82 213t231 209q289 195 659 195q233 0 386 -106t153 -269q0 -123 -85 -248t-239 -233q-96 -68 -264 -129l170 -238q47 -66 117 -127t96 -61l56 8q59 0 59 -51q0 -30 -26 -50t-64 -20q-84 0 -162 59q-96 80 -182 191
l-195 260q-72 -8 -100 -8t-84 4l-70 -197q-10 -31 -20 -71l-11 -35l-4 -17l2 -45q2 -20 -24 -39q-27 -18 -57 -18t-48 17t-18 46t16 76l105 309q-172 80 -172 211q0 70 45 112q44 42 112 42t144 -33l94 207l61 176q18 53 72 53q27 0 46 -18q40 -38 -9 -139l-135 -289
l-27 -66l127 -143q190 49 338 164q207 162 207 336q0 119 -116 193t-295 75q-179 0 -347 -57t-297 -160q-195 -156 -194 -287q0 -61 80 -118q47 -31 47 -60z" />
    <glyph glyph-name="racute" unicode="&#x155;" horiz-adv-x="604" 
d="M479 -12q-137 0 -137 155q0 61 14 121l58 217l-31 8l-45 -102q-173 -389 -268 -389q-23 0 -38 17t-16 42q0 25 46 79t129 220q83 168 105 251t42 105q18 22 49 21q70 0 72 -108q45 55 77 55t49 -20t17 -44t-41 -112t-67 -194t-27 -153q0 -48 18 -48l45 8q25 -1 40 -17
q16 -16 16 -45t-30 -48t-77 -19zM735 1110q21 0 27 -3t24 -29t19 -37q0 -11 -21 -35l-122 -152l-7 -8q-6 -12 -14 -20t-16 -21q-12 -29 -45 -29t-60 20q-26 20 -26 46q0 25 9 39t50 57l137 145q23 27 45 27z" />
    <glyph glyph-name="Rcommaaccent" unicode="&#x156;" horiz-adv-x="1490" 
d="M762 -142q18 17 40 17t58 -16t35 -31q0 -8 -21 -43l-34 -55q-47 -70 -58 -82q-16 -39 -65 -89q-49 -49 -72 -49t-61 17q-23 11 -23 37t33 65l49 60l25 41l67 88q9 23 27 40zM729 567l-10 -32l43 2zM553 682q-41 0 -41 -35q0 -45 78 -84l35 94q-31 25 -72 25zM328 645
q0 -59 -58 -59q-27 0 -67 24q-135 84 -135 211q0 102 82 213t231 209q289 195 659 195q233 0 386 -106t153 -269q0 -123 -85 -248t-239 -233q-96 -68 -264 -129l170 -238q47 -66 117 -127t96 -61l56 8q59 0 59 -51q0 -30 -26 -50t-64 -20q-84 0 -162 59q-96 80 -182 191
l-195 260q-72 -8 -100 -8t-84 4l-70 -197q-10 -31 -20 -71l-11 -35l-4 -17l2 -45q2 -20 -24 -39q-27 -18 -57 -18t-48 17t-18 46t16 76l105 309q-172 80 -172 211q0 70 45 112q44 42 112 42t144 -33l94 207l61 176q18 53 72 53q27 0 46 -18q40 -38 -9 -139l-135 -289
l-27 -66l127 -143q190 49 338 164q207 162 207 336q0 119 -116 193t-295 75q-179 0 -347 -57t-297 -160q-195 -156 -194 -287q0 -61 80 -118q47 -31 47 -60z" />
    <glyph glyph-name="rcommaaccent" unicode="&#x157;" horiz-adv-x="604" 
d="M479 -12q-137 0 -137 155q0 61 14 121l58 217l-31 8l-45 -102q-173 -389 -268 -389q-23 0 -38 17t-16 42q0 25 46 79t129 220q83 168 105 251t42 105q18 22 49 21q70 0 72 -108q45 55 77 55t49 -20t17 -44t-41 -112t-67 -194t-27 -153q0 -48 18 -48l45 8q25 -1 40 -17
q16 -16 16 -45t-30 -48t-77 -19zM371 -139q0 -8 -45 -80t-60 -88l-8 -12q-20 -45 -66 -91t-68 -47q-21 0 -65 19q-53 28 11 100l49 59l24 41l68 88q9 20 29 40t30 20q47 -10 58 -14q10 -8 16 -11q27 -6 27 -24z" />
    <glyph glyph-name="Rcaron" unicode="&#x158;" horiz-adv-x="1490" 
d="M1005 1794q27 0 48 -35t41 -94l147 111q49 33 74 32l37 -16q28 -16 28 -48t-49 -65l-180 -123q-59 -40 -91 -40t-52 10t-21 20l2 33q-2 4 -4 10l-24 51l-11 17l-6 8q-13 32 -27 42q-15 11 -16 28q0 33 39 45q38 14 65 14zM729 567l-10 -32l43 2zM553 682q-41 0 -41 -35
q0 -45 78 -84l35 94q-31 25 -72 25zM328 645q0 -59 -58 -59q-27 0 -67 24q-135 84 -135 211q0 102 82 213t231 209q289 195 659 195q233 0 386 -106t153 -269q0 -123 -85 -248t-239 -233q-96 -68 -264 -129l170 -238q47 -66 117 -127t96 -61l56 8q59 0 59 -51q0 -30 -26 -50
t-64 -20q-84 0 -162 59q-96 80 -182 191l-195 260q-72 -8 -100 -8t-84 4l-70 -197q-10 -31 -20 -71l-11 -35l-4 -17l2 -45q2 -20 -24 -39q-27 -18 -57 -18t-48 17t-18 46t16 76l105 309q-172 80 -172 211q0 70 45 112q44 42 112 42t144 -33l94 207l61 176q18 53 72 53
q27 0 46 -18q40 -38 -9 -139l-135 -289l-27 -66l127 -143q190 49 338 164q207 162 207 336q0 119 -116 193t-295 75q-179 0 -347 -57t-297 -160q-195 -156 -194 -287q0 -61 80 -118q47 -31 47 -60z" />
    <glyph glyph-name="rcaron" unicode="&#x159;" horiz-adv-x="604" 
d="M479 -12q-137 0 -137 155q0 61 14 121l58 217l-31 8l-45 -102q-173 -389 -268 -389q-23 0 -38 17t-16 42q0 25 46 79t129 220q83 168 105 251t42 105q18 22 49 21q70 0 72 -108q45 55 77 55t49 -20t17 -44t-41 -112t-67 -194t-27 -153q0 -48 18 -48l45 8q25 -1 40 -17
q16 -16 16 -45t-30 -48t-77 -19zM576 801q-42 0 -56 20q-4 6 -4 41l-29 62l-10 18l-6 8q-6 22 -24 40q-19 17 -19 28q0 35 39 47q32 12 62 12t44 -24q32 -52 48 -105l149 111q41 33 72 33l37 -17q29 -14 29 -47t-48 -63l-182 -123q-60 -41 -102 -41z" />
    <glyph glyph-name="Sacute" unicode="&#x15a;" horiz-adv-x="1128" 
d="M983 1554q-31 0 -59 20t-27 46q0 25 10 40t49 56l138 146q27 26 48 26t25 -3t23 -27q18 -24 18 -37q0 -12 -20 -37l-123 -152q-9 -19 -25 -30q-9 -15 -10 -19q-16 -29 -47 -29zM287 1010q0 144 131 256t301 177q367 140 550 -16q93 -80 93 -187t-33 -189l-55 -125
q-24 -57 -46 -79t-52 -22q-30 -1 -48 19t-18 58t20 81l78 174q18 37 19 70q1 61 -61 108t-156 47t-230 -49t-227 -119q-131 -104 -131 -208q0 -52 44 -114t107 -104l334 -217q189 -121 189 -247t-167 -224t-390 -98q-283 0 -404 150q-68 86 -67 176q0 53 32 98q33 45 72 45
q18 0 36 -15q18 -16 17 -32q0 -16 -13 -46t-13 -54q0 -68 73 -127q96 -82 268 -82t314 80q113 68 113 129q0 40 -37 78t-146 108l-303 197q-84 55 -139 141t-55 162z" />
    <glyph glyph-name="sacute" unicode="&#x15b;" horiz-adv-x="612" 
d="M525 1190q23 0 27 -3t24 -29q18 -26 18 -37t-21 -36l-122 -151l-7 -8q-4 -10 -13 -18t-17 -23q-12 -29 -45 -29t-60 20t-27 46q0 25 10 39q9 14 50 57l137 145q23 27 46 27zM126 244q62 0 62 -60q0 -27 -30 -49q57 -41 149 -41q39 0 90 10q-25 39 -65 64l-121 74
q-143 88 -143 219q0 154 153 241q115 66 234 66q186 0 186 -199q0 -106 -39 -183t-94 -77q-27 -1 -46 17q-20 18 -20 40t29 80t29 106t-22 71t-54 22q-84 0 -156 -54q-72 -55 -72 -125t109 -138l105 -66q121 -74 120 -168q0 -119 -211 -119q-137 0 -211 41t-75 115
q0 45 30 79q31 34 63 34z" />
    <glyph glyph-name="Scedilla" unicode="&#x15e;" horiz-adv-x="1128" 
d="M381 -328l139 183q32 57 101 7q47 -36 16 -85l-133 -191q-50 -57 -129 -2q-19 12 -19 38t25 50zM287 1010q0 144 131 256t301 177q367 140 550 -16q93 -80 93 -187t-33 -189l-55 -125q-24 -57 -46 -79t-52 -22q-30 -1 -48 19t-18 58t20 81l78 174q18 37 19 70
q1 61 -61 108t-156 47t-230 -49t-227 -119q-131 -104 -131 -208q0 -52 44 -114t107 -104l334 -217q189 -121 189 -247t-167 -224t-390 -98q-283 0 -404 150q-68 86 -67 176q0 53 32 98q33 45 72 45q18 0 36 -15q18 -16 17 -32q0 -16 -13 -46t-13 -54q0 -68 73 -127
q96 -82 268 -82t314 80q113 68 113 129q0 40 -37 78t-146 108l-303 197q-84 55 -139 141t-55 162z" />
    <glyph glyph-name="scedilla" unicode="&#x15f;" horiz-adv-x="612" 
d="M68 -378q0 26 24 50l19 21l118 162q34 56 102 6q47 -36 17 -84l-135 -191q-44 -59 -127 -2q-18 12 -18 38zM126 244q62 0 62 -60q0 -27 -30 -49q57 -41 149 -41q39 0 90 10q-25 39 -65 64l-121 74q-143 88 -143 219q0 154 153 241q115 66 234 66q186 0 186 -199
q0 -106 -39 -183t-94 -77q-27 -1 -46 17q-20 18 -20 40t29 80t29 106t-22 71t-54 22q-84 0 -156 -54q-72 -55 -72 -125t109 -138l105 -66q121 -74 120 -168q0 -119 -211 -119q-137 0 -211 41t-75 115q0 45 30 79q31 34 63 34z" />
    <glyph glyph-name="Scaron" unicode="&#x160;" horiz-adv-x="1128" 
d="M1286 1778q0 -33 -47 -64l-182 -125q-59 -39 -101 -39t-51 12q-10 12 -10 50l-29 61l-10 19l-6 8q-6 22 -24 40q-19 17 -19 27q-1 35 35 47t66 13q30 0 44 -25q33 -57 47 -104l150 110q45 33 72 33l36 -16q29 -14 29 -47zM287 1010q0 144 131 256t301 177
q367 140 550 -16q93 -80 93 -187t-33 -189l-55 -125q-24 -57 -46 -79t-52 -22q-30 -1 -48 19t-18 58t20 81l78 174q18 37 19 70q1 61 -61 108t-156 47t-230 -49t-227 -119q-131 -104 -131 -208q0 -52 44 -114t107 -104l334 -217q189 -121 189 -247t-167 -224t-390 -98
q-283 0 -404 150q-68 86 -67 176q0 53 32 98q33 45 72 45q18 0 36 -15q18 -16 17 -32q0 -16 -13 -46t-13 -54q0 -68 73 -127q96 -82 268 -82t314 80q113 68 113 129q0 40 -37 78t-146 108l-303 197q-84 55 -139 141t-55 162z" />
    <glyph glyph-name="scaron" unicode="&#x161;" horiz-adv-x="612" 
d="M418 868q-33 0 -52 10t-20 21l2 31q0 2 -4 10l-25 51l-10 19l-6 8l-4 8q-4 16 -21 32t-18 27q0 35 36 47t65 13t49 -31t43 -98l147 110q43 33 74 33l37 -16q27 -11 27 -39t-9 -40q-8 -12 -39 -32l-180 -123q-59 -41 -92 -41zM126 244q62 0 62 -60q0 -27 -30 -49
q57 -41 149 -41q39 0 90 10q-25 39 -65 64l-121 74q-143 88 -143 219q0 154 153 241q115 66 234 66q186 0 186 -199q0 -106 -39 -183t-94 -77q-27 -1 -46 17q-20 18 -20 40t29 80t29 106t-22 71t-54 22q-84 0 -156 -54q-72 -55 -72 -125t109 -138l105 -66q121 -74 120 -168
q0 -119 -211 -119q-137 0 -211 41t-75 115q0 45 30 79q31 34 63 34z" />
    <glyph glyph-name="Tcommaaccent" unicode="&#x162;" horiz-adv-x="927" 
d="M631 -184q0 -10 -21 -45l-35 -56l-49 -69l-8 -13q-24 -48 -69 -92q-45 -43 -75 -43t-54 18t-23 40q0 22 33 59l49 59l24 41l68 90q7 19 27 39t32 19q44 -7 56 -15t18 -10q27 -6 27 -22zM739 84q-1 -41 -23 -67q-22 -25 -56 -25t-58 22q-44 40 2 154l443 1100l-760 -37
q-102 -4 -161 20q-58 25 -58 69t50 73t122 29t98 -27q10 -10 10 -49l1127 47l102 4q59 0 98 -25q39 -26 39 -62t-36 -58t-90 -22t-77 52l-305 -14l-458 -1112q-8 -23 -9 -45v-27z" />
    <glyph glyph-name="tcommaaccent" unicode="&#x163;" horiz-adv-x="401" 
d="M105 -485q-25 0 -55 14q-30 13 -30 39t33 65l49 60l25 41l68 88q8 20 28 40t31 19q47 -10 57 -16t17 -8q27 -6 26 -25q0 -12 -42 -78t-51 -77t-9 -13l-8 -12l-6 -8q-27 -47 -68 -88t-65 -41zM256 178q0 -82 25 -82q6 0 23 11t40 11t40 -16q17 -18 17 -46t-44 -56
t-101 -29q-57 0 -93 48t-36 133q0 174 117 469l-51 -7h-15q-47 0 -77 20t-29 54q0 61 80 57h61l86 5l90 204q33 74 52 94t53 21q34 0 55 -19q20 -19 20 -50t-30 -87l-78 -151l65 4q37 2 64 -20q26 -22 26 -50t-17 -45q-17 -18 -44 -18l-47 4h-19l-100 -10
q-133 -285 -133 -449z" />
    <glyph glyph-name="Tcaron" unicode="&#x164;" horiz-adv-x="927" 
d="M1522 1726q0 -28 -10 -39t-37 -32l-181 -123q-63 -41 -94 -41t-50 10t-20 21l3 32q-2 4 -5 11l-24 51l-10 16l-7 8q-12 32 -27 42q-15 11 -16 28q0 33 39 45q40 14 66 14q27 0 41 -24q27 -48 47 -107l147 113q45 33 74 33q12 -6 38 -18t26 -40zM739 84q-1 -41 -23 -67
q-22 -25 -56 -25t-58 22q-44 40 2 154l443 1100l-760 -37q-102 -4 -161 20q-58 25 -58 69t50 73t122 29t98 -27q10 -10 10 -49l1127 47l102 4q59 0 98 -25q39 -26 39 -62t-36 -58t-90 -22t-77 52l-305 -14l-458 -1112q-8 -23 -9 -45v-27z" />
    <glyph glyph-name="tcaron" unicode="&#x165;" horiz-adv-x="401" 
d="M780 1218q18 17 40 17q22 -1 58 -17t35 -30q0 -8 -20 -43l-35 -55q-45 -68 -57 -82l-4 -11q-29 -47 -70 -87t-63 -40t-62 17q-52 27 10 102l50 60l24 41l68 88q8 23 26 40zM207 178q0 -82 22 -82q5 0 23 11q47 30 81 -6q17 -17 17 -46t-44 -57t-101 -27q-57 0 -92 48
t-35 133q0 178 117 469l-52 -7h-14q-49 0 -79 20t-30 54q0 61 80 57h62l86 5l90 204q33 72 53 94q19 22 53 22t54 -20q20 -19 20 -49t-31 -88l-75 -151l65 4q35 4 62 -18t27 -51q0 -30 -18 -47q-17 -17 -42 -17l-49 4h-19l-100 -10q-131 -283 -131 -449z" />
    <glyph glyph-name="Umacron" unicode="&#x16a;" horiz-adv-x="1757" 
d="M1763 1624q0 -82 -112 -82q-29 0 -70 2l-231 10l-117 2l-105 -14q-28 0 -50 20t-22 53t40 61q39 28 84 24l92 -6l360 -13l74 11q23 0 40 -20t17 -48zM1704 37q0 -66 -96 -66t-144 54q-84 90 -84 262q0 23 4 84l19 174q-156 -260 -299 -420q-72 -78 -122 -110
q-50 -31 -108 -31t-95 43q-36 43 -36 116q0 131 60 310l143 434q74 225 74 334q0 51 -35 85t-84 33q-153 0 -317 -99t-272 -251t-107 -293q0 -68 42 -108q43 -40 131 -39q88 0 216 61q44 23 68 23q24 -1 39 -19t15 -49t-42 -55q-145 -80 -330 -80q-125 0 -201 70t-75 182
q0 176 128 357t326 298t393 117q106 0 169 -68t63 -180q0 -111 -64 -305l-145 -442q-59 -178 -59 -297q0 -43 30 -43q20 0 41 17q20 17 70 77q385 475 575 1001q41 115 109 115q32 0 56 -20t24 -46t-53 -133q-98 -203 -179 -548q-10 -48 -23 -150t-13 -162t26 -120
q26 -61 57 -62l48 4q25 0 41 -15t16 -40z" />
    <glyph glyph-name="umacron" unicode="&#x16b;" horiz-adv-x="606" 
d="M782 940q0 -26 -19 -48q-19 -24 -39 -28t-61 -4q-42 0 -63 2l-348 12l-105 -14q-29 0 -51 20t-20 52q0 32 39 60t84 26l92 -6l360 -13l74 11q21 0 39 -22t18 -48zM479 14q-72 0 -106 60q-10 20 -17 61q-109 -145 -213 -145q-47 0 -79 35t-31 101q0 66 37 173l100 283
q33 98 64 137q32 39 68 39t58 -20t21 -62q-1 -41 -33 -83t-41 -63l-114 -264q-25 -49 -25 -108q0 -44 51 14q29 30 99 144t77 149l29 94q25 88 98 88q31 0 50 -19q20 -19 20 -45t-25 -81l-32 -88q-47 -121 -48 -207q0 -7 1 -15t2 -22t2 -27q23 9 41 9t36 -20q19 -20 19 -45
t-33 -49t-76 -24z" />
    <glyph glyph-name="Uring" unicode="&#x16e;" horiz-adv-x="1757" 
d="M1418 1821q69 0 118 -48t49 -116t-48 -117t-117 -49q-68 0 -116 48t-49 118q0 70 47 117t116 47zM1422 1704q-17 0 -31 -14q-32 -32 -2 -62q12 -12 30 -12t32 13q13 13 13 31t-12 32q-13 12 -30 12zM1704 37q0 -66 -96 -66t-144 54q-84 90 -84 262q0 23 4 84l19 174
q-156 -260 -299 -420q-72 -78 -122 -110q-50 -31 -108 -31t-95 43q-36 43 -36 116q0 131 60 310l143 434q74 225 74 334q0 51 -35 85t-84 33q-153 0 -317 -99t-272 -251t-107 -293q0 -68 42 -108q43 -40 131 -39q88 0 216 61q44 23 68 23q24 -1 39 -19t15 -49t-42 -55
q-145 -80 -330 -80q-125 0 -201 70t-75 182q0 176 128 357t326 298t393 117q106 0 169 -68t63 -180q0 -111 -64 -305l-145 -442q-59 -178 -59 -297q0 -43 30 -43q20 0 41 17q20 17 70 77q385 475 575 1001q41 115 109 115q32 0 56 -20t24 -46t-53 -133q-98 -203 -179 -548
q-10 -48 -23 -150t-13 -162t26 -120q26 -61 57 -62l48 4q25 0 41 -15t16 -40z" />
    <glyph glyph-name="uring" unicode="&#x16f;" horiz-adv-x="606" 
d="M491 1137q69 0 117 -47t47 -117q0 -70 -47 -118q-48 -48 -116 -48t-117 48t-49 117t48 117t117 48zM494 1018q-20 0 -34 -13t-14 -31t12 -30t31 -12q45 0 46 47q0 39 -41 39zM301 756q80 0 80 -80q0 -42 -34 -86t-40 -60l-114 -264q-25 -49 -25 -108q0 -44 51 14
q14 14 90 136t86 155l29 96q25 88 98 88q29 0 49 -20q21 -20 21 -45t-25 -80l-32 -88q-47 -121 -48 -207q0 -7 1 -15t2 -22t2 -27q23 9 41 9t36 -20q19 -20 19 -45t-33 -49t-76 -24q-72 0 -106 60q-10 20 -17 61q-109 -145 -213 -145q-47 0 -79 35t-31 99q0 64 37 175
l100 283q35 100 64 137q30 37 67 37z" />
    <glyph glyph-name="Uhungarumlaut" unicode="&#x170;" horiz-adv-x="1757" 
d="M1713 1833q21 0 25 -3t24 -28q18 -25 18 -37t-21 -36l-123 -152l-6 -8q-4 -10 -18 -23l-10 -18q-16 -29 -47 -29q-31 1 -59 21t-28 44t10 38q10 16 50 59l137 145q27 27 48 27zM1445 1833q21 0 25 -3t23 -28t19 -37t-21 -36l-123 -152q-8 -16 -25 -31l-10 -18
q-16 -29 -47 -29q-30 1 -58 21t-28 44t10 38q10 16 50 59l137 145q27 27 48 27zM1704 37q0 -66 -96 -66t-144 54q-84 90 -84 262q0 23 4 84l19 174q-156 -260 -299 -420q-72 -78 -122 -110q-50 -31 -108 -31t-95 43q-36 43 -36 116q0 131 60 310l143 434q74 225 74 334
q0 51 -35 85t-84 33q-153 0 -317 -99t-272 -251t-107 -293q0 -68 42 -108q43 -40 131 -39q88 0 216 61q44 23 68 23q24 -1 39 -19t15 -49t-42 -55q-145 -80 -330 -80q-125 0 -201 70t-75 182q0 176 128 357t326 298t393 117q106 0 169 -68t63 -180q0 -111 -64 -305
l-145 -442q-59 -178 -59 -297q0 -43 30 -43q20 0 41 17q20 17 70 77q385 475 575 1001q41 115 109 115q32 0 56 -20t24 -46t-53 -133q-98 -203 -179 -548q-10 -48 -23 -150t-13 -162t26 -120q26 -61 57 -62l48 4q25 0 41 -15t16 -40z" />
    <glyph glyph-name="uhungarumlaut" unicode="&#x171;" horiz-adv-x="606" 
d="M798 1155q26 0 33 -12q31 -49 31 -58t-20 -34l-123 -152q-1 -2 -15 -18q-14 -17 -22 -31q-12 -27 -46 -27q-34 -1 -60 19t-25 45q0 25 9 40t50 56l138 145q24 27 50 27zM530 1155q28 0 33 -12q31 -49 31 -57t-21 -35l-147 -183q-4 -4 -12 -18q-12 -27 -46 -27
q-34 -1 -60 19t-26 45t10 40q9 15 50 56l137 145q23 27 51 27zM479 14q-72 0 -106 60q-10 20 -17 61q-109 -145 -213 -145q-47 0 -79 35t-31 101q0 66 37 173l100 283q33 98 64 137q32 39 68 39t58 -20t21 -62q-1 -41 -33 -83t-41 -63l-114 -264q-25 -49 -25 -108
q0 -44 51 14q29 30 99 144t77 149l29 94q25 88 98 88q31 0 50 -19q20 -19 20 -45t-25 -81l-32 -88q-47 -121 -48 -207q0 -7 1 -15t2 -22t2 -27q23 9 41 9t36 -20q19 -20 19 -45t-33 -49t-76 -24z" />
    <glyph glyph-name="Uogonek" unicode="&#x172;" horiz-adv-x="1757" 
d="M1602 86q12 6 45 6q57 -4 57 -55q0 -57 -90 -66q-33 -27 -45 -37q-74 -61 -74 -91q-1 -29 67 -29t68 -62q0 -29 -33 -48t-89 -19t-102 48q-46 49 -46 125t117 154q-96 90 -97 275q0 23 4 84l19 174q-156 -260 -299 -420q-72 -78 -122 -110q-50 -31 -108 -31t-95 43
q-36 43 -36 116q0 131 60 310l143 434q74 225 74 334q0 51 -35 85t-84 33q-153 0 -317 -99t-272 -251t-107 -293q0 -68 42 -108q43 -40 131 -39q88 0 216 61q44 23 68 23q24 -1 39 -19t15 -49t-42 -55q-145 -80 -330 -80q-125 0 -201 70t-75 182q0 176 128 357t326 298
t393 117q106 0 169 -68q62 -68 62 -180q0 -110 -63 -305l-145 -442q-59 -178 -59 -297q0 -43 30 -43q20 0 41 17q20 17 70 77q385 475 575 1001q41 115 109 115q32 0 56 -20t24 -46t-53 -133q-98 -203 -179 -548q-10 -48 -23 -150t-13 -160t26 -122t57 -64h3z" />
    <glyph glyph-name="uogonek" unicode="&#x173;" horiz-adv-x="606" 
d="M143 -10q-47 0 -79 35t-31 101q0 66 37 173l100 283q33 98 64 137q32 39 68 39t58 -20t21 -62q-1 -41 -33 -83t-41 -63l-114 -264q-25 -49 -25 -108q0 -44 51 14q29 30 99 144t77 149l29 94q25 88 98 88q31 0 50 -19q20 -18 20 -44t-25 -82l-32 -88q-47 -121 -48 -207
q0 -7 1 -15t2 -22t2 -27q23 9 41 9t36 -18q38 -40 3 -80q-15 -17 -96 -86q-81 -68 -81 -96t74 -28q35 0 48 -16t13 -47t-34 -48t-87 -17q-54 0 -102 48q-47 49 -47 115q0 86 131 170q-27 27 -35 86q-109 -145 -213 -145z" />
    <glyph glyph-name="Ydieresis" unicode="&#x178;" horiz-adv-x="1464" 
d="M1598 1747q50 0 74 -32q24 -33 24 -71t-36 -76t-80 -38t-75 28t-31 72t37 81q37 36 87 36zM1285 1759q44 1 74 -29t30 -60q-1 -30 -17 -61t-42 -51t-71 -20t-69 31t-23 75q0 44 37 79q37 36 81 36zM782 197q0 143 64 329l125 365q51 150 51 287q0 84 -52 131t-147 47
q-162 0 -310 -102t-245 -283q-53 -94 -53 -176q0 -113 89 -181t235 -67q82 0 138 20q57 21 77 21t36 -20t17 -42q0 -42 -83 -72t-202 -30q-194 0 -324 98t-130 242t88 301q110 188 288 300t356 112t269 -83q90 -82 90 -220t-61 -312l-119 -352q-63 -186 -60 -254t7 -78
q4 -12 26 -12t42 20q22 20 108 123q150 176 282 427q132 250 162 348t54 124t60 25q36 0 56 -16t20 -50t-28 -127l-244 -804q-98 -424 -98 -442t11 -44q29 -66 -11 -103q-22 -22 -60 -22t-63 25t-25 71t21 134l170 663q-177 -274 -283 -382t-200 -107q-63 0 -104 46
q-40 46 -40 122z" />
    <glyph glyph-name="Zacute" unicode="&#x179;" horiz-adv-x="1425" 
d="M1234 1839q28 0 32 -14q30 -49 30 -57t-20 -35l-123 -152q-19 -23 -23 -27t-14 -22q-12 -27 -46 -27q-34 -1 -60 19t-25 46q0 26 9 40t50 57l138 143q24 29 52 29zM300 121q-60 0 -73 -10q12 -12 80 -13q68 0 68 13q-15 10 -75 10zM317 240q23 0 211 -23l70 -6
q389 285 793 1071q-123 -14 -185 -14t-256 18t-278 18t-150 -16t-65 -45q1 -27 65 -55t64 -77q0 -50 -54 -50t-143 55q-90 55 -90 135q0 166 346 166q82 0 414 -35q57 -4 90 -4q213 0 350 58q69 26 97 26t57 -22t29 -58q0 -35 -52 -53q-35 -4 -96 -89t-234 -366
q-270 -453 -555 -700q188 -76 363 -76q88 0 160 33q18 8 73 62q8 8 31 8q22 -1 44 -21t22 -49q0 -47 -62 -80q-111 -63 -252 -63q-78 0 -131 10t-168 38t-188 46q-145 -66 -213 -88t-146 -21q-78 0 -145 44q-68 44 -67 108q0 115 251 115z" />
    <glyph glyph-name="zacute" unicode="&#x17a;" horiz-adv-x="608" 
d="M709 616q0 -53 -41 -104q-8 -10 -103 -92l-336 -287l181 4l34 2q127 0 127 -88q1 -35 -21 -57t-52 -21q-30 0 -76 29l-256 -14q-53 0 -88 26t-35 66q0 76 131 194l358 318l-241 -19q-111 -8 -133 5q-49 25 -49 77q0 27 16 49q15 22 31 24q16 3 34 3l95 4l264 2
q72 0 116 -34t44 -87zM643 1055q0 -12 -20 -35l-123 -152q-6 -12 -18 -23q-11 -11 -21 -32t-43 -21t-60 20q-26 20 -26 44t10 40t49 58l137 144q28 28 52 28t30 -9t27 -38q6 -12 6 -24z" />
    <glyph glyph-name="Zdotaccent" unicode="&#x17b;" horiz-adv-x="1425" 
d="M1076 1751q42 0 74 -31t32 -60q0 -28 -16 -60t-43 -52q-26 -20 -72 -18q-45 0 -69 31t-24 73t38 80q38 37 80 37zM300 121q-60 0 -73 -10q12 -12 80 -13q68 0 68 13q-15 10 -75 10zM317 240q23 0 211 -23l70 -6q389 285 793 1071q-123 -14 -185 -14t-256 18t-278 18
t-150 -16t-65 -45q1 -27 65 -55t64 -77q0 -50 -54 -50t-143 55q-90 55 -90 135q0 166 346 166q82 0 414 -35q57 -4 90 -4q213 0 350 58q69 26 97 26t57 -22t29 -58q0 -35 -52 -53q-35 -4 -96 -89t-234 -366q-270 -453 -555 -700q188 -76 363 -76q88 0 160 33q18 8 73 62
q8 8 31 8q22 -1 44 -21t22 -49q0 -47 -62 -80q-111 -63 -252 -63q-78 0 -131 10t-168 38t-188 46q-145 -66 -213 -88t-146 -21q-78 0 -145 44q-68 44 -67 108q0 115 251 115z" />
    <glyph glyph-name="zdotaccent" unicode="&#x17c;" horiz-adv-x="608" 
d="M709 616q0 -53 -41 -104q-8 -10 -103 -92l-336 -287l181 4l34 2q127 0 127 -88q1 -35 -21 -57t-52 -21q-30 0 -76 29l-256 -14q-53 0 -88 26t-35 66q0 76 131 194l358 318l-241 -19q-111 -8 -133 5q-49 25 -49 77q0 27 16 49q15 22 31 24q16 3 34 3l95 4l264 2
q72 0 116 -34t44 -87zM454 1028q44 0 74 -30t31 -59q0 -29 -16 -60t-42 -52t-71 -21t-70 33q-24 33 -24 75t37 78t81 36z" />
    <glyph glyph-name="Zcaron" unicode="&#x17d;" horiz-adv-x="1425" 
d="M1360 1723q0 -32 -47 -66l-183 -123q-59 -41 -101 -41t-56 23q-4 6 -4 40l-29 62l-10 16l-6 8l-2 11q-8 18 -23 30q-18 12 -18 29q0 33 39 45q86 32 106 -10q33 -58 47 -107l150 113q45 33 71 33l37 -17q29 -14 29 -46zM300 121q-60 0 -73 -10q12 -12 80 -13q68 0 68 13
q-15 10 -75 10zM317 240q23 0 211 -23l70 -6q389 285 793 1071q-123 -14 -185 -14t-256 18t-278 18t-150 -16t-65 -45q1 -27 65 -55t64 -77q0 -50 -54 -50t-143 55q-90 55 -90 135q0 166 346 166q82 0 414 -35q57 -4 90 -4q213 0 350 58q69 26 97 26t57 -22t29 -58
q0 -35 -52 -53q-35 -4 -96 -89t-234 -366q-270 -453 -555 -700q188 -76 363 -76q88 0 160 33q18 8 73 62q8 8 31 8q22 -1 44 -21t22 -49q0 -47 -62 -80q-111 -63 -252 -63q-78 0 -131 10t-168 38t-188 46q-145 -66 -213 -88t-146 -21q-78 0 -145 44q-68 44 -67 108
q0 115 251 115z" />
    <glyph glyph-name="zcaron" unicode="&#x17e;" horiz-adv-x="608" 
d="M709 616q0 -53 -41 -104q-8 -10 -103 -92l-336 -287l181 4l34 2q127 0 127 -88q1 -35 -21 -57t-52 -21q-30 0 -76 29l-256 -14q-53 0 -88 26t-35 66q0 76 131 194l358 318l-241 -19q-111 -8 -133 5q-49 25 -49 77q0 27 16 49q15 22 31 24q16 3 34 3l95 4l264 2
q72 0 116 -34t44 -87zM748 1046q0 -28 -10 -39t-38 -32l-182 -123q-59 -41 -91 -41t-51 10t-20 21l2 32q-2 4 -4 11l-24 51l-17 25q-12 31 -27 42q-15 12 -16 27q0 33 39 45q41 14 66 15q26 0 41 -25q31 -59 47 -104l147 110q45 33 72 33l37 -17q29 -13 29 -41z" />
    <glyph glyph-name="florin" unicode="&#x192;" horiz-adv-x="620" 
d="M70 -369q-47 0 -81 23q-34 24 -34 52t21 48q51 47 104 -4q2 -2 4 -2l2 2q51 25 104 219l189 701l-72 -2h-22q-35 4 -61 24t-26 42t15 36q14 14 31 12l61 -4l103 4l63 234q49 186 191 186q53 0 90 -22q36 -22 36 -52q0 -29 -22 -49t-50 -20t-52 24l-5 2q-2 -2 -4 -2
q-47 -23 -80 -145l-36 -143l90 4l22 2q27 0 51 -23t25 -49q0 -45 -47 -45l-43 4q-6 2 -8 2l-121 -10l-209 -782q-35 -127 -94 -197t-135 -70z" />
    <glyph glyph-name="Scommaaccent" unicode="&#x218;" horiz-adv-x="1128" 
d="M400 -502q-30 0 -55 18q-47 34 9 99l49 59l25 41l68 90q8 19 27 39t32 19q45 -7 56 -15t18 -10q27 -6 26 -22q0 -10 -20 -45l-35 -56l-49 -69l-8 -13q-21 -43 -67 -89t-76 -46zM287 1010q0 144 131 256t301 177q367 140 550 -16q93 -80 93 -187t-33 -189l-55 -125
q-24 -57 -46 -79t-52 -22q-30 -1 -48 19t-18 58t20 81l78 174q18 37 19 70q1 61 -61 108t-156 47t-230 -49t-227 -119q-131 -104 -131 -208q0 -52 44 -114t107 -104l334 -217q189 -121 189 -247t-167 -224t-390 -98q-283 0 -404 150q-68 86 -67 176q0 53 32 98q33 45 72 45
q18 0 36 -15q18 -16 17 -32q0 -16 -13 -46t-13 -54q0 -68 73 -127q96 -82 268 -82t314 80q113 68 113 129q0 40 -37 78t-146 108l-303 197q-84 55 -139 141t-55 162z" />
    <glyph glyph-name="scommaaccent" unicode="&#x219;" horiz-adv-x="612" 
d="M381 -168q0 -12 -21 -43l-34 -55q-19 -31 -33 -50q-14 -18 -14 -20l-15 -20q-28 -47 -68 -88t-64 -41t-54 14q-30 13 -31 39q0 26 33 65l49 60l25 41l67 88q9 20 29 40t31 19q47 -10 57 -16t16 -8q27 -6 27 -25zM303 -25q-119 0 -195 41t-75 115q0 45 30 79q31 34 63 34
q62 0 62 -58q0 -29 -30 -51q57 -41 149 -41q39 0 90 10q-25 39 -65 64l-121 74q-68 39 -106 98t-37 121q0 123 115 215q116 92 272 92q90 0 139 -52t49 -158t-57 -198q-31 -51 -67 -51q-36 -1 -56 17t-21 41q0 23 27 75q33 74 33 116t-22 65t-56 22q-84 0 -156 -54
q-72 -55 -72 -125t109 -138l105 -66q123 -76 122 -168q0 -119 -229 -119z" />
    <glyph glyph-name="circumflex" unicode="&#x2c6;" horiz-adv-x="546" 
d="M2 1006q0 34 47 65l182 123q59 41 91 41t52 -10q19 -10 19 -21l-2 -33l39 -77l6 -9q10 -26 28 -42q17 -15 17 -27q0 -33 -41 -45q-83 -31 -106 10q-33 61 -45 104l-150 -110q-45 -33 -71 -33l-37 16q-29 14 -29 48z" />
    <glyph glyph-name="caron" unicode="&#x2c7;" horiz-adv-x="546" 
d="M160 942q-33 0 -52 10t-20 21l2 31q0 2 -4 10l-25 51l-10 18l-6 9l-4 8q-3 16 -21 31t-18 28q0 35 39 47q82 31 106 -12q25 -38 48 -104l147 110q49 33 74 33l37 -16q29 -13 29 -47t-50 -64l-180 -125q-59 -39 -92 -39z" />
    <glyph glyph-name="uni02C9" unicode="&#x2c9;" horiz-adv-x="813" 
d="M130 932q-20 0 -42 22t-20 52q0 32 36 59q37 27 84 25l95 -5l358 -12l74 10q20 0 40 -22q19 -23 19 -53t-34 -54q-34 -26 -73 -22t-77 4l-232 8l-116 2q-25 4 -60 -8q-32 -6 -52 -6z" />
    <glyph glyph-name="breve" unicode="&#x2d8;" horiz-adv-x="765" 
d="M222 934q-38 0 -76 41t-54 79q-14 38 -31 54q-20 14 -20 42t33 38l39 14q7 4 31 4t36 -10t23 -39q25 -34 31 -58t22 -5l162 106q46 27 67 6q0 -2 2 -2q35 -8 39 -41v-8l2 -16q0 -25 -45 -58l-151 -100q-72 -47 -110 -47z" />
    <glyph glyph-name="dotaccent" unicode="&#x2d9;" horiz-adv-x="563" 
d="M307 946q-45 0 -69 31t-23 74q0 43 37 79t81 37t74 -29q53 -52 14 -122q-40 -70 -114 -70z" />
    <glyph glyph-name="ring" unicode="&#x2da;" horiz-adv-x="524" 
d="M247 1272q69 0 117 -48t48 -117t-47 -117t-117 -48t-118 48t-48 117t48 117t117 48zM249 1155q-17 0 -31 -14q-14 -13 -15 -31q0 -18 13 -30q12 -12 30 -13q18 0 32 13q13 14 13 32t-12 31q-13 12 -30 12z" />
    <glyph glyph-name="ogonek" unicode="&#x2db;" horiz-adv-x="448" 
d="M266 -203q67 0 68 -61q0 -29 -32 -48q-32 -20 -90 -20t-102 48q-46 48 -47 116q0 88 130 172l176 -4l-54 -47q-39 -33 -41 -35q-76 -61 -75 -92q0 -29 67 -29z" />
    <glyph glyph-name="tilde" unicode="&#x2dc;" horiz-adv-x="694" 
d="M258 1133q70 0 154 -46q23 -10 46 -10t46 10q8 14 26 23q18 14 37 14t39 -24q55 -65 -35 -121q-55 -35 -100 -35t-100 23q-129 59 -176 -4q-18 -23 -53 -23t-54 23q-4 3 -12 27t-8 33t24 32l23 22q5 8 39 32t104 24z" />
    <glyph glyph-name="hungarumlaut" unicode="&#x2dd;" horiz-adv-x="700" 
d="M580 1264q22 0 26 -3t23 -28t19 -37t-21 -37l-123 -151q-8 -17 -18 -26q-11 -9 -22 -31q-11 -21 -42 -21q-30 0 -58 20t-28 44t9 39q9 16 50 59l137 145q26 27 48 27zM312 1264q22 0 26 -3t22 -28t19 -39q0 -14 -21 -35l-122 -151q-10 -18 -20 -27q-9 -8 -20 -30
q-11 -21 -42 -21t-59 20q-27 20 -27 45t10 41t49 56l137 145q27 27 48 27z" />
    <glyph glyph-name="wdieresis" unicode="&#x1e85;" horiz-adv-x="833" 
d="M741 1126h13q53 0 77 -30q23 -33 23 -72t-36 -77t-77 -38l-28 4q-35 6 -58 33t-23 67q0 41 36 77q34 36 73 36zM443 1141q42 0 74 -32t29 -79t-50 -88q-33 -24 -78 -24t-69 32q-23 32 -23 73q0 42 38 80t79 38zM674 473l-15 150q0 80 70 79q84 0 84 -131q0 -164 -82 -374
q-41 -103 -101 -161t-126 -59q-101 0 -146 170l-53 -77q-96 -129 -186 -129q-39 -1 -69 31t-30 90t46 167l178 439q14 32 42 54t56 22t46 -21q20 -20 20 -46t-39 -95l-179 -371q-34 -70 -34 -87q0 -16 10 -20t35 24t39 56l102 213q35 82 51 96q16 15 45 15t48 -20
q20 -20 20 -34q0 -16 -4 -48l-15 -97q-6 -37 -6 -97t21 -91q4 -6 20 -12q29 -6 90 140t62 224z" />
    <glyph glyph-name="figuredash" unicode="&#x2012;" horiz-adv-x="1114" 
d="M918 510q0 -32 -18 -48q-18 -17 -46 -16l-78 5l-477 -2l-88 -5q-43 0 -71 22t-28 52t26 54q24 22 52 20l86 -8l543 4q43 0 71 -23t28 -55z" />
    <glyph glyph-name="endash" unicode="&#x2013;" horiz-adv-x="1114" 
d="M918 510q0 -32 -18 -48q-18 -17 -46 -16l-78 5l-477 -2l-88 -5q-43 0 -71 22t-28 52t26 54q24 22 52 20l86 -8l543 4q43 0 71 -23t28 -55z" />
    <glyph glyph-name="emdash" unicode="&#x2014;" horiz-adv-x="1589" 
d="M201 555q-1 39 29 63t62 25q32 0 79 -14q46 -14 71 -15l80 4l363 11l84 8l75 2h213l142 -16q123 -16 123 -88q0 -23 -20 -45t-40 -19l-106 21l-160 12h-160l-372 -21l-293 -10h-13q-61 -9 -109 17t-48 65z" />
    <glyph glyph-name="afii00208" unicode="&#x2015;" horiz-adv-x="1589" 
d="M201 555q-1 39 29 63t62 25q32 0 79 -14q46 -14 71 -15l80 4l363 11l84 8l75 2h213l142 -16q123 -16 123 -88q0 -23 -20 -45t-40 -19l-106 21l-160 12h-160l-372 -21l-293 -10h-13q-61 -9 -109 17t-48 65z" />
    <glyph glyph-name="quoteleft" unicode="&#x2018;" horiz-adv-x="544" 
d="M170 1055q-31 0 -49 18q-34 34 -8 84l73 125l15 31l65 106q78 135 146 135q29 0 47 -18t18 -44t-16 -48l-82 -98l-53 -82q-20 -37 -38 -65q-18 -29 -32 -67t-34 -58t-52 -19z" />
    <glyph glyph-name="quoteright" unicode="&#x2019;" horiz-adv-x="718" 
d="M566 1321q38 0 62 -22q24 -21 24 -53t-55 -79q-54 -47 -123 -140q-68 -93 -98 -163t-79 -69q-29 0 -49 20q-43 43 8 121l100 162l50 69l83 107q39 47 77 47z" />
    <glyph glyph-name="quotesinglbase" unicode="&#x201a;" horiz-adv-x="471" 
d="M154 -260q-37 0 -62 18q-24 18 -24 40t32 59l50 59l24 41l68 90q8 19 27 39t32 18q46 -6 66 -20q35 -9 34 -27q0 -10 -20 -45q-65 -102 -73 -112q-9 -10 -9 -13q-98 -147 -145 -147z" />
    <glyph glyph-name="quotedblleft" unicode="&#x201c;" horiz-adv-x="931" 
d="M129 1138q0 22 10 44l74 125l14 30l66 107q80 135 145 135q29 0 47 -18q19 -18 19 -44t-17 -49l-81 -98l-54 -82q-20 -36 -38 -64t-31 -67q-15 -39 -35 -58t-51 -19t-49 18t-19 40zM701 1581q33 0 51 -17t18 -43t-18 -48l-80 -99l-54 -82q-56 -93 -70 -133
q-14 -41 -34 -58t-52 -17t-49 16q-17 18 -17 43t10 41l71 127l80 135q45 74 78 104t66 31z" />
    <glyph glyph-name="quotedblright" unicode="&#x201d;" horiz-adv-x="794" 
d="M660 1540q32 0 51 -17q18 -17 18 -41t-12 -44l-72 -125l-14 -31l-66 -106q-80 -133 -145 -134q-29 0 -47 18t-19 44q0 27 17 47l82 98l53 82q20 37 36 61t31 68t35 62t52 18zM395 1538q31 0 49 -17q34 -32 9 -85l-72 -125l-16 -31l-64 -106q-82 -135 -147 -136
q-27 0 -46 18q-20 18 -20 45q0 26 18 48l80 98l54 82q44 62 64 116q20 53 40 73t51 20z" />
    <glyph glyph-name="quotedblbase" unicode="&#x201e;" horiz-adv-x="931" 
d="M770 -32q0 -24 -12 -42l-72 -127l-14 -28l-66 -107q-82 -135 -142 -135q-32 0 -50 17t-19 44q0 27 17 50l82 98l53 82q6 10 28 45t38 81q17 46 37 63t52 17t50 -16q18 -18 18 -42zM195 -473q-29 0 -48 17q-18 17 -18 44t18 47l80 99l54 82q8 14 32 54q24 39 37 78
q14 40 34 58t52 18q31 0 49 -16q34 -33 9 -86l-152 -262q-80 -133 -147 -133z" />
    <glyph glyph-name="dagger" unicode="&#x2020;" horiz-adv-x="700" 
d="M33 -172v-21q0 -57 -62 -57q-27 0 -45 13t-18 29t9 44q9 29 17 71t31 91l346 897h-108l-66 -4q-51 1 -90 25t-39 48t16 42q16 16 31 16t59 -13t74 -14h164l127 332q17 43 31 56t36 13t38 -12q16 -14 16 -28t-29 -94l-104 -265h162q109 0 108 -75q0 -16 -13 -30
q-12 -14 -26 -13q-14 0 -38 8t-70 8h-162l-365 -920q-8 -20 -19 -72t-11 -75z" />
    <glyph glyph-name="daggerdbl" unicode="&#x2021;" horiz-adv-x="692" 
d="M78 -193q0 -57 -64 -57q-27 0 -45 12t-18 30t14 48q9 50 43 158l55 141h-77l-66 -4q-51 0 -90 24t-39 49q0 26 15 42q16 16 32 16t59 -13t74 -13h131l254 655h-110l-66 -4q-49 1 -89 25t-40 48q1 24 17 40q16 18 31 18t59 -13t73 -14h164l129 332q16 43 30 56t36 13
q24 0 38 -12q14 -14 15 -29q0 -15 -27 -93l-104 -265h160q70 1 90 -27t20 -46t-14 -32t-28 -13q-14 0 -36 8t-71 8h-162l-258 -653h199q109 0 108 -76q0 -16 -13 -30t-27 -13q-14 0 -37 8q-24 8 -70 8h-201l-66 -164q-29 -72 -28 -149v-19z" />
    <glyph glyph-name="bullet" unicode="&#x2022;" horiz-adv-x="1128" 
d="M603 825q145 0 249 -103t104 -249t-102 -250t-250 -104t-251 102q-103 103 -103 249t104 251q105 104 249 104z" />
    <glyph glyph-name="ellipsis" unicode="&#x2026;" horiz-adv-x="901" 
d="M740 172q44 0 68 -22t24 -58q0 -37 -36 -74q-36 -36 -74 -36t-68 28t-30 66q0 36 36 66t80 30zM485 180q47 0 75 -24t28 -63q0 -40 -36 -74q-36 -33 -80 -33t-73 26t-29 66q0 41 34 72q34 30 81 30zM215 178q45 0 72 -24t27 -65q0 -40 -41 -75q-40 -34 -80 -34
q-41 0 -69 24t-28 62q0 40 37 76t82 36z" />
    <glyph glyph-name="perthousand" unicode="&#x2030;" horiz-adv-x="1728" 
d="M1200 209q0 -59 27 -99t63 -40q90 0 181 114t92 230q1 40 -19 70t-58 33t-114 -49t-121 -118q-51 -82 -51 -141zM637 209q0 -57 29 -98t63 -41q90 0 181 114t91 230q0 40 -19 70t-58 33t-114 -48t-124 -127t-49 -133zM553 1204q-27 0 -73 -30q-84 -54 -120 -127
q-18 -39 -18 -60q0 -72 120 -72t154 21q27 12 27 108q0 160 -90 160zM438 797q-129 0 -207 86q-65 -124 1 -207q32 -39 82 -39t110 36t106 91l33 41l-74 -8h-51zM263 2q-32 0 -51 20t-19 56q0 35 51 117l67 102l221 305q-127 -86 -229 -86t-169 72t-66 174q0 164 147 311
q4 12 16 29q53 90 155 153q215 134 328 -7q56 -71 56 -175q0 -18 -4 -84q66 31 86 46t55 63t73 49t57 -19t19 -48t-16 -48l-108 -133l-68 -72l-141 -178l-264 -364l-60 -90q-49 -74 -49 -89l4 -22q0 -30 -30 -56t-61 -26zM502 201q0 178 155 311t271 133q86 -1 143 -67
t57 -164q33 51 97 102q147 129 264 129q84 1 142 -65t59 -160q0 -174 -132 -322t-290 -147q-82 0 -143 71q-60 71 -62 171q-61 -109 -159 -176t-189 -67q-92 0 -153 75q-60 74 -60 176z" />
    <glyph glyph-name="guilsinglleft" unicode="&#x2039;" horiz-adv-x="391" 
d="M326 350q0 -20 -47 -65l-31 16l-178 152q-106 76 -37 153l188 166q41 37 59 35q18 -3 34 -19q39 -43 -19 -90l-156 -137l-8 -12q0 -4 19 -21l143 -129q33 -29 33 -49z" />
    <glyph glyph-name="guilsinglright" unicode="&#x203a;" horiz-adv-x="391" 
d="M37 351q0 21 33 48l143 129q18 16 18 21l-8 12l-157 137q-33 29 -33 52q0 22 15 38q16 16 34 18t59 -34l187 -166q28 -24 28 -56t-10 -46t-53 -51l-180 -152l-29 -16q-47 45 -47 66z" />
    <glyph glyph-name="fraction" unicode="&#x2044;" horiz-adv-x="1218" 
d="M-236 -147q-33 0 -53 18t-20 44t33 71l196 266l103 129l339 397l445 473q91 97 113 147t39 63t51 13t56 -20q24 -20 24 -47q0 -57 -107 -168l-160 -166q-16 -16 -24 -26l-35 -31l-68 -70l-262 -291l-43 -53q-6 -8 -23 -25l-30 -30q-12 -13 -21 -23t-12 -12l-164 -197
l-190 -254q-90 -123 -103 -149q-29 -59 -84 -59z" />
    <glyph glyph-name="lira" unicode="&#x20a4;" horiz-adv-x="1404" 
d="M264 301q-60 0 -59 -37q0 -43 61 -89t119 -46q43 0 82 82l14 31l-114 43q-43 16 -103 16zM389 4q-123 0 -222 90t-99 199q0 59 50 99t135 40t144 -22l129 -52l37 129l-123 -2q-82 -4 -164 39q-47 29 -47 73t38 71t91 26q78 0 78 -59q0 -12 -2 -21q49 -8 79 -8t79 6
l113 361q29 97 132 201t201 104t156 -72t59 -190q0 -118 -61 -248q-35 -74 -86 -74q-27 0 -44 18q-18 18 -18 42q0 22 7 33q6 11 43 57q10 12 21 70t11 108t-22 88q-24 39 -64 39t-108 -60t-88 -120l-107 -326l107 16h43q59 -3 94 -27t35 -57t-18 -50t-44 -17q-27 0 -45 16
q-50 26 -116 2l-91 -28l-57 -205l121 -82q127 -86 223 -86q55 0 87 31q32 30 58 30t43 -18t17 -43q0 -47 -62 -82t-169 -35t-222 72l-143 90q-4 -10 -16 -31q-70 -135 -193 -135z" />
    <glyph glyph-name="Euro" unicode="&#x20ac;" horiz-adv-x="1083" 
d="M1064 690q-48 -100 -114 -100t-67 90q0 50 49 170l76 180q12 31 12 116q0 84 -45 154t-117 70q-132 0 -282 -140t-252 -360h211q31 4 38 4q125 0 125 -69q0 -33 -28 -47t-121 -15l-281 -2q-4 -20 -10 -31t-6 -14l-6 -22l205 2h24q78 0 100 -8q39 -14 39 -56t-28 -54
q-28 -11 -121 -13h-250q-12 -82 -12 -154q0 -307 254 -307q100 0 184 34q85 34 197 122t180 180q45 57 78 57t51 -17t18 -44q0 -45 -166 -201q-274 -256 -557 -256q-174 0 -274 112t-100 304q0 80 14 168h-21q-89 0 -119 12t-30 50t28 53t95 16h76q6 27 22 67h-84
q-73 -1 -105 13t-32 54t32 51t109 11h133q138 297 322 461t379 164q68 0 129 -38q61 -39 95 -105t42 -121l8 -35l25 -27q10 -10 10 -27t-22 -67q-12 -18 -25 -59q-12 -61 -16 -94q-21 -132 -69 -232z" />
    <glyph glyph-name="trademark" unicode="&#x2122;" horiz-adv-x="1796" 
d="M1006 552q0 24 18 87l76 233q61 184 61 316t-90 131q-135 0 -265 -125t-130 -254q0 -68 47 -94q80 -51 192 -43h13l63 2q66 0 66 -49q-1 -23 -17 -36t-43 -13h-71q-174 0 -260 49q-45 24 -73 72t-28 102q0 174 162 330t344 155q53 1 101 -25t71 -67t23 -127t-45 -260
l-17 -68l84 136q59 96 144 192q57 59 96 59q39 1 59 -21q21 -22 21 -64t-35 -160l-23 -86l115 186q53 90 115 90q33 0 52 -22t19 -52q0 -31 -12 -104l-61 -307q-4 -33 -4 -68t14 -51h20q20 0 34 -13t16 -35q0 -22 -20 -37t-63 -15q-44 0 -75 39t-31 99t29 224l24 146
l-174 -297q-59 -117 -76 -135q-18 -18 -46 -17q-28 0 -45 18q-17 17 -17 47t14 93l101 374q-81 -100 -279 -419q-62 -121 -80 -146q-18 -24 -48 -24t-48 15t-18 39zM113 590v-17q1 -31 -17 -50t-44 -19t-44 16t-18 41t16 68l258 639l-436 -21h-21q-125 0 -124 70
q-1 29 33 51t79 23q78 0 82 -48l664 29q35 2 69 2t61 -19t27 -47t-26 -44t-62 -16q-37 0 -55 30l-166 -8l-272 -660q-4 -12 -4 -20z" />
    <glyph glyph-name="minus" unicode="&#x2212;" horiz-adv-x="927" 
d="M132 434q-22 0 -44 20t-20 54q0 32 36 60t84 24l453 -17l74 11q19 0 39 -23t20 -53t-31 -54q-31 -22 -81 -22l-35 2h-37l-232 10l-116 3q-33 1 -61 -7q-27 -8 -49 -8z" />
    <glyph glyph-name="notequal" unicode="&#x2260;" horiz-adv-x="927" 
d="M70 551q0 33 38 61t82 25l93 -6l204 -6l43 49q64 74 92 93t62 19t56 -19t22 -54t-57 -72l-25 -18q27 6 42 6q16 -1 34 -21t18 -49t-24 -53t-66 -26q-43 -1 -92 1h-37l-82 -96l168 -6l74 10q20 0 40 -22q19 -23 19 -53t-31 -54q-31 -23 -81 -22l-35 2h-37l-232 10h-6
l-55 -60q-57 -63 -80 -79q-23 -17 -53 -17t-52 20t-22 53q0 32 24 47t33 26l-8 -2q-29 0 -51 20t-20 53q0 33 35 59q36 26 75 26t58 -3l49 -2l86 98l-11 3l-116 2l-105 -15q-29 -1 -49 19t-20 53z" />
    <glyph glyph-name="lessequal" unicode="&#x2264;" horiz-adv-x="704" 
d="M674 190q0 -32 -18 -49q-18 -18 -40 -18t-34 6l-523 264q-41 23 -41 61t43 58l523 250q14 6 34 6t38 -18t18 -50t-37 -49l-418 -198l420 -213q35 -18 35 -50zM86 102h524q27 0 45 -17q19 -17 19 -43t-18 -44t-46 -18h-524q-27 0 -45 17t-18 44t17 44t46 17z" />
    <glyph glyph-name="greaterequal" unicode="&#x2265;" horiz-adv-x="704" 
d="M18 700q0 32 18 50t38 18t35 -6l522 -250q43 -20 43 -58t-41 -61l-522 -264q-12 -6 -34 -6t-40 18q-19 18 -19 49t35 50l420 213l-418 198q-37 17 -37 49zM606 -20h-524q-27 0 -45 18q-19 18 -19 44t18 43t46 17h524q29 0 46 -17q18 -17 18 -44t-18 -44t-46 -17z" />
    <glyph glyph-name="uniEA3F" unicode="&#xea3f;" horiz-adv-x="641" 
d="M387 1032q-99 -149 -147 -149q-22 0 -54 14q-61 27 2 104l50 60l24 41l68 88q8 20 28 40t31 19q39 -6 57 -14q10 -8 17 -10q27 -6 26 -25q0 -12 -42 -78t-51 -77t-9 -13z" />
    <glyph glyph-name="uniEA67" unicode="&#xea67;" horiz-adv-x="716" 
d="M227 1243q-23 0 -59 19q-25 10 -25 36t33 64l49 59l25 41l67 88q9 20 29 40t31 20q39 -6 53 -14t21 -11q27 -6 26 -24q0 -12 -20 -43l-35 -56q-15 -24 -31 -46t-16 -23l-8 -13l-7 -8q-26 -47 -68 -88t-65 -41z" />
    <glyph glyph-name="uniEA68" unicode="&#xea68;" horiz-adv-x="813" 
d="M642 1153q46 0 74 -27q28 -28 28 -72t-36 -81q-34 -37 -80 -37t-76 28t-30 72t37 81q37 36 83 36zM309 944q-47 0 -71 30t-23 74q0 44 37 80t81 37t74 -29q53 -52 14 -122q-40 -70 -112 -70z" />
    <glyph glyph-name="uniEA6A" unicode="&#xea6a;" horiz-adv-x="813" 
d="M646 1473q50 0 74 -32q56 -74 -12 -148q-36 -38 -80 -38t-75 29t-31 73t37 80t87 36zM333 1485q44 0 74 -29q52 -51 13 -122q-38 -70 -112 -70q-46 0 -70 30t-23 75q0 44 37 80t81 36z" />
    <glyph glyph-name="commaaccent" unicode="&#xf6c3;" horiz-adv-x="471" 
d="M152 -485q-24 0 -54 14q-61 27 2 104l50 60l24 41l68 88q8 20 28 40t31 19q47 -10 57 -16t17 -8q27 -6 26 -25q0 -12 -42 -78t-51 -77t-9 -13l-8 -12l-6 -8q-27 -47 -68 -88t-65 -41z" />
    <glyph glyph-name="Acute" unicode="&#xf6c9;" horiz-adv-x="509" 
d="M324 1841q24 0 34 -14q29 -51 29 -60t-20 -32l-123 -152q-6 -11 -18 -23t-21 -32q-10 -20 -43 -21q-33 1 -60 21q-46 35 -16 83q10 15 49 58l137 143q28 29 52 29z" />
    <glyph glyph-name="Caron" unicode="&#xf6ca;" horiz-adv-x="546" 
d="M158 1503q-31 0 -50 10t-20 21l2 33q-2 4 -4 10l-25 51l-10 17l-6 8q-11 27 -25 41q-18 12 -18 28q0 33 39 45q34 15 64 15t42 -25q28 -47 48 -106l147 112q45 33 74 33q12 -6 37 -16q29 -16 29 -48t-50 -65l-180 -123q-63 -41 -94 -41z" />
    <glyph glyph-name="Dieresis" unicode="&#xf6cb;" horiz-adv-x="813" 
d="M522 1603q0 45 36 79t81 37t75 -25t30 -73q0 -44 -36 -81q-34 -37 -81 -37t-76 27t-29 73zM334 1733q43 0 73 -31q52 -53 13 -121q-40 -72 -113 -72q-45 0 -69 32t-23 75q0 43 38 80t81 37z" />
    <glyph glyph-name="Grave" unicode="&#xf6ce;" horiz-adv-x="509" 
d="M126 1835q32 0 56 -29l137 -143q41 -43 51 -58t9 -40q0 -25 -27 -44q-28 -19 -60 -19t-48 34q0 2 -6 6t-11 14q-6 4 -10 15l-129 158q-20 27 -20 40q26 66 58 66z" />
    <glyph glyph-name="Hungarumlaut" unicode="&#xf6cf;" horiz-adv-x="700" 
d="M585 1837q26 0 33 -12q29 -51 29 -58t-20 -34l-123 -152q-6 -11 -18 -23t-21 -32q-10 -20 -44 -21q-34 1 -60 19q-25 18 -25 44t10 41t49 56l137 145q27 27 53 27zM316 1837q26 0 34 -12q29 -51 29 -60t-21 -32l-122 -152q-8 -13 -18 -24q-11 -11 -21 -31t-43 -21t-60 19
q-26 20 -26 45t10 40t49 56l137 145q26 27 52 27z" />
    <glyph glyph-name="Macron" unicode="&#xf6d0;" horiz-adv-x="808" 
d="M774 1588q0 -30 -31 -52t-60 -23q-29 0 -93 3l-232 10l-116 2q-33 0 -60 -7q-28 -7 -50 -7t-44 21q-22 23 -20 53q0 30 37 58q38 28 83 25l453 -18l74 12q19 0 39 -23q20 -24 20 -54z" />
    <glyph glyph-name="fl" unicode="&#xfb02;" horiz-adv-x="1169" 
d="M858 958q-37 -52 -83 -160t-73 -204q32 41 58 102t56 131t42 131zM258 377l-20 -68l28 -4q14 0 45 10q-10 29 -19 41t-34 21zM137 -281q15 -1 29 17q101 121 151 311q19 66 19 129v29q-80 -10 -98 -10l-41 4q-57 -168 -73 -242t-18 -156q0 -82 31 -82zM932 1202
q40 0 64 -28t24 -74q0 -137 -152 -461q-82 -174 -219 -367q-8 -45 -8 -53q0 -66 39 -100q14 -12 90 -31q27 -6 27 -45q-1 -68 -87 -68t-145 76t-59 176q0 29 4 62q-33 -27 -53 -39q2 -23 2 -51q0 -97 -38 -223q-74 -243 -204 -348q-59 -48 -110 -48t-87 55q-35 55 -34 138
q0 178 98 471q-29 35 -29 69q0 86 105 154l268 575l6 17l8 43q4 30 37 54t62 24t47 -18t18 -42q0 -22 -24 -69l-275 -562q49 -23 69 -42t46 -72q84 72 110 117q17 41 23 53l113 321q16 48 64 138t75 126q55 72 125 72z" />
    <glyph glyph-name="Tcedilla" horiz-adv-x="927" 
d="M631 -184q0 -10 -21 -45l-35 -56l-49 -69l-8 -13q-24 -48 -69 -92q-45 -43 -75 -43t-54 18t-23 40q0 22 33 59l49 59l24 41l68 90q7 19 27 39t32 19q44 -7 56 -15t18 -10q27 -6 27 -22zM739 84q-1 -41 -23 -67q-22 -25 -56 -25t-58 22q-44 40 2 154l443 1100l-760 -37
q-102 -4 -161 20q-58 25 -58 69t50 73t122 29t98 -27q10 -10 10 -49l1127 47l102 4q59 0 98 -25q39 -26 39 -62t-36 -58t-90 -22t-77 52l-305 -14l-458 -1112q-8 -23 -9 -45v-27z" />
    <glyph glyph-name="Ucaron" horiz-adv-x="1757" 
d="M1712 1728q0 -34 -47 -65l-182 -123q-59 -39 -93 -39q-70 0 -69 31l2 31l-39 77l-6 9q-12 29 -28 44q-17 15 -17 25q0 35 41 47q30 13 61 13t45 -25q33 -61 45 -104l150 110q45 33 72 33l36 -16q29 -14 29 -48zM1704 37q0 -66 -96 -66t-144 54q-84 90 -84 262q0 23 4 84
l19 174q-156 -260 -299 -420q-72 -78 -122 -110q-50 -31 -108 -31t-95 43q-36 43 -36 116q0 131 60 310l143 434q74 225 74 334q0 51 -35 85t-84 33q-153 0 -317 -99t-272 -251t-107 -293q0 -68 42 -108q43 -40 131 -39q88 0 216 61q44 23 68 23q24 -1 39 -19t15 -49
t-42 -55q-145 -80 -330 -80q-125 0 -201 70t-75 182q0 176 128 357t326 298t393 117q106 0 169 -68t63 -180q0 -111 -64 -305l-145 -442q-59 -178 -59 -297q0 -43 30 -43q20 0 41 17q20 17 70 77q385 475 575 1001q41 115 109 115q32 0 56 -20t24 -46t-53 -133
q-98 -203 -179 -548q-10 -48 -23 -150t-13 -162t26 -120q26 -61 57 -62l48 4q25 0 41 -15t16 -40z" />
    <glyph glyph-name="tcedilla" horiz-adv-x="401" 
d="M105 -485q-25 0 -55 14q-30 13 -30 39t33 65l49 60l25 41l68 88q8 20 28 40t31 19q47 -10 57 -16t17 -8q27 -6 26 -25q0 -12 -42 -78t-51 -77t-9 -13l-8 -12l-6 -8q-27 -47 -68 -88t-65 -41zM256 178q0 -82 25 -82q6 0 23 11t40 11t40 -16q17 -18 17 -46t-44 -56
t-101 -29q-57 0 -93 48t-36 133q0 174 117 469l-51 -7h-15q-47 0 -77 20t-29 54q0 61 80 57h61l86 5l90 204q33 74 52 94t53 21q34 0 55 -19q20 -19 20 -50t-30 -87l-78 -151l65 4q37 2 64 -20q26 -22 26 -50t-17 -45q-17 -18 -44 -18l-47 4h-19l-100 -10
q-133 -285 -133 -449z" />
    <glyph glyph-name="sfthyphen" horiz-adv-x="614" 
d="M547 512q-1 -30 -19 -49q-18 -18 -45 -17l-77 5l-107 -2l-88 -5q-43 0 -71 22t-28 52t26 54q24 22 52 20l86 -8l173 4q41 2 69 -22t29 -54z" />
    <glyph glyph-name="Dotaccent" horiz-adv-x="563" 
d="M333 1729q44 0 74 -30q29 -31 29 -61t-16 -60t-41 -50t-71 -21q-46 0 -70 31t-23 75q0 44 37 80t81 36z" />
    <glyph glyph-name="Ring" horiz-adv-x="524" 
d="M247 1841q69 0 117 -48t48 -117q0 -68 -47 -116t-117 -48t-118 48t-48 116t48 117q48 48 117 48zM250 1724q-16 0 -32 -15t-15 -31q0 -16 12 -29q11 -13 31 -13t32 14t13 31q0 18 -12 31q-13 12 -29 12z" />
    <glyph glyph-name="Circumflex" horiz-adv-x="546" 
d="M2 1579q0 33 47 66l182 122q59 39 93 39t51 -9q18 -9 18 -21l-2 -31l39 -78l6 -8q12 -29 28 -44q17 -15 17 -26q0 -35 -41 -47q-32 -12 -62 -12t-44 24q-33 62 -45 105l-150 -111q-45 -33 -71 -32l-37 16q-29 14 -29 47z" />
    <glyph glyph-name="Breve" horiz-adv-x="765" 
d="M463 1794q16 0 19 -6t11 -7q7 -1 19 -13t14 -25v-10l2 -15q0 -27 -45 -57l-151 -102q-68 -45 -109 -45t-71 30q-48 55 -60 89t-31 53q-20 14 -20 40t33 41l39 13q11 4 33 4t35 -9t22 -38q8 -13 17 -21t13 -28q5 -20 9 -20t47 24l129 86q29 16 45 16z" />
    <glyph glyph-name="Tilde" horiz-adv-x="694" 
d="M570 1667q16 0 36 -25q54 -68 -34 -121q-54 -34 -103 -34q-49 1 -107 25t-65 24q-51 0 -69 -5t-33 -27q-16 -22 -52 -21q-36 0 -55 22q-4 2 -12 26t-8 34t14 23q14 12 17 16t6 6t8 9t41 32t102 25t156 -46q43 -20 92 0q10 15 26 23l5 4q19 10 35 10z" />
    <glyph glyph-name="Cedilla" horiz-adv-x="448" 
d="M375 -183q0 -21 -13 -40l-135 -191q-44 -59 -127 -2q-18 12 -18 38t24 50l19 21l119 162q36 55 102 5q30 -22 29 -43z" />
    <glyph glyph-name="Ogonek" horiz-adv-x="448" 
d="M266 -203q67 0 68 -61q0 -29 -32 -48q-32 -20 -90 -20t-102 48q-46 48 -47 116q0 88 130 172l176 -4l-54 -47q-39 -33 -41 -35q-76 -61 -75 -92q0 -29 67 -29z" />
    <glyph glyph-name="commaaccent.cap" horiz-adv-x="471" 
d="M299 -354q-91 -148 -153 -148q-30 0 -54 18t-24 38q0 22 32 61l50 59l24 41l68 90q8 19 27 39t32 19q47 -7 57 -15t17 -10q27 -6 26 -22q0 -10 -20 -45l-35 -56q-25 -40 -36 -53q-11 -14 -11 -16z" />
    <glyph glyph-name="a_l" horiz-adv-x="827" 
d="M901 877h-2l-20 -41q-6 -6 -33 -88l-8 -35l-2 -8v-5q4 0 7 8t15 33q23 76 43 123v13zM528 602q0 40 -16 73q-16 34 -39 34q-53 -1 -129 -93t-132 -217t-56 -209q0 -38 15 -62t40 -24t97 92t118 181l37 72q18 43 26 57t35 29q4 27 4 67zM186 -23q-76 -1 -115 51
q-38 52 -38 138q0 190 129 412q70 120 154 190t162 70q77 0 131 -66q55 -66 55 -160t-27 -163q-6 -16 -39 -70q-39 -78 -45 -160q49 37 84 115q29 217 59 339q30 123 96 293t102 220t82 49q46 0 71 -32t24 -89q0 -244 -289 -792q-18 -68 -18 -119t22 -85t62 -38
q63 -6 63 -59t-73 -54q-141 0 -187 164q-79 -59 -121 -59q-63 -1 -100 71q-61 -68 -88 -90q-80 -76 -156 -76z" />
    <glyph glyph-name="a_m" horiz-adv-x="1435" 
d="M520 614q0 52 -10 92t-27 39q-39 1 -109 -73t-122 -168q-98 -182 -98 -284t45 -101q39 -1 105 71t112 162l43 86l16 43l25 49q20 33 20 84zM506 29q-68 0 -98 92q-76 -78 -116 -102t-91 -23q-82 0 -130 54t-48 151q0 156 114 372q74 139 169 219q94 80 176 80t120 -48
t55 -160q-6 -117 -8 -123l-4 -25l4 -45q0 -2 -10 -18l-47 -88l-29 -82l168 346q96 205 195 205q40 0 62 -28t22 -75t-17 -104l-47 -154l78 102q68 86 123 87q29 0 49 -20q40 -41 -4 -155l55 68q35 49 53 63t48 14t48 -23q19 -25 19 -65t-14 -81l-43 -146l-21 -114l-2 -21
q-4 -43 1 -60q5 -18 27 -30q21 -12 21 -42t-17 -46t-44 -16q-53 0 -84 47t-31 103t6 100l19 108l-66 -123q-47 -94 -108 -94q-31 1 -53 21t-23 50q0 30 16 83l31 100l-170 -266q-39 -63 -77 -63q-37 0 -59 21q-22 22 -22 45t9 48l120 385l-180 -375q-33 -68 -71 -108
t-74 -41z" />
    <glyph glyph-name="a_n" horiz-adv-x="1296" 
d="M520 770q-55 4 -141 -90t-151 -225t-64 -222q0 -51 17 -86t50 -35t121 80q88 78 148 166q23 39 44 130q22 91 21 157q0 119 -45 125zM698 541q0 -5 9 -19q21 -34 0 -80l-39 -80q-10 -23 -31 -83l168 299l82 133q70 106 129 106q32 1 54 -25t22 -72t-15 -83l-43 -150
l88 109q31 41 67 41t56 -24q21 -24 21 -50t-9 -76l-53 -223q-12 -42 -12 -88t2 -63q47 -17 47 -53q0 -68 -76 -68q-100 0 -100 147q0 25 4 58l23 170l-156 -267q-23 -43 -63 -43t-60 24q-20 23 -20 57t16 87l92 271l-190 -346q-59 -109 -137 -109t-99 88l-69 -55
q-94 -80 -180 -80t-140 63q-53 63 -53 160q0 160 135 391q170 289 350 289q88 0 137 -68t50 -186q0 -29 -3 -41l-4 -51v-10z" />
    <glyph glyph-name="a_r" horiz-adv-x="1009" 
d="M473 727q-23 -1 -109 -93t-148 -210q-60 -118 -60 -217q0 -33 14 -57t41 -25t93 65q208 208 208 451q0 86 -39 86zM512 55q-68 0 -94 78q-119 -127 -213 -127q-72 0 -122 55t-50 132q0 125 76 281t200 288q88 92 170 92t122 -58t40 -136t-4 -92t-4 -23t10 -25t10 -34
t-2 -21l-86 -209l99 170l51 109q22 51 25 71q2 19 16 73t64 54t75 -51q23 10 49 10t45 -20q35 -35 10 -97l-100 -221l-22 -86q-11 -46 -5 -96q51 -12 52 -59q0 -59 -82 -59q-43 0 -73 37q-30 39 -30 95t19 131l18 72l-121 -223q-18 -31 -58 -71t-85 -40z" />
    <glyph glyph-name="a_s" horiz-adv-x="1030" 
d="M834 133q31 0 49 29q18 39 29 98t6 92v135l-193 -299q78 -55 109 -55zM543 612q0 82 -36 82t-97 -48t-111 -114q-141 -195 -141 -378q0 -68 43 -68q88 0 215 190t127 336zM184 -27q-70 0 -110 44t-41 136q0 93 51 227t133 238q150 193 309 193q82 1 115 -65t29 -123
l-6 -86l6 -48q0 -4 -4 -20l-74 -213l-8 -57l362 567q31 45 64 45t51 -18t18 -48v-16l-26 -123l-2 -20l-13 -285q-12 -285 -196 -285q-38 0 -98 18t-101 42q-2 -2 -22 -17q-37 -35 -76 -34q-69 0 -96 90l-66 -60q-88 -82 -199 -82z" />
    <glyph glyph-name="a_t" horiz-adv-x="980" 
d="M741 598q-31 0 -63 14q-6 -64 -9 -76t-36 -81l-29 -86l-29 -140q-6 -27 -6 -30q0 -12 11 -13q12 2 26 27l131 248l51 139q-16 -2 -47 -2zM549 647q0 115 -43 115q-109 0 -231 -201t-121 -381q0 -84 28 -84q41 0 125 94q16 16 61 81q44 65 60 94l33 59q20 33 39 82l6 57
q0 18 16 31l23 22q4 4 4 31zM836 170q0 -66 14 -94q68 0 68 -58q0 -27 -28 -47t-73 -20t-77 48t-31 126q0 20 2 33l-19 -25q-45 -61 -77 -83t-74 -21q-89 0 -97 137l-67 -76q-96 -108 -214 -108q-59 0 -95 45t-37 149q0 104 48 246q48 141 130 256q143 201 307 201
q70 0 107 -39t53 -125l115 14l38 4l80 236q39 117 60 141t53 23t50 -17q20 -16 20 -41t-29 -90q-10 -29 -31 -82l-53 -151l111 6h6q26 6 52 -16t26 -50t-23 -46q-23 -17 -59 -17l-43 4q-21 0 -109 -15l-59 -163q-45 -219 -45 -285z" />
    <glyph glyph-name="e_e" horiz-adv-x="1091" 
d="M651 395l45 6q76 12 141 78t65 125q0 60 -40 60q-39 0 -82 -50t-129 -219zM360 578v24q-113 -94 -149 -278q149 94 149 254zM209 -43q-158 0 -158 212t109 395t233 184q53 0 85 -38t32 -104t-38 -158t-91 -159q-72 -92 -197 -92q-10 -51 4 -105q14 -14 32 -16
q44 -5 235 200q25 25 37 39l2 4l-7 48q2 27 34 63t59 100q145 283 305 283q63 0 102 -49t39 -129q0 -186 -188 -295q-54 -33 -100 -45t-128 -16q-6 -29 -9 -83t40 -96t95 -41q52 -1 92 15t235 108q57 23 85 -7q17 -17 17 -44t-35 -51q-195 -121 -411 -121q-70 0 -127 30
t-86 79q-15 24 -25 79l-39 -38q-86 -90 -112 -109q-57 -43 -121 -43z" />
    <glyph glyph-name="e_l" horiz-adv-x="720" 
d="M578 449q88 160 144 303t54 198q-59 -80 -116 -224t-82 -277zM379 592l-2 31q-72 -59 -133 -238q55 8 86 55q49 78 49 152zM233 84q72 0 187 131l18 162q-72 -75 -106 -95t-84 -20l-47 2q-13 -52 -13 -116t45 -64zM224 -33q-84 0 -126 48q-43 48 -43 137q0 88 44 226
t116 263t168 125t127 -98q104 272 169 370t140 99q41 0 67 -34t25 -87q0 -109 -64 -275q-63 -166 -115 -265t-165 -279q-8 -14 -8 -32t12 -36t35 -18t63 23q40 24 59 24q18 0 34 -16t16 -40q0 -39 -73 -77q-59 -27 -109 -27t-78 13t-65 52q-145 -96 -229 -96z" />
    <glyph glyph-name="e_m" horiz-adv-x="1296" 
d="M360 578v24q-113 -94 -149 -278q149 94 149 254zM208 -43q-157 0 -157 212t109 395t233 184q53 0 85 -38t32 -104t-38 -158t-91 -159q-72 -92 -197 -92q-6 -29 -3 -61t11 -46q8 -12 29 -13t73 55t87 124l158 291q74 135 112 181q39 46 74 46t57 -24t21 -67
q0 -42 -23 -124l-41 -145l76 100q45 57 86 57t62 -22q20 -23 20 -51t-4 -68l49 72q45 68 75 94q31 26 63 27q32 0 55 -23q23 -22 23 -54t-13 -87l-41 -203q-12 -54 -12 -112t18 -76q4 -4 26 -6t39 -17q17 -16 17 -42t-25 -43t-63 -17q-66 0 -103 54t-36 150q0 25 4 62
l22 149l-116 -208q-49 -96 -109 -97q-31 0 -51 22q-21 21 -21 53t11 87l14 80l-137 -238q-29 -49 -69 -49q-39 0 -61 22t-22 50t25 129l45 162l-78 -146q-143 -268 -300 -268z" />
    <glyph glyph-name="e_n" horiz-adv-x="1013" 
d="M391 547q0 18 -2 31q-75 -58 -147 -218q51 18 100 78t49 109zM225 -41q-78 0 -126 46t-48 122q0 188 121 401q66 113 117 159t109 46t100 -46t41 -118q-1 -71 -51 -151t-138 -144q-72 -47 -155 -59q-20 -88 -3 -110q17 -23 33 -23q70 0 168 160l240 393q53 86 110 86
q35 0 59 -25q40 -42 15 -112l-53 -164l51 53q37 39 77 39t64 -25t23 -59t-25 -134q-24 -101 -24 -125t4 -60l6 -5q33 -18 33 -55q0 -57 -74 -57q-104 0 -104 139q0 37 2 47l12 94l-107 -161q-43 -68 -60 -83q-17 -16 -51 -16q-35 0 -57 20t-22 49q0 28 10 62l45 133
l-90 -141q-115 -176 -252 -176z" />
    <glyph glyph-name="e_r" horiz-adv-x="880" 
d="M430 590q0 10 -2 20q-42 -14 -96 -88t-68 -141q78 14 122 86t44 123zM255 -2q-91 0 -139 46t-48 134t50 220t134 244t188 112q60 0 98 -42t37 -106q0 -124 -96 -242t-196 -118q-29 0 -68 8q-8 -35 -8 -59q0 -70 31 -70q51 0 102 45t127 155q77 109 107 191t44 136t33 84
q20 28 60 28q66 0 71 -86q8 2 31 2t45 -22t23 -42q0 -20 -13 -53l-86 -198q-10 -25 -30 -111t-20 -98t3 -41q47 -19 47 -55q0 -70 -80 -70q-48 0 -78 35t-30 97t24 146l41 152l-59 -115q-88 -163 -171 -235t-174 -72z" />
    <glyph glyph-name="e_s" horiz-adv-x="854" 
d="M729 403v46q-100 -156 -207 -275q49 -68 88 -68q51 0 85 84t34 213zM250 399q51 4 90 37q115 98 115 191l-4 24q-39 -10 -107 -95t-94 -157zM460 799q64 0 102 -43t38 -115q0 -129 -123 -262q-100 -106 -219 -107q-4 0 -49 4q-8 -47 -8 -73q0 -78 32 -78q37 -1 117 65
t131 138l174 243q19 25 53 101t58 98q26 23 60 23q34 -1 54 -17t21 -41q0 -25 -12 -61l-17 -113l-10 -244q-6 -143 -74 -238t-162 -95t-220 84q-100 -66 -178 -66t-120 51t-42 135t8 114t8 38l-12 47q0 39 45 70q12 6 20 22q27 63 90 154q70 92 121 129q50 37 114 37z" />
    <glyph glyph-name="e_t" horiz-adv-x="868" 
d="M281 412q43 0 92 72t49 124t-23 51q-29 1 -77 -69t-86 -164q28 -14 45 -14zM270 283q-33 0 -71 12q-2 -23 -2 -62q0 -100 65 -100q70 -1 160 97t133 188l113 244l-66 -9q-4 0 -29 4q-8 -109 -59 -200q-102 -174 -244 -174zM803 61q0 -27 -25 -45t-61 -18q-137 0 -137 227
q-100 -123 -176 -173t-158 -50q-84 0 -137 69q-97 127 -15 374q120 362 320 362q61 0 116 -45q16 20 29 20l98 9q41 2 54 6l2 2q4 2 4 4l102 264q25 61 78 61q29 0 51 -22t21 -45q0 -24 -8 -43l-78 -207l53 6q22 2 50 2t50 -20t23 -55q-1 -36 -27 -48t-94 -16l-113 -8
l-82 -262q-27 -76 -27 -162t8 -104q7 -18 30 -23q49 -14 49 -60z" />
    <glyph glyph-name="i_l" horiz-adv-x="538" 
d="M543 705l18 40q47 109 60 173q-37 -51 -83 -160t-73 -205q33 48 78 152zM295 870q37 0 61 -24t23 -62q0 -36 -29 -66q-28 -30 -66 -30t-60 22t-22 62t28 69t65 29zM694 1163q37 1 63 -29t25 -73q0 -139 -151 -463q-51 -108 -91 -174t-128 -193q-8 -41 -9 -51
q0 -68 39 -102q14 -10 90 -31q27 -4 27 -39q0 -72 -101 -73t-171 151q-91 -72 -139 -72t-76 32t-27 88q0 56 50 236q50 181 82 237q32 57 71 57q72 1 74 -74q0 -29 -36 -110t-65 -169q-4 -25 -24 -84q-17 -33 -7 -45h3l2 -2l2 2q33 17 38 25t13 22l24 35q23 186 72 342
t156 369q92 188 194 188z" />
    <glyph glyph-name="i_m" horiz-adv-x="1173" 
d="M366 852q38 0 62 -22t23 -58q0 -36 -35 -71q-35 -33 -72 -33q-36 0 -60 22t-24 60q0 36 34 69t72 33zM1149 18q0 -28 -33 -52t-80 -24t-81 36q-33 34 -33 78t10 100l47 221l-148 -223q-57 -92 -73 -107q-60 -47 -100 -7t-19 105l59 222l-209 -336q-29 -45 -65 -45t-56 18
t-20 50t37 130l119 326q14 41 14 43l-2 2q-2 0 -22 -37l-156 -297q-66 -121 -114 -174t-89 -53t-65 29t-25 77q0 48 35 173q35 126 86 249q49 123 110 123q31 0 51 -21q19 -22 19 -57t-31 -77t-57 -107l-55 -143l162 303q127 240 233 239q36 0 60 -26t24 -73q0 -48 -20 -116
l-25 -78q55 59 86 79t65 20t62 -32q29 -32 8 -132l70 90q90 117 149 117q33 0 56 -24t23 -47t-15 -89l-72 -291q-14 -50 -14 -78t12 -28q31 8 41 9t26 -18t15 -47z" />
    </font>
</defs>
</svg>
