<?xml version="1.0" standalone="no"?>
<!DOCTYPE svg PUBLIC "-//W3C//DTD SVG 1.1//EN" "http://www.w3.org/Graphics/SVG/1.1/DTD/svg11.dtd" >
<svg xmlns="http://www.w3.org/2000/svg">
<metadata>
Created by FontPrep 20130207 at Mon Apr 25 18:43:59 2016
 By Ismael Serrano
Copyright 2006 by Profonts, P. Rosenfeld &#38; J. Willrodt
</metadata>
<defs>
<font id="9e65ccdcaea88759cebffae64c31f26d" horiz-adv-x='1024' >
  <font-face 
    font-family="LaramiePro-Regular"
    font-weight="400"
    font-stretch="normal"
    units-per-em="2048"
    panose-1="2 2 5 0 0 0 0 0 0 0"
    ascent="1638"
    descent="-410"
    x-height="721"
    cap-height="1508"
    bbox="-586 -729.005 2656 2062"
    underline-thickness="129"
    underline-position="-129"
    unicode-range="U+0020-FB02"
  />
<missing-glyph horiz-adv-x="409" 
 />
    <glyph glyph-name="fi" unicode="fi" horiz-adv-x="825" 
d="M756 850q50 0 51 -45q0 -23 -22 -45t-48 -23q-43 0 -43 37q0 32 20 54q18 22 42 22zM276 291q38 0 89 10q-29 81 -51 101t-87 32l-53 -143q45 -4 55 -2q9 2 47 2zM137 332l17 53q-20 -21 -20 -29t3 -24zM43 -252q0 -53 18 -90t48 -37q72 0 171 203t99 350q0 25 -6 80
q-74 -12 -148 -12h-67l-68 -209q-47 -141 -47 -285zM639 43q0 -15 -24 -29q-23 -14 -55 -14t-60 31t-29 81q0 50 25 119l45 134q-43 -43 -117 -89q6 -61 6 -79q0 -121 -56 -272t-138 -256t-148 -105q-96 0 -96 170t45 299l72 229q-113 86 79 213l289 637q10 22 9 48
q-1 25 29 50t46 25q17 0 25 -9q8 -10 8 -20t-21 -51l-323 -670q70 -16 102 -50t60 -116q129 74 204 234q25 59 36 73t40 15q29 0 29 -32t-31 -77l-8 -14l-121 -297q-49 -104 -12 -150q14 -17 35 -18l37 10q18 0 18 -20z" />
    <glyph glyph-name="c_h" unicode="ch" horiz-adv-x="1056" 
d="M547 659q0 89 -74 89q-41 0 -111 -56t-135 -153q-127 -188 -127 -363q0 -63 25 -99t68 -36q127 0 331 260q63 80 161 239q97 159 124 226l135 332l12 35l11 26q8 31 16 40t29 9q35 0 35 -30t-27 -91l-275 -659q-60 -159 -73 -202q-14 -44 -20 -60t-19 -53l178 237
q143 190 199 191q51 0 51 -68q0 -14 -8 -49l-29 -164q-14 -70 -14 -132t16 -58l37 4q4 0 10 -7t6 -14q0 -31 -51 -33q-80 0 -80 103q0 79 20 187t21 126q0 18 -11 19q-12 -1 -26 -19t-98 -129l-141 -184q-57 -75 -77 -97t-38 -22t-31 15q-12 15 -12 45t14 61l117 324
q-154 -240 -274 -351t-230 -110q-66 0 -104 47t-37 129q0 221 172 454q141 186 287 187q53 0 87 -39q34 -40 34 -120q1 -80 -53 -184t-107 -104q-17 0 -29 16t-12 40t34 94t64 104t29 47zM487 459q0 -14 5 -15q6 0 25 38t19 48t-4 11q-5 -1 -10 -11q-6 -10 -20 -33
q-14 -24 -15 -38z" />
    <glyph glyph-name="c_r" unicode="cr" horiz-adv-x="913" 
d="M780 588q-14 0 -18 -6t-79 -148t-217 -294t-286 -152q-63 0 -101 44t-38 120q0 130 61 286t164 279q58 73 104 101t99 28q133 0 133 -176q0 -121 -44 -210t-101 -89q-16 0 -29 9q-12 8 -10 30t22 49q90 113 90 213q0 51 -18 82t-49 30q-63 0 -151 -106t-149 -254
q-63 -148 -63 -233q-1 -154 95 -154q141 0 337 262q100 135 177 313l4 37q6 82 57 82q37 0 37 -39q0 -14 -2 -22q16 -6 22 -6q5 0 25 11t34 11q30 0 31 -24t-41 -102t-72 -184t-30 -164q0 -56 29 -79q6 -6 37 -12q8 -2 8 -17q0 -30 -43 -30t-68 34t-24 91q0 139 92 387
l-12 2h-13z" />
    <glyph glyph-name="f_f" unicode="ff" horiz-adv-x="913" 
d="M477 -237q0 -132 58 -132q74 0 161 142q117 180 117 354q0 221 -137 221q-37 0 -80 -18q-70 -207 -94 -321t-25 -246zM76 -309q0 -137 55 -137q49 0 109 80q59 81 100 199t41 204q1 85 -19 137t-71 115q-16 -7 -50 -15t-44 -30q-121 -334 -121 -553zM535 384q-1 14 21 32
q22 20 38 57l12 33q10 20 23 69q-109 -121 -161 -167t-124 -89q54 -67 72 -119t18 -147q0 -188 -108 -372t-220 -185q-42 0 -66 49t-24 143t25 200t104 366q-45 8 -45 38t45 44q25 10 34 17t18 30l245 635q18 91 37 118q18 26 47 26t29 -26t-31 -104l-280 -667q12 -3 38 -3
t98 50q73 50 173 152t152 220l153 361q20 39 29 55q31 68 71 68q12 0 22 -10t9 -32q0 -20 -59 -151l-299 -641q123 -35 139 -35t57 19q20 6 25 6q25 0 25 -21q1 -16 -13 -26t-57 -27q23 -24 40 -88t17 -125q0 -223 -153 -424q-102 -135 -185 -135q-51 0 -79 50
q-57 101 -4 360q24 113 98 358q-6 24 -6 38z" />
    <glyph glyph-name="f_r" unicode="fr" horiz-adv-x="851" 
d="M332 354l-117 -305q156 43 305 199q-39 60 -82 84t-106 22zM229 -530q94 0 212 200t118 387q0 62 -20 144q-61 -66 -161 -128t-179 -83q-96 -344 -35 -469q25 -51 65 -51zM74 111q0 -70 86 -72l104 303q-84 -43 -137 -108t-53 -123zM82 -358q0 104 59 344
q-125 12 -125 110t77 184t198 126l219 526q10 27 10 34t-2 13v8q0 35 32 73t60 38t29 -26q0 -26 -43 -122l-244 -542q78 -10 119 -33t86 -86q47 51 96 131t68 142t57 61q29 0 29 -31q0 -6 -4 -27l35 10q26 13 41 13q33 0 32 -27q-1 -15 -85 -191t-85 -266q0 -39 11 -43
q8 2 18 7h6q18 0 18 -18t-21 -34q-22 -14 -44 -14q-23 0 -37 20t-14 48q0 80 98 346l29 80l-33 -7q-18 0 -22 -5t-11 -14q-6 -9 -18 -32q-12 -24 -32 -60t-103 -142q27 -125 26 -191q0 -129 -63 -277t-157 -250t-164 -102t-108 60q-38 62 -38 166z" />
    <glyph glyph-name="k_n" unicode="kn" horiz-adv-x="1304" 
d="M782 65q0 26 13 58l202 516l-174 -262q-119 -180 -237 -291t-184 -111t-103 66t-63 219q-29 10 -29 29q0 12 14 26l8 13l7 10q12 35 47 35q14 0 21 -7t11 -30l4 -23q45 -10 58 -10q92 0 186 51q93 52 155 142t62 172q0 40 -28 66t-68 26q-150 0 -332 -207t-246 -451
q-2 -4 -2 -10l5 -33q-1 -23 -17 -39t-39 -16q-59 0 4 172l346 897l7 25q0 29 22 63l27 41q18 23 44 23t25 -23q0 -45 -49 -139l-112 -225l-129 -314q-14 -37 -19 -63l57 76q244 272 406 272q76 0 118 -39q40 -39 40 -92q0 -92 -76 -202q-109 -158 -283 -203q-66 -17 -88 -17
t-71 4q8 -141 31 -185t69 -44q46 1 158 111q111 110 208 268l195 305q18 27 45 26q43 0 43 -42t-27 -105l-163 -410q170 232 253 322t122 90t38 -37q0 -18 -32 -115l-64 -235q-18 -91 -18 -107t9 -30t17 -13l27 2h8q4 2 7 -2q15 -20 -11 -35q-63 -35 -94 11q-31 47 0 180
l61 227l17 70q-2 2 -4 6h-3q-3 3 -35 -32q-32 -36 -55 -60q-88 -98 -229 -320q-43 -68 -78 -68t-35 27z" />
    <glyph glyph-name="l_l" unicode="ll" horiz-adv-x="555" 
d="M698 1076q0 44 -20 24q-61 -59 -164 -346q-75 -222 -98 -410q27 50 77 144t72 147q23 53 78 235q55 180 55 206zM41 346q53 74 90 125q121 177 197 361t75 298q0 47 -26 48q-49 0 -154 -226q-77 -164 -109 -270t-73 -336zM106 2q-59 0 -96 56t-37 164t49 312
q48 204 124 385t128 255q54 74 109 73q80 0 80 -98q0 -184 -166 -500q-96 -186 -248 -383q-6 -40 -6 -86t20 -88t52 -43q84 0 235 197q23 195 60 339t96 301t110 251q40 69 92 69t52 -49q0 -43 -27 -161t-59 -214q-70 -207 -258 -549q-4 -49 -4 -65q0 -123 53 -139
q25 -8 24 -21q-1 -22 -39 -22q-77 1 -102 168q-145 -152 -242 -152z" />
    <glyph glyph-name="q_u" unicode="qu" horiz-adv-x="1247" 
d="M686 -285q0 152 -104 258q-13 13 -56 52q-59 -193 -77 -283t-19 -184q0 -147 76 -148q63 0 122 98q58 98 58 207zM141 158q0 -58 25 -96t63 -37q70 1 166 73q97 72 153 165t56 267t-96 179q-49 5 -119 -51t-127 -144q-121 -186 -121 -356zM1174 76q6 0 38 8q10 0 20 -10
t11 -24q0 -14 -23 -30q-24 -14 -57 -14q-82 0 -92 82q-2 14 -6 92q-90 -118 -139 -158q-50 -40 -92 -40t-66 28t-20 69l16 107q-43 -39 -180 -94q63 -61 90 -96q80 -104 80 -246t-90 -276q-90 -133 -185 -133q-53 0 -89 60t-36 150q0 91 29 239t59 210q14 35 13 43v23
l-17 -13q-136 -96 -212 -96t-117 53q-41 52 -41 146t47 219t129 231q133 180 282 180q170 0 170 -276q0 -80 -16 -148t-66 -192q100 29 149 92q47 62 111 246t127 184q17 0 29 -13t12 -33t-10 -39t-63 -107t-99 -214t-45 -178q0 -52 25 -51q41 0 172 185l70 129
q19 47 43 128t75 81q16 0 28 -10t13 -26q0 -15 -11 -41t-15 -40l-33 -90q-47 -131 -47 -238q0 -59 29 -59z" />
    <glyph glyph-name="r_r" unicode="rr" horiz-adv-x="825" 
d="M397 80q-61 0 -61 96q0 49 33 148l51 157l-80 4l-78 -174q-51 -117 -131 -237q-51 -72 -86 -72q-8 0 -16 7q-22 19 6 38q66 59 150 227q85 168 126 324q12 39 47 39t35 -55q1 -29 15 -29q14 1 50 21t46 20q12 0 20 -9t8 -17t-41 -89q-41 -82 -65 -171t-25 -126
q0 -37 25 -37q47 0 129 151t133 327q14 57 49 57t41 -33v-14l2 -37q4 -16 14 -16t29 14t31 14t22 -10t9 -24q0 -14 -6 -29l-64 -144q-19 -51 -39 -138t-20 -135t24 -66t25 -27q0 -29 -43 -29q-72 0 -72 108t64 283l39 103q-53 4 -80 18q-113 -256 -148 -307
q-84 -131 -168 -131z" />
    <glyph glyph-name="s_s" unicode="ss" horiz-adv-x="890" 
d="M422 512h-2q-129 -178 -180 -242t-144 -155q20 4 32 4t19 -6q6 -6 35 -45q18 -31 78 -31q98 0 141 174q21 90 21 301zM549 707q0 -15 -23 -59q-22 -44 -30 -90t-13 -161q133 31 205 81t191 198q29 49 77 49q27 0 27 -27q0 -10 -33 -80t-43 -126q-10 -55 -18 -208
q-8 -154 -47 -220t-124 -66t-145 55l-20 17l-31 18q-12 6 -12 22t15 30t38 14t72 -52t99 -51q50 -1 72 65t34 339l10 98q-184 -193 -371 -215q-8 -119 -33 -190t-49 -97q-59 -65 -127 -65t-129 34q-59 35 -59 70v12l-21 -14q-29 -20 -47 -20t-18 19t35 42q141 104 336 403
l104 175q16 27 47 27t31 -27z" />
    <glyph glyph-name="t_r" unicode="tr" horiz-adv-x="620" 
d="M503 55q5 0 11 -7t6 -19q0 -13 -20 -25t-47 -12q-86 0 -86 124t92 398h-64q-10 -20 -28 -60q-131 -291 -189 -372q-59 -82 -123 -82q-78 0 -78 113q0 80 46 204l141 396l-105 -13q-10 -2 -26 -2q-15 0 -29 12t-14 23q0 13 7 21t17 8l172 12l105 258q23 58 38 76t46 18
t31 -26t-13 -49l-129 -265l185 27q66 6 84 11t36 5q55 0 56 -32q1 -13 -13 -25t-38 -10t-44 2q-22 0 -63 -6l-227 -39l-160 -420q-39 -103 -39 -171t27 -69q29 0 48 26t101 171q37 57 121 272q18 51 32 128t62 77q14 0 24 -10t9 -23l-12 -88q0 -25 10 -24q2 0 13 4t18 18
q25 25 49 25q31 0 30 -29q0 -12 -94 -246q-17 -40 -33 -118t-16 -120t10 -59q10 -16 17 -14h10q31 6 36 6z" />
    <glyph glyph-name="t_t" unicode="tt" horiz-adv-x="593" 
d="M342 690l-74 -207q-24 -63 -50 -189t-26 -179t31 -54q15 1 31 17t51 65q113 156 223 412l68 160zM520 137q0 -35 9 -65t20 -29l39 2q14 0 14 -16q0 -17 -16 -27t-37 -10q-88 0 -88 137q0 86 33 225q-122 -216 -176 -282t-111 -66q-76 0 -76 96q0 27 14 115l21 113
q-96 -186 -156 -258t-88 -72t-28 20q0 12 24 35q104 86 264 439l86 192l-145 -10h-2q-2 0 -29 6q-14 4 -14 20q0 31 82 33l127 8l59 179q27 106 40 117q29 25 53 1q11 -10 11 -21t-28 -95l-64 -176l258 20l76 207q29 88 39 102q11 15 31 15t30 -10t11 -30q0 -20 -19 -57
l-92 -223l129 10h6q15 4 33 -7t19 -25q0 -29 -52 -29l-159 -4l-60 -182q-88 -264 -88 -398z" />
    <glyph glyph-name="t_h" unicode="th" horiz-adv-x="856" 
d="M172 12q-68 0 -70 88q0 115 58 283l78 213l-185 -18l-35 -5q-14 -1 -24 9t-10 25t21 23q22 7 101 15l152 17l94 253q38 107 56 133t51 26t33 -30q0 -14 -35 -92l-129 -282l84 10l45 6q39 0 39 -33q0 -25 -29 -28l-166 -21l-82 -217q-55 -215 -55 -267t29 -52q39 0 94 82
q154 225 190 323l234 617q6 16 13 53t31 65t41 27q17 0 27 -9q26 -24 -14 -96q-18 -33 -31 -73l-317 -856q123 193 227 315t150 123q41 0 41 -53q0 -18 -9 -64l-57 -256q-34 -153 -13 -192q9 -16 19 -17l29 2q33 4 33 -20q-1 -13 -19 -25t-45 -12q-86 0 -86 102q0 59 23 158
l57 270l2 27q0 6 -6 6q-18 0 -111 -119q-14 -20 -38 -53t-40 -57t-20 -27l-141 -246q-29 -45 -63 -45t-34 29t46 174q-33 -37 -70 -92q-86 -117 -164 -117z" />
    <glyph glyph-name=".notdef" horiz-adv-x="409" 
 />
    <glyph glyph-name=".null" horiz-adv-x="0" 
 />
    <glyph glyph-name="nonmarkingreturn" horiz-adv-x="681" 
 />
    <glyph glyph-name="space" unicode=" " horiz-adv-x="409" 
 />
    <glyph glyph-name="exclam" unicode="!" horiz-adv-x="589" 
d="M322 422q0 -43 -48 -43t-51 33q0 10 13 39q10 41 16 79t27 80l317 820q14 39 26 49t29 10q19 0 29 -9q10 -10 10 -20t-26 -88l-312 -774q-31 -82 -30 -156v-20zM289 162q0 -40 -29 -71q-29 -32 -72 -32q-76 0 -75 78q-1 35 30 64l29 28q52 45 96 -3q22 -24 21 -64z" />
    <glyph glyph-name="quotedbl" unicode="&#x22;" horiz-adv-x="466" 
d="M296 799q-30 0 -30 22q0 7 12 21t17 16q8 12 24 33l154 182q37 47 45 47t31 -12t24 -21l-24 -34l-217 -246q-6 -8 -36 -8zM115 803q-29 0 -29 24q0 4 12 17l17 20q12 12 24 31l152 182q37 47 46 47t31 -12t25 -20l-24 -35l-217 -246q-8 -8 -37 -8z" />
    <glyph glyph-name="numbersign" unicode="#" horiz-adv-x="993" 
d="M342 365h211l162 415h-209zM176 -117v-20q0 -43 -49 -43t-49 30q0 14 7 30t19 73l19 65l10 31l96 240h-84l-118 -2q-53 0 -90 19q-37 20 -37 40t11 32t23 11q12 0 55 -12q42 -12 193 -12h76l162 415h-129l-66 -4q-45 0 -80 20t-35 40t12 31q11 11 23 11q11 0 51 -12
t80 -12h173l131 340q16 39 26 49t28 10t30 -9q10 -9 10 -20t-27 -87l-110 -283h206l127 330q14 39 26 50t30 11q37 0 39 -33q0 -8 -27 -84l-113 -282h183q34 6 64 -9t30 -49t-29 -32q-13 0 -35 8t-69 8h-170l-162 -407h256q94 0 94 -60q0 -12 -13 -25t-44 1q-33 10 -78 10
h-246l-108 -262q-31 -78 -31 -156v-20q0 -43 -49 -43q-20 0 -35 9q-14 9 -14 21t12 41l14 62q8 43 29 98l100 250h-213l-104 -254q-7 -19 -19 -75t-12 -79z" />
    <glyph glyph-name="dollar" unicode="$" horiz-adv-x="851" 
d="M111 481q27 0 45 -45q18 -46 46 -68q59 -47 208 -48t149 53q0 27 -20 51t-99 86l-198 160q-35 30 -59 74t-23 81q0 123 111 211q112 88 276 97q4 6 12 22l88 193q16 34 49 34t33 -24q0 -14 -16 -41q-70 -123 -82 -207q90 -47 121 -113q6 -11 12 -37t11 -44t5 -26t-18 -73
l-21 -57l-20 -37q-10 -25 -47 -25t-37 33q0 8 2 12l39 103q16 76 16 86q0 55 -71 106q-45 33 -130 33t-175 -77t-89 -155q0 -78 56 -122l196 -160q111 -92 131 -122t19 -58q0 -61 -84 -88q-88 -25 -164 -25q-25 0 -37 -17t-28 -72q-17 -54 -17 -60l4 -21q2 -6 2 -16
q0 -35 -43 -35t-43 37q0 4 8 67l35 117v8q-197 74 -196 170q0 14 13 26t30 13z" />
    <glyph glyph-name="percent" unicode="%" horiz-adv-x="1185" 
d="M588 194q0 -68 42 -125q42 -58 97 -59q115 0 221 135t107 279q0 68 -32 114t-74 49q-43 3 -113 -35t-122 -88t-89 -126t-37 -144zM942 651q72 0 123 -62t51 -149q0 -174 -122 -326t-273 -161q-80 -7 -141 65t-62 170q0 158 139 311q140 152 285 152zM279 1032
q0 -46 45 -78q45 -31 116 -30q145 0 217 39q15 8 21 57l6 31q6 27 6 57q0 84 -38 145t-84 61t-96 -23q-50 -24 -81 -56q6 2 15 6q78 39 130 39q95 0 95 -41q0 -23 -25 -22l-61 8q-67 1 -153 -55t-100 -74t-13 -64zM201 985q-6 0 -19 -18q-35 -70 -42 -95t-7 -88t47 -117
t117 -55q168 0 299 203q39 55 45 90l-70 -18q-167 -39 -269 4q-54 23 -77 59t-24 35zM280 -12q-18 0 -29 11t-11 24q0 43 43 110l342 531l219 325l-117 -53q-12 -8 -27 -43q-35 -92 -120 -184q-141 -152 -304 -152q-90 0 -149 68t-59 174q0 135 167 354t338 217
q72 0 123 -70t52 -170q0 -39 -11 -133q170 63 219 152q37 59 72 59t35 -30q0 -18 -47 -76l-649 -948q-33 -55 -33 -74l10 -37q0 -18 -22 -37q-24 -18 -42 -18z" />
    <glyph glyph-name="ampersand" unicode="&#x26;" horiz-adv-x="927" 
d="M772 1082q0 44 -36 73t-94 29t-96 -69t-38 -161t27 -192l118 108q53 48 86 108t33 104zM92 233q0 -59 66 -101t155 -42q201 0 371 139l-188 430l-195 -151q-209 -160 -209 -275zM1040 543q121 0 121 -34t-53 -34q-14 0 -29 8l-26 9h-2l-162 -25q-8 -53 -34 -100t-99 -142
q40 -70 64 -91q24 -22 24 -36t-16 -27t-33 -13q-19 0 -27 8t-10 28t-53 94q-86 -58 -124 -76q-39 -18 -139 -42t-180 -25q-80 0 -159 54q-77 54 -77 125t56 143q55 72 192 182l205 166q-39 137 -39 233q0 303 185 303q86 0 148 -50t63 -120q0 -98 -150 -250l-139 -139
l176 -422q35 40 67 94t32 68t-10 22q-9 8 -17 7l-39 -4q-86 0 -86 39q0 14 15 25t36 11l55 -20q10 2 119 12l133 17q4 2 12 2z" />
    <glyph glyph-name="quotesingle" unicode="'" horiz-adv-x="362" 
d="M55 803q-29 0 -28 24q0 4 12 17l16 20q12 12 25 31l151 182q37 47 47 47t30 -12q22 -12 26 -20l-25 -35l-217 -246q-8 -8 -37 -8z" />
    <glyph glyph-name="parenleft" unicode="(" horiz-adv-x="579" 
d="M498 29q0 -17 -36 -33t-81 -16q-100 0 -176 120t-76 275q0 258 139 576t373 593q104 125 154 125q14 0 24 -9q32 -29 -37 -87q-51 -39 -172 -184q-176 -217 -292 -503t-115 -507q0 -127 64 -234q65 -106 141 -106l67 12q23 -4 23 -22z" />
    <glyph glyph-name="parenright" unicode=")" horiz-adv-x="847" 
d="M410 1567q0 35 50 36t130 -100q135 -166 135 -352q0 -135 -35 -295q-80 -362 -354 -704q-35 -46 -50 -60t-67 -51q-14 -6 -16 -18l-10 -27q-12 -29 -87 -29q-39 0 -38 27q0 20 60 52t150 132q89 100 158 228q164 291 215 604q12 74 13 118q0 135 -64 238q-25 41 -71 90
q-45 48 -77 68t-37 26t-5 17z" />
    <glyph glyph-name="asterisk" unicode="*" horiz-adv-x="780" 
d="M143 854q-98 0 -98 49q0 25 25 43q47 27 100 27q23 1 23 -19t-31 -36l43 -5h98l33 5l-4 16l-19 41q-18 43 -34 117l-13 63v14q-2 25 14 42t37 18q43 0 45 -80l5 -55l8 -50q17 -87 31 -90l6 2l141 138l82 71q76 68 119 68q14 0 25 -9q11 -8 11 -22t-8 -21q-10 -7 -53 -28
l-100 -74l-90 -78l-68 -67v-4h27l192 10h6q49 0 49 -33q0 -12 -24 -30t-59 2q-20 8 -23 8h-47q-4 0 -25 -4l-26 -4h-25l-63 -11q14 -35 32 -55l9 -6q64 -86 127 -86q8 0 16 2h16q27 0 27 -23q0 -35 -68 -34q-102 0 -186 114l-35 49q-8 16 -26 -8l-101 -112l-33 -43
q-27 -35 -35 -65t-46 -30q-37 0 -37 30t59 93l143 168l-157 -8h-15z" />
    <glyph glyph-name="plus" unicode="+" horiz-adv-x="778" 
d="M348 555h-135l-63 -4q-43 0 -80 20q-37 21 -37 39t12 30q11 12 25 13q14 0 57 -13t74 -13h147v131l-4 65q0 43 20 79t40 36t31 -11t11 -23t-12 -59q-12 -46 -12 -73v-143h219q53 -3 74 -15t20 -43t-30 -32q-8 0 -30 8t-75 8h-178v-223q2 -4 -2 -30t-8 -36
q-12 -29 -50 -28q-12 0 -21 9t-9 19t8 32t8 75v182z" />
    <glyph glyph-name="comma" unicode="," horiz-adv-x="425" 
d="M84 -262q-10 -12 -44 -12t-34 24q0 14 21 41l75 103l37 57l99 123q41 53 65 72q25 20 57 20t31 -27q0 -20 -12 -33l-100 -94l-84 -102l-74 -100q-27 -60 -37 -72z" />
    <glyph glyph-name="hyphen" unicode="-" horiz-adv-x="712" 
d="M319 543q-80 0 -79 43q0 16 16 29t35 12l67 -9l78 5l41 4q66 6 92 6q76 0 76 -49q0 -12 -9 -20t-20 -9l-79 2l-127 -6l-35 -4q-33 -4 -56 -4z" />
    <glyph glyph-name="period" unicode="." horiz-adv-x="243" 
d="M118 199q32 0 55 -9q21 -9 23 -52q0 -9 -28 -44q-29 -35 -64 -35q-35 -1 -55 19t-20 49q1 29 29 51t60 21z" />
    <glyph glyph-name="slash" unicode="/" horiz-adv-x="1452" 
d="M29 -272q-17 0 -31 10t-14 24t26 50l1229 1511q115 137 170 213q6 14 15 41q10 27 20 38t31 11t37 -12t16 -27q0 -37 -115 -174l-1286 -1554q-35 -49 -43 -82q-16 -49 -55 -49z" />
    <glyph glyph-name="zero" unicode="0" horiz-adv-x="1355" 
d="M834 1223q-138 0 -216 -29t-225 -207q-102 -125 -173 -291t-78 -302q-6 -136 96 -237t250 -101t303 77q154 78 264 205q162 190 162 410q1 110 -45 212t-121 162q-121 101 -217 101zM756 1317q42 -1 82 -21t113 -40t147 -81q74 -60 110 -120q80 -123 80 -312
q0 -303 -289 -540q-111 -89 -249 -145t-252 -56q-188 0 -310 106t-120 271q0 299 272 645q226 293 416 293z" />
    <glyph glyph-name="one" unicode="1" horiz-adv-x="626" 
d="M463 1268q10 39 53 39q43 -1 43 -41q0 -20 -14 -53q-14 -34 -27 -66l-352 -1010q-8 -47 -8 -55t2 -16l2 -25q0 -41 -47 -41t-47 35q-1 13 22 115l326 944q-254 -209 -318 -209q-12 0 -21 10q-9 11 -9 25t11 24t46 23q117 49 227 146t111 155z" />
    <glyph glyph-name="two" unicode="2" horiz-adv-x="1488" 
d="M647 162q152 0 248 -34t96 -85q0 -27 -31 -27q-30 0 -40 8t-18 32t-84 38q-74 14 -184 14t-294 -54t-210 -54t-44 11t-18 26q0 31 141 74q285 86 602 309q243 174 395 356t152 303q0 89 -90 145t-238 56q-342 0 -616 -203q-199 -145 -199 -280q0 -80 68 -133t149 -48
q143 10 148 11q16 0 16 -22t-27 -31t-96 -9q-158 -1 -244 59t-86 173q0 168 265 344q274 186 624 186q170 0 280 -69t109 -177q0 -184 -262 -445t-674 -484q109 10 162 10z" />
    <glyph glyph-name="three" unicode="3" horiz-adv-x="1564" 
d="M635 -6q-201 0 -384 94t-183 205q0 59 50 111t107 53q9 0 17 -7q8 -8 8 -18t-52 -56t-53 -97q0 -88 150 -158t371 -70t448 111t227 231q0 80 -98 142q-131 86 -325 86q-57 0 -157 -15q-99 -14 -135 -14t-64 16t-27 37q0 33 61 33q172 2 297 39t287 135q252 150 252 274
q0 80 -98 134t-247 53q-287 0 -536 -142q-70 -39 -117 -93t-47 -95t51 -74q50 -33 110 -36t74 -9t13 -22q0 -31 -53 -31q-102 0 -191 60q-88 60 -88 136t118 162q118 85 300 141t360 56t297 -74t119 -179t-133 -214q-55 -47 -97 -71t-239 -123l-37 -21q4 0 9 -1l12 -2
q172 -26 286 -113t114 -184t-110 -188q-110 -90 -288 -146t-379 -56z" />
    <glyph glyph-name="four" unicode="4" horiz-adv-x="1421" 
d="M1206 1254q0 38 -20 38q-47 0 -256 -160q-208 -160 -394 -298q-186 -139 -290 -252q-96 -109 -96 -162t122 -58h66l522 25l309 743q37 86 37 124zM846 125q0 -37 10 -51t10 -29q0 -17 -16 -31t-41 -14q-47 0 -47 72t24 131l54 127l-506 -19h-19q-248 0 -247 103
q0 80 138 215t448 373t466 335q68 45 108 45t58 -18t19 -43q0 -68 -60 -205l-311 -725l352 19h4q25 0 44 -8t18 -19q-4 -31 -45 -31l-88 4q-29 0 -39 -2l-258 -16l-58 -133q-18 -43 -18 -80z" />
    <glyph glyph-name="five" unicode="5" horiz-adv-x="1433" 
d="M505 1348q52 0 77 -10t55 -15l590 27q23 2 61 2q78 0 78 -39q0 -9 -25 -21t-41 -10l-65 8l-637 -33l-233 -473q154 37 262 37q268 0 485 -125q88 -49 140 -126t53 -160q0 -160 -203 -281q-218 -129 -568 -129q-174 0 -320 52t-146 122q0 20 13 34t32 15q41 0 41 -35v-20
q-13 -27 46 -54q122 -56 375 -58q253 -1 461 109t207 259q0 64 -44 126t-122 109q-178 104 -450 105q-166 0 -240 -41q-8 -6 -57 -47q-10 -6 -26 -6t-30 13q-16 13 -16 45t43 108l141 288l62 150q-52 25 -51 49q0 25 52 25z" />
    <glyph glyph-name="six" unicode="6" horiz-adv-x="1298" 
d="M1153 518q1 125 -111 202t-310 77t-396 -68q-57 -20 -94 -59t-76 -124t-39 -169q0 -143 99 -237t253 -93q258 -1 466 145t208 326zM762 850q196 0 326 -92t131 -248q1 -204 -227 -356t-505 -152q-231 0 -348 145q-82 104 -82 203t74 281q-25 23 -25 39q0 25 54 53
q31 18 45 35q150 221 214 298q65 77 197 185q213 178 320 178q25 0 44 -11q19 -12 19 -26t-12 -21t-49 -13q-90 -18 -229 -119q-145 -111 -220 -192t-198 -257q275 70 471 70z" />
    <glyph glyph-name="seven" unicode="7" horiz-adv-x="1275" 
d="M1124 1257q0 39 -106 39t-273 -18l-411 -49q-47 0 -148 -6q-38 -2 -78 18t-40 41q0 35 88 35q34 -1 68 -13t62 -12t42 2l415 41q158 14 263 15q203 0 202 -90q0 -25 -14 -43t-96 -107l-701 -741q-73 -89 -109 -133t-66 -92t-27 -60l2 -23q1 -21 -19 -41t-40 -20t-35 11
t-15 26q0 39 85 162t183 225l709 741q59 63 59 92z" />
    <glyph glyph-name="eight" unicode="8" horiz-adv-x="1521" 
d="M1382 1145q0 92 -92 142t-260 50q-270 1 -460 -73t-189 -181q-1 -74 65 -143t244 -190l539 219q63 27 108 78t45 98zM1274 279q0 -117 -127 -179q-88 -44 -217 -72t-246 -28q-283 0 -442 129q-90 75 -87 145t62 154t134 138t224 122q8 4 52 27q-162 121 -230 186
q-94 98 -94 193q0 139 266 225q209 70 433 70t340 -67t116 -185q1 -146 -192 -224l-496 -206q10 -10 25 -17l30 -16q16 -6 33 -17q227 -111 322 -196q94 -86 94 -182zM236 272q0 -92 138 -158t339 -65q201 0 345 67t144 166t-121 187t-387 203q-194 -55 -326 -171t-132 -229
z" />
    <glyph glyph-name="nine" unicode="9" horiz-adv-x="1347" 
d="M143 684q0 -110 76 -174q97 -78 235 -78t274 46t230 114t116 98q24 29 41 81t50 63q23 10 32 17t9 88t-51 159q-118 184 -311 192q-70 4 -172 -24t-176 -73q-74 -44 -155 -124q-81 -79 -139 -177t-59 -208zM451 381q-176 0 -280 83q-103 83 -103 224q0 195 208 408
q113 116 265 182t282 66t231 -58q100 -58 162 -162t62 -219q0 -43 -11 -67t-71 -109q-36 -65 -45 -90l-135 -317q-68 -156 -68 -238q0 -12 8 -47q2 -11 -13 -25t-32 -14q-41 0 -41 51q0 117 78 293l103 240l-121 -74q-90 -55 -224 -91t-255 -36z" />
    <glyph glyph-name="colon" unicode=":" horiz-adv-x="313" 
d="M195 348q-33 0 -57 20q-45 38 -6 77q17 18 44 22l53 12q19 4 39 -12t20 -43q0 -28 -29 -52q-30 -24 -64 -24zM113 190q88 0 88 -51q0 -31 -29 -51q-33 -27 -65 -27q-33 1 -55 21t-21 47q0 27 23 44q24 17 59 17z" />
    <glyph glyph-name="semicolon" unicode=";" horiz-adv-x="518" 
d="M414 457q32 -1 56 -19t24 -44t-32 -48t-69 -20q-37 0 -59 15t-21 39q0 24 35 50t66 27zM81 -272q-17 0 -31 12q-13 12 -13 29q0 68 145 233l99 113q17 23 45 23q54 -1 55 -32q0 -18 -25 -38l-75 -64l-35 -37l-45 -57q-66 -78 -76 -122q-11 -44 -19 -52t-25 -8z" />
    <glyph glyph-name="less" unicode="&#x3c;" horiz-adv-x="704" 
d="M645 188q0 -16 -10 -27q-9 -11 -19 -11t-22 4l-522 264q-27 12 -27 35t27 34l522 250q8 4 14 4h2q35 0 35 -34q0 -23 -20 -31l-469 -223l469 -238q20 -11 20 -27z" />
    <glyph glyph-name="equal" unicode="=" horiz-adv-x="802" 
d="M219 424h443q4 6 63 -10q10 -2 25 -27t0 -39t-26 -14t-31 8t-72 8h-388l-65 -4q-43 0 -79 20t-36 40q-1 20 11 31t24 11t58 -12t73 -12zM223 625h441q4 6 65 -11q9 -2 19 -18t10 -30t-9 -22q-9 -9 -19 -9t-33 8q-22 8 -72 8h-389l-66 -4q-43 0 -79 20q-36 21 -36 39
q1 18 13 30t25 13q13 0 57 -12t73 -12z" />
    <glyph glyph-name="greater" unicode="&#x3e;" horiz-adv-x="704" 
d="M80 741h4q4 0 12 -4l522 -250q33 -14 27 -45q0 -12 -27 -24l-522 -264q-12 -4 -21 -4t-20 11q-10 11 -10 26t21 28l469 238l-469 223q-20 10 -20 28t9 27q10 10 25 10z" />
    <glyph glyph-name="question" unicode="?" horiz-adv-x="956" 
d="M227 53q-67 1 -67 51q0 24 46 53t79 29q64 -1 59 -32l-6 -27v-8l2 -8q0 -18 -14 -33q-35 -25 -90 -25h-9zM1087 1020q0 102 -132 178q-131 76 -329 76t-372 -98q-100 -57 -100 -134q0 -55 51 -69q33 -10 33 -27q0 -12 -12 -22t-40 -10q-26 0 -66 37q-40 38 -40 77
q0 88 78 154t202 106q124 39 258 39q227 0 381 -93t154 -233q0 -92 -86 -173t-268 -162l-203 -93q-100 -45 -175 -97t-75 -79q0 -9 12 -31t12 -36t-28 -14q-30 0 -52 22q-22 23 -22 55q0 82 164 164l266 129q158 72 195 91t94 65q100 76 100 178z" />
    <glyph glyph-name="at" unicode="@" horiz-adv-x="960" 
d="M362 530q57 0 166 162q52 78 54 98t6 25q30 39 30 91q-1 99 -53 100q-59 0 -154 -130t-96 -249q-1 -43 13 -70t34 -27zM655 825q0 -6 -2 -8l-55 -158q-8 -23 -8 -55t13 -46q13 -13 57 -13q44 1 98 23t88 59t60 107t26 136q0 164 -108 266t-281 101q-213 0 -357 -144
q-144 -143 -145 -355q0 -212 140 -354t345 -142q125 0 243 66t171 165q2 4 10 16h58q-4 -14 -23 -51q-55 -108 -186 -180t-273 -72q-229 0 -387 159q-157 159 -157 391t162 394t399 162q195 0 321 -118t125 -298q0 -178 -108 -286q-90 -86 -224 -86q-57 0 -85 26t-23 74
l6 66q-113 -170 -203 -170q-72 0 -72 124t106 270q105 146 185 146q90 0 91 -141q0 -18 -11 -51l4 -17v-6z" />
    <glyph glyph-name="A" unicode="A" horiz-adv-x="1171" 
d="M1104 63l65 21q15 0 15 -22t-36 -40t-82 -20q-46 0 -78 59t-32 199t66 391q-27 -41 -45 -69q-166 -253 -381 -439q-180 -162 -330 -161q-88 0 -140 76t-52 210q0 289 148 615q148 325 368 543t418 219q126 -1 194 -107t68 -282t-22 -267q-22 -90 -58 -90h-4q-25 0 -25 23
q0 12 6 30q35 127 35 286t-58 253t-162 94t-238 -92q-134 -93 -274 -273t-240 -451q-101 -271 -101 -480q0 -111 44 -177t124 -67q80 0 164 51t203 172q197 198 304 394q106 196 126 214t43 19q50 0 -2 -119q-113 -242 -113 -545q0 -71 24 -119t58 -49z" />
    <glyph glyph-name="B" unicode="B" horiz-adv-x="1581" 
d="M885 6q266 0 481 115q174 94 174 222t-180 241q-98 61 -246 100t-283 39l-69 -2l-164 -451q-33 -98 -37 -166q-2 -29 37 -47q125 -51 287 -51zM1626 1245q0 97 -163 161t-416 64q-377 0 -697 -172q-223 -123 -223 -274q0 -82 70 -133q41 -29 48 -37t7 -23q0 -25 -28 -25
t-77 50q-80 86 -79 170q0 188 286 332q315 158 711 158q279 0 454 -74t175 -193q0 -164 -289 -319q-195 -102 -449 -152q190 -36 270 -62t169 -83q215 -139 215 -285q0 -208 -356 -328q-184 -62 -378 -61q-194 0 -331 57q-72 27 -72 72q0 31 70 240l139 391l-141 -8
q-12 -2 -29 -2q-47 1 -47 29t39 32l207 23l114 315q2 14 9 39l6 24l12 39q16 46 26 58t37 12q49 0 50 -33q-1 -16 -11 -46t-10 -34l-10 -37l-146 -329q225 25 432 104t307 166q99 88 99 174z" />
    <glyph glyph-name="C" unicode="C" horiz-adv-x="1142" 
d="M137 412q1 -357 365 -357q142 0 272 80q80 49 183 133t143 134t68 49q30 0 30 -27q0 -20 -41 -59t-168 -141t-195 -143q-144 -85 -327 -83q-399 0 -399 414q0 369 321 809q121 164 274 259t300 95q72 0 131 -37t88 -98q47 -111 47 -164v-16q0 -12 16 -21q23 -11 23 -25
t-18 -40t-62 -192q-44 -167 -103 -269q-31 -55 -75 -56q-40 0 -33 74q4 41 90 227t86 277q0 92 -45 176q-53 106 -172 107q-254 0 -506 -338q-137 -182 -215 -387t-78 -381z" />
    <glyph glyph-name="D" unicode="D" horiz-adv-x="1593" 
d="M676 62q0 -72 142 -72t286 55t277 160q132 105 214 267t82 344q0 181 -137 349q-172 209 -498 209q-283 0 -532 -137q-164 -92 -267 -221q-103 -130 -103 -230t67 -168q29 -30 51 -38t119 -39q29 -9 29 -27t-29 -18q-96 0 -203 68q-106 68 -106 194q0 127 105 266
t284 242q283 160 600 159q381 0 571 -268q115 -163 115 -361q1 -198 -103 -378t-290 -303q-264 -176 -543 -176q-119 0 -197 53q-35 23 -30 35l16 39l16 67l349 934q55 154 67 165t32 11t38 -17q18 -16 18 -36t-47 -82q-14 -10 -20 -41l-359 -930q-14 -35 -14 -75z" />
    <glyph glyph-name="E" unicode="E" horiz-adv-x="917" 
d="M291 -18q-152 0 -193 88q-46 105 0 229l121 344l-102 -2q-49 -2 -49 33q0 16 7 19t50 7l117 11l270 587l-211 -2q-51 -2 -81 12t-30 40q0 37 50 36q12 0 26 -16q8 -14 31 -16l233 12l17 16q23 27 49 27t41 -25l8 -12l506 12q168 2 168 -55q0 -27 -41 -27q-18 0 -41 12
t-82 17l-4 -2l-549 -27l-268 -581l442 14q4 0 40 -6t38 -8q16 -6 16 -31q0 -35 -45 -35q-12 0 -30 11q-29 12 -56 12h-12l-416 -23l-123 -350q-29 -76 -28 -143q0 -123 133 -123q63 0 137 12l199 33q98 16 202 16q59 0 60 -30q0 -33 -33 -33l-65 10q-27 0 -187 -20l-176 -31
q-70 -12 -139 -12z" />
    <glyph glyph-name="F" unicode="F" horiz-adv-x="829" 
d="M121 -6q-23 0 -38 14t-15 32t14 81l475 1210l-211 -4l-55 -4q-41 -4 -55 -4t-38 14q-22 15 -22 31t15 32t38 15q23 0 72 -20l23 -9l243 9q8 0 25 18q14 21 40 21t38 -16t30 -17h588q145 -8 172 -23q23 -10 23 -37q0 -33 -49 -32q-23 0 -62 16q-82 20 -102 20h-613
l-290 -679l467 18h4l43 -6q27 -2 43 -16t16 -29t-9 -27t-19 -12t-28 8q-17 8 -46 14t-37 4l-461 -26l-141 -357l-9 -26l-8 -37l-10 -37q-4 -20 -4 -31l10 -63q0 -17 -17 -31t-40 -14z" />
    <glyph glyph-name="G" unicode="G" horiz-adv-x="1110" 
d="M466 2q-165 0 -282 116q-116 116 -116 294t110 401q111 223 289 406q297 303 573 303q109 0 188 -80t93 -209q2 -14 18 -19q29 -6 29 -30t-18 -56q-18 -30 -50 -104l-61 -160q-12 -37 -53 -37t-41 31q0 39 86 215q23 49 22 117q1 114 -67 196t-162 82q-139 0 -301 -108
t-313 -305q-270 -348 -271 -623q1 -170 105 -274t274 -105q231 0 457 160q69 51 111 107t94 167l-619 -24l-125 -10q-32 0 -54 14t-22 33q0 35 48 35q26 1 50 -7t31 -8l62 4l612 25l45 4q59 0 60 -59q0 -23 -8 -33l-99 -176q-18 -30 -39 -96t-36 -91q-14 -24 -36 -24t-31 9
q-17 17 19 122q-139 -103 -273 -153t-299 -50z" />
    <glyph glyph-name="H" unicode="H" horiz-adv-x="1773" 
d="M2176 1499q34 1 34 -33q0 -16 -100 -193t-168 -382l-168 -473q-10 -70 -27 -94l-31 -125q-10 -47 -10 -66l18 -55q0 -61 -53 -62q-51 0 -51 50t12 90l43 180h-602l-69 -180q-16 -62 -16 -68t9 -19q11 -13 11 -33t-18 -35t-46 -15q-49 0 -49 45t20 102l70 199h-98
q-55 0 -56 28q-1 16 17 28t37 7h121l131 330q90 229 90 424q1 123 -63 197t-176 74t-262 -94q-311 -192 -492 -522q-87 -161 -87 -286q0 -188 228 -188q59 0 97 9t140 49t132 61q31 21 45 9q14 -10 14 -24q-1 -14 -19 -27t-86 -49q-168 -84 -324 -84t-231 58
q-157 119 12 460q87 176 228 330t316 253t309 99t210 -90q159 -189 -14 -677l-112 -308h602l182 506q41 111 135 317t140 265q11 12 25 12z" />
    <glyph glyph-name="I" unicode="I" horiz-adv-x="1093" 
d="M106 408q29 0 41 -76q21 -115 125 -189t248 -73q207 0 381 153q166 150 276 410t109 504q0 149 -66 233t-180 84q-344 0 -649 -295q-174 -168 -174 -321q0 -125 139 -203t363 -78q86 0 133 8t59 8q39 0 39 -32q0 -25 -41 -33t-166 -8q-272 0 -443 90t-171 235
q0 186 215 385q156 142 338 220t344 78t244 -95q80 -94 80 -266q0 -344 -185 -690q-238 -444 -647 -445q-180 0 -309 94t-141 234q-2 28 9 48t29 20z" />
    <glyph glyph-name="J" unicode="J" horiz-adv-x="1273" 
d="M588 -6q-217 0 -367 115q-149 115 -149 270t125 261t295 105q59 0 103 -20t44 -49q0 -6 -9 -15t-54 12q-45 22 -89 21q-133 0 -241 -96t-107 -224q0 -128 132 -230t311 -101q238 0 432 174q168 152 266 453l217 641h-672l-86 -2q-70 0 -69 34q0 9 12 19t27 8l30 -2h940
q63 4 83 -1t22 -23q0 -18 -11 -25q-11 -6 -85 -7q-74 0 -96 -14t-54 -77l-195 -574q-106 -315 -302 -484t-453 -169z" />
    <glyph glyph-name="K" unicode="K" horiz-adv-x="1122" 
d="M584 752h-21l-53 -148q106 37 229 103q-72 45 -155 45zM184 512q82 0 232 57l65 170q-98 -23 -212 -95t-113 -114q0 -18 28 -18zM166 453q-98 0 -98 59q0 74 127 161t313 138l225 483q20 43 55 43q16 0 28 -9t13 -17q0 -8 -6 -25l-235 -469q121 -4 221 -78
q356 154 651 375q174 141 182 180l-14 2h-14q-18 4 -18 18t22 28q23 13 49 14q59 0 59 -53q0 -31 -22 -56t-142 -128t-250 -181t-444 -238q82 -102 111 -193t50 -313t46 -280q25 -59 87 -59t106 45t59 45q23 0 23 -26t-37 -52q-90 -68 -169 -68t-119 73q-39 73 -61 309
q-22 235 -52 321t-111 162q-141 -68 -322 -138l-106 -315l-25 -92q-6 -25 -6 -43v-23q0 -53 -51 -53q-18 0 -32 14q-13 14 -13 32t12 51q12 32 18 61q11 26 19 61l88 273q-145 -39 -217 -39z" />
    <glyph glyph-name="L" unicode="L" horiz-adv-x="1232" 
d="M1497 1485q-168 0 -307 -195q-59 -80 -114 -224t-154 -499q185 34 343 128t259 194q154 154 153 344q0 113 -50 183t-130 69zM434 375q-132 0 -212 -54q-81 -53 -81 -135q-1 -82 63 -139t145 -57t159 36t134 96t108 185q-184 68 -316 68zM815 279q-159 -338 -439 -338
q-138 1 -224 71q-84 70 -84 173t96 171t251 68t351 -68q39 88 59 148q-27 -2 -59 -2q-219 0 -362 78q-142 78 -142 196q0 39 16 73t40 34q22 0 22 -23q0 -10 -9 -35t-9 -51q0 -94 124 -161t297 -66q39 0 97 8q35 92 39 104l133 414q68 211 197 339q130 128 276 128
q115 0 185 -84t71 -219q0 -303 -352 -528q-207 -131 -486 -203l-65 -174q152 -88 307 -205q25 -12 35 -18q22 -9 22 -27t-9 -28t-21 -9q-12 0 -30 12q-18 11 -100 77t-227 145z" />
    <glyph glyph-name="M" unicode="M" horiz-adv-x="2275" 
d="M2267 -37q0 -35 -71 -36q-70 -1 -108 55t-38 152q0 95 23 190l131 518q22 86 22 127t-13 41t-51 -39t-124 -157t-123 -179l-221 -373q-66 -123 -95 -159t-57 -35q-55 0 -55 49q0 55 39 166l188 565q66 201 66 280q0 18 -11 19q-12 0 -88 -70q-115 -100 -354 -454
l-317 -467q-66 -120 -83 -140t-43 -20q-52 0 -55 39q0 27 23 91q22 64 128 344t152 480t46 277q0 164 -80 225q-61 47 -142 47q-152 0 -312 -73t-272 -187q-110 -113 -172 -243q-112 -233 -21 -376q42 -67 108 -100q131 -63 305 -69l176 -9q55 -4 55 -30t-47 -25
q-317 0 -526 90q-78 33 -130 113t-52 182t67 240q67 137 191 262t290 200q166 74 320 74t246 -96q66 -72 66 -204t-62 -352q-61 -220 -232 -697l322 456q268 365 323 426q129 139 191 140q29 0 49 -23q21 -23 21 -73t-74 -277l-203 -631l275 436q139 225 260 365
q63 72 104 72t60 -22q20 -22 20 -64t-35 -175l-129 -510q-27 -102 -27 -190q0 -141 82 -147q31 0 43 6h5q10 0 18 -8t8 -17z" />
    <glyph glyph-name="N" unicode="N" horiz-adv-x="1615" 
d="M731 477q20 0 23 -20q0 -18 -23 -31q-35 -16 -147 -38t-170 -21q-137 0 -234 90q-96 91 -96 231t115 322t301 325q276 213 528 213q123 0 189 -60t65 -175q0 -203 -141 -561l-236 -588l340 485q147 211 231 296t144 85q72 0 72 -66q0 -34 -25 -120l-127 -434
q-12 -40 -24 -136q-26 -209 8 -270q14 -23 26 -22l68 10q4 0 12 -9t8 -16q0 -35 -73 -37q-125 0 -125 181q0 154 41 303l112 430q9 40 9 66t-23 26t-47 -29q-125 -129 -240 -299l-370 -553q-37 -55 -81 -55t-44 41q0 35 41 133l249 598q135 332 136 537q1 113 -61 151
t-136 39q-180 0 -389 -135t-350 -334t-142 -368q0 -111 81 -179q82 -67 200 -67t291 59q6 2 14 2z" />
    <glyph glyph-name="O" unicode="O" horiz-adv-x="1062" 
d="M439 53q139 1 269 63t230 175q291 335 291 743q0 207 -119 350t-309 144q-283 0 -498 -285q-164 -213 -164 -426q0 -31 8 -86q68 177 120 273t132 188q180 213 351 213q42 0 70 -14q28 -15 28 -31t-8 -26t-18 -11q-10 0 -32 9t-38 9q-74 1 -182 -81t-185 -199
q-102 -147 -203 -434q90 -127 166 -174t214 -47t249 47q16 6 25 6q27 0 26 -23q0 -32 -106 -58t-224 -26t-194 37q-78 37 -178 137q-20 -106 -21 -168q0 -139 81 -222t219 -83zM792 1585q226 1 364 -155t138 -406q0 -200 -82 -402t-231 -370q-100 -118 -251 -186
q-152 -68 -310 -68t-253 97t-95 267q-1 98 32 252q-33 123 -32 197q0 158 79 321t209 277q206 176 432 176z" />
    <glyph glyph-name="P" unicode="P" horiz-adv-x="1339" 
d="M1659 1102q0 162 -158 263t-430 101t-579 -168q-152 -84 -245 -194t-93 -206q0 -95 112 -144q51 -23 89 -28t155 -5q12 0 21 -7t10 -16q0 -35 -86 -34q-170 0 -279 66q-108 66 -108 172q0 108 127 243t329 231q284 140 562 140t460 -119t183 -295q0 -127 -85 -256
t-239 -232q-115 -78 -269 -129t-272 -51q-35 0 -114 12l-93 -268q-16 -48 -16 -68t9 -40t9 -31q0 -13 -14 -25t-35 -12t-38 14t-17 50t33 131l94 268q-63 27 -64 51q0 10 10 18t23 9q14 0 56 -25l231 563q74 182 101 228q28 45 67 45q16 0 30 -10t13 -23q0 -35 -86 -162
q-15 -25 -30 -47t-29 -55l-236 -557q70 -12 100 -13q119 -1 276 61t275 157q240 193 240 397z" />
    <glyph glyph-name="Q" unicode="Q" horiz-adv-x="1095" 
d="M664 418q-64 0 -152 24t-154 63q-66 38 -157 130q-53 -123 -53 -275t94 -237q72 -66 219 -66q39 0 102 15q-76 76 -135 75q-16 0 -45 -14q-19 -14 -33 -14t-22 9q-8 8 -8 26t33 34q34 16 85 16t90 -21q39 -22 111 -89q398 157 545 584q59 174 59 368t-122 342t-300 148
q-92 0 -198 -47q-231 -103 -351 -344q-63 -129 -63 -238q0 -4 4 -49q82 148 151 232t162 149q136 98 266 98t130 -49q0 -27 -25 -26q-9 0 -31 9t-55 9q-157 0 -311 -145t-258 -390q59 -131 185 -203t294 -71l121 8q29 0 28 -22q0 -39 -206 -39zM70 365q0 179 82 374
q-14 111 -15 146q0 268 215 487t477 219q209 -1 343 -159t135 -404q0 -174 -66 -368t-155 -308t-168 -174q-80 -59 -238 -137q129 -244 352 -244q88 0 148 47q39 29 50 29t19 -9t8 -20q1 -34 -77 -68t-158 -34q-154 0 -281 102q-49 42 -143 179q-90 -20 -164 -21
q-178 0 -271 92t-93 271z" />
    <glyph glyph-name="R" unicode="R" horiz-adv-x="1327" 
d="M797 502q27 0 88 12l-146 145l-57 -147q88 -10 115 -10zM616 528l74 172q-68 54 -117 54t-71 -27t-21 -67q3 -40 31 -68t104 -64zM981 1231q0 -29 -20 -70l-197 -440l176 -191q236 57 414 199q238 190 237 395q0 146 -141 238t-371 92q-324 0 -602 -166
q-147 -84 -243 -204t-97 -216q0 -45 32 -93q32 -49 73 -71t41 -41q1 -19 -21 -19t-60 22q-135 82 -134 206q0 100 106 226t279 229q285 172 620 172q260 0 422 -103t162 -272q0 -122 -86 -248q-188 -274 -590 -393l217 -303q49 -70 130 -148t142 -77q27 0 46 8q20 4 22 4
q18 0 18 -24q0 -37 -71 -37q-139 0 -324 241l-250 324q-96 -20 -123 -20t-79 6l-43 6l-115 -338q-14 -47 -4 -88q3 -13 -17 -25t-43 -12q-31 0 -30 31q0 29 20 86l127 358q-112 53 -152 96t-40 103t41 99q41 40 111 40t149 -57l182 442q13 33 25 47t24 12q37 -2 37 -26z" />
    <glyph glyph-name="S" unicode="S" horiz-adv-x="1118" 
d="M317 1054q0 185 215 326q117 78 276 130q160 52 290 52t228 -75q98 -76 97 -186t-67 -263t-109 -153q-12 0 -22 12q-30 36 24 143l64 131q35 70 35 127q0 84 -81 144t-203 59q-122 0 -266 -53t-263 -148q-145 -113 -146 -241q0 -96 96 -197q53 -57 281 -205l141 -92
q121 -78 168 -134t47 -124q0 -123 -172 -216t-399 -93q-293 0 -416 152q-68 84 -67 165q0 45 27 87t53 42t26 -16t-20 -43q-43 -58 5 -153q27 -50 71 -91t130 -69t181 -27q211 0 363 78t151 186q0 55 -43 105q-44 48 -146 114l-161 103q-213 133 -301 231q-87 98 -87 192z
" />
    <glyph glyph-name="T" unicode="T" horiz-adv-x="786" 
d="M82 1339q-145 0 -145 64q0 33 69 45l129 20q10 2 31 2t20 -18q0 -20 -131 -61q60 -8 88 -5q27 2 81 8t98 9l1128 108l57 2q68 0 121 -16t53 -47q1 -18 -35 -34t-79 -15q-43 0 -43 53l-377 -18q6 -43 -64 -99l-428 -1204l9 -72q4 -23 -14 -39t-44 -18q-43 0 -43 39t17 88
l462 1294l-727 -63q-207 -23 -233 -23z" />
    <glyph glyph-name="U" unicode="U" horiz-adv-x="1218" 
d="M567 1332q-1 175 -201 175q-104 0 -245 -58t-266 -166t-202 -241t-77 -236q0 -102 57 -160t152 -58q51 0 151 22t137 42q36 20 42 20t14 -7t8 -16q0 -37 -118 -76q-119 -39 -243 -39t-199 66t-75 196t106 292q106 164 275 284q256 182 510 182q131 0 191 -73
q45 -51 45 -157t-74 -318l-205 -592q-87 -254 -48 -311q15 -22 38 -21q66 0 198 143t306 413t260 452q84 182 112 236t57 54q30 0 44 -10t12 -25t-55 -108q-98 -168 -190 -486t-91 -493q0 -100 47 -184q25 -45 80 -45l54 8q8 0 15 -8t7 -17q0 -35 -86 -35t-135 75t-49 196
t25 247q26 126 98 371q-195 -315 -251 -394q-56 -80 -186 -228t-177 -185q-48 -37 -101 -37t-81 32q-28 30 -28 106t70 280l194 572q78 233 78 320z" />
    <glyph glyph-name="V" unicode="V" horiz-adv-x="1433" 
d="M2085 1409q29 0 51 -17t21 -38q0 -27 -33 -31q-10 0 -26 13t-27 14q-74 -6 -239 -196t-286 -404l-325 -586q-68 -140 -78 -150t-42 -10t-43 13t-11 49t12 108l63 332q18 98 34 275q15 177 15 292q0 327 -171 434q-58 37 -115 37q-111 0 -250 -68t-247 -174t-177 -247
q-70 -141 -70 -252t138 -189q61 -36 109 -36t56 2l37 4q17 0 29 -8t12 -19q0 -35 -76 -35q-166 0 -270 78t-104 201q0 178 123 364q123 187 313 309t371 121q88 0 167 -48t117 -124q74 -147 74 -356q0 -69 -18 -277t-31 -298l-49 -299l360 602q164 274 326 444t260 170z" />
    <glyph glyph-name="W" unicode="W" horiz-adv-x="1978" 
d="M1741 25q-160 0 -160 637q0 100 8 245q-135 -168 -186 -260l-164 -305l-109 -217q-32 -87 -50 -107t-52 -20q-68 0 -70 59q0 23 13 78l71 234q162 543 162 740t-95 311t-265 114t-352 -113t-302 -298t-120 -307t86 -188t248 -65q162 0 305 66q49 23 61 22q29 0 29 -26
q0 -31 -56 -54q-139 -59 -335 -59t-304 73q-109 73 -108 210q0 90 56 214t147 234q125 156 307 249t359 93t290 -128t113 -333q0 -121 -35 -299q-8 -35 -121 -450l-59 -219l282 508q90 162 174 261t131 99q16 0 30 -12t13 -26q0 -14 -2 -23q-31 -168 -31 -370
q0 -203 30 -355t69 -152q53 0 184 346t213 526t170 316q170 258 293 258q47 0 47 -39q0 -27 -20 -27l-29 4q-33 0 -87 -46t-101 -111q-123 -172 -219 -391q-20 -41 -220 -553q-88 -215 -140 -279t-99 -65z" />
    <glyph glyph-name="X" unicode="X" horiz-adv-x="1806" 
d="M745 1548q-137 0 -278 -114t-233 -289q-92 -176 -91 -346q0 -115 70 -188t176 -72q33 0 143 18h13q27 0 26 -22q0 -49 -204 -50q-123 0 -195 58q-104 86 -104 228t63 298t162 270q225 260 461 260q96 0 188 -63t163 -189t109 -278l46 -174l188 203q168 180 318 316
t221 134q29 0 47 -14t18 -34t-15 -40q-15 -18 -29 -18t-36 22q-56 -4 -202 -128t-297 -292l-193 -243l63 -248q31 -127 95 -241t139 -177q10 -8 59 -31t56 -20q100 23 102 22q18 -4 18 -24q0 -49 -104 -49t-199 84q-166 154 -231 422l-51 209l-240 -295l-262 -377
q-2 -4 -8 -11t-6 -10l-13 -35q-6 -20 -29 -20q-53 0 -55 37q0 17 78 121l252 336l260 335l-51 215q-31 131 -109 273q-127 231 -299 231z" />
    <glyph glyph-name="Y" unicode="Y" horiz-adv-x="1611" 
d="M1806 1200q49 0 49 -45q0 -23 -15 -59q-16 -36 -92 -201q-76 -164 -166 -412q-90 -249 -160 -507q-72 -258 -72 -318q0 -12 10 -37q12 -19 12 -35t-18 -29t-40 -13t-37 14t-15 45t22 108q127 524 340 1065q-145 -232 -216 -334q-72 -102 -176 -221t-170 -167t-125 -48
q-60 0 -92 35t-32 89t22 150t46 156l174 430q96 236 96 363t-83 181t-196 54q-293 0 -522 -241q-94 -96 -146 -204t-52 -188q0 -81 42 -147q104 -164 353 -164q96 0 198 29q16 4 21 4q27 0 27 -21q0 -31 -69 -50t-177 -19q-308 0 -431 192q-48 76 -48 154q0 225 225 455
q248 254 573 254q86 0 165 -30t122 -77q59 -71 59 -191t-100 -374l-164 -412q-61 -150 -61 -274q0 -90 53 -90q106 0 351 314t435 728q27 56 41 72t39 16z" />
    <glyph glyph-name="Z" unicode="Z" horiz-adv-x="1515" 
d="M158 119q0 -33 34 -53t91 -21q114 0 266 76q-267 23 -329 23t-62 -25zM1736 1507q22 0 47 -13q26 -13 25 -30q0 -23 -45 -30q-53 -16 -119 -106t-380 -568q-199 -258 -317 -384t-253 -229q59 -23 168 -51q199 -66 298 -66t173 24t99 61q14 20 28 20t28 -11t13 -24
q0 -23 -53 -57q-86 -59 -234 -59t-561 120q-32 -12 -82 -32q-186 -80 -283 -80t-159 40q-61 40 -61 90t22 63q24 13 106 13t435 -34q436 319 844 1038l112 197l-47 -2l-129 -15q-53 -4 -105 -4t-108 6l-264 35q-293 42 -415 -7q-71 -28 -70 -69q0 -47 96 -98q51 -27 51 -53
q0 -8 -7 -16t-23 -8t-66 27q-51 27 -98 65q-48 38 -48 96t85 96q85 39 208 39t309 -25l234 -32q47 -8 108 -9q180 0 385 72q31 10 53 10z" />
    <glyph glyph-name="bracketleft" unicode="[" horiz-adv-x="847" 
d="M221 -268q27 0 47 8t30 8t19 -10q11 -10 11 -33t-31 -39t-64 -10h-243l700 1733h201q96 0 96 -62q0 -10 -13 -23t-45 0t-69 9h-125l-633 -1581h119z" />
    <glyph glyph-name="backslash" unicode="\" horiz-adv-x="1171" 
d="M909 2q-39 0 -52 41t-48 90l-899 1063q-115 137 -115 174q-1 14 17 26t38 13q20 0 29 -11t19 -40q10 -28 36 -62t150 -188l842 -1022q28 -33 28 -47q0 -13 -15 -25t-30 -12z" />
    <glyph glyph-name="bracketright" unicode="]" horiz-adv-x="847" 
d="M612 1354q-27 0 -47 -8t-30 -9q-9 1 -19 11t-10 20q0 35 29 51q33 16 65 11h244l-701 -1733h-202q-94 0 -95 61q0 10 10 20t20 11q9 0 35 -10t62 -6h125l633 1581h-119z" />
    <glyph glyph-name="asciicircum" unicode="^" horiz-adv-x="757" 
d="M717 676q0 -37 -37 -37q-23 0 -35 23l-266 546l-287 -546q-10 -23 -30 -23t-33 18q-12 18 -4 37l315 600q16 31 39 31t37 -29l297 -602q4 -8 4 -14v-4z" />
    <glyph glyph-name="underscore" unicode="_" horiz-adv-x="774" 
d="M737 -342h-696q-37 0 -37 34t37 34h678q53 0 53 -34t-35 -34z" />
    <glyph glyph-name="grave" unicode="`" horiz-adv-x="522" 
d="M299 1030q29 -35 29 -64t-17 -24q-29 4 -35 6t-18 19l-164 225q-29 35 -28 43q0 25 28 21t36 -14q8 -9 28 -25z" />
    <glyph glyph-name="a" unicode="a" horiz-adv-x="634" 
d="M94 166q0 -57 20 -94t48 -35q94 6 256 229q78 107 82 140l2 24q55 62 55 155t-74 107q-47 8 -136 -68t-171 -205q-82 -128 -82 -253zM492 754q63 0 100 -54t37 -145q0 -39 -11 -59l-4 -15l4 -26v-21l-90 -223q-16 -39 -16 -119q0 -37 20 -37q12 1 33 17t31 16
q18 0 18 -22t-34 -42q-34 -22 -74 -22q-55 0 -55 82q0 31 2 45l10 94q-180 -242 -318 -241q-53 0 -83 46t-29 126q0 180 166 390t293 210z" />
    <glyph glyph-name="b" unicode="b" horiz-adv-x="643" 
d="M633 518q0 66 -22 110t-54 44q-57 0 -151 -74t-180 -194t-103 -257q61 -57 85 -81q52 -52 120 -54q113 0 209 167t96 339zM568 735q64 0 100 -54t34 -144q0 -201 -110 -394t-270 -192q-56 0 -96 17t-95 67q-23 29 -67 49t-44 53q0 6 5 23l366 966q27 72 43 95t38 23
t34 -9q12 -8 11 -17t-11 -31q-11 -22 -17 -38l-268 -633q125 121 204 170t143 49z" />
    <glyph glyph-name="c" unicode="c" horiz-adv-x="677" 
d="M692 532q0 -9 -39 -75q-19 -29 -41 -29t-34 9t-12 19t11 37q13 27 13 69t-32 84t-77 42t-127 -61t-134 -132t-82 -150t-30 -145t50 -106q49 -41 136 -41t169 47q39 20 57 36t74 83q32 36 56 9q9 -9 9 -23q0 -31 -71 -92q-143 -121 -318 -121q-106 0 -168 59
q-61 59 -61 162q0 172 145 350q68 84 157 140q89 57 141 57q101 1 155 -80q21 -28 37 -96l10 -27q6 -16 6 -25z" />
    <glyph glyph-name="d" unicode="d" horiz-adv-x="753" 
d="M137 -31q-51 0 -85 41t-34 101q0 113 60 247t171 260q112 127 238 127q51 1 83 -27t57 -95l137 366q29 63 51 148q6 53 55 53q16 0 28 -9t13 -23q0 -14 -14 -40t-140 -362t-157 -429t-33 -214q-1 -59 17 -59q36 -1 110 96q10 16 23 16q20 0 20 -33t-57 -85t-94 -52
t-58 29q-20 29 -20 67t6 80l8 98q-123 -162 -212 -232t-173 -69zM479 678q-76 0 -172 -95t-164 -229t-67 -241q0 -37 24 -66t57 -26q32 3 90 40t113 95q203 215 203 397q0 53 -24 89q-25 36 -60 36z" />
    <glyph glyph-name="e" unicode="e" horiz-adv-x="491" 
d="M403 612q0 64 -42 64q-41 0 -121 -96t-80 -148q0 -14 18 -25t41 -12q57 0 121 76q63 77 63 141zM98 188q0 -54 41 -90t111 -37q117 0 174 95q12 20 27 20q23 0 22 -22q0 -46 -72 -102q-73 -56 -163 -56t-146 51q-55 51 -55 143t48 222t120 217q92 117 188 116
q33 1 57 -25t23 -61q0 -121 -81 -221t-179 -100q-37 0 -82 12q-33 -108 -33 -162z" />
    <glyph glyph-name="f" unicode="f" horiz-adv-x="561" 
d="M276 291q38 0 89 10q-29 81 -51 101t-87 32l-53 -143q45 -4 55 -2q9 2 47 2zM137 332l17 53q-20 -21 -20 -29t3 -24zM43 -252q0 -53 18 -90t48 -37q72 0 171 203t99 350q0 25 -6 80q-74 -12 -148 -12h-67l-68 -209q-47 -141 -47 -285zM649 508q-1 -31 -71 -105t-154 -127
q6 -61 6 -79q0 -121 -56 -272t-138 -256t-148 -105q-96 0 -96 170t45 299l72 229q-113 86 79 213l289 637q10 22 9 48q-1 25 29 50t46 25q17 0 25 -9q8 -10 8 -20t-21 -51l-323 -670q70 -16 102 -50t60 -116q76 47 114 99q12 12 52 66t56 54q15 1 15 -30z" />
    <glyph glyph-name="g" unicode="g" horiz-adv-x="618" 
d="M160 37q113 0 248 156q78 94 88 147l12 37q6 14 27 24q25 16 39 72t14 102q0 107 -84 113t-186 -80t-175 -214q-72 -128 -71 -232q0 -125 88 -125zM164 -8q-70 0 -110 43t-40 117t46 185q46 112 120 208q150 199 314 198q76 0 116 -47t41 -124q0 -78 -15 -122t-15 -57
l-7 -45l-49 -133l-76 -278q-59 -229 -178 -324q-100 -82 -201 -82t-165 66q-63 66 -63 173t55 107q27 0 26 -20q0 -6 -9 -37t-9 -58q0 -82 49 -134t125 -52q106 0 198 106t121 265l45 258l-28 -31q-80 -90 -129 -123q-92 -59 -162 -59z" />
    <glyph glyph-name="h" unicode="h" horiz-adv-x="577" 
d="M555 -32q0 -18 -26 -29q-26 -12 -56 -13q-84 0 -84 103q0 49 17 108l110 361q12 43 12 57t-10 14t-98 -106l-293 -418q-31 -45 -68 -45t-36 31q0 23 8 41l360 956q6 70 9 84t18 35q31 47 71 47q13 0 23 -8t10 -22t-19 -50q-19 -37 -30 -67l-360 -920l270 371
q68 92 107 127q40 35 75 35t35 -56t-22 -119l-117 -352q-10 -35 -10 -72q0 -84 38 -84l48 9q18 0 18 -18z" />
    <glyph glyph-name="i" unicode="i" horiz-adv-x="239" 
d="M276 864q24 0 36 -12q14 -12 14 -36t-20 -46t-50 -22q-43 0 -43 36t19 58q20 22 44 22zM213 41q0 -13 -23 -27q-22 -14 -56 -14t-60 32t-27 87q0 55 23 123l98 295q16 51 32 71t42 21q31 0 30 -34t-39 -95l-98 -269q-42 -116 -10 -157q14 -18 35 -19l35 13q6 0 12 -8
t6 -19z" />
    <glyph glyph-name="j" unicode="j" horiz-adv-x="319" 
d="M504 899q0 -33 -23 -55t-51 -23q-28 1 -48 15q-39 30 -3 79q17 23 33 25t41 4q51 -4 51 -45zM-332 -406q156 0 283 154q100 123 162 305q10 31 92 355q29 120 75 198t87 78q10 0 19 -9t9 -19t-50 -80q-49 -72 -65 -114t-24 -69l-80 -303q-32 -115 -104 -240t-144 -188
q-133 -113 -280 -113q-96 -1 -165 61t-69 136t37 122q37 46 88 46q23 0 37 -11t14 -23t-6 -19q-6 -8 -10 -8l-55 8q-5 3 -19 -13t-20 -28q-38 -120 63 -190q53 -36 125 -36z" />
    <glyph glyph-name="k" unicode="k" horiz-adv-x="729" 
d="M658 -16q-28 0 -93 41l-297 178q-66 23 -77 29t-11 29q0 22 18 39t36 17t47 -16l24 -14q37 -4 39 -4q74 0 155 46t128 121t47 132t-22 81t-56 23q-70 0 -172 -81t-178 -187t-116 -202q-40 -95 -40 -128l2 -53q0 -11 -11 -23t-25 -12t-26 11q-29 29 5 118l346 971
q45 127 59 137t31 10q33 0 33 -33q0 -25 -10 -51l-308 -739q266 317 428 317q51 1 83 -33t32 -87q0 -97 -58 -187t-155 -145q-51 -28 -141 -53l217 -158q33 -27 47 -27l45 4q8 0 19 -15t12 -26q1 -30 -57 -30z" />
    <glyph glyph-name="l" unicode="l" horiz-adv-x="292" 
d="M420 1176l-2 2q-4 2 -12 -12t-21 -38q-188 -375 -233 -661q49 70 51 72q59 131 110 235q109 229 117 379q0 14 -10 25v-2zM248 23h8q31 0 31 -23t-37 -23q-184 -1 -184 261t137 628q82 221 151 344q37 66 86 66q59 0 60 -68q0 -238 -305 -790q-9 -16 -19 -34t-23 -42
q-13 -23 -20 -35q-8 -59 -8 -112q0 -94 57 -146q27 -26 66 -26z" />
    <glyph glyph-name="m" unicode="m" horiz-adv-x="835" 
d="M786 534q0 -22 -14 -71q-80 -236 -80 -336q0 -33 14 -55t28 -23q16 -1 38 21t38 22t17 -22t-35 -46t-68 -24t-58 36t-25 98q0 62 76 335l2 20q0 16 -10 17q-12 0 -41 -47l-240 -398q-41 -60 -79 -28q-11 10 -11 25t12 55l88 303q19 71 4 71q-16 0 -54 -48t-75 -111
l-194 -334q-12 -23 -45 -23t-33 29q0 12 33 139l155 432l4 29q4 45 34 89t57 44q33 0 32 -33q0 -8 -4 -16l-215 -532l146 227q117 180 186 180q21 0 33 -15t12 -41t-20 -100l-64 -225l195 299q70 106 120 107q17 0 29 -14t12 -36z" />
    <glyph glyph-name="n" unicode="n" horiz-adv-x="622" 
d="M496 -23q18 0 57 37q29 23 38 23t16 -7t7 -16q0 -24 -48 -60t-84 -36t-60 41t-25 109q0 68 31 172q96 289 96 304t-4 15q-18 8 -80 -78l-268 -358q-14 -14 -29 -49q-23 -41 -35 -55q-12 -13 -30 -13t-32 13q-13 13 -13 34t37 121l151 401q6 18 19 52l2 30q6 74 63 74
q15 0 29 -10q14 -11 14 -23t-29 -86l-176 -411l265 331q94 117 147 117q17 0 31 -15t14 -49q0 -33 -52 -177q-93 -257 -93 -344q1 -87 41 -87z" />
    <glyph glyph-name="o" unicode="o" horiz-adv-x="653" 
d="M256 53q160 0 283 160q33 41 62 110q30 69 30 101l-13 68l9 38q0 46 -62 98t-119 56q-102 6 -223 -152t-135 -315q-6 -74 40 -119t128 -45zM725 465q0 -7 -17 -23q-18 -16 -26 -60t-44 -115t-87 -131t-138 -102t-179 -42t-151 50q-58 50 -58 137t43 199t110 202
q131 172 268 172q60 0 120 -38t91 -98t37 -90l8 -30l19 -19q4 -4 4 -12z" />
    <glyph glyph-name="p" unicode="p" horiz-adv-x="700" 
d="M559 674q-104 0 -213 -115q-68 -71 -115 -155t-104 -234q106 -86 145 -108t93 -21q109 0 205 140t96 298q0 91 -29 143t-78 52zM-113 -485q-41 0 -41 36q0 68 70 259l338 919q29 76 68 76q12 0 23 -9q11 -8 11 -24t-26 -52t-39 -73l-53 -135q178 231 342 231
q70 -1 106 -65t37 -180q0 -166 -88 -314q-121 -203 -277 -202q-64 0 -118 25t-140 99l-151 -411q-18 -45 -19 -76l11 -61q1 -18 -15 -30t-39 -13z" />
    <glyph glyph-name="q" unicode="q" horiz-adv-x="696" 
d="M657 511q0 169 -114 169q-133 0 -275 -191q-47 -67 -89 -167t-47 -160t24 -104t71 -44q111 0 267 125q98 82 135 170q8 19 13 31t5 16l-2 35l2 2l2 17q8 23 8 101zM219 -45q-67 0 -109 49t-42 138t51 211t137 222q150 174 301 175q178 0 178 -258q0 -84 -16 -109
q-2 -4 -2 -7t5 -10q5 -6 5 -18t-41 -102l-106 -213l-140 -381q-10 -27 -10 -43q0 -15 12 -27t11 -18q-6 -49 -64 -49q-35 0 -35 32q0 25 33 129l170 445q-147 -106 -209 -136t-129 -30z" />
    <glyph glyph-name="r" unicode="r" horiz-adv-x="425" 
d="M432 674q24 0 23 -23q-1 -11 -47 -117t-74 -224t-27 -192q0 -74 64 -75q19 0 35 7t21 7t11 -6t6 -17q0 -10 -26 -24t-56 -14q-106 0 -106 143q0 86 88 402q-45 0 -62 6t-44 31q-94 -246 -186 -410t-134 -164q-18 0 -18 16t20 37q66 72 159 269t140 362q12 43 41 43
q16 0 27 -13q10 -14 8 -32l-2 -29q-2 -23 9 -42q10 -19 24 -17t20 4t11 7t28 35t47 30z" />
    <glyph glyph-name="s" unicode="s" horiz-adv-x="653" 
d="M547 80q1 -80 -241 -80q-122 0 -220 33q-96 33 -96 82q0 33 30 73t54 42q24 3 24 -15q0 -9 -22 -37t-21 -51q0 -33 79 -55q78 -22 210 -23q132 0 133 31q2 12 -24 39q-27 27 -62 47l-127 78q-100 59 -139 108t-39 115q0 125 182 219q251 125 365 11q53 -52 53 -133
t-48 -172t-91 -91q-23 1 -23 21t38 72t38 163q0 139 -111 139q-86 0 -198 -53q-139 -68 -139 -172q0 -51 34 -94t115 -94l141 -84q104 -63 105 -119z" />
    <glyph glyph-name="t" unicode="t" horiz-adv-x="317" 
d="M269 86q11 0 19 -7t7 -16q0 -19 -38 -41t-73 -22q-112 0 -112 144t59 313q18 55 100 256h-67l-80 -2q-63 0 -64 39q0 10 8 17t19 7l70 -2h137l115 227q37 81 51 99t46 18t32 -27t-27 -73l-135 -240l143 8q27 2 46 -9q36 -21 9 -48q-11 -10 -22 -10l-47 10h-10l-154 -14
q-170 -340 -170 -549q1 -47 19 -80t43 -31h16q5 -3 27 15t33 18z" />
    <glyph glyph-name="u" unicode="u" horiz-adv-x="585" 
d="M119 -18q-72 0 -72 85t51 218l115 299q57 152 117 151q33 0 32 -35q0 -23 -15 -43t-71 -100l-126 -291q-39 -90 -39 -178q0 -20 9 -34t21 -15q59 0 195 190q27 37 71 118t56 114l43 100q20 49 53 49q13 0 23 -9t10 -24t-29 -66t-65 -162t-37 -220q0 -76 43 -76
q14 0 33 12t28 1q8 -11 8 -23t-27 -28q-28 -15 -64 -15t-60 32t-23 60q0 28 4 90l3 49l-17 -18l-47 -63q-54 -78 -114 -123t-109 -45z" />
    <glyph glyph-name="v" unicode="v" horiz-adv-x="528" 
d="M614 566q0 -71 -30 -130q0 -2 -24 -61t-82 -141q-165 -232 -298 -232q-111 0 -110 152q0 111 45 229l88 231q37 125 94 125q25 0 25 -22q-2 -17 -37 -99l-125 -272q-37 -78 -37 -186t84 -109q78 0 198 160t119 225l-16 86q0 42 15 94t25 64t32 10t28 -28t6 -96z" />
    <glyph glyph-name="w" unicode="w" horiz-adv-x="751" 
d="M70 -10q-63 0 -66 80q0 49 46 185q47 136 100 249l102 207q25 35 61 34q11 0 21 -9t10 -24t-18 -44q-104 -154 -178 -318t-80 -262q-2 -16 7 -30t19 -13q43 0 143 145q99 145 128 252q16 64 52 64t36 -31q1 -11 -15 -91t-16 -130t29 -108q29 -60 57 -60q58 0 131 154
q29 57 51 140q23 83 23 128l-19 156q0 43 47 47t50 -123q0 -35 -13 -80q-49 -229 -104 -328q-86 -145 -178 -145q-121 0 -138 256q-109 -177 -167 -239t-121 -62z" />
    <glyph glyph-name="x" unicode="x" horiz-adv-x="698" 
d="M190 553q-31 0 -30 25q0 14 12 26l61 74q27 27 58 27q57 -1 77 -63t19 -202v-39l272 287q53 55 85 55t30 -28q0 -16 -26 -31l-17 -12l-14 -13l-27 -20l-297 -309q0 -125 38 -202t97 -77q29 0 56 21q23 14 34 14q18 0 18 -22t-38 -42q-39 -22 -82 -22q-74 0 -121 72
t-55 196l-152 -213q-20 -35 -32 -45t-37 -10t-25 23q0 10 6 18l230 301q-10 274 -56 274h-4q-4 4 -26 -26q-23 -37 -54 -37z" />
    <glyph glyph-name="y" unicode="y" horiz-adv-x="557" 
d="M84 135q0 -82 39 -82q57 1 191 157t169 306q23 86 70 86q15 0 25 -9t10 -23t-16 -52q-16 -39 -40 -100q-29 -117 -86 -346q-47 -210 -88 -312t-106 -174q-94 -100 -195 -100q-135 0 -178 203q-23 105 -11 167t50 62q39 0 39 -41q0 -29 -20 -47t-21 -41q0 -100 34 -176
t118 -76q57 0 115 47t104 133q80 147 151 590q-207 -305 -336 -305q-32 0 -54 28t-21 72q0 106 52 252q51 146 123 256q72 111 111 111q31 0 31 -35q0 -25 -33 -61l-10 -13q-34 -15 -43 -30l-18 -25q-66 -94 -111 -217t-45 -205z" />
    <glyph glyph-name="z" unicode="z" horiz-adv-x="606" 
d="M418 88q137 0 137 -47q0 -39 -51 -39q-25 0 -53 23q-6 6 -89 6l-169 -25q-10 -2 -48 -2q-100 0 -100 57q0 43 40 81t81 77l350 313q82 72 82 111q0 23 -28 23t-76 -4l-220 -25q-94 -8 -114 -8t-38 13q-17 13 -18 32q0 37 48 37l34 -2q25 -4 56 -4h20l234 18q53 4 55 4
q59 1 99 -21t40 -57t-20 -63t-115 -109l-352 -315q-57 -48 -57 -66q-1 -33 40 -28l174 16q33 4 58 4z" />
    <glyph glyph-name="braceleft" unicode="{" horiz-adv-x="684" 
d="M188 324q0 56 -13 84q-13 27 -73 77q-28 25 -28 55t14 48q2 4 76 33q96 39 133 262l49 278q27 150 117 207q61 43 143 43q55 0 56 -43q0 -25 -12 -31t-77 -14q-100 -20 -124 -162l-54 -309q-25 -125 -51 -171t-117 -124q-20 -10 -27 -16q-7 -5 -6 -13t39 -47
q57 -57 58 -180q0 -51 -8 -94l-54 -301q-6 -37 -6 -66q0 -63 45 -86q14 -6 80 -12q10 -2 20 -13t11 -26q0 -49 -80 -49t-130 47t-50 125q0 43 8 78l47 272q14 92 14 148z" />
    <glyph glyph-name="bar" unicode="|" horiz-adv-x="886" 
d="M477 1536v-1675q0 -37 -34 -37t-33 37v1659q0 53 34 53t33 -37z" />
    <glyph glyph-name="braceright" unicode="}" horiz-adv-x="684" 
d="M545 743q0 -55 14 -85t74 -78q27 -25 27 -59t-13 -43q-12 -9 -78 -36q-96 -37 -133 -260l-49 -280q-47 -248 -260 -248q-55 0 -55 41q0 23 9 30t79 17q100 20 125 162l53 309q25 125 51 171q27 46 117 124q25 12 29 16t4 12t-29 36q-66 63 -68 192q0 49 9 92l53 303
q6 37 6 66q0 63 -45 86q-14 6 -78 12q-12 2 -22 13t-11 26q0 47 82 47t130 -44t48 -126q0 -39 -6 -78l-49 -274q-14 -88 -14 -144z" />
    <glyph glyph-name="asciitilde" unicode="~" horiz-adv-x="1093" 
d="M346 604q94 0 174 -49q20 -12 66 -55q78 -72 166 -72q173 0 227 145q19 27 37 27q36 0 39 -39q0 -16 -33 -80q-102 -135 -244 -135t-262 105q-80 72 -172 71q-127 0 -223 -137q-18 -25 -41 -25q-39 0 -39 39q0 15 14 35q121 170 291 170z" />
    <glyph glyph-name="exclamdown" unicode="&#xa1;" horiz-adv-x="710" 
d="M432 623v20q0 43 49 43t49 -31q0 -14 -12 -39l-10 -41l-4 -22q-8 -43 -29 -96l-317 -819q-14 -40 -26 -50t-34 -10q-35 0 -35 31q0 8 27 86l311 774q31 89 31 154zM534 815q-24 0 -47 25q-23 26 -23 64t38 81q18 20 63 21q76 0 76 -76q0 -35 -31 -66l-28 -26
q-24 -23 -48 -23z" />
    <glyph glyph-name="cent" unicode="&#xa2;" horiz-adv-x="813" 
d="M674 1397q0 -23 -24 -54t-46 -77l-26 -66q-14 -39 -15 -55q0 -15 42 -27t75 -45q63 -68 63 -86q0 -31 -47 -31t-59 48q-18 61 -123 61q-55 0 -96 -10q-100 -25 -192 -153t-91 -243q0 -193 240 -192q78 0 129 16q106 37 129 82q19 31 43 31q52 0 51 -34q0 -34 -95 -84
q-96 -50 -156 -57t-76 -19t-44 -76q-26 -64 -26 -90t10 -40q10 -16 10 -32q0 -41 -49 -41t-49 55q0 27 12 82l35 113l6 37q-96 27 -127 45q-110 67 -110 215t133 303q82 98 166 129q2 0 14 4t37 10t45 12l20 7l76 221q15 47 29 62t41 16q45 0 45 -37z" />
    <glyph glyph-name="sterling" unicode="&#xa3;" horiz-adv-x="1370" 
d="M254 356q-116 0 -117 -61q0 -71 79 -139t156 -68t120 86l45 90q-167 92 -283 92zM380 29q-116 0 -214 85t-98 187q0 55 46 89t140 34t309 -98l62 235q-92 -8 -156 -8t-145 25q-72 18 -72 67q0 29 31 46t77 17t48 -26q0 -16 -29 -31l-12 -8q5 -7 35 -21t92 -14t143 15
q7 27 27 91t30 101q154 524 422 524q88 1 138 -65t50 -178t-65 -254q-29 -66 -65 -66q-27 0 -27 28t29 52t48 90t19 142t-37 134q-38 60 -100 60t-138 -77t-133 -200q-56 -123 -114 -368l137 22q99 17 141 -6q41 -22 41 -51t-32 -29q-16 -1 -38 17t-66 18q-45 0 -208 -43
l-69 -260l-4 -12l59 -43q139 -104 213 -139q73 -35 135 -35t79 7t67 48q24 16 32 16t16 -8t9 -18q0 -37 -59 -66q-137 -67 -332 15q-35 16 -201 125l-45 30l-53 -100q-47 -96 -163 -96z" />
    <glyph glyph-name="currency" unicode="&#xa4;" horiz-adv-x="604" 
d="M294 891q-67 0 -113 -46t-46 -113q0 -66 46 -112t112 -46q65 0 111 44q46 45 46 113t-44 114q-45 46 -112 46zM80 732q0 60 35 116l-17 12q-25 22 -44 54t-19 52t11 34t32 14t47 -49q23 -37 41 -62q56 43 118 43t117 -31q22 29 54 45q31 17 51 17q45 0 45 -37
q0 -27 -47 -51q-18 -10 -41 -27q43 -57 43 -128t-41 -130l20 -20q41 -41 41 -66q0 -53 -37 -53q-23 0 -35 28t-38 56l-6 4q-55 -35 -121 -35t-129 47l-39 -39q-37 -41 -73 -41t-44 29t24 44t68 50l15 15q-31 49 -31 109z" />
    <glyph glyph-name="yen" unicode="&#xa5;" horiz-adv-x="1611" 
d="M887 160q0 -90 53 -90q43 0 114 53t140 141q15 19 25 29h-316q-16 -102 -16 -133zM1356 471l-393 -2l-15 -35q-12 -27 -26 -80l350 4q37 52 84 113zM1507 471h-77q-20 -16 -47 -61t-35 -50h120zM1532 537l92 239l-151 -239h59zM1806 1200q49 0 49 -45q-1 -31 -63 -164
t-124 -291t-66 -163h118q55 0 56 -29q0 -35 -56 -35h-141q-3 -4 -17 -47t-24 -66h182q55 0 56 -28q0 -35 -56 -35h-202q-10 -31 -31 -90t-79 -287t-58 -252q0 -22 10 -47q12 -19 12 -35t-18 -29t-40 -13t-37 14t-15 38t8 58l14 57q55 256 164 584h-152q-33 -43 -120 -134
t-138 -123t-105 -32t-87 35t-33 101t25 149h-119q-55 0 -55 28q0 35 55 35h135q12 49 27 84l12 31h-176q-55 0 -55 29q0 35 55 34h203l135 334q96 236 96 363t-83 181t-196 54q-293 0 -522 -241q-199 -205 -198 -406q0 -102 80 -186t180 -84q50 0 88 14t44 14t16 -7
q9 -7 9 -15q0 -23 -48 -42t-103 -19q-143 0 -247 93q-103 93 -103 220q0 233 225 459q250 254 573 254q86 0 165 -30t122 -77q59 -69 59 -191t-100 -374l-125 -314l416 3q184 272 323 577q27 56 41 72t39 16z" />
    <glyph glyph-name="brokenbar" unicode="&#xa6;" horiz-adv-x="886" 
d="M477 1554v-696q0 -37 -34 -37t-33 37v678q0 53 34 53t33 -35zM477 557v-696q0 -37 -34 -37t-33 37v678q0 55 34 55t33 -37z" />
    <glyph glyph-name="section" unicode="&#xa7;" horiz-adv-x="1132" 
d="M842 436q0 87 -154 189l-133 88q-80 53 -152 110q-76 -68 -75 -125q0 -86 153 -188l133 -88q111 -76 152 -111q76 68 76 125zM895 425q0 -69 -94 -142q127 -115 127 -232q0 -69 -46 -141q-99 -153 -352 -241q-126 -44 -234 -44t-186 65t-79 166q0 101 80 271q23 49 34 63
q25 29 47 2t-20 -120l-51 -111q-29 -61 -29 -108q0 -76 65 -125t160 -50q221 0 435 170q117 94 116 207q0 82 -62 152t-243 192l-114 78q-96 66 -136 116q-39 49 -39 117t95 142q-127 115 -127 233q0 68 46 141q96 152 353 240q129 45 235 45q106 -1 184 -65q79 -64 79 -160
q-1 -96 -55 -226t-87 -130q-10 0 -19 11t-9 35t28 87l52 113q29 61 28 108q0 74 -64 124q-65 50 -165 50t-216 -46t-224 -135t-107 -187q0 -98 76 -179q47 -51 229 -176l115 -78q98 -67 136 -115t38 -117z" />
    <glyph glyph-name="dieresis" unicode="&#xa8;" horiz-adv-x="677" 
d="M462 930q-24 0 -46 19t-23 37q0 18 21 56q22 37 62 37t49 -10t13 -32t-1 -45q-6 -22 -28 -42q-23 -20 -47 -20zM227 1096q57 0 58 -78q0 -31 -31 -59q-32 -27 -58 -27t-42 24t-16 52q0 29 14 49q38 39 75 39z" />
    <glyph glyph-name="copyright" unicode="&#xa9;" horiz-adv-x="1169" 
d="M576 1401q-209 0 -359 -151q-149 -152 -149 -362t150 -360t363 -150q212 0 360 152q149 152 149 362t-152 360t-362 149zM6 889q0 237 169 405t407 168t404 -170t165 -405q0 -235 -170 -403q-171 -168 -405 -167q-234 0 -402 167t-168 405zM803 1110q0 53 -29 90t-69 37
q-131 0 -261 -183t-131 -368q0 -164 160 -164q82 0 143 37q117 76 164 135q23 27 39 27q29 0 29 -25q-2 -35 -172 -159q-94 -68 -209 -68q-213 0 -213 221q0 188 164 416q63 86 143 135q81 49 149 49t109 -47t45 -123q33 -18 6 -57q-4 -8 -12 -35l-20 -72q-37 -154 -97 -153
q-64 0 17 163q45 91 45 144z" />
    <glyph glyph-name="ordfeminine" unicode="&#xaa;" horiz-adv-x="483" 
d="M100 543q-80 0 -80 43q0 16 16 29t36 12l67 -9l78 5l41 4q66 6 92 6q76 0 76 -49q0 -12 -9 -20t-20 -9l-80 2l-127 -6l-34 -4q-33 -4 -56 -4zM389 1090q0 58 -43 65q-31 4 -86 -44t-108 -132t-54 -164q0 -35 12 -57q39 -74 189 129q49 70 52 89t7 23q31 33 31 91z
M375 788q0 -34 4 -38h2l4 2q25 20 37 20q20 0 20 -19t-25 -36q-26 -16 -55 -17q-41 0 -43 64v29l5 34q-115 -139 -198 -139t-83 120t111 261t198 141q47 0 73 -36t26 -76t-9 -76q2 -16 2 -22t-2 -9l-57 -149q-10 -20 -10 -54z" />
    <glyph glyph-name="guillemotleft" unicode="&#xab;" horiz-adv-x="598" 
d="M307 746q0 -16 -31 -41l-155 -140q-25 -20 10 -53l143 -127q27 -23 27 -34t-14 -31q-15 -20 -21 -21q-6 0 -20 10l-176 148q-94 70 -37 135l186 166q37 32 48 32t25 -14t15 -30zM517 795q11 1 25 -15t15 -31q0 -15 -31 -40l-155 -138q-13 -12 -13 -23t23 -30l143 -129
q27 -23 27 -35t-13 -30q-14 -18 -22 -18t-20 7l-177 150q-41 33 -51 48q-28 42 15 85l186 166q37 33 48 33z" />
    <glyph glyph-name="logicalnot" unicode="&#xac;" horiz-adv-x="704" 
d="M580 346h-457q-70 0 -70 35q1 21 15 27t59 6h348l57 2q86 0 100 -7t15 -51v-272q0 -14 -10 -26q-9 -12 -23 -11q-14 0 -24 11t-10 28v258z" />
    <glyph glyph-name="registered" unicode="&#xae;" horiz-adv-x="1169" 
d="M503 793q18 0 34 4l-66 65l-27 -65q41 -4 59 -4zM416 803l33 78q-27 25 -49 25q-43 -1 -46 -40q3 -34 62 -63zM576 1401q-209 0 -359 -151q-149 -152 -149 -362t150 -360t363 -150q212 0 360 152q149 152 149 362t-152 360t-362 149zM6 889q0 237 169 405t407 168
t404 -170t165 -405q0 -235 -170 -403q-171 -168 -405 -167q-234 0 -402 167t-168 405zM840 1063q0 143 -240 143q-120 0 -252 -81t-133 -169q0 -39 41 -63q23 -14 23 -29q0 -22 -29 -22t-62 37q-71 80 16 187q48 58 130 108q136 80 274 80t214 -51q76 -50 75 -136
q0 -86 -81 -168t-214 -125l86 -121q29 -37 63 -67t48 -29l35 6q18 0 18 -24q0 -31 -47 -31q-68 0 -156 115l-106 139q-39 -8 -48 -8t-46 4l-50 -142l-2 -18l-2 -2v-2q2 -4 2 -12q-4 -31 -39 -31q-10 0 -19 8q-9 9 -9 21t10 43l53 149q-84 43 -84 96q0 31 23 54q24 22 58 22
t63 -18l75 184q14 35 37 35q9 0 19 -8q10 -7 10 -19t-10 -37l-86 -190l67 -72q115 29 195 102t80 142z" />
    <glyph glyph-name="macron" unicode="&#xaf;" horiz-adv-x="839" 
d="M233 1010h443q4 6 63 -11q7 -2 19 -20q12 -17 12 -29t-10 -21t-20 -9t-32 8q-20 8 -73 8h-387l-66 -4q-45 0 -80 19q-34 19 -34 39t11 32t23 12t58 -12t73 -12z" />
    <glyph glyph-name="degree" unicode="&#xb0;" horiz-adv-x="839" 
d="M448 1251q124 0 210 -86t87 -210q0 -124 -86 -212q-85 -88 -209 -88t-212 87t-88 212t87 211t211 86z" />
    <glyph glyph-name="plusminus" unicode="&#xb1;" horiz-adv-x="704" 
d="M188 74h443q4 6 63 -11q10 -2 20 -18q10 -15 11 -29q0 -14 -10 -23q-11 -9 -21 -9t-30 8t-74 8h-387l-66 -4q-43 0 -79 20q-59 33 -24 71q11 11 23 11t58 -12t73 -12zM631 555q94 -4 94 -47t-31 -43q-8 0 -30 8t-74 8h-178v-223q2 -4 -2 -30t-9 -35q-12 -29 -49 -29
q-12 0 -21 9t-9 19t8 32t8 75v182h-135l-64 -4q-43 1 -80 21t-37 38t13 31q12 13 25 13t55 -12t100 -13h123v129l-4 66q0 46 19 80t39 34t32 -11t12 -23t-12 -57q-12 -44 -12 -75v-143h219z" />
    <glyph glyph-name="twosuperior" unicode="&#xb2;" horiz-adv-x="892" 
d="M602 717q0 -21 -28 -21t-39 27q-1 6 -49 13t-96 7t-90 -7q-42 -8 -125 -28t-97 -20t-29 8q-14 8 -14 17q-1 25 117 53t280 116q162 89 270 188t107 165q0 41 -52 68t-136 26q-168 0 -326 -77t-158 -158q0 -35 38 -62q37 -28 95 -22t77 6t20 -17q1 -29 -103 -29t-153 50
q-31 35 -31 74q0 98 173 185t368 87q106 0 173 -37t66 -94q0 -90 -147 -217t-383 -238l63 2q209 0 209 -65z" />
    <glyph glyph-name="threesuperior" unicode="&#xb3;" horiz-adv-x="940" 
d="M852 1257q0 39 -56 64t-143 25q-166 0 -317 -70q-39 -18 -68 -45t-28 -43q0 -41 100 -49q49 -3 49 -23q1 -20 -53 -20t-107 30t-53 70q0 68 152 128t293 60t213 -38t72 -90q0 -54 -51 -95q-50 -41 -167 -90l-67 -31q104 -16 169 -59t64 -94q0 -76 -141 -138
q-141 -63 -298 -63t-269 48t-111 108q0 34 33 62t69 28q5 0 13 -6t8 -16t-33 -31q-29 -16 -29 -43q0 -43 86 -75t217 -32t265 53t135 111q0 41 -75 74t-171 32l-176 -14q-61 0 -61 37q0 19 42 18q104 2 178 20t171 66q145 74 145 131z" />
    <glyph glyph-name="acute" unicode="&#xb4;" horiz-adv-x="522" 
d="M92 938q-24 0 -24 26t28 64l142 184q18 16 26 28t37 11q29 0 29 -20q0 -6 -29 -43l-164 -223q-21 -27 -45 -27z" />
    <glyph glyph-name="paragraph" unicode="&#xb6;" horiz-adv-x="716" 
d="M270 -193q0 -43 -49 -43t-49 31q0 13 9 35t19 70t27 94l437 1114h-125l-449 -1126q-31 -82 -31 -154v-21q0 -43 -49 -43t-49 31q0 13 9 35q8 22 18 68t28 96l246 624q-100 58 -141 118t-41 153q0 154 117 237q47 35 98 45t164 11h327q62 0 79 -22q30 -38 7 -58
q-10 -10 -21 -10t-31 8t-70 8l-449 -1126q-10 -23 -20 -77t-11 -77v-21z" />
    <glyph glyph-name="periodcentered" unicode="&#xb7;" horiz-adv-x="239" 
d="M116 772q30 0 52 -9q21 -9 27 -48q0 -12 -29 -47t-64 -35t-55 18t-20 48t29 52q30 21 60 21z" />
    <glyph glyph-name="cedilla" unicode="&#xb8;" horiz-adv-x="393" 
d="M89 -446q-30 0 -30 22q0 6 13 18l16 19q16 20 25 33l129 151q37 45 46 45q8 0 30 -12t26 -20l-25 -33l-194 -215q-6 -8 -36 -8z" />
    <glyph glyph-name="onesuperior" unicode="&#xb9;" horiz-adv-x="626" 
d="M93 1133q-32 0 -32 21q1 21 55 39q54 19 117 65t66 75q8 25 39 25t31 -27q0 -14 -11 -35l-14 -28l-209 -506q-6 -20 -6 -25v-6q2 -4 2 -14q0 -27 -35 -27t-35 23q1 8 15 61l186 451q-137 -92 -169 -92z" />
    <glyph glyph-name="ordmasculine" unicode="&#xba;" horiz-adv-x="479" 
d="M100 543q-80 0 -80 43q0 16 16 29t36 12l67 -9l78 5l41 4q66 6 92 6q76 0 76 -49q0 -12 -9 -20t-20 -9l-80 2l-127 -6l-34 -4q-33 -4 -56 -4zM119 850q0 -96 102 -96q140 0 221 174q20 45 21 63l-8 45l4 27q0 27 -38 59t-73 35q-63 3 -146 -107t-83 -200zM539 1019
q-1 -9 -13 -21t-14 -29q-12 -84 -84 -164q-92 -106 -219 -107q-145 0 -146 138q1 127 95 254t190 127q39 0 84 -28t62 -63q24 -59 26 -65l2 -17q17 -16 17 -25z" />
    <glyph glyph-name="guillemotright" unicode="&#xbb;" horiz-adv-x="598" 
d="M580 545q0 -27 -10 -41t-50 -47l-178 -148q-10 -10 -18 -10t-23 20q-15 19 -15 31t27 35l144 127q25 20 25 30t-13 23l-158 140q-29 27 -27 43t13 28q13 14 25 13t47 -31l186 -166q25 -20 25 -47zM330 552q0 -26 -10 -42q-10 -14 -50 -47l-178 -150q-8 -8 -17 -8
q-9 -1 -23 19t-15 31q0 11 29 34l141 129q25 23 25 30t-13 23l-158 138q-29 27 -29 42t14 29t26 14t47 -32l186 -166q25 -18 25 -44z" />
    <glyph glyph-name="onequarter" unicode="&#xbc;" horiz-adv-x="1171" 
d="M-160 2q-16 0 -30 10t-14 24t26 50l842 1022q134 162 156 192t31 60q9 29 18 39t29 10t38 -12t18 -27q1 -37 -116 -174l-899 -1063q-31 -43 -45 -87t-54 -44zM93 1133q-32 0 -32 20q1 20 55 39q54 20 117 66t66 75q8 25 38 25t32 -27q0 -10 -11 -35l-14 -28l-211 -506
l-4 -25v-6q10 -41 -37 -41q-31 0 -31 23q1 32 15 61l186 451q-137 -92 -169 -92zM254 209q0 -23 68 -21h38l310 13l184 366q20 43 20 57t-4 17q-4 1 -48 -23t-83 -45q-47 -31 -145 -92l-158 -98q-72 -45 -127 -98t-55 -76zM942 211q26 0 35 -18q0 -3 -5 -13t-30 -10h-20
q-16 2 -30 2t-26 -2l-151 -8l-33 -64q-10 -25 -10 -38t6 -20t6 -15q0 -31 -41 -31q-35 0 -35 43t17 67l26 54l-293 -8q-90 4 -110 9t-39 19q-18 14 -19 29q0 41 84 111t328 224q244 156 294 156t50 -37t-35 -106l-182 -352l201 8h12z" />
    <glyph glyph-name="onehalf" unicode="&#xbd;" horiz-adv-x="1171" 
d="M881 16q0 -21 -29 -19q-29 1 -41 28q-2 4 -52 12t-81 8q-98 0 -301 -53q-17 -4 -27 -4t-24 9t-15 17q1 20 119 50t280 118t269 188q106 100 106 165q0 43 -51 69t-137 25q-201 0 -367 -101q-121 -76 -114 -125q2 -35 6 -43q37 -51 115 -51l84 8q23 -4 22 -18
q-1 -29 -67 -29t-117 16q-101 31 -101 105t97 139q188 135 444 136q106 0 172 -36t66 -95q0 -90 -148 -217t-381 -236q26 2 90 2t123 -19t60 -49zM-160 2q-16 0 -30 10t-14 24t26 50l842 1022q134 162 156 192t31 60q9 29 18 39t29 10t38 -12t18 -27q1 -37 -116 -174
l-899 -1063q-31 -43 -45 -87t-54 -44zM93 1133q-32 0 -32 20q1 20 55 39q54 20 117 66t66 75q8 25 38 25t32 -27q0 -10 -11 -35l-14 -28l-211 -506l-4 -25v-6q10 -41 -37 -41q-31 0 -31 23q1 32 15 61l186 451q-137 -92 -169 -92z" />
    <glyph glyph-name="threequarters" unicode="&#xbe;" horiz-adv-x="1742" 
d="M852 1257q0 39 -56 64t-143 25q-166 0 -317 -70q-39 -18 -68 -45t-28 -43q0 -41 100 -49q49 -3 49 -23q1 -20 -53 -20t-107 30t-53 70q0 68 152 128t293 60t213 -38t72 -90q0 -54 -51 -95q-50 -41 -167 -90l-67 -31q104 -16 169 -59t64 -94q0 -76 -141 -138
q-141 -63 -298 -63t-269 48t-111 108q0 34 33 62t69 28q5 0 13 -6t8 -16t-33 -31q-29 -16 -29 -43q0 -43 86 -75t217 -32t265 53t135 111q0 41 -75 74t-171 32l-176 -14q-61 0 -61 37q0 19 42 18q104 2 178 20t171 66q145 74 145 131zM412 2q-14 0 -30 11t-15 25q0 14 28 48
l842 1022q125 154 151 188t34 62q15 51 46 51q23 0 40 -12t18 -27q0 -37 -115 -174l-899 -1063q-31 -39 -46 -85t-54 -46zM1448 622q0 14 -6 19q-4 2 -19 -6l-110 -62l-303 -190q-74 -47 -127 -97t-56 -77q0 -25 68 -21h37l309 13l184 366q23 41 23 55zM1216 -6
q-40 0 -36 39q0 45 16 71l27 54l-291 -8q-88 4 -112 9t-41 19q-50 42 68 139q79 65 325 223t305 158q16 0 29 -12q33 -30 -23 -131l-180 -352l198 8h15q33 0 32 -18q0 -23 -32 -23h-23q-17 2 -29 2t-26 -2l-152 -8l-31 -64q-16 -25 -12 -45l14 -28q-1 -31 -41 -31z" />
    <glyph glyph-name="questiondown" unicode="&#xbf;" horiz-adv-x="978" 
d="M651 778q0 26 29 42t76 16h8q29 0 48 -14t19 -36q0 -24 -47 -54t-92 -30t-45 33l6 27q0 4 -2 10v6zM-96 -132q0 -102 131 -178t329 -75q198 0 373 98q100 57 101 133q0 53 -54 70q-33 10 -32 27q0 12 12 22t39 10q27 -1 67 -39t41 -75q0 -86 -79 -155q-78 -68 -202 -106
t-257 -38q-227 0 -381 93t-154 232q0 92 85 172t270 164l202 92q100 45 175 97t75 80q0 12 -12 32t-12 31q1 18 29 18q28 -1 50 -23t23 -54q0 -84 -164 -164l-266 -129q-160 -72 -196 -91t-93 -65q-100 -77 -100 -179z" />
    <glyph glyph-name="Agrave" unicode="&#xc0;" horiz-adv-x="1208" 
d="M1098 1758q0 -26 -15 -25q-35 0 -53 24l-164 225q-31 37 -28 48q0 16 24 16t37 -8q0 -5 29 -31l141 -184q29 -39 29 -65zM1104 63l65 21q15 0 15 -22t-36 -40t-82 -20q-46 0 -78 59t-32 199t66 391q-27 -41 -45 -69q-166 -253 -381 -439q-180 -162 -330 -161
q-88 0 -140 76t-52 210q0 289 148 615q148 325 368 543t418 219q126 -1 194 -107t68 -282t-22 -267q-22 -90 -58 -90h-4q-25 0 -25 23q0 12 6 30q35 127 35 286t-58 253t-162 94t-238 -92q-134 -93 -274 -273t-240 -451q-101 -271 -101 -480q0 -111 44 -177t124 -67
q80 0 164 51t203 172q197 198 304 394q106 196 126 214t43 19q50 0 -2 -119q-113 -242 -113 -545q0 -71 24 -119t58 -49z" />
    <glyph glyph-name="Aacute" unicode="&#xc1;" horiz-adv-x="1208" 
d="M981 1749q-20 0 -20 28t28 62l141 184l25 25q10 14 39 14t29 -20q0 -6 -31 -41l-162 -225q-23 -27 -49 -27zM1104 63l65 21q15 0 15 -22t-36 -40t-82 -20q-46 0 -78 59t-32 199t66 391q-27 -41 -45 -69q-166 -253 -381 -439q-180 -162 -330 -161q-88 0 -140 76t-52 210
q0 289 148 615q148 325 368 543t418 219q126 -1 194 -107t68 -282t-22 -267q-22 -90 -58 -90h-4q-25 0 -25 23q0 12 6 30q35 127 35 286t-58 253t-162 94t-238 -92q-134 -93 -274 -273t-240 -451q-101 -271 -101 -480q0 -111 44 -177t124 -67q80 0 164 51t203 172
q197 198 304 394q106 196 126 214t43 19q50 0 -2 -119q-113 -242 -113 -545q0 -71 24 -119t58 -49z" />
    <glyph glyph-name="Acircumflex" unicode="&#xc2;" horiz-adv-x="1208" 
d="M836 1784q0 14 28 33l234 153q29 18 43 19q35 0 53 -56l53 -153l6 -19q0 -10 -18 -20q-29 -29 -45 14l-51 131q-3 14 -11 14t-12 -4l-217 -133q-35 -23 -40 -23t-14 15t-9 29zM1104 63l65 21q15 0 15 -22t-36 -40t-82 -20q-46 0 -78 59t-32 199t66 391q-27 -41 -45 -69
q-166 -253 -381 -439q-180 -162 -330 -161q-88 0 -140 76t-52 210q0 289 148 615q148 325 368 543t418 219q126 -1 194 -107t68 -282t-22 -267q-22 -90 -58 -90h-4q-25 0 -25 23q0 12 6 30q35 127 35 286t-58 253t-162 94t-238 -92q-134 -93 -274 -273t-240 -451
q-101 -271 -101 -480q0 -111 44 -177t124 -67q80 0 164 51t203 172q197 198 304 394q106 196 126 214t43 19q50 0 -2 -119q-113 -242 -113 -545q0 -71 24 -119t58 -49z" />
    <glyph glyph-name="Atilde" unicode="&#xc3;" horiz-adv-x="1208" 
d="M938 1778q-37 0 -68 -21t-47 -20q-27 0 -26 32q0 9 6 17t41 32t80 23q45 1 97 -21t87 -22t70 22t45 21q10 0 21 -13q11 -14 11 -30t-40 -36q-106 -59 -195 -13q-47 27 -70 29h-12zM1104 63l65 21q15 0 15 -22t-36 -40t-82 -20q-46 0 -78 59t-32 199t66 391
q-27 -41 -45 -69q-166 -253 -381 -439q-180 -162 -330 -161q-88 0 -140 76t-52 210q0 289 148 615q148 325 368 543t418 219q126 -1 194 -107t68 -282t-22 -267q-22 -90 -58 -90h-4q-25 0 -25 23q0 12 6 30q35 127 35 286t-58 253t-162 94t-238 -92q-134 -93 -274 -273
t-240 -451q-101 -271 -101 -480q0 -111 44 -177t124 -67q80 0 164 51t203 172q197 198 304 394q106 196 126 214t43 19q50 0 -2 -119q-113 -242 -113 -545q0 -71 24 -119t58 -49z" />
    <glyph glyph-name="Adieresis" unicode="&#xc4;" horiz-adv-x="1208" 
d="M1200 1833q0 -29 -26 -59t-51 -31q-25 0 -49 19q-24 18 -24 36t22 56q20 38 74 38t54 -59zM942 1823q0 -14 -26 -46t-72 -32q-14 0 -29 17q-14 17 -16 38l-4 12v5l2 6q3 37 29 61t57 25q31 -1 48 -23t11 -51v-12zM1104 63l65 21q15 0 15 -22t-36 -40t-82 -20
q-46 0 -78 59t-32 199t66 391q-27 -41 -45 -69q-166 -253 -381 -439q-180 -162 -330 -161q-88 0 -140 76t-52 210q0 289 148 615q148 325 368 543t418 219q126 -1 194 -107t68 -282t-22 -267q-22 -90 -58 -90h-4q-25 0 -25 23q0 12 6 30q35 127 35 286t-58 253t-162 94
t-238 -92q-134 -93 -274 -273t-240 -451q-101 -271 -101 -480q0 -111 44 -177t124 -67q80 0 164 51t203 172q197 198 304 394q106 196 126 214t43 19q50 0 -2 -119q-113 -242 -113 -545q0 -71 24 -119t58 -49z" />
    <glyph glyph-name="Aring" unicode="&#xc5;" horiz-adv-x="1208" 
d="M1059 1948q-66 0 -92 -63t-5 -88t56 -25q34 0 68 32t34 74q0 70 -61 70zM1058 2005q60 0 93 -33q33 -34 33 -92t-52 -112t-112 -54t-95 34q-36 34 -36 92t55 111q54 54 114 54zM1104 63l65 21q15 0 15 -22t-36 -40t-82 -20q-46 0 -78 59t-32 199t66 391q-27 -41 -45 -69
q-166 -253 -381 -439q-180 -162 -330 -161q-88 0 -140 76t-52 210q0 289 148 615q148 325 368 543t418 219q126 -1 194 -107t68 -282t-22 -267q-22 -90 -58 -90h-4q-25 0 -25 23q0 12 6 30q35 127 35 286t-58 253t-162 94t-238 -92q-134 -93 -274 -273t-240 -451
q-101 -271 -101 -480q0 -111 44 -177t124 -67q80 0 164 51t203 172q197 198 304 394q106 196 126 214t43 19q50 0 -2 -119q-113 -242 -113 -545q0 -71 24 -119t58 -49z" />
    <glyph glyph-name="AE" unicode="&#xc6;" horiz-adv-x="1581" 
d="M989 1585q-111 0 -245 -92q-134 -93 -274 -273t-240 -451q-101 -271 -101 -480q0 -111 44 -177t120 -67q109 1 232 95t311 325l358 878q-43 242 -205 242zM939 -18q-89 0 -141 49t-52 129t20 139l12 27q-184 -197 -294 -271q-110 -73 -210 -73t-150 82t-50 204
q0 215 90 464q184 509 528 779q168 133 316 134q186 0 245 -238q37 0 52 -25l10 -12l504 12q170 2 170 -55q0 -27 -41 -27q-18 0 -42 12t-83 17l-2 -2l-551 -27l-232 -573l408 6q94 4 94 -45q0 -35 -45 -35q-14 0 -31 11q-29 12 -57 12h-12l-391 -21l-148 -352
q-27 -72 -27 -145q0 -121 134 -121q66 0 135 12l200 33q98 16 203 16q59 0 60 -30q-1 -14 -11 -24t-24 -9l-64 10q-27 0 -188 -20l-174 -31q-72 -12 -161 -12z" />
    <glyph glyph-name="Ccedilla" unicode="&#xc7;" horiz-adv-x="1167" 
d="M330 -373q-29 0 -29 25q0 4 12 16l17 21q12 12 24 30l129 152q37 45 48 44t31 -13t24 -19l-25 -33l-194 -215q-8 -8 -37 -8zM137 412q1 -357 365 -357q142 0 272 80q80 49 183 133t143 134t68 49q30 0 30 -27q0 -20 -41 -59t-168 -141t-195 -143q-144 -85 -327 -83
q-399 0 -399 414q0 369 321 809q121 164 274 259t300 95q72 0 131 -37t88 -98q47 -111 47 -164v-16q0 -12 16 -21q23 -11 23 -25t-18 -40t-62 -192q-44 -167 -103 -269q-31 -55 -75 -56q-40 0 -33 74q4 41 90 227t86 277q0 92 -45 176q-53 106 -172 107q-254 0 -506 -338
q-137 -182 -215 -387t-78 -381z" />
    <glyph glyph-name="Egrave" unicode="&#xc8;" horiz-adv-x="917" 
d="M850 1566q0 -18 -6 -26t-22 -6t-24 6q-7 4 -18 19l-164 225q-31 37 -28 47q4 20 32 16t34 -15q6 -10 24 -24l141 -186q31 -38 31 -56zM291 -18q-152 0 -193 88q-46 105 0 229l121 344l-102 -2q-49 -2 -49 33q0 16 7 19t50 7l117 11l270 587l-211 -2q-51 -2 -81 12t-30 40
q0 37 50 36q12 0 26 -16q8 -14 31 -16l233 12l17 16q23 27 49 27t41 -25l8 -12l506 12q168 2 168 -55q0 -27 -41 -27q-18 0 -41 12t-82 17l-4 -2l-549 -27l-268 -581l442 14q4 0 40 -6t38 -8q16 -6 16 -31q0 -35 -45 -35q-12 0 -30 11q-29 12 -56 12h-12l-416 -23l-123 -350
q-29 -76 -28 -143q0 -123 133 -123q63 0 137 12l199 33q98 16 202 16q59 0 60 -30q0 -33 -33 -33l-65 10q-27 0 -187 -20l-176 -31q-70 -12 -139 -12z" />
    <glyph glyph-name="Eacute" unicode="&#xc9;" horiz-adv-x="917" 
d="M762 1534q-24 0 -24 28t28 62l141 184l25 25q10 14 39 14t28 -20q1 -6 -30 -41l-162 -225q-21 -27 -45 -27zM291 -18q-152 0 -193 88q-46 105 0 229l121 344l-102 -2q-49 -2 -49 33q0 16 7 19t50 7l117 11l270 587l-211 -2q-51 -2 -81 12t-30 40q0 37 50 36q12 0 26 -16
q8 -14 31 -16l233 12l17 16q23 27 49 27t41 -25l8 -12l506 12q168 2 168 -55q0 -27 -41 -27q-18 0 -41 12t-82 17l-4 -2l-549 -27l-268 -581l442 14q4 0 40 -6t38 -8q16 -6 16 -31q0 -35 -45 -35q-12 0 -30 11q-29 12 -56 12h-12l-416 -23l-123 -350q-29 -76 -28 -143
q0 -123 133 -123q63 0 137 12l199 33q98 16 202 16q59 0 60 -30q0 -33 -33 -33l-65 10q-27 0 -187 -20l-176 -31q-70 -12 -139 -12z" />
    <glyph glyph-name="Ecircumflex" unicode="&#xca;" horiz-adv-x="917" 
d="M625 1572q0 14 28 36l234 153q27 18 43 19q31 4 53 -56l53 -155l6 -19q0 -9 -22 -20q-29 -25 -43 16l-49 131q-6 21 -25 11l-215 -134q-35 -22 -41 -22t-14 13t-8 27zM291 -18q-152 0 -193 88q-46 105 0 229l121 344l-102 -2q-49 -2 -49 33q0 16 7 19t50 7l117 11
l270 587l-211 -2q-51 -2 -81 12t-30 40q0 37 50 36q12 0 26 -16q8 -14 31 -16l233 12l17 16q23 27 49 27t41 -25l8 -12l506 12q168 2 168 -55q0 -27 -41 -27q-18 0 -41 12t-82 17l-4 -2l-549 -27l-268 -581l442 14q4 0 40 -6t38 -8q16 -6 16 -31q0 -35 -45 -35q-12 0 -30 11
q-29 12 -56 12h-12l-416 -23l-123 -350q-29 -76 -28 -143q0 -123 133 -123q63 0 137 12l199 33q98 16 202 16q59 0 60 -30q0 -33 -33 -33l-65 10q-27 0 -187 -20l-176 -31q-70 -12 -139 -12z" />
    <glyph glyph-name="Edieresis" unicode="&#xcb;" horiz-adv-x="917" 
d="M1120 1622q0 -30 -26 -60t-51 -30t-49 19t-24 37t20 55q20 38 75 38t55 -59zM862 1612q0 -14 -26 -46t-72 -32q-30 0 -49 70v4l2 4q1 38 27 62t57 24t49 -24t12 -50v-12zM291 -18q-152 0 -193 88q-46 105 0 229l121 344l-102 -2q-49 -2 -49 33q0 16 7 19t50 7l117 11
l270 587l-211 -2q-51 -2 -81 12t-30 40q0 37 50 36q12 0 26 -16q8 -14 31 -16l233 12l17 16q23 27 49 27t41 -25l8 -12l506 12q168 2 168 -55q0 -27 -41 -27q-18 0 -41 12t-82 17l-4 -2l-549 -27l-268 -581l442 14q4 0 40 -6t38 -8q16 -6 16 -31q0 -35 -45 -35q-12 0 -30 11
q-29 12 -56 12h-12l-416 -23l-123 -350q-29 -76 -28 -143q0 -123 133 -123q63 0 137 12l199 33q98 16 202 16q59 0 60 -30q0 -33 -33 -33l-65 10q-27 0 -187 -20l-176 -31q-70 -12 -139 -12z" />
    <glyph glyph-name="Igrave" unicode="&#xcc;" horiz-adv-x="1419" 
d="M1012 1609q0 -23 -13 -28q-35 -8 -57 27l-164 223q-29 37 -28 43q0 20 25 20t38 -8q0 -2 4 -6l25 -25l141 -184q29 -39 29 -62zM106 408q29 0 41 -76q21 -115 125 -189t248 -73q207 0 381 153q166 150 276 410t109 504q0 149 -66 233t-180 84q-344 0 -649 -295
q-174 -168 -174 -321q0 -125 139 -203t363 -78q86 0 133 8t59 8q39 0 39 -32q0 -25 -41 -33t-166 -8q-272 0 -443 90t-171 235q0 186 215 385q156 142 338 220t344 78t244 -95q80 -94 80 -266q0 -344 -185 -690q-238 -444 -647 -445q-180 0 -309 94t-141 234q-2 28 9 48
t29 20z" />
    <glyph glyph-name="Iacute" unicode="&#xcd;" horiz-adv-x="1419" 
d="M958 1579q-26 0 -26 28t29 62l141 186q16 10 24 25q12 12 40 15t28 -21q0 -8 -29 -43l-164 -225q-17 -27 -43 -27zM106 408q29 0 41 -76q21 -115 125 -189t248 -73q207 0 381 153q166 150 276 410t109 504q0 149 -66 233t-180 84q-344 0 -649 -295q-174 -168 -174 -321
q0 -125 139 -203t363 -78q86 0 133 8t59 8q39 0 39 -32q0 -25 -41 -33t-166 -8q-272 0 -443 90t-171 235q0 186 215 385q156 142 338 220t344 78t244 -95q80 -94 80 -266q0 -344 -185 -690q-238 -444 -647 -445q-180 0 -309 94t-141 234q-2 28 9 48t29 20z" />
    <glyph glyph-name="Icircumflex" unicode="&#xce;" horiz-adv-x="1419" 
d="M865 1571q-7 0 -15 12q-8 11 -8 27t28 37l234 151q25 18 43 19q33 0 51 -56l62 -172q0 -8 -19 -18q-13 -13 -24 -15q-13 0 -23 27l-49 133q-6 12 -15 13l-10 -3l-215 -135q-33 -20 -40 -20zM106 408q29 0 41 -76q21 -115 125 -189t248 -73q207 0 381 153q166 150 276 410
t109 504q0 149 -66 233t-180 84q-344 0 -649 -295q-174 -168 -174 -321q0 -125 139 -203t363 -78q86 0 133 8t59 8q39 0 39 -32q0 -25 -41 -33t-166 -8q-272 0 -443 90t-171 235q0 186 215 385q156 142 338 220t344 78t244 -95q80 -94 80 -266q0 -344 -185 -690
q-238 -444 -647 -445q-180 0 -309 94t-141 234q-2 28 9 48t29 20z" />
    <glyph glyph-name="Idieresis" unicode="&#xcf;" horiz-adv-x="1419" 
d="M993 1666q0 18 20 54q20 37 66 37t58 -28q0 -11 6 -29q-7 -43 -35 -70q-44 -43 -92 -2q-24 20 -23 38zM819 1612q-38 0 -49 67v4q-2 8 6 30q22 61 84 61q37 0 46 -25t9 -29l3 -22q2 -14 -16 -38q-36 -48 -83 -48zM106 408q29 0 41 -76q21 -115 125 -189t248 -73
q207 0 381 153q166 150 276 410t109 504q0 149 -66 233t-180 84q-344 0 -649 -295q-174 -168 -174 -321q0 -125 139 -203t363 -78q86 0 133 8t59 8q39 0 39 -32q0 -25 -41 -33t-166 -8q-272 0 -443 90t-171 235q0 186 215 385q156 142 338 220t344 78t244 -95
q80 -94 80 -266q0 -344 -185 -690q-238 -444 -647 -445q-180 0 -309 94t-141 234q-2 28 9 48t29 20z" />
    <glyph glyph-name="Eth" unicode="&#xd0;" horiz-adv-x="1593" 
d="M676 62q0 -72 142 -72t286 54t276 160q133 106 215 268t82 344q0 181 -137 349q-172 209 -498 209q-283 0 -532 -139q-164 -90 -267 -220q-103 -129 -103 -231t67 -166q29 -30 51 -38t82 -27q61 -19 66 -37q0 -43 -128 -1q-65 22 -98 42q-112 76 -112 202t105 265
t284 240q281 162 600 161q379 0 571 -270q115 -157 115 -357q1 -200 -103 -380t-290 -303q-264 -176 -543 -176q-119 0 -197 53q-35 23 -30 35l16 39l16 67l76 201h-180q-55 0 -55 28q0 35 55 35h205l248 670q55 154 65 164q16 10 36 10t37 -15q17 -14 17 -34t-6 -30
t-30 -42q-24 -30 -31 -55l-258 -666l423 4q55 0 56 -30q0 -33 -56 -33l-448 -4l-76 -199q-14 -35 -14 -75z" />
    <glyph glyph-name="Ntilde" unicode="&#xd1;" horiz-adv-x="1626" 
d="M1665 1544q-55 0 -98 24q-77 43 -137 5q-26 -23 -42 -23t-25 10t-9 21q0 23 44 48q82 47 175 5q97 -42 163 -1q34 21 43 21t22 -14q13 -16 14 -26q0 -15 -31 -31l-25 -14q-39 -25 -94 -25zM731 477q20 0 23 -20q0 -18 -23 -31q-35 -16 -147 -38t-170 -21q-137 0 -234 90
q-96 91 -96 231t115 322t301 325q276 213 528 213q123 0 189 -60t65 -175q0 -203 -141 -561l-236 -588l340 485q147 211 231 296t144 85q72 0 72 -66q0 -34 -25 -120l-127 -434q-12 -40 -24 -136q-26 -209 8 -270q14 -23 26 -22l68 10q4 0 12 -9t8 -16q0 -35 -73 -37
q-125 0 -125 181q0 154 41 303l112 430q9 40 9 66t-23 26t-47 -29q-125 -129 -240 -299l-370 -553q-37 -55 -81 -55t-44 41q0 35 41 133l249 598q135 332 136 537q1 113 -61 151t-136 39q-180 0 -389 -135t-350 -334t-142 -368q0 -111 81 -179q82 -67 200 -67t291 59
q6 2 14 2z" />
    <glyph glyph-name="Ograve" unicode="&#xd2;" horiz-adv-x="1159" 
d="M852 1685q0 -27 -27 -27t-41 28l-163 225q-31 37 -31 41q2 20 30 20t36 -10t26 -29l141 -184q29 -37 29 -64zM439 53q139 1 269 63t230 175q291 335 291 743q0 207 -119 350t-309 144q-283 0 -498 -285q-164 -213 -164 -426q0 -31 8 -86q68 177 120 273t132 188
q180 213 351 213q42 0 70 -14q28 -15 28 -31t-8 -26t-18 -11q-10 0 -32 9t-38 9q-74 1 -182 -81t-185 -199q-102 -147 -203 -434q90 -127 166 -174t214 -47t249 47q16 6 25 6q27 0 26 -23q0 -32 -106 -58t-224 -26t-194 37q-78 37 -178 137q-20 -106 -21 -168
q0 -139 81 -222t219 -83zM792 1585q226 1 364 -155t138 -406q0 -200 -82 -402t-231 -370q-100 -118 -251 -186q-152 -68 -310 -68t-253 97t-95 267q-1 98 32 252q-33 123 -32 197q0 158 79 321t209 277q206 176 432 176z" />
    <glyph glyph-name="Oacute" unicode="&#xd3;" horiz-adv-x="1159" 
d="M774 1663q-24 0 -24 26t28 64l142 184l24 25q10 14 38 14t28 -14q2 -12 -29 -47l-164 -225q-19 -27 -43 -27zM439 53q139 1 269 63t230 175q291 335 291 743q0 207 -119 350t-309 144q-283 0 -498 -285q-164 -213 -164 -426q0 -31 8 -86q68 177 120 273t132 188
q180 213 351 213q42 0 70 -14q28 -15 28 -31t-8 -26t-18 -11q-10 0 -32 9t-38 9q-74 1 -182 -81t-185 -199q-102 -147 -203 -434q90 -127 166 -174t214 -47t249 47q16 6 25 6q27 0 26 -23q0 -32 -106 -58t-224 -26t-194 37q-78 37 -178 137q-20 -106 -21 -168
q0 -139 81 -222t219 -83zM792 1585q226 1 364 -155t138 -406q0 -200 -82 -402t-231 -370q-100 -118 -251 -186q-152 -68 -310 -68t-253 97t-95 267q-1 98 32 252q-33 123 -32 197q0 158 79 321t209 277q206 176 432 176z" />
    <glyph glyph-name="Ocircumflex" unicode="&#xd4;" horiz-adv-x="1159" 
d="M1034 1630h-8q-8 0 -18 27l-50 131q-4 12 -8 12t-16 -2l-215 -133q-35 -23 -41 -23t-14 12t-8 28q0 15 28 36l234 154q33 18 43 18q31 4 53 -57l59 -172q0 -10 -22 -21q-12 -10 -17 -10zM439 53q139 1 269 63t230 175q291 335 291 743q0 207 -119 350t-309 144
q-283 0 -498 -285q-164 -213 -164 -426q0 -31 8 -86q68 177 120 273t132 188q180 213 351 213q42 0 70 -14q28 -15 28 -31t-8 -26t-18 -11q-10 0 -32 9t-38 9q-74 1 -182 -81t-185 -199q-102 -147 -203 -434q90 -127 166 -174t214 -47t249 47q16 6 25 6q27 0 26 -23
q0 -32 -106 -58t-224 -26t-194 37q-78 37 -178 137q-20 -106 -21 -168q0 -139 81 -222t219 -83zM792 1585q226 1 364 -155t138 -406q0 -200 -82 -402t-231 -370q-100 -118 -251 -186q-152 -68 -310 -68t-253 97t-95 267q-1 98 32 252q-33 123 -32 197q0 158 79 321t209 277
q206 176 432 176z" />
    <glyph glyph-name="Otilde" unicode="&#xd5;" horiz-adv-x="1159" 
d="M734 1700q-34 0 -62 -21t-45 -20q-29 0 -29 31q0 12 6 18t39 30t77 25t97 -21t90 -22t69 20t46 21q14 0 24 -12q10 -13 11 -27q0 -14 -29 -30l-24 -15q-40 -25 -96 -25t-98 24t-76 24zM439 53q139 1 269 63t230 175q291 335 291 743q0 207 -119 350t-309 144
q-283 0 -498 -285q-164 -213 -164 -426q0 -31 8 -86q68 177 120 273t132 188q180 213 351 213q42 0 70 -14q28 -15 28 -31t-8 -26t-18 -11q-10 0 -32 9t-38 9q-74 1 -182 -81t-185 -199q-102 -147 -203 -434q90 -127 166 -174t214 -47t249 47q16 6 25 6q27 0 26 -23
q0 -32 -106 -58t-224 -26t-194 37q-78 37 -178 137q-20 -106 -21 -168q0 -139 81 -222t219 -83zM792 1585q226 1 364 -155t138 -406q0 -200 -82 -402t-231 -370q-100 -118 -251 -186q-152 -68 -310 -68t-253 97t-95 267q-1 98 32 252q-33 123 -32 197q0 158 79 321t209 277
q206 176 432 176z" />
    <glyph glyph-name="Odieresis" unicode="&#xd6;" horiz-adv-x="1159" 
d="M933 1800q49 0 60 -39q0 -4 2 -13t-2 -17q-5 -36 -29 -58q-24 -23 -48 -23t-47 20q-23 18 -23 34t19 56t68 40zM645 1653q-19 0 -37 22t-18 49l2 2v5q0 33 28 59t64 27q36 0 44 -25q9 -25 9 -31l2 -22q2 -12 -15 -37t-39 -37t-40 -12zM439 53q139 1 269 63t230 175
q291 335 291 743q0 207 -119 350t-309 144q-283 0 -498 -285q-164 -213 -164 -426q0 -31 8 -86q68 177 120 273t132 188q180 213 351 213q42 0 70 -14q28 -15 28 -31t-8 -26t-18 -11q-10 0 -32 9t-38 9q-74 1 -182 -81t-185 -199q-102 -147 -203 -434q90 -127 166 -174
t214 -47t249 47q16 6 25 6q27 0 26 -23q0 -32 -106 -58t-224 -26t-194 37q-78 37 -178 137q-20 -106 -21 -168q0 -139 81 -222t219 -83zM792 1585q226 1 364 -155t138 -406q0 -200 -82 -402t-231 -370q-100 -118 -251 -186q-152 -68 -310 -68t-253 97t-95 267q-1 98 32 252
q-33 123 -32 197q0 158 79 321t209 277q206 176 432 176z" />
    <glyph glyph-name="multiply" unicode="&#xd7;" horiz-adv-x="657" 
d="M86 827q18 0 28 -8t32 -48t44 -62l105 -105l92 92q82 94 131 96q49 1 49 -36q0 -27 -47 -54q-49 -25 -71 -47l-101 -102l154 -156q41 -41 41 -63q0 -53 -37 -53q-23 1 -35 27t-49 65l-127 127l-158 -158q-41 -41 -63 -41q-45 0 -54 29q-8 29 31 45q23 10 62 49l129 129
l-95 94q-96 86 -96 133t35 47z" />
    <glyph glyph-name="Oslash" unicode="&#xd8;" horiz-adv-x="1159" 
d="M848 1354q0 -31 -25 -31q-11 0 -33 9t-38 9q-74 1 -182 -81t-196 -216t-190 -417q61 -83 94 -117t76 -59l236 286l547 615q-55 82 -145 129t-191 47q-279 0 -498 -285q-164 -217 -164 -426q0 -31 8 -86q68 177 120 273t132 188q180 213 353 213q96 0 96 -51zM435 53
q143 1 273 63t230 175q291 336 291 723q0 156 -58 276l-247 -266l-289 -338q-56 -72 -76 -96l-53 -58l-88 -110q62 -18 168 -18t227 49q12 6 23 6q27 0 26 -23q0 -18 -39 -35q-113 -49 -291 -49q-83 1 -151 21l-68 -84l-100 -142q80 -94 222 -94zM172 213l143 188
q-66 35 -155 125q-20 -109 -20 -174t32 -139zM72 346q0 106 32 268q-33 125 -32 197q0 158 79 321t211 277q201 176 439 176t381 -182q143 172 153 209q11 37 21 48t30 11t37 -12q16 -12 17 -27q0 -51 -115 -174l-106 -115q75 -145 75 -333t-82 -388q-82 -202 -229 -370
q-102 -118 -252 -186q-151 -68 -303 -68t-256 92q-162 -225 -177 -271t-54 -46q-16 0 -31 10q-14 11 -14 21t26 53l203 293q-53 90 -53 196z" />
    <glyph glyph-name="Ugrave" unicode="&#xd9;" horiz-adv-x="1830" 
d="M1542 1562q0 -26 -20 -26q-27 0 -49 27l-164 225q-29 35 -29 41q0 20 28 20q28 -1 36 -11t26 -26l143 -186q29 -38 29 -64zM1133 1332q1 175 -201 175q-104 0 -246 -58q-141 -58 -266 -166t-202 -241t-77 -236q-1 -102 57 -160t152 -58q52 0 152 22t136 42t42 20t14 -7
t8 -16q0 -37 -118 -76t-242 -39q-125 0 -200 66q-74 66 -74 196t105 292q105 164 276 284q256 182 509 182q131 0 191 -73q45 -51 45 -157t-74 -318l-205 -592q-87 -254 -48 -311q15 -22 38 -21q66 0 198 143t307 413t259 452q83 182 111 236t58 54t44 -10t12 -25t-55 -108
q-98 -168 -189 -486t-91 -493q0 -100 47 -184q25 -45 80 -45l53 8q8 0 15 -8t7 -17q0 -35 -86 -35t-135 75t-49 196t26 247t97 371q-195 -315 -251 -394q-55 -80 -185 -228t-178 -185t-101 -37t-81 32q-28 30 -27 83q0 98 69 303l195 572q78 233 78 320z" />
    <glyph glyph-name="Uacute" unicode="&#xda;" horiz-adv-x="1830" 
d="M1454 1565q0 21 31 61l141 184q18 16 28 28t34 11q25 0 28 -16q3 -10 -28 -47l-164 -223q-10 -14 -30 -23q-40 -17 -40 25zM1133 1332q1 175 -201 175q-104 0 -246 -58q-141 -58 -266 -166t-202 -241t-77 -236q-1 -102 57 -160t152 -58q52 0 152 22t136 42t42 20t14 -7
t8 -16q0 -37 -118 -76t-242 -39q-125 0 -200 66q-74 66 -74 196t105 292q105 164 276 284q256 182 509 182q131 0 191 -73q45 -51 45 -157t-74 -318l-205 -592q-87 -254 -48 -311q15 -22 38 -21q66 0 198 143t307 413t259 452q83 182 111 236t58 54t44 -10t12 -25t-55 -108
q-98 -168 -189 -486t-91 -493q0 -100 47 -184q25 -45 80 -45l53 8q8 0 15 -8t7 -17q0 -35 -86 -35t-135 75t-49 196t26 247t97 371q-195 -315 -251 -394q-55 -80 -185 -228t-178 -185t-101 -37t-81 32q-28 30 -27 83q0 98 69 303l195 572q78 233 78 320z" />
    <glyph glyph-name="Ucircumflex" unicode="&#xdb;" horiz-adv-x="1830" 
d="M1339 1524q-6 0 -15 13t-9 27t28 35l234 152q27 18 45 18t30 -11t21 -44l53 -153q6 -15 6 -21t-16 -16q-13 -13 -26 -15q-11 0 -21 27l-49 133q-6 12 -14 12l-11 -2l-217 -135q-33 -20 -39 -20zM1133 1332q1 175 -201 175q-104 0 -246 -58q-141 -58 -266 -166t-202 -241
t-77 -236q-1 -102 57 -160t152 -58q52 0 152 22t136 42t42 20t14 -7t8 -16q0 -37 -118 -76t-242 -39q-125 0 -200 66q-74 66 -74 196t105 292q105 164 276 284q256 182 509 182q131 0 191 -73q45 -51 45 -157t-74 -318l-205 -592q-87 -254 -48 -311q15 -22 38 -21
q66 0 198 143t307 413t259 452q83 182 111 236t58 54t44 -10t12 -25t-55 -108q-98 -168 -189 -486t-91 -493q0 -100 47 -184q25 -45 80 -45l53 8q8 0 15 -8t7 -17q0 -35 -86 -35t-135 75t-49 196t26 247t97 371q-195 -315 -251 -394q-55 -80 -185 -228t-178 -185t-101 -37
t-81 32q-28 30 -27 83q0 98 69 303l195 572q78 233 78 320z" />
    <glyph glyph-name="Udieresis" unicode="&#xdc;" horiz-adv-x="1830" 
d="M1587 1618q-1 18 19 55t75 37t56 -57q0 -29 -27 -61q-28 -32 -52 -32t-48 21q-24 19 -23 37zM1479 1642q-1 -14 -21 -38t-34 -32q-14 -7 -36 -7q-22 -1 -39 23t-18 46v2l2 6q4 43 33 65q30 22 56 22q26 -1 44 -23t13 -51v-13zM1133 1332q1 175 -201 175q-104 0 -246 -58
q-141 -58 -266 -166t-202 -241t-77 -236q-1 -102 57 -160t152 -58q52 0 152 22t136 42t42 20t14 -7t8 -16q0 -37 -118 -76t-242 -39q-125 0 -200 66q-74 66 -74 196t105 292q105 164 276 284q256 182 509 182q131 0 191 -73q45 -51 45 -157t-74 -318l-205 -592
q-87 -254 -48 -311q15 -22 38 -21q66 0 198 143t307 413t259 452q83 182 111 236t58 54t44 -10t12 -25t-55 -108q-98 -168 -189 -486t-91 -493q0 -100 47 -184q25 -45 80 -45l53 8q8 0 15 -8t7 -17q0 -35 -86 -35t-135 75t-49 196t26 247t97 371q-195 -315 -251 -394
q-55 -80 -185 -228t-178 -185t-101 -37t-81 32q-28 30 -27 83q0 98 69 303l195 572q78 233 78 320z" />
    <glyph glyph-name="Yacute" unicode="&#xdd;" horiz-adv-x="1671" 
d="M1546 1503q-24 0 -24 26t28 64l142 185q20 20 28 30t34 10q53 -1 -1 -63l-164 -225q-19 -27 -43 -27zM1806 1200q49 0 49 -45q0 -23 -15 -59q-16 -36 -92 -201q-76 -164 -166 -412q-90 -249 -160 -507q-72 -258 -72 -318q0 -12 10 -37q12 -19 12 -35t-18 -29t-40 -13
t-37 14t-15 45t22 108q127 524 340 1065q-145 -232 -216 -334q-72 -102 -176 -221t-170 -167t-125 -48q-60 0 -92 35t-32 89t22 150t46 156l174 430q96 236 96 363t-83 181t-196 54q-293 0 -522 -241q-94 -96 -146 -204t-52 -188q0 -81 42 -147q104 -164 353 -164
q96 0 198 29q16 4 21 4q27 0 27 -21q0 -31 -69 -50t-177 -19q-308 0 -431 192q-48 76 -48 154q0 225 225 455q248 254 573 254q86 0 165 -30t122 -77q59 -71 59 -191t-100 -374l-164 -412q-61 -150 -61 -274q0 -90 53 -90q106 0 351 314t435 728q27 56 41 72t39 16z" />
    <glyph glyph-name="Thorn" unicode="&#xde;" horiz-adv-x="1523" 
d="M1165 1102q0 -266 -131 -567q-59 -135 -219 -338q203 23 325 69t251 148q242 193 241 397q0 145 -128 243t-341 113q2 -29 2 -65zM330 -16q-246 0 -373 159q-74 90 -74 176q-1 25 11 43t28 19q31 0 41 -78q19 -113 125 -187t248 -75q207 0 377 153q169 152 279 412
t110 504q0 150 -66 232t-180 83q-344 0 -649 -295q-174 -168 -174 -321q0 -94 71 -156q147 -125 431 -125q80 0 128 8t64 9q39 0 39 -33q0 -25 -41 -33t-166 -8q-272 0 -443 91t-171 235q0 186 215 385q156 143 338 220t362 77q84 0 152 -35t100 -96q29 -47 45 -131
q219 -20 346 -101q199 -121 199 -303q0 -127 -86 -257t-240 -232q-114 -78 -270 -129t-275 -52q-14 1 -63 7q-192 -166 -438 -166z" />
    <glyph glyph-name="germandbls" unicode="&#xdf;" horiz-adv-x="847" 
d="M-20 -430q-49 0 -50 51q0 74 47 227l351 1151q41 135 133 217q91 82 189 82t155 -61t57 -187t-44 -221q-44 -94 -154 -217q23 -127 22 -190q0 -152 -82 -270q-88 -130 -223 -130q-80 0 -120 16t-132 73l-96 -394q-6 -20 -6 -36l12 -64q-1 -19 -19 -33t-40 -14zM625 444
q0 70 -4 134q-59 -43 -101 -43q-42 -1 -76 33t-34 76t24 68q25 26 64 25q61 0 135 -84q88 109 125 195t37 180t-43 143t-116 49q-74 0 -138 -64q-64 -65 -97 -169l-245 -797q102 -61 135 -74t76 -14q115 0 187 96t71 246zM473 598q23 -16 54 -16t67 41q-49 72 -100 71
q-20 0 -34 -18q-34 -42 13 -78z" />
    <glyph glyph-name="agrave" unicode="&#xe0;" horiz-adv-x="634" 
d="M94 166q0 -57 20 -94t48 -35q94 6 256 229q78 107 82 140l2 24q55 62 55 155t-74 107q-47 8 -136 -68t-171 -205q-82 -128 -82 -253zM492 754q63 0 100 -54t37 -145q0 -39 -11 -59l-4 -15l4 -26v-21l-90 -223q-16 -39 -16 -119q0 -37 20 -37q12 1 33 17t31 16
q18 0 18 -22t-34 -42q-34 -22 -74 -22q-55 0 -55 82q0 31 2 45l10 94q-180 -242 -318 -241q-53 0 -83 46t-29 126q0 180 166 390t293 210zM559 1030q29 -35 29 -64t-17 -24q-29 4 -35 6t-18 19l-164 225q-29 35 -28 43q0 25 28 21q29 -4 37 -14q7 -9 27 -25z" />
    <glyph glyph-name="aacute" unicode="&#xe1;" horiz-adv-x="634" 
d="M94 166q0 -57 20 -94t48 -35q94 6 256 229q78 107 82 140l2 24q55 62 55 155t-74 107q-47 8 -136 -68t-171 -205q-82 -128 -82 -253zM492 754q63 0 100 -54t37 -145q0 -39 -11 -59l-4 -15l4 -26v-21l-90 -223q-16 -39 -16 -119q0 -37 20 -37q12 1 33 17t31 16
q18 0 18 -22t-34 -42q-34 -22 -74 -22q-55 0 -55 82q0 31 2 45l10 94q-180 -242 -318 -241q-53 0 -83 46t-29 126q0 180 166 390t293 210zM514 938q-26 0 -26 26t28 64l141 184l25 25q10 14 36 14t29 -13t-28 -50l-164 -223q-15 -27 -41 -27z" />
    <glyph glyph-name="acircumflex" unicode="&#xe2;" horiz-adv-x="634" 
d="M94 166q0 -57 20 -94t48 -35q94 6 256 229q78 107 82 140l2 24q55 62 55 155t-74 107q-47 8 -136 -68t-171 -205q-82 -128 -82 -253zM492 754q63 0 100 -54t37 -145q0 -39 -11 -59l-4 -15l4 -26v-21l-90 -223q-16 -39 -16 -119q0 -37 20 -37q12 1 33 17t31 16
q18 0 18 -22t-34 -42q-34 -22 -74 -22q-55 0 -55 82q0 31 2 45l10 94q-180 -242 -318 -241q-53 0 -83 46t-29 126q0 180 166 390t293 210zM364 938q-6 0 -16 12q-8 12 -8 28t29 34l233 153q27 18 43 19q35 0 53 -56l54 -153l6 -19q0 -8 -19 -20q-12 -12 -24 -12
q-11 -1 -21 26l-51 131q-6 20 -25 11l-215 -134q-33 -20 -39 -20z" />
    <glyph glyph-name="atilde" unicode="&#xe3;" horiz-adv-x="634" 
d="M94 166q0 -57 20 -94t48 -35q94 6 256 229q78 107 82 140l2 24q55 62 55 155t-74 107q-47 8 -136 -68t-171 -205q-82 -128 -82 -253zM492 754q63 0 100 -54t37 -145q0 -39 -11 -59l-4 -15l4 -26v-21l-90 -223q-16 -39 -16 -119q0 -37 20 -37q12 1 33 17t31 16
q18 0 18 -22t-34 -42q-34 -22 -74 -22q-55 0 -55 82q0 31 2 45l10 94q-180 -242 -318 -241q-53 0 -83 46t-29 126q0 180 166 390t293 210zM745 995q0 -8 -49 -37q-49 -28 -101 -28t-92 22t-63 25h-12q-39 0 -68 -21q-29 -20 -42 -20t-22 10t-9 23q0 20 53 51q29 20 74 20
t96 -22t87 -21q35 -1 69 21t46 22t23 -13q12 -13 10 -23v-9z" />
    <glyph glyph-name="adieresis" unicode="&#xe4;" horiz-adv-x="634" 
d="M94 166q0 -57 20 -94t48 -35q94 6 256 229q78 107 82 140l2 24q55 62 55 155t-74 107q-47 8 -136 -68t-171 -205q-82 -128 -82 -253zM492 754q63 0 100 -54t37 -145q0 -39 -11 -59l-4 -15l4 -26v-21l-90 -223q-16 -39 -16 -119q0 -37 20 -37q12 1 33 17t31 16
q18 0 18 -22t-34 -42q-34 -22 -74 -22q-55 0 -55 82q0 31 2 45l10 94q-180 -242 -318 -241q-53 0 -83 46t-29 126q0 180 166 390t293 210zM559 984q0 16 8 36l4 4l7 14q22 41 68 41t56 -28q2 -5 9 -31l-4 -12q-5 -33 -31 -57q-44 -42 -94 -2q-24 19 -23 35zM398 1096
q34 0 44 -29l9 -27q2 -18 3 -26q2 -8 -16 -33q-34 -49 -84 -49q-12 0 -28 16t-21 51v5q-2 8 6 30t30 42q23 20 57 20z" />
    <glyph glyph-name="aring" unicode="&#xe5;" horiz-adv-x="634" 
d="M94 166q0 -57 20 -94t48 -35q94 6 256 229q78 107 82 140l2 24q55 62 55 155t-74 107q-47 8 -136 -68t-171 -205q-82 -128 -82 -253zM492 754q63 0 100 -54t37 -145q0 -39 -11 -59l-4 -15l4 -26v-21l-90 -223q-16 -39 -16 -119q0 -37 20 -37q12 1 33 17t31 16
q18 0 18 -22t-34 -42q-34 -22 -74 -22q-55 0 -55 82q0 31 2 45l10 94q-180 -242 -318 -241q-53 0 -83 46t-29 126q0 180 166 390t293 210zM582 1161q-43 0 -74 -33q-31 -32 -31 -86t49 -54t84 31q35 32 35 73q0 69 -63 69zM414 1054q0 60 53 112t115 53q62 0 94 -32
q33 -33 33 -91q-1 -58 -53 -112t-112 -54t-95 32t-35 92z" />
    <glyph glyph-name="ae" unicode="&#xe6;" horiz-adv-x="1017" 
d="M836 676q-60 0 -162 -160q-35 -56 -37 -76t15 -32t44 -13q57 0 121 77q63 77 64 146q-1 26 -13 42t-32 16zM117 166q0 -57 19 -94t48 -35q94 6 256 229q78 107 82 140l2 24q54 60 55 154t-73 108q-47 8 -136 -68t-171 -205q-82 -128 -82 -253zM688 338q-35 0 -82 12
q-33 -92 -33 -153t41 -99t111 -37q119 0 176 95q12 20 25 20q23 0 22 -22q0 -47 -69 -103q-72 -55 -164 -55t-148 51q-55 51 -55 139q0 39 8 86q-205 -291 -352 -290q-53 0 -83 46t-30 126q0 180 168 391q162 209 289 209q59 0 97 -46t40 -122q106 160 219 159q33 1 58 -25
q51 -52 -5 -191q-30 -71 -75 -117q-72 -74 -158 -74z" />
    <glyph glyph-name="ccedilla" unicode="&#xe7;" horiz-adv-x="677" 
d="M692 532q0 -9 -39 -75q-19 -29 -41 -29t-34 9t-12 19t11 37q13 27 13 69t-32 84t-77 42t-127 -61t-134 -132t-82 -150t-30 -145t50 -106q49 -41 136 -41t169 47q39 20 57 36t74 83q32 36 56 9q9 -9 9 -23q0 -31 -71 -92q-143 -121 -318 -121q-106 0 -168 59
q-61 59 -61 162q0 172 145 350q68 84 157 140q89 57 141 57q101 1 155 -80q21 -28 37 -96l10 -27q6 -16 6 -25zM124 -379q-30 0 -30 25q0 6 12 16l17 21q6 12 22 32l131 150q36 47 46 47t32 -12t25 -21l-27 -33l-192 -215q-6 -10 -36 -10z" />
    <glyph glyph-name="egrave" unicode="&#xe8;" horiz-adv-x="491" 
d="M403 612q0 64 -42 64q-41 0 -121 -96t-80 -148q0 -14 18 -25t41 -12q57 0 121 76q63 77 63 141zM98 188q0 -54 41 -90t111 -37q117 0 174 95q12 20 27 20q23 0 22 -22q0 -46 -72 -102q-73 -56 -163 -56t-146 51q-55 51 -55 143t48 222t120 217q92 117 188 116
q33 1 57 -25t23 -61q0 -121 -81 -221t-179 -100q-37 0 -82 12q-33 -108 -33 -162zM473 1030q29 -35 29 -64t-17 -24q-27 4 -33 6t-20 19l-164 225q-28 37 -28 45t9 14t29 3t28 -12t26 -25z" />
    <glyph glyph-name="eacute" unicode="&#xe9;" horiz-adv-x="491" 
d="M403 612q0 64 -42 64q-41 0 -121 -96t-80 -148q0 -14 18 -25t41 -12q57 0 121 76q63 77 63 141zM98 188q0 -54 41 -90t111 -37q117 0 174 95q12 20 27 20q23 0 22 -22q0 -46 -72 -102q-73 -56 -163 -56t-146 51q-55 51 -55 143t48 222t120 217q92 117 188 116
q33 1 57 -25t23 -61q0 -121 -81 -221t-179 -100q-37 0 -82 12q-33 -108 -33 -162zM430 938q-26 0 -27 23q0 29 29 67l141 184q21 16 29 28t36 11q28 0 28 -20q0 -6 -29 -43l-164 -223q-17 -27 -43 -27z" />
    <glyph glyph-name="ecircumflex" unicode="&#xea;" horiz-adv-x="491" 
d="M403 612q0 64 -42 64q-41 0 -121 -96t-80 -148q0 -14 18 -25t41 -12q57 0 121 76q63 77 63 141zM98 188q0 -54 41 -90t111 -37q117 0 174 95q12 20 27 20q23 0 22 -22q0 -46 -72 -102q-73 -56 -163 -56t-146 51q-55 51 -55 143t48 222t120 217q92 117 188 116
q33 1 57 -25t23 -61q0 -121 -81 -221t-179 -100q-37 0 -82 12q-33 -108 -33 -162zM278 938q-8 0 -14 12q-8 12 -8 28t29 34l233 153q27 18 43 19q33 0 51 -56l56 -153l6 -19q0 -10 -23 -22q-12 -10 -20 -10q-13 -1 -23 26l-49 131q-6 15 -11 15t-13 -4l-216 -134
q-33 -20 -41 -20z" />
    <glyph glyph-name="edieresis" unicode="&#xeb;" horiz-adv-x="491" 
d="M403 612q0 64 -42 64q-41 0 -121 -96t-80 -148q0 -14 18 -25t41 -12q57 0 121 76q63 77 63 141zM98 188q0 -54 41 -90t111 -37q117 0 174 95q12 20 27 20q23 0 22 -22q0 -46 -72 -102q-73 -56 -163 -56t-146 51q-55 51 -55 143t48 222t120 217q92 117 188 116
q33 1 57 -25t23 -61q0 -121 -81 -221t-179 -100q-37 0 -82 12q-33 -108 -33 -162zM544 930q-24 0 -48 19t-23 37q0 18 21 56q22 37 62 37t48 -10t19 -49q0 -6 -9 -31t-28 -42q-18 -17 -42 -17zM307 1096q57 0 58 -78q0 -31 -32 -59q-60 -53 -100 -3q-18 25 -16 43v5
q-6 35 27 63q33 29 63 29z" />
    <glyph glyph-name="igrave" unicode="&#xec;" horiz-adv-x="311" 
d="M135 126q1 -34 15 -52t28 -18t41 12q6 0 12 -8q19 -24 -10 -42t-63 -18t-60 32q-27 32 -27 87t23 123l99 295q16 51 32 71t41 21q31 0 31 -34t-31 -81l-8 -14l-98 -269q-25 -71 -25 -105zM92 1053q0 20 34 20t34 -14l24 -25l142 -184q28 -39 28 -65t-20 -25q-29 0 -49 26
l-164 224q-29 37 -29 43z" />
    <glyph glyph-name="iacute" unicode="&#xed;" horiz-adv-x="311" 
d="M135 126q1 -34 15 -52t28 -18t41 12q6 0 12 -8q19 -24 -10 -42t-63 -18t-60 32q-27 32 -27 87t23 123l99 295q16 51 32 71t41 21q31 0 31 -34t-31 -81l-8 -14l-98 -269q-25 -71 -25 -105zM293 751q0 26 29 62l141 186q18 17 26 27t36 13t28 -17q2 -12 -29 -47l-164 -225
q-10 -16 -17 -20t-36 -5q-14 0 -14 26z" />
    <glyph glyph-name="icircumflex" unicode="&#xee;" horiz-adv-x="311" 
d="M135 126q1 -34 15 -52t28 -18t41 12q6 0 12 -8q19 -24 -10 -42t-63 -18t-60 32q-27 32 -27 87t23 123l99 295q16 51 32 71t41 21q31 0 31 -34t-31 -81l-8 -14l-98 -269q-25 -71 -25 -105zM451 942q-4 0 -13 -4l-215 -133q-35 -23 -41 -23t-14 12t-8 29q0 16 28 35
l234 154q27 18 41 18q35 0 53 -55l55 -156l7 -16q0 -6 -19 -21l-4 -2q-13 -10 -23 -10t-20 27l-49 131q-8 14 -12 14z" />
    <glyph glyph-name="idieresis" unicode="&#xef;" horiz-adv-x="311" 
d="M135 126q1 -34 15 -52t28 -18t41 12q6 0 12 -8q19 -24 -10 -42t-63 -18t-60 32q-27 32 -27 87t23 123l99 295q16 51 32 71t41 21q31 0 31 -34t-31 -81l-8 -14l-98 -269q-25 -71 -25 -105zM446 741q-24 1 -48 21t-24 38t20 54q20 37 63 37t51 -9t16 -48q0 -29 -26 -61
q-28 -32 -52 -32zM299 831q0 -43 -49 -73q-16 -12 -40 -12t-43 23q-17 24 -15 44v4q-4 35 26 63t64 27q57 0 57 -76z" />
    <glyph glyph-name="eth" unicode="&#xf0;" horiz-adv-x="653" 
d="M449 694q-98 0 -248 -192q-115 -145 -115 -273q0 -88 45 -139t123 -51q127 0 244 141t127 305q4 73 -53 141t-123 68zM829 905q0 -94 -52 -267t-126 -324q-73 -150 -185 -236t-220 -86t-165 58q-56 58 -56 155q0 176 161 383q140 172 264 172t228 -201q84 213 84 307
q0 6 -4 56l-166 -62q-16 -8 -34 -8t-22 6q-5 6 -8 27q0 20 41 35l179 67q-10 72 -72 154t-146 131q-14 8 -14 24t13 26t34 11q55 0 139 -105t115 -214l152 57q18 6 35 6q29 0 28 -30q0 -19 -41 -37l-166 -62q4 -16 4 -43z" />
    <glyph glyph-name="ntilde" unicode="&#xf1;" horiz-adv-x="622" 
d="M496 -23q18 0 57 37q29 23 38 23t16 -7t7 -16q0 -24 -48 -60t-84 -36t-60 41t-25 109q0 68 31 172q96 289 96 304t-4 15q-18 8 -80 -78l-268 -358q-14 -14 -29 -49q-23 -41 -35 -55q-12 -13 -30 -13t-32 13q-13 13 -13 34t37 121l151 401q6 18 19 52l2 30q6 74 63 74
q15 0 29 -10q14 -11 14 -23t-29 -86l-176 -411l265 331q94 117 147 117q17 0 31 -15t14 -49q0 -33 -52 -177q-93 -257 -93 -344q1 -87 41 -87zM434 977q-36 0 -66 -21t-49 -20q-27 0 -26 33q0 10 6 16q55 55 131 55q35 0 87 -22t87 -21q35 -1 70 21t45 22t21 -13
q28 -33 -17 -58q-18 -6 -42 -23q-24 -16 -79 -16t-94 22t-62 25h-12z" />
    <glyph glyph-name="ograve" unicode="&#xf2;" horiz-adv-x="653" 
d="M627 543q0 45 -62 98t-119 57q-104 4 -231 -164t-127 -313q0 -80 43 -123t125 -43q158 0 283 164q33 41 62 112q30 71 30 103l-13 68l5 20q4 16 4 21zM725 475q0 -8 -17 -23q-18 -14 -26 -60t-44 -119q-81 -164 -225 -237q-87 -44 -179 -44t-151 51q-58 51 -58 140
t44 203t109 206q133 176 268 176q58 0 120 -38t92 -98t36 -95l8 -31l19 -19q4 -4 4 -12zM524 1030q29 -37 29 -65t-14 -23q-29 4 -36 6t-18 19l-163 225q-31 37 -29 47q4 20 31 16q28 -4 30 -7t4 -7q7 -8 25 -24z" />
    <glyph glyph-name="oacute" unicode="&#xf3;" horiz-adv-x="653" 
d="M627 543q0 45 -62 98t-119 57q-104 4 -231 -164t-127 -313q0 -80 43 -123t125 -43q158 0 283 164q33 41 62 112q30 71 30 103l-13 68l5 20q4 16 4 21zM725 475q0 -8 -17 -23q-18 -14 -26 -60t-44 -119q-81 -164 -225 -237q-87 -44 -179 -44t-151 51q-58 51 -58 140
t44 203t109 206q133 176 268 176q58 0 120 -38t92 -98t36 -95l8 -31l19 -19q4 -4 4 -12zM474 938q-26 0 -25 26q0 26 28 64l141 184l25 25q10 14 38 14t28 -14q2 -12 -29 -49l-164 -223q-16 -27 -42 -27z" />
    <glyph glyph-name="ocircumflex" unicode="&#xf4;" horiz-adv-x="653" 
d="M627 543q0 45 -62 98t-119 57q-104 4 -231 -164t-127 -313q0 -80 43 -123t125 -43q158 0 283 164q33 41 62 112q30 71 30 103l-13 68l5 20q4 16 4 21zM725 475q0 -8 -17 -23q-18 -14 -26 -60t-44 -119q-81 -164 -225 -237q-87 -44 -179 -44t-151 51q-58 51 -58 140
t44 203t109 206q133 176 268 176q58 0 120 -38t92 -98t36 -95l8 -31l19 -19q4 -4 4 -12zM354 938q-8 0 -15 12t-7 28t28 34l234 153q27 18 43 19q33 0 51 -56l62 -172q0 -10 -23 -22q-12 -10 -20 -10q-13 -1 -23 26l-49 131q-8 15 -12 15t-13 -4l-215 -134q-33 -20 -41 -20z
" />
    <glyph glyph-name="otilde" unicode="&#xf5;" horiz-adv-x="653" 
d="M627 543q0 45 -62 98t-119 57q-104 4 -231 -164t-127 -313q0 -80 43 -123t125 -43q158 0 283 164q33 41 62 112q30 71 30 103l-13 68l5 20q4 16 4 21zM725 475q0 -8 -17 -23q-18 -14 -26 -60t-44 -119q-81 -164 -225 -237q-87 -44 -179 -44t-151 51q-58 51 -58 140
t44 203t109 206q133 176 268 176q58 0 120 -38t92 -98t36 -95l8 -31l19 -19q4 -4 4 -12zM426 977q-37 0 -69 -21t-46 -20q-27 0 -26 33q0 10 6 16q55 55 131 55q33 0 86 -22t88 -21q35 -1 70 21t44 22t21 -14t12 -28t-22 -24q-22 -11 -47 -28q-25 -16 -80 -16t-93 22t-63 25
h-12z" />
    <glyph glyph-name="odieresis" unicode="&#xf6;" horiz-adv-x="653" 
d="M627 543q0 45 -62 98t-119 57q-104 4 -231 -164t-127 -313q0 -80 43 -123t125 -43q158 0 283 164q33 41 62 112q30 71 30 103l-13 68l5 20q4 16 4 21zM725 475q0 -8 -17 -23q-18 -14 -26 -60t-44 -119q-81 -164 -225 -237q-87 -44 -179 -44t-151 51q-58 51 -58 140
t44 203t109 206q133 176 268 176q58 0 120 -38t92 -98t36 -95l8 -31l19 -19q4 -4 4 -12zM573 986q0 18 20 56q20 37 66 37t58 -28q0 -7 6 -31q-7 -44 -35 -69q-44 -43 -92 -2q-22 19 -23 37zM410 1096q33 0 47 -29q6 -25 8 -44t-14 -42q-34 -49 -84 -49q-16 0 -35 26t-15 41
v5q-3 10 7 32t18 29q35 31 68 31z" />
    <glyph glyph-name="divide" unicode="&#xf7;" horiz-adv-x="839" 
d="M557 780q0 -26 -30 -52q-31 -26 -63 -26t-56 20t-25 40q0 20 18 38t43 23l54 13h6q53 -5 53 -56zM375 455q90 0 86 -52q-2 -33 -29 -53q-28 -20 -60 -23t-57 19t-25 48t26 44q24 18 59 17zM233 625h443q4 6 63 -11q11 -2 21 -18t10 -30t-10 -22q-10 -9 -20 -9t-32 8
q-20 8 -73 8h-387l-66 -4q-43 0 -79 20q-59 33 -24 71q11 11 23 11t58 -12t73 -12z" />
    <glyph glyph-name="oslash" unicode="&#xf8;" horiz-adv-x="669" 
d="M256 55q160 0 283 164q33 41 62 112q30 71 30 103l-13 68l9 41q0 28 -37 73l-445 -530q47 -31 111 -31zM86 215q0 -35 12 -72l428 529q-45 26 -92 26t-117 -55t-131 -154q-100 -162 -100 -274zM451 768q59 0 118 -43q80 86 96 105q15 20 25 52t20 42t30 10t37 -11t18 -28
q0 -39 -115 -172l-45 -53q29 -49 59 -133l8 -31l19 -19q4 -4 4 -12t-17 -23q-18 -14 -26 -60t-44 -119q-83 -169 -229 -239q-87 -42 -167 -42t-144 39l-49 -58q-31 -49 -43 -84q-16 -49 -55 -49q-13 0 -29 12t-16 24q0 13 26 48l121 150q-27 43 -26 116q0 193 153 400
q129 178 271 178z" />
    <glyph glyph-name="ugrave" unicode="&#xf9;" horiz-adv-x="585" 
d="M311 1237q-1 8 9 14t30 3t27 -12q8 -9 26 -25l142 -187q43 -52 23 -83q-8 -12 -46 1q-6 2 -18 19l-164 225q-29 37 -29 45zM119 -18q-72 0 -72 85t51 218l115 299q57 152 117 151q33 0 32 -35q0 -23 -15 -43t-71 -100l-126 -291q-39 -90 -39 -178q0 -20 9 -34t21 -15
q59 0 195 190q27 37 71 118t56 114l43 100q20 49 53 49q13 0 23 -9t10 -24t-29 -66t-65 -162t-37 -220q0 -76 43 -76q14 0 33 12t28 1q8 -11 8 -23t-27 -28q-28 -15 -64 -15t-60 32t-23 60q0 28 4 90l3 49l-17 -18l-47 -63q-54 -78 -114 -123t-109 -45z" />
    <glyph glyph-name="uacute" unicode="&#xfa;" horiz-adv-x="585" 
d="M510 938q-24 0 -24 26t28 64l141 184l25 25q10 14 39 14t29 -20q0 -6 -29 -43l-164 -223q-21 -27 -45 -27zM119 -18q-72 0 -72 85t51 218l115 299q57 152 117 151q33 0 32 -35q0 -23 -15 -43t-71 -100l-126 -291q-39 -90 -39 -178q0 -20 9 -34t21 -15q59 0 195 190
q27 37 71 118t56 114l43 100q20 49 53 49q13 0 23 -9t10 -24t-29 -66t-65 -162t-37 -220q0 -76 43 -76q14 0 33 12t28 1q8 -11 8 -23t-27 -28q-28 -15 -64 -15t-60 32t-23 60q0 28 4 90l3 49l-17 -18l-47 -63q-54 -78 -114 -123t-109 -45z" />
    <glyph glyph-name="ucircumflex" unicode="&#xfb;" horiz-adv-x="585" 
d="M345 938q-7 0 -15 12t-8 28t28 34l234 153q29 18 43 19q35 0 53 -56l53 -153l6 -19q0 -8 -18 -20q-29 -29 -45 14l-51 131q-6 21 -25 11l-215 -134q-33 -20 -40 -20zM119 -18q-72 0 -72 85t51 218l115 299q57 152 117 151q33 0 32 -35q0 -23 -15 -43t-71 -100l-126 -291
q-39 -90 -39 -178q0 -20 9 -34t21 -15q59 0 195 190q27 37 71 118t56 114l43 100q20 49 53 49q13 0 23 -9t10 -24t-29 -66t-65 -162t-37 -220q0 -76 43 -76q14 0 33 12t28 1q8 -11 8 -23t-27 -28q-28 -15 -64 -15t-60 32t-23 60q0 28 4 90l3 49l-17 -18l-47 -63
q-54 -78 -114 -123t-109 -45z" />
    <glyph glyph-name="udieresis" unicode="&#xfc;" horiz-adv-x="585" 
d="M563 986q0 18 20 56q19 37 65 37t59 -28q0 -7 6 -31q-7 -44 -35 -69q-44 -43 -92 -2q-22 19 -23 37zM400 1096q32 0 46 -29q6 -25 8 -44t-14 -42q-35 -49 -84 -49q-16 0 -34 26t-15 41v5q-2 10 7 32t31 40q23 20 55 20zM119 -18q-72 0 -72 85t51 218l115 299
q57 152 117 151q33 0 32 -35q0 -23 -15 -43t-71 -100l-126 -291q-39 -90 -39 -178q0 -20 9 -34t21 -15q59 0 195 190q27 37 71 118t56 114l43 100q20 49 53 49q13 0 23 -9t10 -24t-29 -66t-65 -162t-37 -220q0 -76 43 -76q14 0 33 12t28 1q8 -11 8 -23t-27 -28
q-28 -15 -64 -15t-60 32t-23 60q0 28 4 90l3 49l-17 -18l-47 -63q-54 -78 -114 -123t-109 -45z" />
    <glyph glyph-name="yacute" unicode="&#xfd;" horiz-adv-x="557" 
d="M464 938q-26 0 -28 23q0 29 29 67l141 184q20 18 28 28t37 11q28 0 27 -20q1 -6 -28 -43l-164 -223q-16 -27 -42 -27zM84 135q0 -82 39 -82q57 1 191 157t169 306q23 86 70 86q15 0 25 -9t10 -23t-16 -52q-16 -39 -40 -100q-29 -117 -86 -346q-47 -210 -88 -312
t-106 -174q-94 -100 -195 -100q-135 0 -178 203q-23 105 -11 167t50 62q39 0 39 -41q0 -29 -20 -47t-21 -41q0 -100 34 -176t118 -76q57 0 115 47t104 133q80 147 151 590q-207 -305 -336 -305q-32 0 -54 28t-21 72q0 106 52 252q51 146 123 256q72 111 111 111q31 0 31 -35
q0 -25 -33 -61l-10 -13q-34 -15 -43 -30l-18 -25q-66 -94 -111 -217t-45 -205z" />
    <glyph glyph-name="thorn" unicode="&#xfe;" horiz-adv-x="700" 
d="M376 51q54 1 124 59q138 117 139 377q0 91 -27 147t-71 56q-111 0 -199 -92q-58 -57 -106 -145t-109 -258q27 -23 68 -59t84 -60t97 -25zM-106 -483q-48 0 -48 37q0 68 70 266l481 1366q27 78 68 78q10 0 22 -10q13 -10 13 -26t-24 -48t-42 -80l-196 -551q66 92 150 144
t158 52q150 0 150 -235q0 -158 -61 -301q-39 -91 -119 -151t-150 -60t-126 28q-54 28 -140 101l-151 -424q-18 -49 -19 -82l11 -61q1 -43 -47 -43z" />
    <glyph glyph-name="ydieresis" unicode="&#xff;" horiz-adv-x="557" 
d="M636 1079q48 0 58 -41q0 -2 4 -18l-4 -12q-5 -33 -29 -56q-23 -22 -47 -22t-48 19t-24 35t19 54q23 41 71 41zM293 999l-2 2q0 2 2 3v6q0 34 28 60q27 26 63 26t45 -25t9 -31l2 -22q2 -12 -15 -37q-33 -49 -77 -49t-55 67zM84 135q0 -82 39 -82q57 1 191 157t169 306
q23 86 70 86q15 0 25 -9t10 -23t-16 -52q-16 -39 -40 -100q-29 -117 -86 -346q-47 -210 -88 -312t-106 -174q-94 -100 -195 -100q-135 0 -178 203q-23 105 -11 167t50 62q39 0 39 -41q0 -29 -20 -47t-21 -41q0 -100 34 -176t118 -76q57 0 115 47t104 133q80 147 151 590
q-207 -305 -336 -305q-32 0 -54 28t-21 72q0 106 52 252q51 146 123 256q72 111 111 111q31 0 31 -35q0 -25 -33 -61l-10 -13q-34 -15 -43 -30l-18 -25q-66 -94 -111 -217t-45 -205z" />
    <glyph glyph-name="Amacron" unicode="&#x100;" horiz-adv-x="1208" 
d="M821 1819h441q4 4 65 -11q9 -2 19 -18t10 -30t-9 -22q-9 -9 -21 -9t-32 8q-21 8 -71 8h-389l-64 -4q-43 0 -80 20q-37 21 -37 39q1 18 13 30t25 13q13 0 59 -12t71 -12zM1104 63l65 21q15 0 15 -22t-36 -40t-82 -20q-46 0 -78 59t-32 199t66 391q-27 -41 -45 -69
q-166 -253 -381 -439q-180 -162 -330 -161q-88 0 -140 76t-52 210q0 289 148 615q148 325 368 543t418 219q126 -1 194 -107t68 -282t-22 -267q-22 -90 -58 -90h-4q-25 0 -25 23q0 12 6 30q35 127 35 286t-58 253t-162 94t-238 -92q-134 -93 -274 -273t-240 -451
q-101 -271 -101 -480q0 -111 44 -177t124 -67q80 0 164 51t203 172q197 198 304 394q106 196 126 214t43 19q50 0 -2 -119q-113 -242 -113 -545q0 -71 24 -119t58 -49z" />
    <glyph glyph-name="amacron" unicode="&#x101;" horiz-adv-x="634" 
d="M94 166q0 -57 20 -94t48 -35q94 6 256 229q78 107 82 140l2 24q55 62 55 155t-74 107q-47 8 -136 -68t-171 -205q-82 -128 -82 -253zM492 754q63 0 100 -54t37 -145q0 -39 -11 -59l-4 -15l4 -26v-21l-90 -223q-16 -39 -16 -119q0 -37 20 -37q12 1 33 17t31 16
q18 0 18 -22t-34 -42q-34 -22 -74 -22q-55 0 -55 82q0 31 2 45l10 94q-180 -242 -318 -241q-53 0 -83 46t-29 126q0 180 166 390t293 210zM319 1010h443q4 6 65 -11q9 -2 19 -20q10 -17 10 -29t-10 -21t-20 -9t-30 8q-22 8 -75 8h-387l-66 -4q-45 0 -80 19q-34 19 -34 39
t11 32t23 12t58 -12t73 -12z" />
    <glyph glyph-name="Abreve" unicode="&#x102;" horiz-adv-x="1208" 
d="M868 1923q14 -1 22 -23t56 -85q18 -25 55 -25t68 17t119 85q27 18 33 18t15 -12q9 -14 9 -26q2 -27 -104 -83q-105 -56 -161 -56t-118 92q-35 53 -34 66t18 22q18 10 22 10zM1104 63l65 21q15 0 15 -22t-36 -40t-82 -20q-46 0 -78 59t-32 199t66 391q-27 -41 -45 -69
q-166 -253 -381 -439q-180 -162 -330 -161q-88 0 -140 76t-52 210q0 289 148 615q148 325 368 543t418 219q126 -1 194 -107t68 -282t-22 -267q-22 -90 -58 -90h-4q-25 0 -25 23q0 12 6 30q35 127 35 286t-58 253t-162 94t-238 -92q-134 -93 -274 -273t-240 -451
q-101 -271 -101 -480q0 -111 44 -177t124 -67q80 0 164 51t203 172q197 198 304 394q106 196 126 214t43 19q50 0 -2 -119q-113 -242 -113 -545q0 -71 24 -119t58 -49z" />
    <glyph glyph-name="abreve" unicode="&#x103;" horiz-adv-x="634" 
d="M94 166q0 -57 20 -94t48 -35q94 6 256 229q78 107 82 140l2 24q55 62 55 155t-74 107q-47 8 -136 -68t-171 -205q-82 -128 -82 -253zM492 754q63 0 100 -54t37 -145q0 -39 -11 -59l-4 -15l4 -26v-21l-90 -223q-16 -39 -16 -119q0 -37 20 -37q12 1 33 17t31 16
q18 0 18 -22t-34 -42q-34 -22 -74 -22q-55 0 -55 82q0 31 2 45l10 94q-180 -242 -318 -241q-53 0 -83 46t-29 126q0 180 166 390t293 210zM382 1128q12 0 21 -26l46 -68q25 -37 65 -37t104 39q12 6 58 43t54 37t18 -13t10 -26q0 -29 -106 -84t-160 -55q-55 0 -117 92
q-35 56 -35 66t18 20q12 12 24 12z" />
    <glyph glyph-name="Aogonek" unicode="&#x104;" horiz-adv-x="1208" 
d="M1104 63l65 21q15 0 15 -20t-31 -39q-111 -66 -131 -88q-23 -33 -23 -58q0 -53 101 -53q35 0 35 -37q0 -15 -26 -27q-25 -12 -69 -12t-83 40q-37 40 -37 104t96 129q-60 55 -60 219t66 409q-168 -261 -379 -465t-377 -204q-88 0 -140 76t-52 208q0 219 90 468
q185 512 530 778q170 132 320 133q124 0 190 -109t66 -283t-22 -264t-58 -90h-4q-25 0 -25 23q0 12 6 30q35 127 35 285t-58 253t-162 95t-237 -91q-133 -92 -273 -274t-242 -452q-101 -270 -101 -481q0 -109 45 -175t123 -67q78 0 163 51t204 172q197 198 304 394t128 214
t41 19q50 0 -2 -119q-113 -246 -113 -545q0 -71 24 -119t58 -49z" />
    <glyph glyph-name="aogonek" unicode="&#x105;" horiz-adv-x="634" 
d="M94 166q0 -57 20 -94t48 -35q94 6 256 229q78 107 82 140l2 24q55 62 55 155t-74 107q-47 8 -136 -68t-171 -205q-82 -128 -82 -253zM492 754q63 0 100 -54t37 -145q0 -39 -11 -59l-4 -15l4 -26v-21l-90 -223q-16 -39 -16 -97t17 -57q17 -1 47 21t34 22t10 -7t7 -15
q0 -25 -41 -51q-127 -95 -127 -151t100 -56q35 0 35 -37q0 -15 -26 -27t-70 -12t-81 40q-38 40 -38 104t92 124q-20 23 -20 63t2 54l10 94q-180 -242 -318 -241q-53 0 -83 46t-29 126q0 180 166 390t293 210z" />
    <glyph glyph-name="Cacute" unicode="&#x106;" horiz-adv-x="1167" 
d="M776 1749q-20 0 -20 28t28 62l142 184l24 25q12 14 40 14t28 -20q0 -6 -29 -41l-164 -225q-23 -27 -49 -27zM137 412q1 -357 365 -357q142 0 272 80q80 49 183 133t143 134t68 49q30 0 30 -27q0 -20 -41 -59t-168 -141t-195 -143q-144 -85 -327 -83q-399 0 -399 414
q0 369 321 809q121 164 274 259t300 95q72 0 131 -37t88 -98q47 -111 47 -164v-16q0 -12 16 -21q23 -11 23 -25t-18 -40t-62 -192q-44 -167 -103 -269q-31 -55 -75 -56q-40 0 -33 74q4 41 90 227t86 277q0 92 -45 176q-53 106 -172 107q-254 0 -506 -338
q-137 -182 -215 -387t-78 -381z" />
    <glyph glyph-name="cacute" unicode="&#x107;" horiz-adv-x="677" 
d="M692 532q0 -9 -39 -75q-19 -29 -41 -29t-34 9t-12 19t11 37q13 27 13 69t-32 84t-77 42t-127 -61t-134 -132t-82 -150t-30 -145t50 -106q49 -41 136 -41t169 47q39 20 57 36t74 83q32 36 56 9q9 -9 9 -23q0 -31 -71 -92q-143 -121 -318 -121q-106 0 -168 59
q-61 59 -61 162q0 172 145 350q68 84 157 140q89 57 141 57q101 1 155 -80q21 -28 37 -96l10 -27q6 -16 6 -25zM374 938q-24 0 -26 26q0 26 29 64l141 184q20 16 25 25q10 14 39 14t28 -20q1 -6 -28 -43l-164 -223q-20 -27 -44 -27z" />
    <glyph glyph-name="ccircumflex" unicode="&#x109;" horiz-adv-x="677" 
d="M360 938q-8 0 -15 12t-7 28t29 34l233 153q27 18 43 19q33 0 51 -56l56 -153l6 -19q0 -10 -23 -22q-12 -10 -20 -10q-13 -1 -23 26l-49 131q-6 15 -11 15t-14 -4l-215 -134q-33 -20 -41 -20zM692 532q0 -9 -39 -75q-19 -29 -41 -29t-34 9t-12 19t11 37q13 27 13 69
t-32 84t-77 42t-127 -61t-134 -132t-82 -150t-30 -145t50 -106q49 -41 136 -41t169 47q39 20 57 36t74 83q32 36 56 9q9 -9 9 -23q0 -31 -71 -92q-143 -121 -318 -121q-106 0 -168 59q-61 59 -61 162q0 172 145 350q68 84 157 140q89 57 141 57q101 1 155 -80q21 -28 37 -96
l10 -27q6 -16 6 -25z" />
    <glyph glyph-name="cdotaccent" unicode="&#x10b;" horiz-adv-x="677" 
d="M512 938q-28 0 -49 68v4l2 6q2 34 29 60q26 26 56 26t49 -24t11 -50v-12q0 -14 -26 -46q-25 -32 -72 -32zM692 532q0 -9 -39 -75q-19 -29 -41 -29t-34 9t-12 19t11 37q13 27 13 69t-32 84t-77 42t-127 -61t-134 -132t-82 -150t-30 -145t50 -106q49 -41 136 -41t169 47
q39 20 57 36t74 83q32 36 56 9q9 -9 9 -23q0 -31 -71 -92q-143 -121 -318 -121q-106 0 -168 59q-61 59 -61 162q0 172 145 350q68 84 157 140q89 57 141 57q101 1 155 -80q21 -28 37 -96l10 -27q6 -16 6 -25z" />
    <glyph glyph-name="Ccaron" unicode="&#x10c;" horiz-adv-x="1167" 
d="M910 1741q-19 0 -30 11t-22 44l-53 154q-6 16 -6 18q0 10 18 19l2 4q13 10 23 10t20 -27l49 -131q6 -14 15 -14l10 2l217 135q33 20 39 20t15 -12q9 -14 9 -28t-28 -33l-234 -154q-25 -18 -44 -18zM137 412q1 -357 365 -357q142 0 272 80q80 49 183 133t143 134t68 49
q30 0 30 -27q0 -20 -41 -59t-168 -141t-195 -143q-144 -85 -327 -83q-399 0 -399 414q0 369 321 809q121 164 274 259t300 95q72 0 131 -37t88 -98q47 -111 47 -164v-16q0 -12 16 -21q23 -11 23 -25t-18 -40t-62 -192q-44 -167 -103 -269q-31 -55 -75 -56q-40 0 -33 74
q4 41 90 227t86 277q0 92 -45 176q-53 106 -172 107q-254 0 -506 -338q-137 -182 -215 -387t-78 -381z" />
    <glyph glyph-name="ccaron" unicode="&#x10d;" horiz-adv-x="677" 
d="M692 532q0 -9 -39 -75q-19 -29 -41 -29t-34 9t-12 19t11 37q13 27 13 69t-32 84t-77 42t-127 -61t-134 -132t-82 -150t-30 -145t50 -106q49 -41 136 -41t169 47q39 20 57 36t74 83q32 36 56 9q9 -9 9 -23q0 -31 -71 -92q-143 -121 -318 -121q-106 0 -168 59
q-61 59 -61 162q0 172 145 350q68 84 157 140q89 57 141 57q101 1 155 -80q21 -28 37 -96l10 -27q6 -16 6 -25zM492 1016q2 0 10 4l215 133q35 23 41 23t14 -14t8 -27q0 -14 -28 -35l-234 -154q-31 -18 -43 -18q-35 0 -51 55l-55 156l-7 16q0 12 23 23q11 10 21 10t22 -27
l49 -131q4 -14 15 -14z" />
    <glyph glyph-name="Dcaron" unicode="&#x10e;" horiz-adv-x="1593" 
d="M1423 1946q0 -14 -28 -33l-234 -154q-27 -18 -45 -18t-30 11q-11 11 -21 44l-53 154q-6 16 -6 18q0 10 16 19q14 14 26 14t21 -27l49 -131q6 -14 15 -14l10 2l217 135q33 20 39 20t15 -12q9 -14 9 -28zM676 62q0 -72 142 -72t286 55t277 160q132 105 214 267t82 344
q0 181 -137 349q-172 209 -498 209q-283 0 -532 -137q-164 -92 -267 -221q-103 -130 -103 -230t67 -168q29 -30 51 -38t119 -39q29 -9 29 -27t-29 -18q-96 0 -203 68q-106 68 -106 194q0 127 105 266t284 242q283 160 600 159q381 0 571 -268q115 -163 115 -361
q1 -198 -103 -378t-290 -303q-264 -176 -543 -176q-119 0 -197 53q-35 23 -30 35l16 39l16 67l349 934q55 154 67 165t32 11t38 -17q18 -16 18 -36t-47 -82q-14 -10 -20 -41l-359 -930q-14 -35 -14 -75z" />
    <glyph glyph-name="dcaron" unicode="&#x10f;" horiz-adv-x="753" 
d="M137 -31q-51 0 -85 41t-34 101q0 113 60 247t171 260q112 127 238 127q51 1 83 -27t57 -95l137 366q29 63 51 148q6 53 55 53q16 0 28 -9t13 -23q0 -14 -14 -40t-140 -362t-157 -429t-33 -214q-1 -59 17 -59q36 -1 110 96q10 16 23 16q20 0 20 -33t-57 -85t-94 -52
t-58 29q-20 29 -20 67t6 80l8 98q-123 -162 -212 -232t-173 -69zM479 678q-76 0 -172 -95t-164 -229t-67 -241q0 -37 24 -66t57 -26q32 3 90 40t113 95q203 215 203 397q0 53 -24 89q-25 36 -60 36zM932 854q0 6 10 15t18 23t23 30l154 184q37 45 46 45q9 -1 31 -13t25 -20
l-25 -33l-217 -245q-9 -10 -37 -10t-28 24z" />
    <glyph glyph-name="Dcroat" unicode="&#x110;" horiz-adv-x="1593" 
d="M676 62q0 -72 142 -72t286 54t276 160q133 106 215 268t82 344q0 181 -137 349q-172 209 -498 209q-283 0 -532 -139q-164 -90 -267 -220q-103 -129 -103 -231t67 -166q29 -30 51 -38t82 -27q61 -19 66 -37q0 -43 -128 -1q-65 22 -98 42q-112 76 -112 202t105 265
t284 240q281 162 600 161q379 0 571 -270q115 -157 115 -357q1 -200 -103 -380t-290 -303q-264 -176 -543 -176q-119 0 -197 53q-35 23 -30 35l16 39l16 67l76 201h-180q-55 0 -55 28q0 35 55 35h205l248 670q55 154 65 164q16 10 36 10t37 -15q17 -14 17 -34t-6 -30
t-30 -42q-24 -30 -31 -55l-258 -666l423 4q55 0 56 -30q0 -33 -56 -33l-448 -4l-76 -199q-14 -35 -14 -75z" />
    <glyph glyph-name="dcroat" unicode="&#x111;" horiz-adv-x="753" 
d="M76 113q0 -37 24 -66t57 -26q32 3 90 40t113 95q203 215 203 399q0 117 -84 123h-10q-115 -6 -254 -206t-139 -359zM969 989q55 0 55 -28q0 -35 -55 -35h-152q-1 -8 -99 -272t-124 -362t-27 -168t17 -70t51 29q33 31 51 57t31 26q20 0 20 -33t-57 -85t-95 -52
q-77 0 -77 104q0 31 6 72l4 47l4 53q-123 -162 -212 -232t-173 -71q-51 0 -85 41t-34 101q0 113 60 247t162 250q125 137 247 137q53 -1 84 -27t56 -95l112 301l-260 -4q-55 0 -55 32t55 31l281 4q44 78 52 141q9 62 58 62q16 0 28 -9t13 -23q0 -14 -12 -38l-43 -100
q-10 -25 -12 -31h125z" />
    <glyph glyph-name="Emacron" unicode="&#x112;" horiz-adv-x="917" 
d="M649 1620h441q4 6 65 -10q9 -2 19 -18t10 -30q0 -12 -9 -22t-19 -10t-35 8q-24 8 -70 8h-389l-66 -4q-43 0 -79 20t-36 40q1 18 13 30t25 12t44 -10q57 -14 86 -14zM291 -18q-152 0 -193 88q-46 105 0 229l121 344l-102 -2q-49 -2 -49 33q0 16 7 19t50 7l117 11l270 587
l-211 -2q-51 -2 -81 12t-30 40q0 37 50 36q12 0 26 -16q8 -14 31 -16l233 12l17 16q23 27 49 27t41 -25l8 -12l506 12q168 2 168 -55q0 -27 -41 -27q-18 0 -41 12t-82 17l-4 -2l-549 -27l-268 -581l442 14q4 0 40 -6t38 -8q16 -6 16 -31q0 -35 -45 -35q-12 0 -30 11
q-29 12 -56 12h-12l-416 -23l-123 -350q-29 -76 -28 -143q0 -123 133 -123q63 0 137 12l199 33q98 16 202 16q59 0 60 -30q0 -33 -33 -33l-65 10q-27 0 -187 -20l-176 -31q-70 -12 -139 -12z" />
    <glyph glyph-name="emacron" unicode="&#x113;" horiz-adv-x="491" 
d="M403 612q0 64 -42 64q-41 0 -121 -96t-80 -148q0 -14 18 -25t41 -12q57 0 121 76q63 77 63 141zM98 188q0 -54 41 -90t111 -37q117 0 174 95q12 20 27 20q23 0 22 -22q0 -46 -72 -102q-73 -56 -163 -56t-146 51q-55 51 -55 143t48 222t120 217q92 117 188 116
q33 1 57 -25t23 -61q0 -121 -81 -221t-179 -100q-37 0 -82 12q-33 -108 -33 -162zM219 1010h443q4 6 63 -11q8 -2 24 -28t1 -38q-15 -13 -26 -13t-32 8t-71 8h-388l-65 -4q-45 0 -80 19t-35 39q-1 20 11 32t24 12t58 -12t73 -12z" />
    <glyph glyph-name="Ebreve" unicode="&#x114;" horiz-adv-x="917" 
d="M1055 1683q1 -29 -105 -85t-161 -56t-115 94q-37 57 -37 67t22 21q14 10 21 11q10 1 17 -17t48 -80q29 -36 61 -36t90 30t86 58q28 26 50 30q6 0 14 -13t9 -24zM291 -18q-152 0 -193 88q-46 105 0 229l121 344l-102 -2q-49 -2 -49 33q0 16 7 19t50 7l117 11l270 587
l-211 -2q-51 -2 -81 12t-30 40q0 37 50 36q12 0 26 -16q8 -14 31 -16l233 12l17 16q23 27 49 27t41 -25l8 -12l506 12q168 2 168 -55q0 -27 -41 -27q-18 0 -41 12t-82 17l-4 -2l-549 -27l-268 -581l442 14q4 0 40 -6t38 -8q16 -6 16 -31q0 -35 -45 -35q-12 0 -30 11
q-29 12 -56 12h-12l-416 -23l-123 -350q-29 -76 -28 -143q0 -123 133 -123q63 0 137 12l199 33q98 16 202 16q59 0 60 -30q0 -33 -33 -33l-65 10q-27 0 -187 -20l-176 -31q-70 -12 -139 -12z" />
    <glyph glyph-name="ebreve" unicode="&#x115;" horiz-adv-x="491" 
d="M312 1128q8 0 12 -4t10 -22t39 -62t71 -43q38 0 105 39q10 6 82 64q23 16 31 16t17 -13t9 -26q2 -27 -106 -83t-161 -56q-54 0 -116 92q-35 53 -34 66t20 22q12 10 21 10zM403 612q0 64 -42 64q-41 0 -121 -96t-80 -148q0 -14 18 -25t41 -12q57 0 121 76q63 77 63 141z
M98 188q0 -54 41 -90t111 -37q117 0 174 95q12 20 27 20q23 0 22 -22q0 -46 -72 -102q-73 -56 -163 -56t-146 51q-55 51 -55 143t48 222t120 217q92 117 188 116q33 1 57 -25t23 -61q0 -121 -81 -221t-179 -100q-37 0 -82 12q-33 -108 -33 -162z" />
    <glyph glyph-name="Edotaccent" unicode="&#x116;" horiz-adv-x="917" 
d="M739 1591v4q-2 11 7 31q27 61 83 60q35 0 45 -20t11 -48q3 -26 -13 -48q-35 -49 -84 -46q-33 0 -43 43q-6 20 -6 24zM291 -18q-152 0 -193 88q-46 105 0 229l121 344l-102 -2q-49 -2 -49 33q0 16 7 19t50 7l117 11l270 587l-211 -2q-51 -2 -81 12t-30 40q0 37 50 36
q12 0 26 -16q8 -14 31 -16l233 12l17 16q23 27 49 27t41 -25l8 -12l506 12q168 2 168 -55q0 -27 -41 -27q-18 0 -41 12t-82 17l-4 -2l-549 -27l-268 -581l442 14q4 0 40 -6t38 -8q16 -6 16 -31q0 -35 -45 -35q-12 0 -30 11q-29 12 -56 12h-12l-416 -23l-123 -350
q-29 -76 -28 -143q0 -123 133 -123q63 0 137 12l199 33q98 16 202 16q59 0 60 -30q0 -33 -33 -33l-65 10q-27 0 -187 -20l-176 -31q-70 -12 -139 -12z" />
    <glyph glyph-name="edotaccent" unicode="&#x117;" horiz-adv-x="491" 
d="M403 612q0 64 -42 64q-41 0 -121 -96t-80 -148q0 -14 18 -25t41 -12q57 0 121 76q63 77 63 141zM98 188q0 -54 41 -90t111 -37q117 0 174 95q12 20 27 20q23 0 22 -22q0 -46 -72 -102q-73 -56 -163 -56t-146 51q-55 51 -55 143t48 222t120 217q92 117 188 116
q33 1 57 -25t23 -61q0 -121 -81 -221t-179 -100q-37 0 -82 12q-33 -108 -33 -162zM469 1102q35 0 47 -29q4 -7 8 -35t-12 -52q-32 -48 -84 -48q-12 0 -28 16t-21 52v4q-2 8 6 30t18 31q31 31 66 31z" />
    <glyph glyph-name="Eogonek" unicode="&#x118;" horiz-adv-x="917" 
d="M424 -131q0 -55 100 -55q35 0 35 -35q0 -17 -27 -29q-28 -12 -70 -12t-80 40t-38 98t68 114q-51 -8 -113 -8q-162 0 -201 88q-46 105 0 229l121 344l-102 -2q-49 -2 -49 33q0 16 7 19t50 7l117 11l270 587l-211 -2q-51 -2 -81 12t-30 40q0 37 50 36q12 0 26 -16
q8 -14 31 -16l233 12l17 16q23 27 49 27t41 -25l8 -12l506 12q168 2 168 -55q0 -27 -41 -27q-18 0 -41 12t-82 17l-4 -2l-549 -27l-268 -581l442 14q4 0 40 -6t38 -8q16 -6 16 -31q0 -35 -45 -35q-12 0 -30 11q-29 12 -56 12h-12l-416 -23l-123 -350q-29 -76 -28 -143
q0 -123 133 -123q63 0 137 12l199 33q98 16 202 16q59 0 60 -30q0 -33 -33 -33l-65 10q-27 0 -187 -20l-59 -11q-86 -74 -105 -95q-18 -22 -18 -50z" />
    <glyph glyph-name="eogonek" unicode="&#x119;" horiz-adv-x="491" 
d="M403 612q0 64 -42 64q-41 0 -121 -96t-80 -148q0 -14 18 -25t41 -12q57 0 121 76q63 77 63 141zM37 195q0 87 48 215t120 219q92 117 188 116q33 1 57 -25t23 -61q0 -121 -81 -221t-179 -100q-37 0 -82 12q-33 -94 -33 -156t42 -98q42 -35 110 -35q117 0 174 95
q12 20 27 20q23 0 23 -30t-54 -83q-20 -18 -40 -28t-120 -51q-26 -12 -56 -52t-30 -66q0 -24 29 -39t69 -13t39 -35q0 -14 -27 -28q-28 -13 -69 -13t-81 42t-40 106t99 116q-156 25 -156 193z" />
    <glyph glyph-name="Ecaron" unicode="&#x11a;" horiz-adv-x="917" 
d="M672 1794h8q8 0 16 -27l52 -131q4 -12 10 -12l14 2l215 133q35 23 41 23t14 -14t8 -27q0 -14 -28 -35l-234 -154q-33 -18 -43 -18q-31 -4 -53 57l-59 172q0 10 18 19q12 12 21 12zM291 -18q-152 0 -193 88q-46 105 0 229l121 344l-102 -2q-49 -2 -49 33q0 16 7 19t50 7
l117 11l270 587l-211 -2q-51 -2 -81 12t-30 40q0 37 50 36q12 0 26 -16q8 -14 31 -16l233 12l17 16q23 27 49 27t41 -25l8 -12l506 12q168 2 168 -55q0 -27 -41 -27q-18 0 -41 12t-82 17l-4 -2l-549 -27l-268 -581l442 14q4 0 40 -6t38 -8q16 -6 16 -31q0 -35 -45 -35
q-12 0 -30 11q-29 12 -56 12h-12l-416 -23l-123 -350q-29 -76 -28 -143q0 -123 133 -123q63 0 137 12l199 33q98 16 202 16q59 0 60 -30q0 -33 -33 -33l-65 10q-27 0 -187 -20l-176 -31q-70 -12 -139 -12z" />
    <glyph glyph-name="ecaron" unicode="&#x11b;" horiz-adv-x="491" 
d="M403 612q0 64 -42 64q-41 0 -121 -96t-80 -148q0 -14 18 -25t41 -12q57 0 121 76q63 77 63 141zM98 188q0 -54 41 -90t111 -37q117 0 174 95q12 20 27 20q23 0 22 -22q0 -46 -72 -102q-73 -56 -163 -56t-146 51q-55 51 -55 143t48 222t120 217q92 117 188 116
q33 1 57 -25t23 -61q0 -121 -81 -221t-179 -100q-37 0 -82 12q-33 -108 -33 -162zM442 1016q2 0 11 4l215 133q35 23 41 23t14 -14t8 -27q0 -14 -29 -35l-233 -154q-31 -18 -43 -18q-35 0 -53 55l-54 156l-6 16q0 12 23 23q12 10 22 10t21 -27l49 -131q4 -14 14 -14z" />
    <glyph glyph-name="Gcircumflex" unicode="&#x11c;" horiz-adv-x="1110" 
d="M1288 1680q0 -8 -18 -17l-2 -2q-16 -10 -23 -10q-10 -1 -20 26l-49 131q-11 25 -25 11l-217 -133q-33 -20 -39 -20t-15 12q-10 14 -10 28t29 33l234 153q51 31 74 8q11 -11 22 -45l53 -153q6 -14 6 -22zM466 2q-165 0 -282 116q-116 116 -116 294t110 401
q111 223 289 406q297 303 573 303q109 0 188 -80t93 -209q2 -14 18 -19q29 -6 29 -30t-18 -56q-18 -30 -50 -104l-61 -160q-12 -37 -53 -37t-41 31q0 39 86 215q23 49 22 117q1 114 -67 196t-162 82q-139 0 -301 -108t-313 -305q-270 -348 -271 -623q1 -170 105 -274
t274 -105q231 0 457 160q69 51 111 107t94 167l-619 -24l-125 -10q-32 0 -54 14t-22 33q0 35 48 35q26 1 50 -7t31 -8l62 4l612 25l45 4q59 0 60 -59q0 -23 -8 -33l-99 -176q-18 -30 -39 -96t-36 -91q-14 -24 -36 -24t-31 9q-17 17 19 122q-139 -103 -273 -153t-299 -50z
" />
    <glyph glyph-name="gcircumflex" unicode="&#x11d;" horiz-adv-x="618" 
d="M441 938q-7 0 -15 12t-8 28t28 34l234 153q29 18 43 19q35 0 53 -56l53 -153l7 -19q0 -8 -19 -20q-12 -12 -24 -12q-11 -1 -21 26l-51 131q-6 20 -25 11l-215 -134q-33 -20 -40 -20zM160 37q113 0 248 156q78 94 88 147l12 37q6 14 27 24q25 16 39 72t14 102
q0 107 -84 113t-186 -80t-175 -214q-72 -128 -71 -232q0 -125 88 -125zM164 -8q-70 0 -110 43t-40 117t46 185q46 112 120 208q150 199 314 198q76 0 116 -47t41 -124q0 -78 -15 -122t-15 -57l-7 -45l-49 -133l-76 -278q-59 -229 -178 -324q-100 -82 -201 -82t-165 66
q-63 66 -63 173t55 107q27 0 26 -20q0 -6 -9 -37t-9 -58q0 -82 49 -134t125 -52q106 0 198 106t121 265l45 258l-28 -31q-80 -90 -129 -123q-92 -59 -162 -59z" />
    <glyph glyph-name="Gbreve" unicode="&#x11e;" horiz-adv-x="1110" 
d="M466 2q-165 0 -282 116q-116 116 -116 294t110 401q111 223 289 406q297 303 573 303q109 0 188 -80t93 -209q2 -14 18 -19q29 -6 29 -30t-18 -56q-18 -30 -50 -104l-61 -160q-12 -37 -53 -37t-41 31q0 39 86 215q23 49 22 117q1 114 -67 196t-162 82q-139 0 -301 -108
t-313 -305q-270 -348 -271 -623q1 -170 105 -274t274 -105q231 0 457 160q69 51 111 107t94 167l-619 -24l-125 -10q-32 0 -54 14t-22 33q0 35 48 35q26 1 50 -7t31 -8l62 4l612 25l45 4q59 0 60 -59q0 -23 -8 -33l-99 -176q-18 -30 -39 -96t-36 -91q-14 -24 -36 -24t-31 9
q-17 17 19 122q-139 -103 -273 -153t-299 -50zM1306 1851q12 0 19 -13q8 -13 8 -24q0 -12 -9 -20t-60 -41q-123 -80 -189 -80t-123 94l-30 48q-6 8 -7 16q0 12 19 20q13 13 23 14q9 1 17 -17t50 -79q28 -37 60 -37t90 30t90 60q30 30 42 29z" />
    <glyph glyph-name="gbreve" unicode="&#x11f;" horiz-adv-x="618" 
d="M160 37q113 0 248 156q78 94 88 147l12 37q6 14 27 24q25 16 39 72t14 102q0 107 -84 113t-186 -80t-175 -214q-72 -128 -71 -232q0 -125 88 -125zM164 -8q-70 0 -110 43t-40 117t46 185q46 112 120 208q150 199 314 198q76 0 116 -47t41 -124q0 -78 -15 -122t-15 -57
l-7 -45l-49 -133l-76 -278q-59 -229 -178 -324q-100 -82 -201 -82t-165 66q-63 66 -63 173t55 107q27 0 26 -20q0 -6 -9 -37t-9 -58q0 -82 49 -134t125 -52q106 0 198 106t121 265l45 258l-28 -31q-80 -90 -129 -123q-92 -59 -162 -59zM510 1128q10 0 18 -22t39 -66t71 -43
q40 0 107 39q27 18 82 64q23 16 31 16t22 -21t0 -33q-14 -13 -67 -46q-121 -78 -187 -78t-124 92q-12 31 -24 44t-13 23q0 10 22 21q13 10 23 10z" />
    <glyph glyph-name="Gdotaccent" unicode="&#x120;" horiz-adv-x="1110" 
d="M1174 1778q0 -14 -20 -38t-40 -32t-36 -8t-35 23q-17 24 -17 46v3l2 6q6 45 33 63q29 23 55 23t44 -22t14 -52v-12zM466 2q-165 0 -282 116q-116 116 -116 294t110 401q111 223 289 406q297 303 573 303q109 0 188 -80t93 -209q2 -14 18 -19q29 -6 29 -30t-18 -56
q-18 -30 -50 -104l-61 -160q-12 -37 -53 -37t-41 31q0 39 86 215q23 49 22 117q1 114 -67 196t-162 82q-139 0 -301 -108t-313 -305q-270 -348 -271 -623q1 -170 105 -274t274 -105q231 0 457 160q69 51 111 107t94 167l-619 -24l-125 -10q-32 0 -54 14t-22 33q0 35 48 35
q26 1 50 -7t31 -8l62 4l612 25l45 4q59 0 60 -59q0 -23 -8 -33l-99 -176q-18 -30 -39 -96t-36 -91q-14 -24 -36 -24t-31 9q-17 17 19 122q-139 -103 -273 -153t-299 -50z" />
    <glyph glyph-name="gdotaccent" unicode="&#x121;" horiz-adv-x="618" 
d="M678 1102q37 0 46 -22q29 -72 -27 -120q-55 -48 -93 4q-18 26 -16 42v4q-2 10 7 32q25 60 83 60zM160 37q113 0 248 156q78 94 88 147l12 37q6 14 27 24q25 16 39 72t14 102q0 107 -84 113t-186 -80t-175 -214q-72 -128 -71 -232q0 -125 88 -125zM164 -8q-70 0 -110 43
t-40 117t46 185q46 112 120 208q150 199 314 198q76 0 116 -47t41 -124q0 -78 -15 -122t-15 -57l-7 -45l-49 -133l-76 -278q-59 -229 -178 -324q-100 -82 -201 -82t-165 66q-63 66 -63 173t55 107q27 0 26 -20q0 -6 -9 -37t-9 -58q0 -82 49 -134t125 -52q106 0 198 106
t121 265l45 258l-28 -31q-80 -90 -129 -123q-92 -59 -162 -59z" />
    <glyph glyph-name="Gcommaaccent" unicode="&#x122;" horiz-adv-x="1110" 
d="M466 2q-165 0 -282 116q-116 116 -116 294t110 401q111 223 289 406q297 303 573 303q109 0 188 -80t93 -209q2 -14 18 -19q29 -6 29 -30t-18 -56q-18 -30 -50 -104l-61 -160q-12 -37 -53 -37t-41 31q0 39 86 215q23 49 22 117q1 114 -67 196t-162 82q-139 0 -301 -108
t-313 -305q-270 -348 -271 -623q1 -170 105 -274t274 -105q231 0 457 160q69 51 111 107t94 167l-619 -24l-125 -10q-32 0 -54 14t-22 33q0 35 48 35q26 1 50 -7t31 -8l62 4l612 25l45 4q59 0 60 -59q0 -23 -8 -33l-99 -176q-18 -30 -39 -96t-36 -91q-14 -24 -36 -24t-31 9
q-17 17 19 122q-139 -103 -273 -153t-299 -50zM382 -430q-30 0 -30 24l29 37q16 20 25 33l151 182q39 45 49 45t30 -11t23 -21l-24 -33l-217 -246q-6 -10 -36 -10z" />
    <glyph glyph-name="gcommaaccent" unicode="&#x123;" horiz-adv-x="618" 
d="M729 1243q0 -4 -12 -18l-17 -19l-24 -32l-154 -183q-35 -45 -47 -44q-11 1 -31 11t-22 21l24 33l218 245q6 9 36 9t29 -23zM160 43q111 0 248 162q76 92 88 147l12 39q4 7 29 25t37 74t14 102q0 109 -88 115q-80 6 -182 -81t-175 -217q-72 -130 -71 -237q0 -59 24 -94
t64 -35zM164 -2q-68 0 -110 45q-40 45 -40 119t46 188t120 211q152 201 312 201t159 -182q0 -70 -15 -115t-15 -57l-7 -48l-49 -133l-76 -284q-59 -233 -178 -328q-102 -84 -202 -84t-164 67q-63 68 -63 176t55 107q27 0 26 -20q0 -8 -9 -34t-9 -60q0 -83 49 -137t125 -54
q106 0 199 110t120 267l45 262l-28 -31q-55 -61 -77 -83t-52 -42q-94 -61 -162 -61z" />
    <glyph glyph-name="hcircumflex" unicode="&#x125;" horiz-adv-x="577" 
d="M662 1225h-9q-8 -1 -18 26l-49 131q-4 12 -8 12t-17 -1l-215 -133q-35 -23 -41 -23t-14 12q-8 11 -8 27t28 37l234 153q33 18 43 19q33 4 51 -58l55 -153l6 -19q0 -9 -22 -20q-12 -10 -16 -10zM555 -32q0 -18 -26 -29q-26 -12 -56 -13q-84 0 -84 103q0 49 17 108l110 361
q12 43 12 57t-10 14t-98 -106l-293 -418q-31 -45 -68 -45t-36 31q0 23 8 41l360 956q6 70 9 84t18 35q31 47 71 47q13 0 23 -8t10 -22t-19 -50q-19 -37 -30 -67l-360 -920l270 371q68 92 107 127q40 35 75 35t35 -56t-22 -119l-117 -352q-10 -35 -10 -72q0 -84 38 -84l48 9
q18 0 18 -18z" />
    <glyph glyph-name="Hbar" unicode="&#x126;" horiz-adv-x="1773" 
d="M1802 702l-545 -20l-63 -4l-102 -279h602zM2176 1499q34 1 34 -33q0 -16 -94 -183t-174 -390l-46 -129h31q135 0 135 -45q0 -17 -19 -27t-41 -10t-49 12q-28 12 -77 11l-102 -287q-10 -70 -27 -94l-31 -125q-10 -47 -10 -66l18 -55q0 -61 -53 -62q-51 0 -51 50t12 90
l43 180h-602l-69 -180q-16 -62 -16 -68t9 -19q11 -13 11 -33t-18 -35t-46 -15q-49 0 -49 45t20 102l70 199h-98q-55 0 -56 28q-1 16 17 28t37 7h121l110 279l-137 -4q-76 0 -72 35q-1 20 25 22t57 4l154 10q84 219 84 408q1 123 -63 197t-176 74t-262 -94
q-311 -192 -492 -522q-87 -161 -87 -286q0 -188 228 -188q59 0 97 9t133 45t132 61t52 13q14 -10 14 -24q-1 -14 -19 -27t-86 -49q-168 -84 -324 -84t-231 58q-156 118 11 460q86 176 228 330t317 253t309 99t210 -90q76 -92 76 -246t-77 -393l73 5l535 12l51 143
q39 106 135 316t140 266q11 12 25 12z" />
    <glyph glyph-name="hbar" unicode="&#x127;" horiz-adv-x="577" 
d="M555 -32q0 -18 -26 -29q-26 -12 -56 -13q-84 0 -84 103q0 49 17 108l110 361q12 43 12 57t-12 14q-18 0 -96 -106l-293 -418q-31 -45 -68 -45t-36 31q0 23 8 41l295 780l-127 -14q-24 -5 -35 6q-12 12 -12 27t7 19t48 7l141 14l43 117q4 68 7 83t20 36q29 45 71 45
q13 0 23 -8t10 -20t-19 -50q-19 -39 -30 -70l-49 -124l180 18q6 2 26 2t44 -13q23 -13 22 -34q0 -35 -45 -35q-11 0 -31 11t-51 12h-14l-154 -21l-288 -733l270 371q68 92 107 127q40 35 75 35t35 -56t-22 -119l-117 -352q-10 -35 -10 -72q0 -84 38 -84l48 9q18 0 18 -18z
" />
    <glyph glyph-name="Itilde" unicode="&#x128;" horiz-adv-x="1419" 
d="M1044 1634q-54 0 -97 24q-44 24 -58 23h-15q-44 -2 -81 -30l-13 -4l-14 -5l-4 -2q-10 0 -20 10t-9 23q0 23 43 47t86 25q43 0 94 -22q52 -21 88 -21t69 22t45 21q12 0 24 -13t10 -24v-8q4 -6 -45 -36t-103 -30zM106 408q29 0 41 -76q21 -115 125 -189t248 -73
q207 0 381 153q166 150 276 410t109 504q0 149 -66 233t-180 84q-344 0 -649 -295q-174 -168 -174 -321q0 -125 139 -203t363 -78q86 0 133 8t59 8q39 0 39 -32q0 -25 -41 -33t-166 -8q-272 0 -443 90t-171 235q0 186 215 385q156 142 338 220t344 78t244 -95
q80 -94 80 -266q0 -344 -185 -690q-238 -444 -647 -445q-180 0 -309 94t-141 234q-2 28 9 48t29 20z" />
    <glyph glyph-name="itilde" unicode="&#x129;" horiz-adv-x="311" 
d="M377 895q-37 -1 -67 -21t-48 -20q-27 0 -26 33q0 10 6 16q55 55 131 55q33 0 86 -22t88 -21q35 -1 70 21t43 22t22 -14q12 -14 12 -27t-28 -30q-16 -6 -41 -23q-25 -16 -80 -16t-94 22t-62 25h-12zM264 126q0 -34 14 -52t30 -18q14 0 40 12q6 0 12 -8q19 -24 -10 -42
q-28 -18 -62 -18t-61 32t-27 87t23 123l99 295q16 51 32 71t41 21q31 0 31 -34t-31 -81l-8 -14l-98 -269q-25 -71 -25 -105z" />
    <glyph glyph-name="Imacron" unicode="&#x12a;" horiz-adv-x="1419" 
d="M836 1683h442q4 6 63 -10q7 -2 19 -19q12 -16 12 -28t-13 -25t-42 -3q-29 11 -80 12h-387l-66 -4q-46 0 -80 20t-34 40t11 30q11 12 23 12t59 -12q46 -12 73 -13zM106 408q29 0 41 -76q21 -115 125 -189t248 -73q207 0 381 153q166 150 276 410t109 504q0 149 -66 233
t-180 84q-344 0 -649 -295q-174 -168 -174 -321q0 -125 139 -203t363 -78q86 0 133 8t59 8q39 0 39 -32q0 -25 -41 -33t-166 -8q-272 0 -443 90t-171 235q0 186 215 385q156 142 338 220t344 78t244 -95q80 -94 80 -266q0 -344 -185 -690q-238 -444 -647 -445
q-180 0 -309 94t-141 234q-2 28 9 48t29 20z" />
    <glyph glyph-name="imacron" unicode="&#x12b;" horiz-adv-x="311" 
d="M288 0q-34 0 -61 32t-27 85t23 125l99 295q16 51 32 71t41 21q29 0 29 -32t-37 -97l-98 -269q-25 -61 -25 -101t14 -57q22 -29 70 -5q6 0 12 -8q19 -24 -10 -42q-28 -18 -62 -18zM238 940h442q4 6 63 -10q11 -2 21 -18t10 -30q0 -12 -10 -22t-20 -10t-32 8q-20 8 -73 8
h-387l-66 -4q-42 0 -78 20t-36 40q0 38 37 41q20 1 58 -11t71 -12z" />
    <glyph glyph-name="Ibreve" unicode="&#x12c;" horiz-adv-x="1419" 
d="M970 1800q12 0 21 -26l45 -68q25 -37 64 -37t106 39q6 2 84 61q18 17 28 17t18 -13q9 -13 10 -24q0 -29 -104 -84t-162 -55q-56 0 -117 92q-35 56 -35 66t18 20q12 12 24 12zM106 408q29 0 41 -76q21 -115 125 -189t248 -73q207 0 381 153q166 150 276 410t109 504
q0 149 -66 233t-180 84q-344 0 -649 -295q-174 -168 -174 -321q0 -125 139 -203t363 -78q86 0 133 8t59 8q39 0 39 -32q0 -25 -41 -33t-166 -8q-272 0 -443 90t-171 235q0 186 215 385q156 142 338 220t344 78t244 -95q80 -94 80 -266q0 -344 -185 -690q-238 -444 -647 -445
q-180 0 -309 94t-141 234q-2 28 9 48t29 20z" />
    <glyph glyph-name="ibreve" unicode="&#x12d;" horiz-adv-x="311" 
d="M325 831q32 0 91 31q58 32 86 58t49 30q6 0 14 -13t8 -25t-8 -19q-8 -8 -61 -41q-122 -80 -188 -80t-123 94q-21 33 -29 46t-8 22t22 20q30 21 37 -1q8 -23 49 -85q29 -37 61 -37zM135 126q1 -34 15 -52t28 -18t41 12q6 0 12 -8q19 -24 -10 -42t-63 -18t-60 32
q-27 32 -27 87t23 123l99 295q16 51 32 71t41 21q31 0 31 -34t-31 -81l-8 -14l-98 -269q-25 -71 -25 -105z" />
    <glyph glyph-name="Iogonek" unicode="&#x12e;" horiz-adv-x="1419" 
d="M1040 1454q-344 0 -649 -295q-174 -168 -174 -321q0 -125 139 -203t363 -78q86 0 133 8t59 8q39 0 39 -32q0 -25 -41 -33t-170 -8q-268 0 -439 90t-171 233q0 190 215 387q156 142 339 220t345 78t242 -94q80 -93 80 -261q0 -352 -185 -696q-139 -262 -336 -369
q-49 -24 -138 -58t-130 -75t-41 -76q0 -55 101 -55q37 0 36 -35q0 -14 -26 -28q-27 -13 -70 -13t-82 41t-39 101t84 122q-247 0 -383 158q-74 86 -73 180q0 57 38 58q16 0 24 -16t17 -60q21 -115 125 -189t248 -73q207 0 381 153q166 152 276 412t109 504q0 147 -65 231
q-66 84 -181 84z" />
    <glyph glyph-name="iogonek" unicode="&#x12f;" horiz-adv-x="239" 
d="M334 827q47 0 47 -36q0 -29 -22 -53t-48 -23q-43 0 -43 39q0 31 20 52t46 21zM268 43q0 -12 -55 -59q-86 -68 -86 -113q0 -59 100 -55q19 0 27 -7t8 -25t-26 -32q-27 -12 -70 -12t-81 41t-38 105t100 128q-45 33 -45 87t23 130l98 283q31 90 74 90q30 0 30 -34
q1 -34 -28 -76l-109 -273q-43 -109 -10 -150q14 -17 35 -18l35 10q18 0 18 -20z" />
    <glyph glyph-name="Idotaccent" unicode="&#x130;" horiz-adv-x="1419" 
d="M1106 1657q0 -14 -20 -39t-42 -35q-16 -4 -33 -4t-32 16q-14 16 -16 37l-5 15v4l3 6q1 35 27 59t58 25q32 -1 49 -23t11 -51v-10zM106 408q29 0 41 -76q21 -115 125 -189t248 -73q207 0 381 153q166 150 276 410t109 504q0 149 -66 233t-180 84q-344 0 -649 -295
q-174 -168 -174 -321q0 -125 139 -203t363 -78q86 0 133 8t59 8q39 0 39 -32q0 -25 -41 -33t-166 -8q-272 0 -443 90t-171 235q0 186 215 385q156 142 338 220t344 78t244 -95q80 -94 80 -266q0 -344 -185 -690q-238 -444 -647 -445q-180 0 -309 94t-141 234q-2 28 9 48
t29 20z" />
    <glyph glyph-name="dotlessi" unicode="&#x131;" horiz-adv-x="311" 
d="M135 126q1 -34 15 -52t28 -18t41 12q6 0 12 -8q19 -24 -10 -42t-63 -18t-60 32q-27 32 -27 87t23 123l99 295q16 51 32 71t41 21q31 0 31 -34t-31 -81l-8 -14l-98 -269q-25 -71 -25 -105z" />
    <glyph glyph-name="Kcommaaccent" unicode="&#x136;" horiz-adv-x="1361" 
d="M452 -473q-30 0 -30 22q0 5 11 19t18 18q16 20 24 33l154 182q27 33 34 43t35 -5q27 -15 31 -25l-24 -33l-218 -246q-5 -8 -35 -8zM584 752h-21l-53 -148q106 37 229 103q-72 45 -155 45zM184 512q82 0 232 57l65 170q-98 -23 -212 -95t-113 -114q0 -18 28 -18zM166 453
q-98 0 -98 59q0 74 127 161t313 138l225 483q20 43 55 43q16 0 28 -9t13 -17q0 -8 -6 -25l-235 -469q121 -4 221 -78q356 154 651 375q174 141 182 180l-14 2h-14q-18 4 -18 18t22 28q23 13 49 14q59 0 59 -53q0 -31 -22 -56t-142 -128t-250 -181t-444 -238
q82 -102 111 -193t50 -313t46 -280q25 -59 87 -59t106 45t59 45q23 0 23 -26t-37 -52q-90 -68 -169 -68t-119 73q-39 73 -61 309q-22 235 -52 321t-111 162q-141 -68 -322 -138l-106 -315l-25 -92q-6 -25 -6 -43v-23q0 -53 -51 -53q-18 0 -32 14q-13 14 -13 32t12 51
q12 32 18 61q11 26 19 61l88 273q-145 -39 -217 -39z" />
    <glyph glyph-name="kcommaaccent" unicode="&#x137;" horiz-adv-x="729" 
d="M90 -385q0 5 14 19t15 18l178 213q37 47 46 47t29 -12t25 -21l-24 -33l-217 -247q-8 -9 -37 -9t-29 25zM658 -16q-28 0 -93 41l-297 178q-66 23 -77 29t-11 29q0 22 18 39t36 17t47 -16l24 -14q37 -4 41 -4q68 0 152 46q84 47 131 119t47 130q0 106 -77 106t-210 -110
t-227 -289q-24 -43 -48 -109t-24 -88l2 -53q0 -11 -11 -23t-25 -12t-26 11q-29 29 5 118l346 971q45 127 59 137t31 10q33 0 33 -33q0 -25 -10 -51l-308 -739q102 124 194 198t139 96q46 22 97 22t83 -34t32 -110t-57 -164q-91 -140 -299 -196l217 -158q33 -27 47 -27l45 4
q8 0 19 -15t12 -26q1 -30 -57 -30z" />
    <glyph glyph-name="Lacute" unicode="&#x139;" horiz-adv-x="1329" 
d="M1491 1632q0 26 29 62l141 186q19 16 27 26t36 14q28 3 29 -22q0 -8 -29 -43l-163 -225q-11 -16 -19 -18t-35 -6q-16 0 -16 26zM1497 1485q-168 0 -307 -195q-59 -80 -114 -224t-154 -499q185 34 343 128t259 194q154 154 153 344q0 113 -50 183t-130 69zM434 375
q-132 0 -212 -54q-81 -53 -81 -135q-1 -82 63 -139t145 -57t159 36t134 96t108 185q-184 68 -316 68zM815 279q-159 -338 -439 -338q-138 1 -224 71q-84 70 -84 173t96 171t251 68t351 -68q39 88 59 148q-27 -2 -59 -2q-219 0 -362 78q-142 78 -142 196q0 39 16 73t40 34
q22 0 22 -23q0 -10 -9 -35t-9 -51q0 -94 124 -161t297 -66q39 0 97 8q35 92 39 104l133 414q68 211 197 339q130 128 276 128q115 0 185 -84t71 -219q0 -303 -352 -528q-207 -131 -486 -203l-65 -174q152 -88 307 -205q25 -12 35 -18q22 -9 22 -27t-9 -28t-21 -9
q-12 0 -30 12q-18 11 -100 77t-227 145z" />
    <glyph glyph-name="lacute" unicode="&#x13a;" horiz-adv-x="292" 
d="M420 1176l-2 2q-4 2 -12 -12t-21 -38q-188 -375 -233 -661q49 70 51 72q59 131 110 235q109 229 117 379q0 14 -10 25v-2zM248 23h8q31 0 31 -23t-37 -23q-184 -1 -184 261t137 628q82 221 151 344q37 66 86 66q59 0 60 -68q0 -238 -305 -790q-9 -16 -19 -34t-23 -42
q-13 -23 -20 -35q-8 -59 -8 -112q0 -94 57 -146q27 -26 66 -26zM520 1335q-24 0 -24 27t28 63l142 187q16 14 26 25t37 11t29 -20q0 -4 -31 -41l-164 -225q-19 -27 -43 -27z" />
    <glyph glyph-name="Lcommaaccent" unicode="&#x13b;" horiz-adv-x="1329" 
d="M432 -389q0 8 29 37l24 33l154 182q37 47 46 47t31 -12t23 -21l-24 -35l-217 -245q-6 -9 -36 -9t-30 23zM1497 1485q-168 0 -307 -195q-59 -80 -114 -224t-154 -499q185 34 343 128t259 194q154 154 153 344q0 113 -50 183t-130 69zM434 375q-132 0 -212 -54
q-81 -53 -81 -135q-1 -82 63 -139t145 -57t159 36t134 96t108 185q-184 68 -316 68zM815 279q-159 -338 -439 -338q-138 1 -224 71q-84 70 -84 173t96 171t251 68t351 -68q39 88 59 148q-27 -2 -59 -2q-219 0 -362 78q-142 78 -142 196q0 39 16 73t40 34q22 0 22 -23
q0 -10 -9 -35t-9 -51q0 -94 124 -161t297 -66q39 0 97 8q35 92 39 104l133 414q68 211 197 339q130 128 276 128q115 0 185 -84t71 -219q0 -303 -352 -528q-207 -131 -486 -203l-65 -174q152 -88 307 -205q25 -12 35 -18q22 -9 22 -27t-9 -28t-21 -9q-12 0 -30 12
q-18 11 -100 77t-227 145z" />
    <glyph glyph-name="lcommaaccent" unicode="&#x13c;" horiz-adv-x="292" 
d="M629 1132q0 34 -11 46l-2 -2v2q-6 4 -32 -50q-186 -365 -236 -661q43 55 51 72q59 131 109 233t86 214q35 112 35 146zM322 180q0 -59 34 -108t88 -49h11q29 0 28 -21q0 -25 -37 -25q-184 0 -184 265q0 114 39 288t98 336q92 233 154 344q35 66 86 66q27 0 43 -18t16 -50
q0 -125 -88 -340q-72 -188 -219 -450l-61 -111q-8 -68 -8 -127zM101 -416q-30 0 -29 25q0 6 12 16q12 17 22 29t19 24l151 183q40 45 50 45t30 -12t23 -21l-25 -33l-217 -246q-6 -10 -36 -10z" />
    <glyph glyph-name="Lcaron" unicode="&#x13d;" horiz-adv-x="1329" 
d="M1920 1176q-30 0 -30 24q0 4 13 17l16 20q16 20 25 33l153 182q37 45 46 45q9 -1 31 -13t24 -20l-25 -32l-217 -246q-6 -10 -36 -10zM1497 1485q-168 0 -307 -195q-59 -80 -114 -224t-154 -499q185 34 343 128t259 194q154 154 153 344q0 113 -50 183t-130 69zM434 375
q-132 0 -212 -54q-81 -53 -81 -135q-1 -82 63 -139t145 -57t159 36t134 96t108 185q-184 68 -316 68zM815 279q-159 -338 -439 -338q-138 1 -224 71q-84 70 -84 173t96 171t251 68t351 -68q39 88 59 148q-27 -2 -59 -2q-219 0 -362 78q-142 78 -142 196q0 39 16 73t40 34
q22 0 22 -23q0 -10 -9 -35t-9 -51q0 -94 124 -161t297 -66q39 0 97 8q35 92 39 104l133 414q68 211 197 339q130 128 276 128q115 0 185 -84t71 -219q0 -303 -352 -528q-207 -131 -486 -203l-65 -174q152 -88 307 -205q25 -12 35 -18q22 -9 22 -27t-9 -28t-21 -9
q-12 0 -30 12q-18 11 -100 77t-227 145z" />
    <glyph glyph-name="lcaron" unicode="&#x13e;" horiz-adv-x="292" 
d="M420 1176l-2 2q-4 2 -12 -12t-21 -38q-188 -375 -233 -661q49 70 51 72q59 131 110 235q109 229 117 379q0 14 -10 25v-2zM248 23h8q31 0 31 -23t-37 -23q-184 -1 -184 261t137 628q82 221 151 344q37 66 86 66q59 0 60 -68q0 -238 -305 -790q-9 -16 -19 -34t-23 -42
q-13 -23 -20 -35q-8 -59 -8 -112q0 -94 57 -146q27 -26 66 -26zM593 879q-30 0 -30 24q0 5 10 15t19 22l24 33l154 182q37 45 47 45q11 0 31 -12t22 -21l-24 -32l-217 -246q-6 -10 -36 -10z" />
    <glyph glyph-name="Ldot" unicode="&#x13f;" horiz-adv-x="1232" 
d="M1405 395q0 -39 -49 -73q-52 -31 -82 12q-30 44 -6 88q6 18 31 35q26 16 51 16q25 -1 41 -21t14 -53v-4zM1497 1485q-168 0 -307 -195q-59 -80 -114 -224t-154 -499q185 34 343 128t259 194q154 154 153 344q0 113 -50 183t-130 69zM434 375q-132 0 -212 -54
q-81 -53 -81 -135q-1 -82 63 -139t145 -57t159 36t134 96t108 185q-184 68 -316 68zM815 279q-159 -338 -439 -338q-138 1 -224 71q-84 70 -84 173t96 171t251 68t351 -68q39 88 59 148q-27 -2 -59 -2q-219 0 -362 78q-142 78 -142 196q0 39 16 73t40 34q22 0 22 -23
q0 -10 -9 -35t-9 -51q0 -94 124 -161t297 -66q39 0 97 8q35 92 39 104l133 414q68 211 197 339q130 128 276 128q115 0 185 -84t71 -219q0 -303 -352 -528q-207 -131 -486 -203l-65 -174q152 -88 307 -205q25 -12 35 -18q22 -9 22 -27t-9 -28t-21 -9q-12 0 -30 12
q-18 11 -100 77t-227 145z" />
    <glyph glyph-name="ldot" unicode="&#x140;" horiz-adv-x="342" 
d="M389 477q57 0 57 -76q0 -43 -49 -73q-17 -12 -41 -12t-41 22q-16 24 -16 54q-1 30 27 58t63 27zM420 1176l-2 2q-4 2 -12 -12t-21 -38q-188 -375 -233 -661q49 70 51 72q59 131 110 235q109 229 117 379q0 14 -10 25v-2zM248 23h8q31 0 31 -23t-37 -23q-184 -1 -184 261
t137 628q82 221 151 344q37 66 86 66q59 0 60 -68q0 -238 -305 -790q-9 -16 -19 -34t-23 -42q-13 -23 -20 -35q-8 -59 -8 -112q0 -94 57 -146q27 -26 66 -26z" />
    <glyph glyph-name="Lslash" unicode="&#x141;" horiz-adv-x="1329" 
d="M1675 1240q0 102 -49 170t-131 69q-170 0 -307 -193q-58 -82 -102 -196t-101 -308t-65 -219q164 21 333 121t255 186q168 166 167 370zM401 352q-137 0 -200 -63q-55 -59 -55 -126t64 -120q65 -53 146 -53q123 0 227 79q103 79 154 212q-133 47 -190 59t-146 12zM1182 53
q0 -29 -29 -28q-15 0 -33 12q-18 13 -97 75t-220 140q-156 -311 -441 -311q-120 -1 -204 65t-84 158q0 64 41 122t103 87t163 28q176 0 375 -71q27 53 37 90l-201 -4q-57 0 -57 30q0 35 55 35l229 2l6 21q-27 -2 -59 -2q-219 0 -362 78q-142 78 -142 196q0 39 16 73t40 34
q22 0 22 -23q0 -10 -9 -35t-9 -51q0 -94 124 -161t297 -66q39 0 97 8q35 92 39 104l133 414q68 211 197 339q130 128 276 128q115 0 185 -84t71 -219q0 -303 -352 -528q-207 -131 -486 -203l-8 -21l209 2q55 1 55 -31t-55 -32l-234 -4l-45 -117q135 -75 175 -105t62 -47
t34 -26l41 -27l22 -10q23 -12 23 -35z" />
    <glyph glyph-name="lslash" unicode="&#x142;" horiz-adv-x="292" 
d="M610 1196h-4q-12 6 -59 -72t-109 -214t-95 -254q-34 -118 -73 -347q117 177 168 277t105 239q53 139 65 197t17 133q0 41 -15 41zM326 47q25 -1 51 15q25 16 39 16t14 -20t-41 -38q-41 -20 -81 -20t-59 18t-29 51t-19 58l-8 -4q-65 -47 -93 -47t-28 26t34 45l103 60
q12 197 86 447t167 425q93 176 159 176q55 0 55 -96q0 -276 -375 -897l137 82q27 16 39 16q13 0 21 -9t8 -19q0 -23 -37 -43l-207 -127q4 -115 64 -115z" />
    <glyph glyph-name="Nacute" unicode="&#x143;" horiz-adv-x="1626" 
d="M1564 1501q-24 0 -26 26q0 26 29 64l141 185l25 24q9 14 37 14t28 -14q2 -12 -29 -47l-163 -225q-18 -27 -42 -27zM731 477q20 0 23 -20q0 -18 -23 -31q-35 -16 -147 -38t-170 -21q-137 0 -234 90q-96 91 -96 231t115 322t301 325q276 213 528 213q123 0 189 -60t65 -175
q0 -203 -141 -561l-236 -588l340 485q147 211 231 296t144 85q72 0 72 -66q0 -34 -25 -120l-127 -434q-12 -40 -24 -136q-26 -209 8 -270q14 -23 26 -22l68 10q4 0 12 -9t8 -16q0 -35 -73 -37q-125 0 -125 181q0 154 41 303l112 430q9 40 9 66t-23 26t-47 -29
q-125 -129 -240 -299l-370 -553q-37 -55 -81 -55t-44 41q0 35 41 133l249 598q135 332 136 537q1 113 -61 151t-136 39q-180 0 -389 -135t-350 -334t-142 -368q0 -111 81 -179q82 -67 200 -67t291 59q6 2 14 2z" />
    <glyph glyph-name="nacute" unicode="&#x144;" horiz-adv-x="622" 
d="M496 -23q18 0 57 37q29 23 38 23t16 -7t7 -16q0 -24 -48 -60t-84 -36t-60 41t-25 109q0 68 31 172q96 289 96 304t-4 15q-18 8 -80 -78l-268 -358q-14 -14 -29 -49q-23 -41 -35 -55q-12 -13 -30 -13t-32 13q-13 13 -13 34t37 121l151 401q6 18 19 52l2 30q6 74 63 74
q15 0 29 -10q14 -11 14 -23t-29 -86l-176 -411l265 331q94 117 147 117q17 0 31 -15t14 -49q0 -33 -52 -177q-93 -257 -93 -344q1 -87 41 -87zM542 938q-24 0 -26 27q0 27 29 63l141 184l25 25q10 14 39 14t28 -20q1 -6 -30 -43l-162 -223q-20 -27 -44 -27z" />
    <glyph glyph-name="Ncommaaccent" unicode="&#x145;" horiz-adv-x="1626" 
d="M948 -426q-29 0 -28 25q0 4 10 14t18 22l178 213q37 47 45 48q11 0 31 -12t25 -21l-25 -33l-217 -248q-8 -8 -37 -8zM731 477q20 0 23 -20q0 -18 -23 -31q-35 -16 -147 -38t-170 -21q-137 0 -234 90q-96 91 -96 231t115 322t301 325q276 213 528 213q123 0 189 -60
t65 -175q0 -203 -141 -561l-236 -588l340 485q147 211 231 296t144 85q72 0 72 -66q0 -34 -25 -120l-127 -434q-12 -40 -24 -136q-26 -209 8 -270q14 -23 26 -22l68 10q4 0 12 -9t8 -16q0 -35 -73 -37q-125 0 -125 181q0 154 41 303l112 430q9 40 9 66t-23 26t-47 -29
q-125 -129 -240 -299l-370 -553q-37 -55 -81 -55t-44 41q0 35 41 133l249 598q135 332 136 537q1 113 -61 151t-136 39q-180 0 -389 -135t-350 -334t-142 -368q0 -111 81 -179q82 -67 200 -67t291 59q6 2 14 2z" />
    <glyph glyph-name="ncommaaccent" unicode="&#x146;" horiz-adv-x="622" 
d="M496 -23q18 0 57 37q29 23 38 23t16 -7t7 -16q0 -24 -48 -60t-84 -36t-60 41t-25 109q0 68 31 172q96 289 96 304t-4 15q-18 8 -80 -78l-268 -358q-14 -14 -29 -49q-23 -41 -35 -55q-12 -13 -30 -13t-32 13q-13 13 -13 34t37 121l151 401q6 18 19 52l2 30q6 74 63 74
q15 0 29 -10q14 -11 14 -23t-29 -86l-176 -411l265 331q94 117 147 117q17 0 31 -15t14 -49q0 -33 -52 -177q-93 -257 -93 -344q1 -87 41 -87zM72 -385q-29 0 -29 23q0 6 12 18l17 18q12 14 22 33l148 180q37 49 48 49q12 0 34 -12t26 -20l-24 -35l-217 -246q-8 -8 -37 -8z
" />
    <glyph glyph-name="Ncaron" unicode="&#x147;" horiz-adv-x="1626" 
d="M1466 1767h9q8 1 16 -26l51 -131q2 -12 12 -13l13 2l215 136q33 20 39 20t15 -13q9 -12 9 -26t-28 -37l-234 -151q-51 -31 -75 -7q-11 11 -21 44l-53 153q-6 14 -6 22t18 15q12 12 20 12zM731 477q20 0 23 -20q0 -18 -23 -31q-35 -16 -147 -38t-170 -21q-137 0 -234 90
q-96 91 -96 231t115 322t301 325q276 213 528 213q123 0 189 -60t65 -175q0 -203 -141 -561l-236 -588l340 485q147 211 231 296t144 85q72 0 72 -66q0 -34 -25 -120l-127 -434q-12 -40 -24 -136q-26 -209 8 -270q14 -23 26 -22l68 10q4 0 12 -9t8 -16q0 -35 -73 -37
q-125 0 -125 181q0 154 41 303l112 430q9 40 9 66t-23 26t-47 -29q-125 -129 -240 -299l-370 -553q-37 -55 -81 -55t-44 41q0 35 41 133l249 598q135 332 136 537q1 113 -61 151t-136 39q-180 0 -389 -135t-350 -334t-142 -368q0 -111 81 -179q82 -67 200 -67t291 59
q6 2 14 2z" />
    <glyph glyph-name="ncaron" unicode="&#x148;" horiz-adv-x="622" 
d="M496 -23q18 0 57 37q29 23 38 23t16 -7t7 -16q0 -24 -48 -60t-84 -36t-60 41t-25 109q0 68 31 172q96 289 96 304t-4 15q-18 8 -80 -78l-268 -358q-14 -14 -29 -49q-23 -41 -35 -55q-12 -13 -30 -13t-32 13q-13 13 -13 34t37 121l151 401q6 18 19 52l2 30q6 74 63 74
q15 0 29 -10q14 -11 14 -23t-29 -86l-176 -411l265 331q94 117 147 117q17 0 31 -15t14 -49q0 -33 -52 -177q-93 -257 -93 -344q1 -87 41 -87zM545 1016q2 0 10 4l215 133q35 23 41 23t14 -14q9 -14 9 -27q0 -14 -29 -35l-234 -154q-31 -18 -43 -18q-35 0 -53 55l-53 156
l-6 16q0 12 22 23q12 10 22 10t21 -27l49 -131q4 -14 15 -14z" />
    <glyph glyph-name="Omacron" unicode="&#x14c;" horiz-adv-x="1159" 
d="M672 1737h440q4 4 66 -11q10 -2 19 -18t9 -30t-9 -22q-9 -9 -19 -9t-32 8t-73 8h-387l-65 -4q-45 0 -80 19q-35 20 -35 40t11 32t23 11q12 0 59 -12q46 -12 73 -12zM439 53q139 1 269 63t230 175q291 335 291 743q0 207 -119 350t-309 144q-283 0 -498 -285
q-164 -213 -164 -426q0 -31 8 -86q68 177 120 273t132 188q180 213 351 213q42 0 70 -14q28 -15 28 -31t-8 -26t-18 -11q-10 0 -32 9t-38 9q-74 1 -182 -81t-185 -199q-102 -147 -203 -434q90 -127 166 -174t214 -47t249 47q16 6 25 6q27 0 26 -23q0 -32 -106 -58t-224 -26
t-194 37q-78 37 -178 137q-20 -106 -21 -168q0 -139 81 -222t219 -83zM792 1585q226 1 364 -155t138 -406q0 -200 -82 -402t-231 -370q-100 -118 -251 -186q-152 -68 -310 -68t-253 97t-95 267q-1 98 32 252q-33 123 -32 197q0 158 79 321t209 277q206 176 432 176z" />
    <glyph glyph-name="omacron" unicode="&#x14d;" horiz-adv-x="653" 
d="M627 543q0 45 -62 98t-119 57q-104 4 -231 -164t-127 -313q0 -80 43 -123t125 -43q158 0 283 164q33 41 62 112q30 71 30 103l-13 68l5 20q4 16 4 21zM725 475q0 -8 -17 -23q-18 -14 -26 -60t-44 -119q-81 -164 -225 -237q-87 -44 -179 -44t-151 51q-58 51 -58 140
t44 203t109 206q133 176 268 176q58 0 120 -38t92 -98t36 -95l8 -31l19 -19q4 -4 4 -12zM334 1010h442q4 6 64 -11q10 -2 21 -20t9 -31q-4 -29 -30 -28q-12 0 -33 8t-72 8h-387l-65 -4q-45 0 -80 19t-35 39t11 32t23 12t59 -12q46 -12 73 -12z" />
    <glyph glyph-name="obreve" unicode="&#x14f;" horiz-adv-x="653" 
d="M404 1128q12 0 20 -22t39 -66t71 -43q40 0 105 39q18 8 61 44q42 36 52 36t18 -13t8 -26q0 -29 -104 -84t-162 -55t-115 92q-37 59 -36 68t22 20q10 10 21 10zM627 543q0 45 -62 98t-119 57q-104 4 -231 -164t-127 -313q0 -80 43 -123t125 -43q158 0 283 164
q33 41 62 112q30 71 30 103l-13 68l5 20q4 16 4 21zM725 475q0 -8 -17 -23q-18 -14 -26 -60t-44 -119q-81 -164 -225 -237q-87 -44 -179 -44t-151 51q-58 51 -58 140t44 203t109 206q133 176 268 176q58 0 120 -38t92 -98t36 -95l8 -31l19 -19q4 -4 4 -12z" />
    <glyph glyph-name="Ohungarumlaut" unicode="&#x150;" horiz-adv-x="1159" 
d="M1137 1913l-164 -225q-11 -16 -19 -18t-34 -7q-16 0 -16 27t28 61l141 186q19 17 27 27t37 13t28 -21q1 -6 -28 -43zM768 1663q-24 0 -24 26t28 64l141 184l25 25q10 14 39 14t29 -20q0 -6 -29 -43l-164 -223q-21 -27 -45 -27zM439 53q139 1 269 63t230 175
q291 335 291 743q0 207 -119 350t-309 144q-283 0 -498 -285q-164 -213 -164 -426q0 -31 8 -86q68 177 120 273t132 188q180 213 351 213q42 0 70 -14q28 -15 28 -31t-8 -26t-18 -11q-10 0 -32 9t-38 9q-74 1 -182 -81t-185 -199q-102 -147 -203 -434q90 -127 166 -174
t214 -47t249 47q16 6 25 6q27 0 26 -23q0 -32 -106 -58t-224 -26t-194 37q-78 37 -178 137q-20 -106 -21 -168q0 -139 81 -222t219 -83zM792 1585q226 1 364 -155t138 -406q0 -200 -82 -402t-231 -370q-100 -118 -251 -186q-152 -68 -310 -68t-253 97t-95 267q-1 98 32 252
q-33 123 -32 197q0 158 79 321t209 277q206 176 432 176z" />
    <glyph glyph-name="ohungarumlaut" unicode="&#x151;" horiz-adv-x="653" 
d="M627 543q0 45 -62 98t-119 57q-104 4 -231 -164t-127 -313q0 -80 43 -123t125 -43q158 0 283 164q33 41 62 112q30 71 30 103l-13 68l5 20q4 16 4 21zM725 475q0 -8 -17 -23q-18 -14 -26 -60t-44 -119q-81 -164 -225 -237q-87 -44 -179 -44t-151 51q-58 51 -58 140
t44 203t109 206q133 176 268 176q58 0 120 -38t92 -98t36 -95l8 -31l19 -19q4 -4 4 -12zM555 956q0 26 29 64l141 186q17 14 27 26t36 11q26 0 27 -14q2 -12 -29 -47l-163 -226q-18 -27 -48 -26q-20 0 -20 26zM627 1182l-164 -226q-11 -16 -19 -19t-34 -5q-14 0 -14 26
t28 62l141 186q19 16 27 26t36 12q28 1 27 -15q3 -10 -28 -47z" />
    <glyph glyph-name="OE" unicode="&#x152;" horiz-adv-x="1734" 
d="M439 53q139 1 269 63t230 175q291 335 291 743q0 207 -119 350t-309 144q-283 0 -498 -285q-164 -213 -164 -426q0 -31 8 -86q68 177 120 273t132 188q180 213 351 213q42 0 70 -14q28 -15 28 -31t-8 -26t-18 -11q-10 0 -32 9t-38 9q-74 1 -182 -81t-185 -199
q-102 -147 -203 -434q90 -127 166 -174t214 -47t249 47q16 6 25 6q27 0 26 -23q0 -32 -106 -58t-224 -26t-194 37q-78 37 -178 137q-20 -106 -21 -168q0 -139 81 -222t219 -83zM1208 -18q-152 0 -192 88q-23 49 -23 104t17 109q-43 -51 -72 -80q-92 -89 -236 -147t-292 -58
t-243 97t-95 267q0 98 32 252q-33 123 -32 197q0 158 79 321t209 277q204 176 432 176q228 1 365 -155t137 -410q0 -32 -2 -55l146 350q23 92 71 92q29 0 45 -25l9 -12l505 12q168 2 168 -55q0 -27 -41 -27q-19 0 -41 12t-81 17l-5 -2l-548 -27l-269 -581l443 14q4 0 40 -6
t38 -8q16 -6 16 -31q0 -35 -45 -35q-12 -1 -36 11t-50 12h-12l-416 -23l-123 -350q-29 -76 -29 -143q0 -123 133 -123q63 0 138 12l198 33q98 16 203 16q59 0 59 -32t-32 -31l-66 10q-27 0 -186 -20l-176 -31q-70 -12 -140 -12z" />
    <glyph glyph-name="oe" unicode="&#x153;" horiz-adv-x="1058" 
d="M913 676q-43 0 -121 -96t-79 -148q0 -14 18 -25t41 -12q57 0 121 77q63 77 63 146q0 26 -12 42t-31 16zM627 543q0 45 -62 98t-119 57q-104 4 -231 -164t-127 -313q0 -80 43 -123t125 -43q158 0 283 164q33 41 62 112q30 71 30 103l-13 68l5 20q4 16 4 21zM236 -8
q-98 0 -155 53q-56 53 -56 140t43 201t112 206q129 176 266 176q46 0 98 -26t76 -55t47 -77q22 -48 27 -75q117 211 250 210q34 1 58 -25t24 -61q0 -121 -81 -221t-179 -100q-37 0 -84 12q-31 -96 -31 -155t42 -97q41 -38 101 -39q60 0 108 27q48 26 68 58t34 32
q23 0 22 -22q0 -46 -72 -102t-159 -56q-123 0 -179 82q-26 40 -26 112q-66 -94 -161 -146t-193 -52z" />
    <glyph glyph-name="Racute" unicode="&#x154;" horiz-adv-x="1484" 
d="M1020 1589q-16 0 -16 26t28 64l142 185q23 18 24 24q12 14 40 14t28 -20q0 -8 -29 -43l-164 -225q-18 -25 -53 -25zM797 502q27 0 88 12l-146 145l-57 -147q88 -10 115 -10zM616 528l74 172q-68 54 -117 54t-71 -27t-21 -67q3 -40 31 -68t104 -64zM981 1231
q0 -29 -20 -70l-197 -440l176 -191q236 57 414 199q238 190 237 395q0 146 -141 238t-371 92q-324 0 -602 -166q-147 -84 -243 -204t-97 -216q0 -45 32 -93q32 -49 73 -71t41 -41q1 -19 -21 -19t-60 22q-135 82 -134 206q0 100 106 226t279 229q285 172 620 172
q260 0 422 -103t162 -272q0 -122 -86 -248q-188 -274 -590 -393l217 -303q49 -70 130 -148t142 -77q27 0 46 8q20 4 22 4q18 0 18 -24q0 -37 -71 -37q-139 0 -324 241l-250 324q-96 -20 -123 -20t-79 6l-43 6l-115 -338q-14 -47 -4 -88q3 -13 -17 -25t-43 -12q-31 0 -30 31
q0 29 20 86l127 358q-112 53 -152 96t-40 103t41 99q41 40 111 40t149 -57l182 442q13 33 25 47t24 12q37 -2 37 -26z" />
    <glyph glyph-name="racute" unicode="&#x155;" horiz-adv-x="571" 
d="M546 57q18 0 19 -23q1 -10 -25 -24t-57 -14q-106 0 -106 143q0 86 88 402q-45 0 -63 6t-44 31q-94 -246 -186 -410t-133 -164q-19 0 -19 16t21 37q66 72 160 269t139 362q12 43 41 43q16 0 27 -13q10 -14 8 -32l-2 -29q-2 -23 9 -42t24 -17t21 5t35 37q25 34 49 34
t23 -23q0 -11 -46 -117q-45 -106 -73 -224t-28 -192t64 -75q18 0 33 7t21 7zM516 938q-24 0 -24 26t28 64l142 184q23 18 24 25q12 14 40 14t28 -20q0 -6 -29 -43l-164 -223q-21 -27 -45 -27z" />
    <glyph glyph-name="Rcommaaccent" unicode="&#x156;" horiz-adv-x="1484" 
d="M633 -479q-29 0 -29 24q0 5 11 15t15 18t10 14q5 6 9 12t8 9l152 182q39 47 47 47t30 -12t25 -20l-24 -33l-217 -248q-8 -8 -37 -8zM797 502q27 0 88 12l-146 145l-57 -147q88 -10 115 -10zM616 528l74 172q-68 54 -117 54t-71 -27t-21 -67q3 -40 31 -68t104 -64z
M981 1231q0 -29 -20 -70l-197 -440l176 -191q236 57 414 199q238 190 237 395q0 146 -141 238t-371 92q-324 0 -602 -166q-147 -84 -243 -204t-97 -216q0 -45 32 -93q32 -49 73 -71t41 -41q1 -19 -21 -19t-60 22q-135 82 -134 206q0 100 106 226t279 229q285 172 620 172
q260 0 422 -103t162 -272q0 -122 -86 -248q-188 -274 -590 -393l217 -303q49 -70 130 -148t142 -77q27 0 46 8q20 4 22 4q18 0 18 -24q0 -37 -71 -37q-139 0 -324 241l-250 324q-96 -20 -123 -20t-79 6l-43 6l-115 -338q-14 -47 -4 -88q3 -13 -17 -25t-43 -12q-31 0 -30 31
q0 29 20 86l127 358q-112 53 -152 96t-40 103t41 99q41 40 111 40t149 -57l182 442q13 33 25 47t24 12q37 -2 37 -26z" />
    <glyph glyph-name="rcommaaccent" unicode="&#x157;" horiz-adv-x="571" 
d="M546 57q18 0 19 -23q1 -10 -25 -24t-57 -14q-106 0 -106 143q0 86 88 402q-45 0 -63 6t-44 31q-94 -246 -186 -410t-133 -164q-19 0 -19 16t21 37q66 72 160 269t139 362q12 43 41 43q16 0 27 -13q10 -14 8 -32l-2 -29q-2 -23 9 -42t24 -17t21 5t35 37q25 34 49 34
t23 -23q0 -11 -46 -117q-45 -106 -73 -224t-28 -192t64 -75q18 0 33 7t21 7zM336 -121l-25 -33l-217 -245q-8 -9 -37 -9t-28 23q0 6 12 18q8 3 17 21t22 31l153 182q37 45 49 44t30 -13q20 -12 24 -19z" />
    <glyph glyph-name="Rcaron" unicode="&#x158;" horiz-adv-x="1484" 
d="M942 1882h8q9 0 17 -27l51 -131q6 -14 24 -10l215 133q33 23 40 23t15 -13t9 -27q0 -14 -29 -36l-233 -152q-70 -51 -96 37l-60 172q0 8 19 19q12 12 20 12zM797 502q27 0 88 12l-146 145l-57 -147q88 -10 115 -10zM616 528l74 172q-68 54 -117 54t-71 -27t-21 -67
q3 -40 31 -68t104 -64zM981 1231q0 -29 -20 -70l-197 -440l176 -191q236 57 414 199q238 190 237 395q0 146 -141 238t-371 92q-324 0 -602 -166q-147 -84 -243 -204t-97 -216q0 -45 32 -93q32 -49 73 -71t41 -41q1 -19 -21 -19t-60 22q-135 82 -134 206q0 100 106 226
t279 229q285 172 620 172q260 0 422 -103t162 -272q0 -122 -86 -248q-188 -274 -590 -393l217 -303q49 -70 130 -148t142 -77q27 0 46 8q20 4 22 4q18 0 18 -24q0 -37 -71 -37q-139 0 -324 241l-250 324q-96 -20 -123 -20t-79 6l-43 6l-115 -338q-14 -47 -4 -88
q3 -13 -17 -25t-43 -12q-31 0 -30 31q0 29 20 86l127 358q-112 53 -152 96t-40 103t41 99q41 40 111 40t149 -57l182 442q13 33 25 47t24 12q37 -2 37 -26z" />
    <glyph glyph-name="rcaron" unicode="&#x159;" horiz-adv-x="571" 
d="M546 57q18 0 19 -23q1 -10 -25 -24t-57 -14q-106 0 -106 143q0 86 88 402q-45 0 -63 6t-44 31q-94 -246 -186 -410t-133 -164q-19 0 -19 16t21 37q66 72 160 269t139 362q12 43 41 43q16 0 27 -13q10 -14 8 -32l-2 -29q-2 -23 9 -42t24 -17t21 5t35 37q25 34 49 34
t23 -23q0 -11 -46 -117q-45 -106 -73 -224t-28 -192t64 -75q18 0 33 7t21 7zM566 981q3 0 12 4l217 133q33 23 39 23q6 1 14 -13q10 -14 10 -29t-29 -34l-233 -154q-31 -18 -45 -19q-31 -2 -51 56l-54 156q-6 12 -6 19t19 18q30 30 45 -15l49 -131q10 -14 13 -14z" />
    <glyph glyph-name="Sacute" unicode="&#x15a;" horiz-adv-x="1155" 
d="M825 1597q-16 0 -16 27t29 64l141 184q17 16 27 27t36 11t29 -20q0 -6 -31 -43l-163 -225q-18 -25 -52 -25zM317 1054q0 185 215 326q117 78 276 130q160 52 290 52t228 -75q98 -76 97 -186t-67 -263t-109 -153q-12 0 -22 12q-30 36 24 143l64 131q35 70 35 127
q0 84 -81 144t-203 59q-122 0 -266 -53t-263 -148q-145 -113 -146 -241q0 -96 96 -197q53 -57 281 -205l141 -92q121 -78 168 -134t47 -124q0 -123 -172 -216t-399 -93q-293 0 -416 152q-68 84 -67 165q0 45 27 87t53 42t26 -16t-20 -43q-43 -58 5 -153q27 -50 71 -91
t130 -69t181 -27q211 0 363 78t151 186q0 55 -43 105q-44 48 -146 114l-161 103q-213 133 -301 231q-87 98 -87 192z" />
    <glyph glyph-name="sacute" unicode="&#x15b;" horiz-adv-x="618" 
d="M547 80q1 -80 -241 -80q-122 0 -220 33q-96 33 -96 82q0 33 30 73t54 42q24 3 24 -15q0 -9 -22 -37t-21 -51q0 -33 79 -55q78 -22 210 -23q132 0 133 31q2 12 -24 39q-27 27 -62 47l-127 78q-100 59 -139 108t-39 115q0 125 182 219q251 125 365 11q53 -52 53 -133
t-48 -172t-91 -91q-23 1 -23 21t38 72t38 163q0 139 -111 139q-86 0 -198 -53q-139 -68 -139 -172q0 -51 34 -94t115 -94l141 -84q104 -63 105 -119zM520 938q-26 0 -26 23q0 29 28 67l144 184l24 25q10 14 38 14t28 -20q0 -8 -29 -43l-164 -223q-17 -27 -43 -27z" />
    <glyph glyph-name="Scircumflex" unicode="&#x15c;" horiz-adv-x="1155" 
d="M1190 1655h-8q-7 -1 -17 26l-49 131q-6 12 -14 13l-10 -2l-218 -135q-32 -20 -38 -20t-16 12t-9 26q0 14 29 37l233 151q48 32 75 8q11 -11 21 -44l54 -154q6 -16 6 -21t-19 -16q-12 -12 -20 -12zM317 1054q0 185 215 326q117 78 276 130q160 52 290 52t228 -75
q98 -76 97 -186t-67 -263t-109 -153q-12 0 -22 12q-30 36 24 143l64 131q35 70 35 127q0 84 -81 144t-203 59q-122 0 -266 -53t-263 -148q-145 -113 -146 -241q0 -96 96 -197q53 -57 281 -205l141 -92q121 -78 168 -134t47 -124q0 -123 -172 -216t-399 -93q-293 0 -416 152
q-68 84 -67 165q0 45 27 87t53 42t26 -16t-20 -43q-43 -58 5 -153q27 -50 71 -91t130 -69t181 -27q211 0 363 78t151 186q0 55 -43 105q-44 48 -146 114l-161 103q-213 133 -301 231q-87 98 -87 192z" />
    <glyph glyph-name="scircumflex" unicode="&#x15d;" horiz-adv-x="618" 
d="M729 924h-8q-9 -1 -19 26l-49 131q-8 14 -24 11l-217 -134q-33 -22 -39 -22q-5 0 -15 13t-10 29t31 34l231 151q70 49 97 -37l53 -153q6 -12 6 -21t-21 -18q-12 -10 -16 -10zM547 80q1 -80 -241 -80q-122 0 -220 33q-96 33 -96 82q0 33 30 73t54 42q24 3 24 -15
q0 -9 -22 -37t-21 -51q0 -33 79 -55q78 -22 210 -23q132 0 133 31q2 12 -24 39q-27 27 -62 47l-127 78q-100 59 -139 108t-39 115q0 125 182 219q251 125 365 11q53 -52 53 -133t-48 -172t-91 -91q-23 1 -23 21t38 72t38 163q0 139 -111 139q-86 0 -198 -53
q-139 -68 -139 -172q0 -51 34 -94t115 -94l141 -84q104 -63 105 -119z" />
    <glyph glyph-name="Scedilla" unicode="&#x15e;" horiz-adv-x="1155" 
d="M446 -381q-30 0 -30 25q0 4 14 16q12 16 17 24t22 27l131 152q37 47 46 47q8 0 30 -12t24 -21l-24 -35l-195 -213q-5 -10 -35 -10zM317 1054q0 185 215 326q117 78 276 130q160 52 290 52t228 -75q98 -76 97 -186t-67 -263t-109 -153q-12 0 -22 12q-30 36 24 143l64 131
q35 70 35 127q0 84 -81 144t-203 59q-122 0 -266 -53t-263 -148q-145 -113 -146 -241q0 -96 96 -197q53 -57 281 -205l141 -92q121 -78 168 -134t47 -124q0 -123 -172 -216t-399 -93q-293 0 -416 152q-68 84 -67 165q0 45 27 87t53 42t26 -16t-20 -43q-43 -58 5 -153
q27 -50 71 -91t130 -69t181 -27q211 0 363 78t151 186q0 55 -43 105q-44 48 -146 114l-161 103q-213 133 -301 231q-87 98 -87 192z" />
    <glyph glyph-name="scedilla" unicode="&#x15f;" horiz-adv-x="618" 
d="M547 80q1 -80 -241 -80q-122 0 -220 33q-96 33 -96 82q0 33 30 73t54 42q24 3 24 -15q0 -9 -22 -37t-21 -51q0 -33 79 -55q78 -22 210 -23q132 0 133 31q2 12 -24 39q-27 27 -62 47l-127 78q-100 59 -139 108t-39 115q0 125 182 219q251 125 365 11q53 -52 53 -133
t-48 -172t-91 -91q-23 1 -23 21t38 72t38 163q0 139 -111 139q-86 0 -198 -53q-139 -68 -139 -172q0 -51 34 -94t115 -94l141 -84q104 -63 105 -119zM184 -381q-6 -10 -36 -10t-29 24q0 7 15 22t38 48l129 152q39 45 47 45t30 -12t25 -21l-24 -33z" />
    <glyph glyph-name="Scaron" unicode="&#x160;" horiz-adv-x="1155" 
d="M1272 1825q0 -16 -29 -35l-233 -152q-25 -18 -43 -18t-30 11q-11 11 -22 44l-55 154l-6 18q0 5 18 19t25 14q13 0 23 -27l49 -133q6 -12 14 -12l10 2l215 135q35 21 42 21q6 0 14 -12t8 -29zM317 1054q0 185 215 326q117 78 276 130q160 52 290 52t228 -75
q98 -76 97 -186t-67 -263t-109 -153q-12 0 -22 12q-30 36 24 143l64 131q35 70 35 127q0 84 -81 144t-203 59q-122 0 -266 -53t-263 -148q-145 -113 -146 -241q0 -96 96 -197q53 -57 281 -205l141 -92q121 -78 168 -134t47 -124q0 -123 -172 -216t-399 -93q-293 0 -416 152
q-68 84 -67 165q0 45 27 87t53 42t26 -16t-20 -43q-43 -58 5 -153q27 -50 71 -91t130 -69t181 -27q211 0 363 78t151 186q0 55 -43 105q-44 48 -146 114l-161 103q-213 133 -301 231q-87 98 -87 192z" />
    <glyph glyph-name="scaron" unicode="&#x161;" horiz-adv-x="618" 
d="M547 80q1 -80 -241 -80q-122 0 -220 33q-96 33 -96 82q0 33 30 73t54 42q24 3 24 -15q0 -9 -22 -37t-21 -51q0 -33 79 -55q78 -22 210 -23q132 0 133 31q2 12 -24 39q-27 27 -62 47l-127 78q-100 59 -139 108t-39 115q0 125 182 219q251 125 365 11q53 -52 53 -133
t-48 -172t-91 -91q-23 1 -23 21t38 72t38 163q0 139 -111 139q-86 0 -198 -53q-139 -68 -139 -172q0 -51 34 -94t115 -94l141 -84q104 -63 105 -119zM478 1016q5 0 14 4l217 133q35 23 39 23t14 -14t10 -29q0 -14 -29 -33l-233 -154q-31 -18 -43 -18q-35 0 -53 55l-54 156
l-6 16q0 10 19 21q11 12 23 12t22 -27l51 -131q4 -14 9 -14z" />
    <glyph glyph-name="Tcommaaccent" unicode="&#x162;" horiz-adv-x="1171" 
d="M496 -385q-30 0 -29 23q0 4 10 14t19 22q8 12 24 33l154 182q35 45 47 44q11 -1 31 -11t22 -20l-24 -33l-218 -246q-6 -8 -36 -8zM213 1339q-145 0 -145 64q0 33 69 45l129 20q10 2 31 2t20 -18q0 -20 -131 -61q58 -8 87 -5q29 2 83 8t97 9l1128 108l57 2q68 0 122 -16
t52 -47q0 -18 -36 -34t-78 -15q-43 0 -43 53l-377 -18q6 -43 -64 -99l-428 -1204l9 -72q5 -23 -13 -39t-45 -18q-43 0 -43 39t17 88l463 1294l-728 -63q-207 -23 -233 -23z" />
    <glyph glyph-name="tcommaaccent" unicode="&#x163;" horiz-adv-x="317" 
d="M50 -397q-30 0 -30 24q0 6 13 17q12 16 22 28t19 25l151 182q39 45 49 45t30 -11t24 -22l-25 -32l-217 -246q-6 -10 -36 -10zM377 86q20 0 20 -22t-37 -42q-37 -22 -71 -22q-115 0 -115 142t59 315q23 68 103 256h-68l-82 -2q-61 0 -61 39q0 25 25 24l69 -2h139l113 227
q39 81 52 99t46 18t33 -29q0 -12 -27 -71l-137 -240l146 8q27 2 45 -9t18 -25t-10 -24t-21 -9l-47 10h-10l-153 -14q-76 -149 -124 -303t-48 -222t18 -104q20 -35 43 -31h16q5 -3 29 15t37 18z" />
    <glyph glyph-name="Tcaron" unicode="&#x164;" horiz-adv-x="1171" 
d="M1243 1645q2 0 10 4l215 133q35 22 41 22q7 0 15 -13t8 -29t-29 -33l-233 -154q-27 -18 -43 -19q-35 0 -53 56l-54 153l-6 19q0 8 19 20q11 11 24 13q11 0 21 -27l51 -131q4 -14 14 -14zM213 1339q-145 0 -145 64q0 33 69 45l129 20q10 2 31 2t20 -18q0 -20 -131 -61
q58 -8 87 -5q29 2 83 8t97 9l1128 108l57 2q68 0 122 -16t52 -47q0 -18 -36 -34t-78 -15q-43 0 -43 53l-377 -18q6 -43 -64 -99l-428 -1204l9 -72q5 -23 -13 -39t-45 -18q-43 0 -43 39t17 88l463 1294l-728 -63q-207 -23 -233 -23z" />
    <glyph glyph-name="tcaron" unicode="&#x165;" horiz-adv-x="317" 
d="M592 944q-29 0 -29 25q-1 4 9 12q10 9 20 25t24 30l154 185q37 45 46 45q8 0 30 -12t26 -21l-26 -33l-217 -248q-8 -8 -37 -8zM269 86q11 0 19 -7t7 -16q0 -19 -38 -41t-73 -22q-112 0 -112 144t59 313q18 55 100 256h-67l-80 -2q-63 0 -64 39q0 10 8 17t19 7l70 -2h137
l115 227q37 81 51 99t46 18t32 -27t-27 -73l-135 -240l143 8q27 2 46 -9q36 -21 9 -48q-11 -10 -22 -10l-47 10h-10l-154 -14q-170 -340 -170 -549q1 -47 19 -80t43 -31h16q5 -3 27 15t33 18z" />
    <glyph glyph-name="utilde" unicode="&#x169;" horiz-adv-x="585" 
d="M418 977q-37 0 -67 -21t-48 -20q-27 0 -27 33q0 10 6 16q6 7 40 31q33 24 80 24t99 -22t87 -21q35 -1 70 21q34 22 44 22t22 -13t11 -27q0 -14 -28 -31l-27 -15q-39 -24 -92 -24t-94 22t-64 25h-12zM119 -18q-72 0 -72 85t51 218l115 299q57 152 117 151q33 0 32 -35
q0 -23 -15 -43t-71 -100l-126 -291q-39 -90 -39 -178q0 -20 9 -34t21 -15q59 0 195 190q27 37 71 118t56 114l43 100q20 49 53 49q13 0 23 -9t10 -24t-29 -66t-65 -162t-37 -220q0 -76 43 -76q14 0 33 12t28 1q8 -11 8 -23t-27 -28q-28 -15 -64 -15t-60 32t-23 60q0 28 4 90
l3 49l-17 -18l-47 -63q-54 -78 -114 -123t-109 -45z" />
    <glyph glyph-name="Umacron" unicode="&#x16a;" horiz-adv-x="1830" 
d="M1323 1636h442q4 6 64 -10q8 -2 24 -27t1 -39t-25 -14t-33 8t-72 9h-387l-65 -4q-45 0 -80 20q-35 19 -35 39t11 32q12 12 24 11t58 -13t73 -12zM1133 1332q1 175 -201 175q-104 0 -246 -58q-141 -58 -266 -166t-202 -241t-77 -236q-1 -102 57 -160t152 -58q52 0 152 22
t136 42t42 20t14 -7t8 -16q0 -37 -118 -76t-242 -39q-125 0 -200 66q-74 66 -74 196t105 292q105 164 276 284q256 182 509 182q131 0 191 -73q45 -51 45 -157t-74 -318l-205 -592q-87 -254 -48 -311q15 -22 38 -21q66 0 198 143t307 413t259 452q83 182 111 236t58 54
t44 -10t12 -25t-55 -108q-98 -168 -189 -486t-91 -493q0 -100 47 -184q25 -45 80 -45l53 8q8 0 15 -8t7 -17q0 -35 -86 -35t-135 75t-49 196t26 247t97 371q-195 -315 -251 -394q-55 -80 -185 -228t-178 -185t-101 -37t-81 32q-28 30 -27 83q0 98 69 303l195 572
q78 233 78 320z" />
    <glyph glyph-name="umacron" unicode="&#x16b;" horiz-adv-x="585" 
d="M272 1010h443q4 6 63 -11q8 -2 20 -21t11 -30q-4 -29 -31 -28q-12 0 -32 8t-72 8h-387l-66 -4q-45 0 -80 19t-35 39t12 32t23 12q12 0 58 -12t73 -12zM119 -18q-72 0 -72 85t51 218l115 299q57 152 117 151q33 0 32 -35q0 -23 -15 -43t-71 -100l-126 -291
q-39 -90 -39 -178q0 -20 9 -34t21 -15q59 0 195 190q27 37 71 118t56 114l43 100q20 49 53 49q13 0 23 -9t10 -24t-29 -66t-65 -162t-37 -220q0 -76 43 -76q14 0 33 12t28 1q8 -11 8 -23t-27 -28q-28 -15 -64 -15t-60 32t-23 60q0 28 4 90l3 49l-17 -18l-47 -63
q-54 -78 -114 -123t-109 -45z" />
    <glyph glyph-name="ubreve" unicode="&#x16d;" horiz-adv-x="585" 
d="M384 1128q12 0 20 -22t39 -66t71 -43q40 0 104 39q18 8 61 44t53 36t18 -13t8 -26q0 -29 -104 -84t-162 -55q-57 0 -115 92q-37 59 -37 68t22 20q10 10 22 10zM119 -18q-72 0 -72 85t51 218l115 299q57 152 117 151q33 0 32 -35q0 -23 -15 -43t-71 -100l-126 -291
q-39 -90 -39 -178q0 -20 9 -34t21 -15q59 0 195 190q27 37 71 118t56 114l43 100q20 49 53 49q13 0 23 -9t10 -24t-29 -66t-65 -162t-37 -220q0 -76 43 -76q14 0 33 12t28 1q8 -11 8 -23t-27 -28q-28 -15 -64 -15t-60 32t-23 60q0 28 4 90l3 49l-17 -18l-47 -63
q-54 -78 -114 -123t-109 -45z" />
    <glyph glyph-name="Uring" unicode="&#x16e;" horiz-adv-x="1830" 
d="M1618 1670q0 76 -71 75q-37 0 -67 -33t-30 -78q0 -66 53 -65q47 0 81 32q34 33 34 69zM1386 1636q0 60 54 113t114 53q58 0 93 -34t35 -90t-54 -111q-52 -55 -112 -55t-95 32t-35 92zM1133 1332q1 175 -201 175q-104 0 -246 -58q-141 -58 -266 -166t-202 -241t-77 -236
q-1 -102 57 -160t152 -58q52 0 152 22t136 42t42 20t14 -7t8 -16q0 -37 -118 -76t-242 -39q-125 0 -200 66q-74 66 -74 196t105 292q105 164 276 284q256 182 509 182q131 0 191 -73q45 -51 45 -157t-74 -318l-205 -592q-87 -254 -48 -311q15 -22 38 -21q66 0 198 143
t307 413t259 452q83 182 111 236t58 54t44 -10t12 -25t-55 -108q-98 -168 -189 -486t-91 -493q0 -100 47 -184q25 -45 80 -45l53 8q8 0 15 -8t7 -17q0 -35 -86 -35t-135 75t-49 196t26 247t97 371q-195 -315 -251 -394q-55 -80 -185 -228t-178 -185t-101 -37t-81 32
q-28 30 -27 83q0 98 69 303l195 572q78 233 78 320z" />
    <glyph glyph-name="uring" unicode="&#x16f;" horiz-adv-x="585" 
d="M569 1161q-41 0 -73 -33q-32 -32 -31 -68q0 -36 15 -54t50 -18t69 30q34 31 34 74q-1 69 -64 69zM401 1054q-1 60 53 112t116 53q62 0 94 -32q32 -31 32 -91t-52 -113t-112 -53t-96 32q-35 32 -35 92zM119 -18q-72 0 -72 85t51 218l115 299q57 152 117 151q33 0 32 -35
q0 -23 -15 -43t-71 -100l-126 -291q-39 -90 -39 -178q0 -20 9 -34t21 -15q59 0 195 190q27 37 71 118t56 114l43 100q20 49 53 49q13 0 23 -9t10 -24t-29 -66t-65 -162t-37 -220q0 -76 43 -76q14 0 33 12t28 1q8 -11 8 -23t-27 -28q-28 -15 -64 -15t-60 32t-23 60q0 28 4 90
l3 49l-17 -18l-47 -63q-54 -78 -114 -123t-109 -45z" />
    <glyph glyph-name="Uhungarumlaut" unicode="&#x170;" horiz-adv-x="1830" 
d="M1584 1497q-26 0 -25 26q0 26 28 64l144 185l24 24q12 18 40 16t26 -22q0 -8 -29 -41l-164 -225q-18 -27 -44 -27zM1424 1497q-26 0 -25 28q0 28 28 62l144 187q18 16 22 24q10 12 39 15t29 -21q0 -8 -29 -43l-164 -225q-18 -27 -44 -27zM1133 1332q1 175 -201 175
q-104 0 -246 -58q-141 -58 -266 -166t-202 -241t-77 -236q-1 -102 57 -160t152 -58q52 0 152 22t136 42t42 20t14 -7t8 -16q0 -37 -118 -76t-242 -39q-125 0 -200 66q-74 66 -74 196t105 292q105 164 276 284q256 182 509 182q131 0 191 -73q45 -51 45 -157t-74 -318
l-205 -592q-87 -254 -48 -311q15 -22 38 -21q66 0 198 143t307 413t259 452q83 182 111 236t58 54t44 -10t12 -25t-55 -108q-98 -168 -189 -486t-91 -493q0 -100 47 -184q25 -45 80 -45l53 8q8 0 15 -8t7 -17q0 -35 -86 -35t-135 75t-49 196t26 247t97 371
q-195 -315 -251 -394q-55 -80 -185 -228t-178 -185t-101 -37t-81 32q-28 30 -27 83q0 98 69 303l195 572q78 233 78 320z" />
    <glyph glyph-name="uhungarumlaut" unicode="&#x171;" horiz-adv-x="585" 
d="M798 1243q28 0 29 -20q1 -6 -28 -41l-164 -226q-23 -26 -46 -26t-23 26t28 64l141 186q7 4 21 20t42 17zM406 958q0 26 28 62l141 186q19 16 27 26t37 14q29 3 29 -21q0 -6 -29 -43l-164 -226q-18 -23 -53 -24q-16 0 -16 26zM119 -18q-72 0 -72 85t51 218l115 299
q57 152 117 151q33 0 32 -35q0 -23 -15 -43t-71 -100l-126 -291q-39 -90 -39 -178q0 -20 9 -34t21 -15q59 0 195 190q27 37 71 118t56 114l43 100q20 49 53 49q13 0 23 -9t10 -24t-29 -66t-65 -162t-37 -220q0 -76 43 -76q14 0 33 12t28 1q8 -11 8 -23t-27 -28
q-28 -15 -64 -15t-60 32t-23 60q0 28 4 90l3 49l-17 -18l-47 -63q-54 -78 -114 -123t-109 -45z" />
    <glyph glyph-name="Uogonek" unicode="&#x172;" horiz-adv-x="1830" 
d="M1133 1332q1 175 -201 175q-104 0 -246 -58q-141 -58 -266 -166t-202 -241t-77 -236q-1 -102 57 -160t152 -58q52 0 152 22t136 42t42 20t14 -7t8 -16q0 -37 -118 -76t-242 -39q-125 0 -200 66q-74 66 -74 196t105 292q105 164 276 284q256 182 509 182q131 0 191 -73
q45 -51 45 -157t-74 -318l-205 -592q-61 -176 -61 -264q0 -28 15 -48t36 -20q66 0 198 143t307 413t259 452q83 182 111 236t71 54t43 -32q0 -18 -53 -108t-134 -305q-81 -216 -126 -489q-23 -133 -22 -184q0 -104 47 -188q25 -45 80 -45l53 8q8 0 15 -7q7 -6 7 -20t-19 -22
q-18 -8 -76 -58t-58 -88q0 -55 100 -55q37 0 37 -37q0 -14 -27 -26q-28 -12 -70 -12t-81 40t-39 104t98 128q-135 43 -135 276q0 109 26 235t97 371q-195 -315 -251 -394q-55 -80 -185 -228t-178 -185t-101 -37t-81 32q-28 30 -27 83q0 98 69 303l195 572q78 233 78 320z
" />
    <glyph glyph-name="uogonek" unicode="&#x173;" horiz-adv-x="585" 
d="M504 55q21 0 51 15q6 0 12 -8t6 -14q0 -7 -8 -16t-59 -51q-50 -42 -68 -65t-18 -49q0 -53 100 -53q37 0 37 -37q0 -15 -26 -27q-25 -12 -69 -12t-83 41t-39 103t102 130q-43 31 -43 101q0 8 4 69l3 49l-17 -18l-47 -63q-54 -78 -114 -123t-109 -45q-72 0 -72 85t51 218
l115 299q57 152 117 151q33 0 32 -35q0 -23 -15 -43t-71 -100l-126 -291q-39 -90 -39 -178q0 -20 9 -34t21 -15q59 0 195 190q27 37 71 118t56 114l43 100q20 49 53 49q13 0 23 -9t10 -24t-29 -66t-65 -162t-37 -222q0 -72 43 -72z" />
    <glyph glyph-name="wcircumflex" unicode="&#x175;" horiz-adv-x="751" 
d="M406 938q-25 0 -25 39q0 16 29 35l233 153q27 18 41 19q35 0 53 -56l56 -153l6 -19q0 -10 -23 -22q-12 -10 -20 -10q-13 -1 -23 26l-49 131q-8 15 -12 15t-13 -4l-215 -134q-33 -20 -38 -20zM70 -10q-63 0 -66 80q0 49 46 185q47 136 100 249l102 207q25 35 61 34
q11 0 21 -9t10 -24t-18 -44q-104 -154 -178 -318t-80 -262q-2 -16 7 -30t19 -13q43 0 143 145q99 145 128 252q16 64 52 64t36 -31q1 -11 -15 -91t-16 -130t29 -108q29 -60 57 -60q58 0 131 154q29 57 51 140q23 83 23 128l-19 156q0 43 47 47t50 -123q0 -35 -13 -80
q-49 -229 -104 -328q-86 -145 -178 -145q-121 0 -138 256q-109 -177 -167 -239t-121 -62z" />
    <glyph glyph-name="ycircumflex" unicode="&#x177;" horiz-adv-x="557" 
d="M329 938q-7 0 -16 12q-8 12 -8 28t29 34l233 153q27 18 43 19q35 0 54 -56l53 -153l6 -19q-1 -8 -17 -20t-26 -12t-21 26l-51 131q-6 20 -24 11l-215 -134q-33 -20 -40 -20zM84 135q0 -82 39 -82q57 1 191 157t169 306q23 86 70 86q15 0 25 -9t10 -23t-16 -52
q-16 -39 -40 -100q-29 -117 -86 -346q-47 -210 -88 -312t-106 -174q-94 -100 -195 -100q-135 0 -178 203q-23 105 -11 167t50 62q39 0 39 -41q0 -29 -20 -47t-21 -41q0 -100 34 -176t118 -76q57 0 115 47t104 133q80 147 151 590q-207 -305 -336 -305q-32 0 -54 28t-21 72
q0 106 52 252q51 146 123 256q72 111 111 111q31 0 31 -35q0 -25 -33 -61l-10 -13q-34 -15 -43 -30l-18 -25q-66 -94 -111 -217t-45 -205z" />
    <glyph glyph-name="Ydieresis" unicode="&#x178;" horiz-adv-x="1671" 
d="M1708 1638q0 -30 -26 -60t-52 -30t-48 20q-24 20 -24 38t20 55t75 37t55 -60zM1352 1550q-29 0 -49 70v4l2 4q4 37 29 62q26 24 57 24t48 -24t11 -50v-12q0 -14 -26 -46q-25 -32 -72 -32zM1806 1200q49 0 49 -45q0 -23 -15 -59q-16 -36 -92 -201q-76 -164 -166 -412
q-90 -249 -160 -507q-72 -258 -72 -318q0 -12 10 -37q12 -19 12 -35t-18 -29t-40 -13t-37 14t-15 45t22 108q127 524 340 1065q-145 -232 -216 -334q-72 -102 -176 -221t-170 -167t-125 -48q-60 0 -92 35t-32 89t22 150t46 156l174 430q96 236 96 363t-83 181t-196 54
q-293 0 -522 -241q-94 -96 -146 -204t-52 -188q0 -81 42 -147q104 -164 353 -164q96 0 198 29q16 4 21 4q27 0 27 -21q0 -31 -69 -50t-177 -19q-308 0 -431 192q-48 76 -48 154q0 225 225 455q248 254 573 254q86 0 165 -30t122 -77q59 -71 59 -191t-100 -374l-164 -412
q-61 -150 -61 -274q0 -90 53 -90q106 0 351 314t435 728q27 56 41 72t39 16z" />
    <glyph glyph-name="Zacute" unicode="&#x179;" horiz-adv-x="1540" 
d="M1096 1538q-26 0 -26 28t28 62l141 184q14 12 27 29q10 10 38 10t27 -20q1 -6 -28 -41l-164 -225q-17 -27 -43 -27zM158 119q0 -33 34 -53t91 -21q114 0 266 76q-267 23 -329 23t-62 -25zM1736 1507q22 0 47 -13q26 -13 25 -30q0 -23 -45 -30q-53 -16 -119 -106
t-380 -568q-199 -258 -317 -384t-253 -229q59 -23 168 -51q199 -66 298 -66t173 24t99 61q14 20 28 20t28 -11t13 -24q0 -23 -53 -57q-86 -59 -234 -59t-561 120q-32 -12 -82 -32q-186 -80 -283 -80t-159 40q-61 40 -61 90t22 63q24 13 106 13t435 -34q436 319 844 1038
l112 197l-47 -2l-129 -15q-53 -4 -105 -4t-108 6l-264 35q-293 42 -415 -7q-71 -28 -70 -69q0 -47 96 -98q51 -27 51 -53q0 -8 -7 -16t-23 -8t-66 27q-51 27 -98 65q-48 38 -48 96t85 96q85 39 208 39t309 -25l234 -32q47 -8 108 -9q180 0 385 72q31 10 53 10z" />
    <glyph glyph-name="zacute" unicode="&#x17a;" horiz-adv-x="606" 
d="M418 88q137 0 137 -47q0 -39 -51 -39q-25 0 -53 23q-6 6 -89 6l-169 -25q-10 -2 -48 -2q-100 0 -100 57q0 43 40 81t81 77l350 313q82 72 82 111q0 23 -28 23t-76 -4l-220 -25q-94 -8 -114 -8t-38 13q-17 13 -18 32q0 37 48 37l34 -2q25 -4 56 -4h20l234 18q53 4 55 4
q59 1 99 -21t40 -57t-20 -63t-115 -109l-352 -315q-57 -48 -57 -66q-1 -33 40 -28l174 16q33 4 58 4zM440 938q-24 0 -24 26t28 64l142 184q20 16 24 25q10 14 39 14t29 -20q0 -6 -29 -43l-164 -223q-21 -27 -45 -27z" />
    <glyph glyph-name="Zdotaccent" unicode="&#x17b;" horiz-adv-x="1540" 
d="M1143 1694q35 0 45 -29q23 -45 -8 -90q-30 -45 -80 -45q-12 0 -28 16t-21 51v5q-2 8 6 30t16 31q35 31 70 31zM158 119q0 -33 34 -53t91 -21q114 0 266 76q-267 23 -329 23t-62 -25zM1736 1507q22 0 47 -13q26 -13 25 -30q0 -23 -45 -30q-53 -16 -119 -106t-380 -568
q-199 -258 -317 -384t-253 -229q59 -23 168 -51q199 -66 298 -66t173 24t99 61q14 20 28 20t28 -11t13 -24q0 -23 -53 -57q-86 -59 -234 -59t-561 120q-32 -12 -82 -32q-186 -80 -283 -80t-159 40q-61 40 -61 90t22 63q24 13 106 13t435 -34q436 319 844 1038l112 197
l-47 -2l-129 -15q-53 -4 -105 -4t-108 6l-264 35q-293 42 -415 -7q-71 -28 -70 -69q0 -47 96 -98q51 -27 51 -53q0 -8 -7 -16t-23 -8t-66 27q-51 27 -98 65q-48 38 -48 96t85 96q85 39 208 39t309 -25l234 -32q47 -8 108 -9q180 0 385 72q31 10 53 10z" />
    <glyph glyph-name="zdotaccent" unicode="&#x17c;" horiz-adv-x="606" 
d="M418 88q137 0 137 -47q0 -39 -51 -39q-25 0 -53 23q-6 6 -89 6l-169 -25q-10 -2 -48 -2q-100 0 -100 57q0 43 40 81t81 77l350 313q82 72 82 111q0 23 -28 23t-76 -4l-220 -25q-94 -8 -114 -8t-38 13q-17 13 -18 32q0 37 48 37l34 -2q25 -4 56 -4h20l234 18q53 4 55 4
q59 1 99 -21t40 -57t-20 -63t-115 -109l-352 -315q-57 -48 -57 -66q-1 -33 40 -28l174 16q33 4 58 4zM452 1102q34 0 46 -29l8 -26q2 -17 3 -27t-16 -34q-34 -48 -83 -48q-40 0 -50 68v4q-2 8 6 30t17 31q35 31 69 31z" />
    <glyph glyph-name="Zcaron" unicode="&#x17d;" horiz-adv-x="1540" 
d="M1409 1718q0 -14 -29 -35l-233 -153q-31 -18 -43 -19q-33 0 -53 56l-60 172q0 10 23 22q12 10 20 11q11 0 23 -27l49 -131q6 -21 24 -10l216 133q34 23 40 23t14 -14t9 -28zM158 119q0 -33 34 -53t91 -21q114 0 266 76q-267 23 -329 23t-62 -25zM1736 1507q22 0 47 -13
q26 -13 25 -30q0 -23 -45 -30q-53 -16 -119 -106t-380 -568q-199 -258 -317 -384t-253 -229q59 -23 168 -51q199 -66 298 -66t173 24t99 61q14 20 28 20t28 -11t13 -24q0 -23 -53 -57q-86 -59 -234 -59t-561 120q-32 -12 -82 -32q-186 -80 -283 -80t-159 40q-61 40 -61 90
t22 63q24 13 106 13t435 -34q436 319 844 1038l112 197l-47 -2l-129 -15q-53 -4 -105 -4t-108 6l-264 35q-293 42 -415 -7q-71 -28 -70 -69q0 -47 96 -98q51 -27 51 -53q0 -8 -7 -16t-23 -8t-66 27q-51 27 -98 65q-48 38 -48 96t85 96q85 39 208 39t309 -25l234 -32
q47 -8 108 -9q180 0 385 72q31 10 53 10z" />
    <glyph glyph-name="zcaron" unicode="&#x17e;" horiz-adv-x="606" 
d="M418 88q137 0 137 -47q0 -39 -51 -39q-25 0 -53 23q-6 6 -89 6l-169 -25q-10 -2 -48 -2q-100 0 -100 57q0 43 40 81t81 77l350 313q82 72 82 111q0 23 -28 23t-76 -4l-220 -25q-94 -8 -114 -8t-38 13q-17 13 -18 32q0 37 48 37l34 -2q25 -4 56 -4h20l234 18q53 4 55 4
q59 1 99 -21t40 -57t-20 -63t-115 -109l-352 -315q-57 -48 -57 -66q-1 -33 40 -28l174 16q33 4 58 4zM418 1016q2 0 10 4l215 133q35 23 41 23t14 -12q23 -36 -20 -64l-234 -154q-31 -18 -43 -18q-33 0 -51 55l-55 156l-6 16q0 12 22 23q13 10 23 10t20 -27l49 -131
q6 -14 15 -14z" />
    <glyph glyph-name="florin" unicode="&#x192;" horiz-adv-x="561" 
d="M-4 -365q-28 -1 -54 13t-26 27t11 25t21 11q10 0 30 -13t34 -13q35 -1 72 65t68 180l198 746l-117 -4q-72 -4 -71 33q0 12 20 12l49 -2l131 4l68 258q41 162 164 162q32 1 60 -13t28 -30q0 -10 -12 -22t-22 -11q-10 0 -30 13q-20 14 -40 14t-54 -50q-33 -50 -53 -125
l-51 -190l137 10l16 2q15 0 31 -12t17 -23q-1 -14 -15 -14t-22 2l-23 6l-31 -4l-122 -10l-213 -805q-31 -113 -83 -177t-116 -65z" />
    <glyph glyph-name="Gcaron" unicode="&#x1e6;" horiz-adv-x="1110" 
d="M987 1913h8q9 0 17 -27l51 -131q2 -12 12 -12l10 2l218 135q33 20 39 20t14 -12q10 -14 10 -27t-29 -36l-233 -152q-27 -18 -45 -18t-30 11q-11 11 -21 44l-54 154q-6 16 -6 18q0 10 19 19q12 12 20 12zM466 2q-165 0 -282 116q-116 116 -116 294t110 401
q111 223 289 406q297 303 573 303q109 0 188 -80t93 -209q2 -14 18 -19q29 -6 29 -30t-18 -56q-18 -30 -50 -104l-61 -160q-12 -37 -53 -37t-41 31q0 39 86 215q23 49 22 117q1 114 -67 196t-162 82q-139 0 -301 -108t-313 -305q-270 -348 -271 -623q1 -170 105 -274
t274 -105q231 0 457 160q69 51 111 107t94 167l-619 -24l-125 -10q-32 0 -54 14t-22 33q0 35 48 35q26 1 50 -7t31 -8l62 4l612 25l45 4q59 0 60 -59q0 -23 -8 -33l-99 -176q-18 -30 -39 -96t-36 -91q-14 -24 -36 -24t-31 9q-17 17 19 122q-139 -103 -273 -153t-299 -50z
" />
    <glyph glyph-name="gcaron" unicode="&#x1e7;" horiz-adv-x="618" 
d="M612 1016q2 0 11 4l215 133q35 23 41 23t14 -14t8 -29q0 -16 -29 -33l-233 -154q-31 -18 -43 -18q-35 0 -53 55l-54 156l-6 16q0 8 19 21l2 2q16 10 24 10t19 -27l51 -131q4 -14 14 -14zM160 37q113 0 248 156q78 94 88 147l12 37q6 14 27 24q25 16 39 72t14 102
q0 107 -84 113t-186 -80t-175 -214q-72 -128 -71 -232q0 -125 88 -125zM164 -8q-70 0 -110 43t-40 117t46 185q46 112 120 208q150 199 314 198q76 0 116 -47t41 -124q0 -78 -15 -122t-15 -57l-7 -45l-49 -133l-76 -278q-59 -229 -178 -324q-100 -82 -201 -82t-165 66
q-63 66 -63 173t55 107q27 0 26 -20q0 -6 -9 -37t-9 -58q0 -82 49 -134t125 -52q106 0 198 106t121 265l45 258l-28 -31q-80 -90 -129 -123q-92 -59 -162 -59z" />
    <glyph glyph-name="Scommaaccent" unicode="&#x218;" horiz-adv-x="1155" 
d="M336 -424q0 4 12 16t17 21l178 215q37 45 46 45t31 -12t23 -21l-25 -33l-217 -245q-5 -10 -35 -10t-30 24zM317 1054q0 185 215 326q117 78 276 130q160 52 290 52t228 -75q98 -76 97 -186t-67 -263t-109 -153q-12 0 -22 12q-30 36 24 143l64 131q35 70 35 127
q0 84 -81 144t-203 59q-122 0 -266 -53t-263 -148q-145 -113 -146 -241q0 -96 96 -197q53 -57 281 -205l141 -92q121 -78 168 -134t47 -124q0 -123 -172 -216t-399 -93q-293 0 -416 152q-68 84 -67 165q0 45 27 87t53 42t26 -16t-20 -43q-43 -58 5 -153q27 -50 71 -91
t130 -69t181 -27q211 0 363 78t151 186q0 55 -43 105q-44 48 -146 114l-161 103q-213 133 -301 231q-87 98 -87 192z" />
    <glyph glyph-name="scommaaccent" unicode="&#x219;" horiz-adv-x="618" 
d="M547 80q1 -80 -241 -80q-122 0 -220 33q-96 33 -96 82q0 33 30 73t54 42q24 3 24 -15q0 -9 -22 -37t-21 -51q0 -33 79 -55q78 -22 210 -23q132 0 133 31q2 12 -24 39q-27 27 -62 47l-127 78q-100 59 -139 108t-39 115q0 125 182 219q251 125 365 11q53 -52 53 -133
t-48 -172t-91 -91q-23 1 -23 21t38 72t38 163q0 139 -111 139q-86 0 -198 -53q-139 -68 -139 -172q0 -51 34 -94t115 -94l141 -84q104 -63 105 -119zM135 -385q-29 0 -29 23q0 6 13 18l16 18l15 23l161 192q37 45 48 44t31 -11t24 -20l-25 -33l-217 -246q-8 -8 -37 -8z" />
    <glyph glyph-name="circumflex" unicode="&#x2c6;" horiz-adv-x="970" 
d="M507 938q-7 0 -15 12q-24 36 20 62l233 153q29 18 43 19q35 0 54 -56l53 -153l6 -19q0 -8 -18 -20q-29 -29 -45 14l-52 131q-6 20 -24 11l-215 -134q-33 -20 -40 -20z" />
    <glyph glyph-name="caron" unicode="&#x2c7;" horiz-adv-x="970" 
d="M608 1016q6 0 15 4l215 133q35 23 41 23t14 -14t8 -29q0 -16 -29 -33l-233 -154q-31 -18 -43 -18q-35 0 -53 55l-54 156l-6 16q0 8 19 21l2 2q16 10 24 10t19 -27l51 -131q4 -14 10 -14z" />
    <glyph glyph-name="uni02C9" unicode="&#x2c9;" horiz-adv-x="839" 
d="M233 1010h443q4 6 63 -11q7 -2 19 -20q12 -17 12 -29t-10 -21t-20 -9t-32 8q-20 8 -73 8h-387l-66 -4q-45 0 -80 19q-34 19 -34 39t11 32t23 12t58 -12t73 -12z" />
    <glyph glyph-name="breve" unicode="&#x2d8;" horiz-adv-x="970" 
d="M526 1128q12 0 20 -22t40 -66t72 -43q40 0 104 39q10 4 57 42t57 38t17 -13q8 -13 8 -26q0 -29 -105 -84q-106 -55 -162 -55t-116 92q-34 56 -34 66t18 20q12 12 24 12z" />
    <glyph glyph-name="dotaccent" unicode="&#x2d9;" horiz-adv-x="419" 
d="M227 1102q57 0 58 -78q0 -32 -32 -60q-31 -28 -57 -26t-42 25t-16 53t14 45q36 41 75 41z" />
    <glyph glyph-name="ring" unicode="&#x2da;" horiz-adv-x="434" 
d="M215 1161q-41 0 -73 -33q-32 -32 -32 -68q1 -70 54 -73q47 0 81 31t34 74q-1 69 -64 69zM47 1054q0 60 53 112q52 52 114 53q62 0 95 -32q33 -33 33 -91t-52 -112t-112 -54t-96 32q-35 32 -35 92z" />
    <glyph glyph-name="ogonek" unicode="&#x2db;" horiz-adv-x="448" 
d="M299 -232q1 -42 -95 -42q-44 0 -82 40t-38 104t111 136l96 -2q-92 -78 -110 -100q-17 -24 -17 -50t28 -41t61 -15q34 0 40 -5t6 -25z" />
    <glyph glyph-name="tilde" unicode="&#x2dc;" horiz-adv-x="598" 
d="M211 977q-39 0 -68 -21q-29 -20 -42 -20t-22 10t-9 23q0 19 43 45t86 26t94 -22t87 -21q36 -1 70 21t44 22q12 0 24 -14t10 -22v-9q4 -6 -45 -36q-49 -29 -103 -29t-94 22t-61 25h-14z" />
    <glyph glyph-name="hungarumlaut" unicode="&#x2dd;" horiz-adv-x="522" 
d="M461 1243q29 0 28 -20q1 -6 -28 -41l-164 -226q-23 -26 -46 -26t-23 26t28 64l141 186q7 4 21 20t43 17zM68 958q0 26 28 62l142 186q18 16 26 26t37 14q29 3 29 -21q0 -6 -29 -43l-164 -226q-18 -23 -53 -24q-16 0 -16 26z" />
    <glyph glyph-name="wdieresis" unicode="&#x1e85;" horiz-adv-x="835" 
d="M708 1079q51 0 60 -41q0 -2 4 -18l-4 -12q-5 -33 -30 -56q-46 -43 -94 -3q-24 19 -24 35t9 36l4 4q24 55 75 55zM459 1096q35 0 45 -29l8 -27q2 -18 3 -26t-16 -33q-33 -49 -83 -49q-12 0 -27 15t-22 52v5q-2 8 6 30t16 31q35 31 70 31zM748 758q43 0 43 -131
q0 -37 -13 -84q-49 -242 -104 -350q-84 -154 -178 -154q-123 0 -138 272q-104 -186 -165 -254t-121 -67q-66 0 -68 92q0 45 46 190q46 144 120 308t82 178q27 37 61 37q11 1 21 -9t10 -26t-18 -47q-106 -166 -178 -339t-80 -278q-2 -18 6 -32t20 -15q43 0 144 156
q100 156 127 268q16 68 55 68q33 0 33 -33q1 -12 -15 -98t-16 -140q0 -53 28 -114t58 -62q57 0 131 162q29 62 51 150t23 135l-19 168q0 18 12 34t27 15h15z" />
    <glyph glyph-name="figuredash" unicode="&#x2012;" horiz-adv-x="968" 
d="M322 543q-82 0 -82 43q0 16 16 29t35 12l67 -9l338 5l43 4q43 6 92 6q74 0 74 -49q0 -29 -26 -29l-80 2l-389 -6l-35 -4q-33 -4 -53 -4z" />
    <glyph glyph-name="endash" unicode="&#x2013;" horiz-adv-x="968" 
d="M322 543q-82 0 -82 43q0 16 16 29t35 12l67 -9l338 5l43 4q43 6 92 6q74 0 74 -49q0 -29 -26 -29l-80 2l-389 -6l-35 -4q-33 -4 -53 -4z" />
    <glyph glyph-name="emdash" unicode="&#x2014;" horiz-adv-x="1513" 
d="M68 522q0 20 20 25q41 23 90 22l942 -4l101 -2q43 -1 89 15t68 16t44 -15t22 -37t-37 -39t-79 -15t-132 4l-987 16q-33 0 -75 -16t-54 -3t-12 33z" />
    <glyph glyph-name="afii00208" unicode="&#x2015;" horiz-adv-x="1513" 
d="M68 522q0 20 20 25q41 23 90 22l942 -4l101 -2q43 -1 89 15t68 16t44 -15t22 -37t-37 -39t-79 -15t-132 4l-987 16q-33 0 -75 -16t-54 -3t-12 33z" />
    <glyph glyph-name="quoteleft" unicode="&#x2018;" horiz-adv-x="454" 
d="M118 1116q-11 -12 -44 -12t-33 24q0 14 20 41l76 103l37 57l98 125q72 90 113 90t41 -26q0 -18 -12 -31l-101 -96l-84 -103l-73 -100q-27 -60 -38 -72z" />
    <glyph glyph-name="quoteright" unicode="&#x2019;" horiz-adv-x="436" 
d="M398 1653q38 0 38 -33q0 -20 -8 -32t-52 -45q-44 -34 -91 -93l-58 -72q-64 -90 -81 -121q-17 -32 -29 -64q-13 -32 -35 -32q-48 0 -47 35q0 18 16 45l133 197l135 166q41 49 79 49z" />
    <glyph glyph-name="quotesinglbase" unicode="&#x201a;" horiz-adv-x="444" 
d="M318 37q9 0 32 -12t25 -21l-25 -35l-217 -245q-8 -8 -37 -8t-28 22q0 6 12 19t16 18l176 215q37 47 46 47z" />
    <glyph glyph-name="quotedblleft" unicode="&#x201c;" horiz-adv-x="604" 
d="M282 1079q-18 -1 -32 13t-14 36t40 86q40 66 107 140l98 112q18 23 58 23t41 -31q0 -16 -25 -39l-74 -63l-37 -37l-45 -57q-61 -74 -77 -140q-8 -27 -16 -35t-24 -8zM71 1079q-17 1 -31 13t-13 28q0 68 145 234l98 112q18 23 45 23q54 0 56 -33q0 -16 -25 -37l-76 -63
l-80 -94q-63 -78 -74 -122q-12 -44 -20 -53q-8 -8 -25 -8z" />
    <glyph glyph-name="quotedblright" unicode="&#x201d;" horiz-adv-x="598" 
d="M332 1448q16 0 30 -13t15 -28q0 -70 -146 -236l-98 -110q-16 -23 -58 -23t-42 31q0 14 24 39l76 63l35 37l45 56q63 78 75 123t19 53q9 8 25 8zM298 1038q-56 0 -56 34q0 15 24 36l76 63l35 37l47 56q62 78 74 123t19 53t25 8t30 -12q13 -12 14 -29q0 -70 -146 -236
l-98 -110q-18 -23 -44 -23z" />
    <glyph glyph-name="quotedblbase" unicode="&#x201e;" horiz-adv-x="591" 
d="M27 -396q0 16 24 36l76 63l35 37l45 55q63 77 75 123t19 54q9 8 25 8t30 -12t15 -29q0 -66 -146 -236l-98 -111q-18 -22 -59 -22t-41 34zM236 -396q0 16 24 36l76 63l82 92q62 77 74 123t19 54t25 8t30 -12q13 -12 14 -29q0 -72 -146 -234l-98 -113q-18 -22 -44 -22
q-56 2 -56 34z" />
    <glyph glyph-name="dagger" unicode="&#x2020;" horiz-adv-x="645" 
d="M82 -172v-21q0 -43 -49 -43t-49 33q0 10 12 39l14 62q8 38 29 96l356 915h-131l-65 -4q-43 1 -79 21t-36 38t12 31t24 13t55 -12q44 -12 75 -13h174l131 340q13 39 25 49t30 10t28 -9t9 -20q0 -11 -24 -87l-113 -283h182q95 -4 95 -47q-1 -43 -31 -43q-8 0 -30 8t-75 8
h-170l-368 -927q-11 -23 -21 -77t-10 -77z" />
    <glyph glyph-name="daggerdbl" unicode="&#x2021;" horiz-adv-x="692" 
d="M160 -193q0 -43 -49 -43t-50 31q0 14 13 39l14 64q6 35 18 63q6 23 11 33l63 160h-98l-66 -4q-46 0 -80 20t-34 40t11 30q11 12 23 12t52 -12q39 -12 80 -13h141l264 682h-131l-66 -4q-42 1 -78 21t-36 38t12 31t24 13t55 -12q44 -12 75 -13h174l131 340q14 39 25 49
q12 10 30 10t28 -9t9 -20q0 -11 -25 -87l-112 -283h182q95 -4 95 -47q-1 -43 -31 -43q-8 0 -30 8t-75 8h-170l-270 -682h221q29 6 63 -10q31 -12 31 -49q0 -10 -10 -20t-22 -11q-12 0 -32 8t-71 9h-211l-68 -172q-31 -82 -30 -154v-21z" />
    <glyph glyph-name="bullet" unicode="&#x2022;" horiz-adv-x="1128" 
d="M603 825q145 0 249 -103t104 -249t-102 -250t-250 -104t-251 102q-103 103 -103 249t104 251q105 104 249 104z" />
    <glyph glyph-name="ellipsis" unicode="&#x2026;" horiz-adv-x="905" 
d="M722 70q-26 0 -50 22q-23 22 -23 48q0 24 31 44q30 20 60 20t46 -12q31 -26 7 -61l-29 -41q-16 -20 -42 -20zM459 211q73 0 73 -57q0 -27 -30 -53q-30 -25 -61 -25q-32 0 -51 16t-19 47q-1 31 25 51t63 21zM68 125q0 27 30 55t63 29q32 0 51 -16t19 -44q-1 -28 -33 -55
q-32 -26 -62 -26t-49 15t-19 42z" />
    <glyph glyph-name="perthousand" unicode="&#x2030;" horiz-adv-x="1773" 
d="M1210 212q0 -66 43 -126q43 -59 99 -59q113 0 219 135t106 278q0 68 -30 115q-31 47 -73 50t-115 -36t-123 -88t-88 -126t-38 -143zM1567 670q70 0 121 -64t51 -149q0 -176 -122 -327t-271 -161q-80 -6 -143 67q-62 73 -62 171q-1 155 141 309t285 154zM588 212
q0 -68 42 -125q42 -58 97 -58q115 0 221 134t107 277q0 70 -32 116t-74 49q-43 3 -113 -35t-122 -87t-89 -126t-37 -145zM942 670q70 0 122 -64t52 -147q0 -176 -122 -327t-273 -161q-80 -6 -141 65t-62 171q0 155 140 309t284 154zM279 1050q0 -46 45 -77t116 -31
q145 0 217 39q15 8 21 57l6 31q6 29 6 55q0 86 -38 148t-84 61q-46 1 -96 -23t-81 -59q6 4 15 6q78 41 130 41q95 0 95 -41q0 -23 -25 -22l-61 8q-67 1 -153 -55t-100 -74t-13 -64zM197 1001q-4 0 -27 -45q-23 -44 -30 -68t-7 -88t46 -116q46 -53 118 -53q164 0 299 200
q39 58 45 93l-70 -19q-78 -18 -146 -18q-67 -1 -125 23t-75 55q-16 37 -22 36h-6zM240 55q0 29 43 97l342 530l219 326l-117 -56q-12 -4 -27 -41q-35 -92 -120 -184q-141 -152 -304 -152q-92 0 -150 68t-58 172q0 137 170 361q74 96 147 147q104 66 182 66t129 -70t52 -170
q0 -39 -11 -135q172 68 219 153q37 59 72 59t35 -32q0 -14 -6 -24t-41 -50l-649 -948q-33 -66 -33 -74l10 -37q0 -18 -22 -36q-22 -19 -42 -19q-18 0 -29 10t-11 39z" />
    <glyph glyph-name="guilsinglleft" unicode="&#x2039;" horiz-adv-x="382" 
d="M265 795q11 1 25 -15t15 -31q0 -15 -31 -40l-155 -138q-25 -25 10 -53l143 -129q27 -23 27 -35t-14 -31q-13 -19 -21 -19t-20 9l-176 150q-94 66 -37 133l186 166q37 33 48 33z" />
    <glyph glyph-name="guilsinglright" unicode="&#x203a;" horiz-adv-x="407" 
d="M256 548q0 7 -12 23l-158 138q-29 27 -29 42q-1 15 13 29t26 14t47 -32l187 -166q24 -18 24 -44t-10 -42q-10 -14 -49 -47l-178 -150q-7 -8 -17 -8q-10 -1 -24 19t-14 31t28 34l141 129q25 23 25 30z" />
    <glyph glyph-name="fraction" unicode="&#x2044;" horiz-adv-x="1171" 
d="M-160 2q-16 0 -30 10t-14 24t26 50l842 1022q134 162 156 192t31 60q9 29 18 39t29 10t38 -12t18 -27q1 -37 -116 -174l-899 -1063q-31 -43 -45 -87t-54 -44z" />
    <glyph glyph-name="lira" unicode="&#x20a4;" horiz-adv-x="1370" 
d="M254 356q-116 0 -117 -61q0 -71 79 -139t156 -68t120 86l45 90q-167 92 -283 92zM380 29q-116 0 -214 85t-98 187q0 55 46 89t140 34t309 -98l62 235q-92 -8 -156 -8t-145 25q-72 18 -72 67q0 29 31 46t77 17t48 -26q0 -16 -29 -31l-12 -8q5 -7 35 -21t92 -14t143 15
q7 27 27 91t30 101q154 524 422 524q88 1 138 -65t50 -178t-65 -254q-29 -66 -65 -66q-27 0 -27 28t29 52t48 90t19 142t-37 134q-38 60 -100 60t-138 -77t-133 -200q-56 -123 -114 -368l137 22q99 17 141 -6q41 -22 41 -51t-32 -29q-16 -1 -38 17t-66 18q-45 0 -208 -43
l-69 -260l-4 -12l59 -43q139 -104 213 -139q73 -35 135 -35t79 7t67 48q24 16 32 16t16 -8t9 -18q0 -37 -59 -66q-137 -67 -332 15q-35 16 -201 125l-45 30l-53 -100q-47 -96 -163 -96z" />
    <glyph glyph-name="Euro" unicode="&#x20ac;" horiz-adv-x="1167" 
d="M1159 453q39 0 39 -34q0 -15 -40 -53t-168 -142t-196 -142q-68 -39 -156 -62q-89 -23 -171 -22q-139 0 -240 57q-160 90 -159 353q0 106 22 202h-141q-55 0 -55 29q0 35 55 35h157q16 61 39 106h-194q-55 0 -55 29q0 35 55 35h221q25 59 91 176q67 117 126 199
q115 164 271 260t303 96q72 0 131 -37t88 -98q47 -111 47 -164v-16q-1 -12 19 -24t20 -24t-18 -38t-62 -195q-44 -170 -103 -266q-31 -53 -75 -54q-35 0 -35 40t15 80t89 202t74 254t-45 176q-53 106 -172 107q-180 0 -375 -186t-323 -486l419 4q55 0 56 -31q0 -33 -56 -33
l-446 -4q-25 -63 -35 -106l414 4q55 0 55 -32t-55 -32l-430 -4q-23 -106 -23 -196q0 -227 139 -310q84 -51 226 -51t272 80q82 49 185 134t143 135t57 49z" />
    <glyph glyph-name="trademark" unicode="&#x2122;" horiz-adv-x="1939" 
d="M1630 1315q43 0 43 -45t-43 -183l-112 -348l147 234q163 264 227 264q47 0 47 -51q0 -29 -20 -111l-78 -305q-16 -61 -16 -113q0 -86 45 -86l28 4q18 0 19 -18q0 -27 -45 -27q-92 0 -92 136q0 59 14 108l78 309q14 76 14 87t-6 12l-2 -2l-6 -4q-8 -2 -66 -78t-100 -142
l-133 -221q-41 -75 -59 -99t-35 -22q-37 4 -37 36t22 100l115 340q37 106 37 151l2 14v5q0 4 -3 4t-3 -2q-103 -75 -258 -312l-191 -280q-41 -72 -51 -84t-38 -12t-28 22q0 24 74 220q139 370 137 507q0 70 -36 112q-37 42 -97 42q-168 -1 -326 -145t-159 -296q0 -41 26 -82
q27 -42 71 -64t88 -29t192 -13q37 0 37 -20t-33 -21q-190 0 -318 55q-48 20 -80 68t-32 100q0 174 171 329t361 154q94 0 146 -61q37 -43 37 -126t-35 -208t-129 -393l174 250q162 219 196 256q76 84 119 84zM-174 1356q-88 0 -88 41q0 25 45 30l78 15h18q16 0 17 -15
q0 -14 -64 -34q10 -2 20 -2t121 10l676 65q16 2 49 2t64 -12t31 -31q0 -12 -22 -22q-21 -10 -49 -10t-32 30l-219 -10q8 -25 -37 -57l-248 -697l-10 -24l6 -41q0 -16 -11 -28t-28 -13q-31 0 -30 27q0 29 12 57l274 770l-430 -39q-119 -12 -143 -12z" />
    <glyph glyph-name="minus" unicode="&#x2212;" horiz-adv-x="839" 
d="M233 625h443q4 6 63 -11q11 -2 21 -18t10 -30t-10 -22q-10 -9 -20 -9t-32 8q-20 8 -73 8h-387l-66 -4q-43 0 -79 20q-59 33 -24 71q11 11 23 11t58 -12t73 -12z" />
    <glyph glyph-name="notequal" unicode="&#x2260;" horiz-adv-x="802" 
d="M55 606q1 20 13 32t22 11q10 0 55 -12t78 -12h275l26 26q18 15 46 67t55 52q37 0 37 -45q0 -20 -16 -52t-38 -48h56q94 0 94 -60q0 -12 -9 -21t-19 -9t-33 8q-22 8 -72 8h-97l-127 -127h261q4 2 30 -2t33 -8q31 -12 31 -49q0 -11 -10 -21t-22 -10q-11 0 -31 8t-72 8h-293
l-35 -35q-37 -37 -49 -61q-12 -33 -35 -33q-15 1 -27 17t-12 32t14 39t27 31l10 10l-26 -2q-12 -2 -41 -2t-65 20t-36 40q-1 20 11 31t24 11t56 -12t75 -12h76l129 127h-188l-66 -4q-43 0 -79 20q-36 19 -36 39z" />
    <glyph glyph-name="lessequal" unicode="&#x2264;" horiz-adv-x="704" 
d="M645 188q0 -16 -10 -27q-9 -11 -19 -11t-22 4l-522 264q-27 12 -27 35t27 34l522 250q8 4 14 4h2q35 0 35 -34q0 -23 -20 -31l-469 -223l469 -238q20 -11 20 -27zM84 76h524q37 0 37 -34t-37 -34h-524q-35 0 -35 34t35 34z" />
    <glyph glyph-name="greaterequal" unicode="&#x2265;" horiz-adv-x="704" 
d="M80 741h4q4 0 12 -4l522 -250q33 -14 27 -45q0 -12 -27 -24l-522 -264q-12 -4 -21 -4t-20 11q-10 11 -10 26t21 28l469 238l-469 223q-20 10 -20 28t9 27q10 10 25 10zM606 8h-524q-37 0 -37 34t37 34h524q37 0 37 -34t-37 -34z" />
    <glyph glyph-name="uniEA3F" unicode="&#xea3f;" horiz-adv-x="575" 
d="M92 1112q-29 0 -29 23q0 7 29 36l176 215q37 47 47 48q8 0 31 -12t25 -21l-25 -35l-217 -246q-8 -8 -37 -8z" />
    <glyph glyph-name="uniEA67" unicode="&#xea67;" horiz-adv-x="622" 
d="M97 1303q-30 0 -29 22q0 6 12 16t41 54l151 182q37 45 47 45q42 -6 56 -33l-25 -33l-217 -245q-6 -8 -36 -8z" />
    <glyph glyph-name="uniEA68" unicode="&#xea68;" horiz-adv-x="647" 
d="M455 1876q55 0 55 -59q0 -27 -27 -59t-51 -32t-48 20t-24 38t19 51q21 41 76 41zM227 1892q57 0 58 -75q0 -43 -49 -74q-16 -12 -41 -12q-25 1 -41 23t-16 52t26 58q28 28 63 28z" />
    <glyph glyph-name="uniEA6A" unicode="&#xea6a;" horiz-adv-x="647" 
d="M457 1053q23 -1 38 -17t15 -44t-26 -58t-52 -31t-50 19q-22 20 -22 38t21 56q21 37 76 37zM227 1069q57 0 58 -78q0 -31 -31 -59q-32 -28 -58 -27q-26 0 -42 24q-35 53 -2 101q38 39 75 39z" />
    <glyph glyph-name="commaaccent" unicode="&#xf6c3;" horiz-adv-x="444" 
d="M97 -473q-30 0 -29 22q0 6 12 19q9 4 41 51l151 182q37 45 47 45q41 -6 56 -32l-25 -33l-217 -246q-6 -8 -36 -8z" />
    <glyph glyph-name="Acute" unicode="&#xf6c9;" horiz-adv-x="522" 
d="M88 1749q-20 0 -20 28t28 62l142 184l24 25q12 14 40 14t28 -20q0 -6 -29 -41l-164 -225q-23 -27 -49 -27z" />
    <glyph glyph-name="Caron" unicode="&#xf6ca;" horiz-adv-x="970" 
d="M901 1946q0 -16 -29 -33l-233 -154q-25 -18 -44 -18t-31 11q-11 11 -21 44l-60 172q0 10 19 19l2 4q16 10 24 10t19 -27l51 -131q2 -14 12 -14l13 2l215 135q33 20 40 20t15 -12t8 -28z" />
    <glyph glyph-name="Dieresis" unicode="&#xf6cb;" horiz-adv-x="782" 
d="M516 1743q-24 0 -48 19q-22 20 -22 38t21 55t62 37t50 -10t13 -32t-2 -45q-6 -22 -28 -42t-46 -20zM281 1909q57 0 57 -78q0 -31 -31 -59t-57 -27q-26 0 -43 23q-35 53 -2 102q39 39 76 39z" />
    <glyph glyph-name="Grave" unicode="&#xf6ce;" horiz-adv-x="522" 
d="M328 1758q0 -26 -17 -25q-35 0 -53 24l-164 225q-29 35 -28 43q0 21 26 21t41 -14q5 -9 25 -25l141 -184q29 -39 29 -65z" />
    <glyph glyph-name="Hungarumlaut" unicode="&#xf6cf;" horiz-adv-x="522" 
d="M461 1987l-164 -226q-12 -14 -18 -17t-35 -7q-16 1 -16 27t28 61l141 186q19 17 27 27t37 13t28 -21q1 -8 -28 -43zM68 1762q0 26 28 65l142 184q18 15 26 27t37 12t29 -20q0 -6 -29 -43l-164 -224q-20 -27 -49 -26q-20 -1 -20 25z" />
    </font>
</defs>
</svg>
